<svg width="20" height="20" viewBox="0 0 20 20" fill="none" xmlns="http://www.w3.org/2000/svg">
<g clip-path="url(#clip0_3486_1312)">
<path fill-rule="evenodd" clip-rule="evenodd" d="M12.7083 18.7765H0.994462C0.141597 18.7114 -0.0634807 18.0978 0.0146443 17.3898C0.481767 13.2166 5.16276 14.4243 7.04427 12.73C7.98177 15.4904 11.9027 15.5929 12.7832 12.73C13.3008 13.1971 14.3262 13.4754 15.363 13.7196C15.415 13.7326 15.4687 13.744 15.5257 13.757C14.2611 14.5301 13.2666 15.7231 12.8695 17.118C12.7067 17.6909 12.6562 18.2492 12.7083 18.7765ZM17.8239 14.4617L18.9697 15.3455C19.1211 15.4627 19.1488 15.6808 19.0332 15.8322L18.7353 16.2049L17.0394 14.8963L17.3372 14.5236C17.4528 14.3739 17.6725 14.3462 17.8239 14.4617ZM16.5885 19.1199C16.1979 19.299 15.8089 19.4764 15.4183 19.6538C14.5019 20.0721 14.5312 20.269 14.6728 19.3153L14.8958 17.8146L14.8942 17.813L16.7725 15.23L18.4684 16.5386L16.5885 19.1216V19.1199ZM15.1855 18.0376L16.2988 18.897C16.0417 19.0142 15.7861 19.1313 15.5306 19.2469C14.9284 19.5203 14.9479 19.6505 15.0407 19.0239L15.1855 18.0376ZM7.01985 9.96142C7.3763 10.5262 7.74902 11.104 8.21126 11.5288C8.65722 11.9357 9.19759 12.2124 9.91211 12.214C10.6868 12.2157 11.2516 11.9292 11.7122 11.4995C12.1908 11.0519 12.5667 10.4383 12.9394 9.82633L13.9388 8.17919C14.1243 7.75276 14.1927 7.46956 14.1504 7.30191C14.1243 7.20263 14.0153 7.1538 13.8281 7.14566C13.7891 7.14404 13.7484 7.14404 13.7077 7.14404C13.6637 7.14566 13.6165 7.14892 13.5677 7.15217C13.54 7.1538 13.5156 7.15217 13.4912 7.14729C13.4033 7.15217 13.3105 7.14566 13.2178 7.13264L13.5596 5.61734C11.0189 6.01773 9.11946 4.13134 6.43554 5.23974L6.62923 7.02522C6.52343 7.03173 6.41927 7.02685 6.32487 7.01383C4.78352 7.06428 6.71549 9.47802 7.01985 9.96142ZM14.1732 6.69156C14.4189 6.76643 14.5768 6.92268 14.6419 7.17496C14.7135 7.45491 14.6354 7.84879 14.3978 8.38753C14.3929 8.39729 14.3896 8.40706 14.3831 8.41682L13.3724 10.0819C12.9818 10.7231 12.5879 11.3677 12.0589 11.8608C11.512 12.3735 10.8382 12.7137 9.91699 12.7104C9.05761 12.7088 8.4082 12.38 7.8776 11.8934C7.23632 11.3042 4.27734 7.60139 5.59895 6.70947C5.66406 6.66715 5.73567 6.62971 5.8138 6.60042C5.7552 5.83544 5.73567 4.87027 5.77148 4.06298C5.79101 3.87255 5.82845 3.6805 5.88053 3.48844C6.10677 2.67789 6.67643 2.02522 7.37955 1.57763C7.76855 1.33023 8.19336 1.14306 8.63606 1.01936C8.91764 0.93961 8.39681 0.0379173 8.68652 0.010248C10.0944 -0.134609 12.3747 1.1512 13.3577 2.21565C13.8493 2.74788 14.1602 3.45589 14.2269 4.39013L14.1732 6.69156Z" fill="#3F37C9"/>
</g>
<defs>
<clipPath id="clip0_3486_1312">
<rect width="19.1032" height="20" fill="white"/>
</clipPath>
</defs>
</svg>
