<svg width="16" height="16" viewBox="0 0 16 16" fill="none" xmlns="http://www.w3.org/2000/svg">
<g clip-path="url(#clip0_3486_1303)">
<path fill-rule="evenodd" clip-rule="evenodd" d="M8 0C12.4174 0 16 3.58255 16 8C16 12.4174 12.4174 15.9999 8 15.9999C3.58242 16 0 12.4174 0 8C0 3.58255 3.58242 0 8 0ZM12.8262 4.82409L4.82435 12.8259C5.73568 13.4271 6.82682 13.7773 8 13.7773C11.1901 13.7773 13.7772 11.1902 13.7772 8.00013C13.7772 6.82695 13.427 5.73568 12.8262 4.82409ZM3.17422 11.1757L11.1759 3.17383C10.2648 2.57292 9.17318 2.22279 8 2.22279C4.8099 2.22279 2.22279 4.81003 2.22279 8C2.22292 9.17305 2.57305 10.2643 3.17422 11.1757Z" fill="#CC4230"/>
</g>
<defs>
<clipPath id="clip0_3486_1303">
<rect width="16" height="16" fill="white"/>
</clipPath>
</defs>
</svg>
