<svg width="17" height="17" viewBox="0 0 17 17" fill="none" xmlns="http://www.w3.org/2000/svg">
<g clip-path="url(#clip0_2010_206)">
<path fill-rule="evenodd" clip-rule="evenodd" d="M16.2642 8.85816C16.3008 8.76973 16.3211 8.67276 16.3211 8.57107C16.3211 8.36477 16.2378 8.17793 16.103 8.04233C16.1025 8.0418 16.1019 8.04127 16.1014 8.04074L9.03035 0.96967C8.73746 0.676777 8.26258 0.676777 7.96969 0.96967C7.6768 1.26256 7.6768 1.73744 7.96969 2.03033L13.7604 7.82107H1.42895C1.01474 7.82107 0.678955 8.15686 0.678955 8.57107C0.678956 8.98528 1.01474 9.32107 1.42895 9.32107H13.7604L7.96969 15.1118C7.6768 15.4047 7.6768 15.8796 7.96969 16.1725C8.26258 16.4654 8.73746 16.4654 9.03035 16.1725L16.1014 9.1014C16.1733 9.02949 16.2276 8.94662 16.2642 8.85816Z" fill="#04A9DD"/>
</g>
<defs>
<clipPath id="clip0_2010_206">
<rect width="17" height="17" fill="white"/>
</clipPath>
</defs>
</svg>
