<svg width="17" height="17" viewBox="0 0 17 17" fill="none" xmlns="http://www.w3.org/2000/svg">
<path d="M1.66121 10.8163L3.07788 13.2671C3.17193 13.4297 3.32669 13.5483 3.50814 13.5967C3.68958 13.6452 3.88286 13.6197 4.04546 13.5257L5.03429 12.9548C5.44512 13.2785 5.89917 13.5441 6.37658 13.7424V14.8743C6.37658 15.0622 6.45121 15.2424 6.58405 15.3752C6.71689 15.5081 6.89706 15.5827 7.08492 15.5827H9.91825C10.1061 15.5827 10.2863 15.5081 10.4191 15.3752C10.552 15.2424 10.6266 15.0622 10.6266 14.8743V13.7424C11.1077 13.5421 11.5593 13.2771 11.9689 12.9548L12.9577 13.5257C13.2956 13.7205 13.7305 13.6036 13.9253 13.2671L15.342 10.8163C15.4352 10.6535 15.4603 10.4605 15.4119 10.2793C15.3635 10.0981 15.2454 9.94331 15.0834 9.84872L14.1116 9.28702C14.1875 8.76462 14.187 8.23395 14.1102 7.71168L15.082 7.14997C15.4192 6.95518 15.536 6.51956 15.3405 6.18239L13.9239 3.73156C13.8298 3.56899 13.6751 3.45043 13.4936 3.40195C13.3122 3.35347 13.1189 3.37903 12.9563 3.47302L11.9675 4.04393C11.5584 3.7212 11.107 3.45617 10.6259 3.25627V2.12435C10.6259 1.93649 10.5512 1.75632 10.4184 1.62348C10.2856 1.49064 10.1054 1.41602 9.91754 1.41602H7.08421C6.89635 1.41602 6.71618 1.49064 6.58334 1.62348C6.4505 1.75632 6.37587 1.93649 6.37587 2.12435V3.25627C5.89472 3.45659 5.44313 3.72159 5.03358 4.04393L4.04546 3.47302C3.96497 3.42638 3.87608 3.39608 3.78386 3.38384C3.69165 3.3716 3.59793 3.37765 3.50806 3.40167C3.41819 3.42568 3.33394 3.46718 3.26012 3.52378C3.18631 3.58039 3.12438 3.65099 3.07788 3.73156L1.66121 6.18239C1.56798 6.34517 1.54285 6.53819 1.59127 6.71941C1.63969 6.90064 1.75776 7.05539 1.91975 7.14997L2.89158 7.71168C2.81518 8.23401 2.81518 8.76468 2.89158 9.28702L1.91975 9.84872C1.58258 10.0435 1.46571 10.4791 1.66121 10.8163ZM8.50087 5.66602C10.0635 5.66602 11.3342 6.93677 11.3342 8.49935C11.3342 10.0619 10.0635 11.3327 8.50087 11.3327C6.93829 11.3327 5.66754 10.0619 5.66754 8.49935C5.66754 6.93677 6.93829 5.66602 8.50087 5.66602Z" fill="white"/>
</svg>
