<?xml version="1.0" standalone="no"?>
<!DOCTYPE svg PUBLIC "-//W3C//DTD SVG 1.1//EN" "http://www.w3.org/Graphics/SVG/1.1/DTD/svg11.dtd" >
<svg xmlns="http://www.w3.org/2000/svg" xmlns:xlink="http://www.w3.org/1999/xlink" version="1.1">
<metadata>
Created by FontForge 20201107 at Wed Jul  9 19:35:53 2014
 By 
Copyright (c) 1998 ParaType Inc., ParaType Ltd. All rights reserved.
</metadata>
<defs>
<font id="DINCondensed-Light" horiz-adv-x="410" >
  <font-face 
    font-family="DIN Condensed Light"
    font-weight="400"
    font-stretch="condensed"
    units-per-em="1000"
    panose-1="2 11 5 6 4 0 0 2 2 4"
    ascent="770"
    descent="-230"
    x-height="496"
    cap-height="700"
    bbox="-263 -226 820 904"
    underline-thickness="50"
    underline-position="-150"
    unicode-range="U+000D-FEFF"
  />
<missing-glyph horiz-adv-x="500" 
d="M442 8v496h-384v-496h384zM50 512h400v-512h-400v512z" />
    <glyph glyph-name="ij" unicode="ij" horiz-adv-x="401" 
d="M62 496h75v-496h-75v496zM137 686v-73h-75v73h75zM339 -63q0 -69 -31 -105t-99 -36h-20v73h5q26 0 40 9.5t21 22t8 25.5t1 19v551h75v-559zM339 686v-73h-75v73h75z" />
    <glyph glyph-name="afii10017.var.accented" unicode="&#x410;`" horiz-adv-x="443" 
d="M335 0l-35 156h-158l-34 -156h-73l152 700h68l153 -700h-73zM219 550l-67 -330h137zM246 764h-50l59 116h101z" />
    <glyph glyph-name="afii10022.var.accented" unicode="&#x415;`" horiz-adv-x="382" 
d="M68 700h281v-69h-206v-244h182v-65h-182v-253h209v-69h-284v700zM218 764h-50l59 116h101z" />
    <glyph glyph-name="afii10026.var.accented" unicode="&#x418;`" horiz-adv-x="484" 
d="M416 700v-700h-75v511l-198 -511h-75v700h75v-521l198 521h75zM255 764h-50l59 116h101z" />
    <glyph glyph-name="afii10032.var.accented" unicode="&#x41e;`" horiz-adv-x="462" 
d="M63 523q0 19 1.5 38.5t6.5 37.5t15 35.5t27 33.5q44 42 118 42t118 -42q34 -32 42 -69t8 -76v-346q0 -39 -8 -76t-42 -69q-44 -42 -118 -42t-118 42q-17 16 -27 33.5t-15 35.5t-6.5 37t-1.5 39v346zM324 539q0 19 -4 37.5t-22 35.5q-11 11 -27.5 18t-39.5 7t-39.5 -7
t-27.5 -18q-18 -17 -22 -35.5t-4 -37.5v-378q0 -19 4 -37.5t22 -36.5q11 -10 27.5 -17t39.5 -7t39.5 7t27.5 17q18 18 22 36.5t4 37.5v378zM255 764h-50l59 116h101z" />
    <glyph glyph-name="afii10037.var.accented" unicode="&#x423;`" horiz-adv-x="399" 
d="M103 700l111 -371h3q7 28 15.5 68t18.5 80l54 223h76l-128 -515q-6 -25 -13 -50t-16 -47t-21.5 -40t-28.5 -28q-20 -12 -42 -16t-41 -4h-23v70h16q18 0 31.5 6t23.5 16q8 8 15 23.5t9 27.5l15 65l-160 492h85zM218 764h-50l59 116h101z" />
    <glyph glyph-name="afii10045.var.accented" unicode="&#x42b;`" horiz-adv-x="617" 
d="M549 700v-700h-75v700h75zM68 0v700h75v-294h65q15 0 32 -0.5t35 -4.5t35.5 -11.5t32.5 -20.5q15 -14 23 -29.5t12 -30.5t4.5 -28.5t0.5 -22.5v-86q0 -24 -5 -52.5t-23 -56.5q-7 -10 -19 -21t-30.5 -20.5t-44 -15.5t-58.5 -6h-135zM143 65h70q11 0 27 3t31 14.5t26 34
t11 61.5v60q0 45 -21 74t-74 29h-70v-276zM322 764h-50l59 116h101z" />
    <glyph glyph-name="afii10047.var.accented" unicode="&#x42d;`" horiz-adv-x="427" 
d="M121 522h-75v33q0 45 13 75t35 48t51 25t62 7q77 0 117 -37.5t40 -114.5v-414q0 -20 -5.5 -46.5t-23 -50.5t-49.5 -40.5t-85 -16.5q-87 0 -121.5 40t-34.5 116v27h75v-19q0 -31 7 -49t18.5 -27.5t26 -12t29.5 -2.5q26 0 43 8t27 20.5t14 29t4 33.5v179h-130v65h130v133
q0 18 -2.5 37t-11 34t-25.5 25t-47 10q-27 0 -43 -10t-25 -24t-11.5 -29t-2.5 -25v-27zM222 764h-50l59 116h101z" />
    <glyph glyph-name="afii10048.var.accented" unicode="&#x42e;`" horiz-adv-x="649" 
d="M250 322h-107v-322h-75v700h75v-313h107v136q0 19 1.5 38.5t6.5 37.5t15 35.5t27 33.5q44 42 118 42t118 -42q34 -32 42 -69t8 -76v-346q0 -39 -8 -76t-42 -69q-44 -42 -118 -42t-118 42q-17 16 -27 33.5t-15 35.5t-6.5 37t-1.5 39v145zM511 539q0 19 -4 37.5t-22 35.5
q-11 11 -27.5 18t-39.5 7t-39.5 -7t-27.5 -18q-18 -17 -22 -35.5t-4 -37.5v-378q0 -19 4 -37.5t22 -36.5q11 -10 27.5 -17t39.5 -7t39.5 7t27.5 17q18 18 22 36.5t4 37.5v378zM273 764h-50l59 116h101z" />
    <glyph glyph-name="afii10049.var.accented" unicode="&#x42f;`" horiz-adv-x="444" 
d="M376 700v-700h-75v315h-89l-97 -315h-80l105 328q-48 17 -66 55t-18 96v55q0 58 17.5 91.5t44 50t58 20.5t60.5 4h140zM301 635h-70q-14 0 -31.5 -2.5t-32.5 -12t-25.5 -28t-10.5 -51.5v-70q0 -47 26.5 -69t70.5 -22h73v255zM265 764h-50l59 116h101z" />
    <glyph glyph-name="afii10023.var.accented" unicode="&#x401;`" horiz-adv-x="382" 
d="M68 700h281v-69h-206v-244h182v-65h-182v-253h209v-69h-284v700zM133 779h-67v70h67v-70zM285 849h66v-70h-66v70zM195 757h-39l46 122h78z" />
    <glyph glyph-name="afii10065.var.accented" unicode="&#x430;`" horiz-adv-x="405" 
d="M268 49h-1q-9 -11 -19 -21t-23 -18t-29.5 -13t-40.5 -5q-30 0 -49.5 10.5t-31 29.5t-16.5 44t-5 55q0 39 7 69.5t24 51.5t44.5 32t69.5 11q8 0 23 -0.5t47 -3.5v73q0 10 -4 22t-12.5 22t-21.5 16.5t-32 6.5q-10 0 -20.5 -2.5t-20 -9.5t-17 -19t-10.5 -30h-72
q0 31 11.5 56t31 42.5t46 26.5t56.5 9q43 0 70.5 -14.5t43 -36t21 -48t5.5 -50.5v-355h-75v49zM268 236q-16 2 -29 3.5t-22 1.5q-16 0 -32 -4.5t-28.5 -16t-20.5 -30t-8 -45.5q0 -53 16 -71t48 -18q12 0 25 7t24.5 20t19 29.5t7.5 36.5v87zM217 578h-39l46 122h81z" />
    <glyph glyph-name="afii10070.var.accented" unicode="&#x435;`" horiz-adv-x="397" 
d="M266 139h75v-7q0 -18 -5.5 -42.5t-20.5 -46t-42 -36.5t-70 -15q-47 0 -75 16.5t-44 39.5t-21 47.5t-5 40.5v230q0 15 5 38t20 45.5t42.5 38.5t72.5 16q44 0 72.5 -16t44.5 -38.5t22 -47t6 -40.5v-142h-210v-79q0 -40 17.5 -58t52.5 -18q33 0 48 18.5t15 49.5v6zM268 276
v85q0 12 -3 24.5t-11 22.5t-21 16.5t-32 6.5q-20 0 -33 -7t-21 -18t-11 -24t-3 -25v-81h135zM212 578h-39l46 122h81z" />
    <glyph glyph-name="afii10074.var.accented" unicode="&#x438;`" horiz-adv-x="431" 
d="M137 496v-329l157 268v61h75v-496h-75v320l-157 -268v-52h-75v496h75zM229 578h-39l46 122h81z" />
    <glyph glyph-name="afii10080.var.accented" unicode="&#x43e;`" horiz-adv-x="402" 
d="M58 364q0 14 5 37.5t20.5 46.5t43.5 39.5t74 16.5t74 -16.5t43.5 -39.5t20.5 -46.5t5 -36.5v-231q0 -15 -5 -39t-20.5 -47t-43.5 -39.5t-74 -16.5t-74 16.5t-43.5 39.5t-20.5 47t-5 39v230zM269 350q0 42 -20 61.5t-48 19.5t-48 -19.5t-20 -61.5v-204q0 -39 17.5 -60
t50.5 -21q32 0 50 20t18 61v204zM214 578h-39l46 122h81z" />
    <glyph glyph-name="afii10085.var.accented" unicode="&#x443;`" horiz-adv-x="368" 
d="M207 -88q-8 -32 -19 -54.5t-26.5 -36t-37 -19.5t-50.5 -6h-17v68h14q35 0 50 20t26 64l14 59l-146 489h79l100 -361h2l76 361h76zM191 578h-39l46 122h81z" />
    <glyph glyph-name="afii10093.var.accented" unicode="&#x44b;`" horiz-adv-x="557" 
d="M420 496h75v-496h-75v496zM137 496v-198h67q21 0 45.5 -3.5t45.5 -15.5t35 -35t14 -62v-60q0 -66 -38.5 -94t-101.5 -28h-142v496h75zM137 63h61q12 0 24.5 3t23 10.5t17 20t6.5 31.5v41q0 37 -22.5 51.5t-48.5 14.5h-61v-172zM288 578h-39l46 122h81z" />
    <glyph glyph-name="afii10095.var.accented" unicode="&#x44d;`" horiz-adv-x="385" 
d="M113 140q0 -41 17 -58t50 -17q35 0 53.5 20.5t18.5 60.5v73h-110v64h110v67q0 42 -21 61.5t-50 19.5t-48 -19t-19 -61v-7h-75v21q0 18 5.5 41.5t21 45.5t43.5 37t72 15q46 0 75 -16.5t44.5 -39.5t21 -47.5t5.5 -39.5v-225q0 -16 -5.5 -40.5t-21.5 -47.5t-45 -39.5
t-75 -16.5q-43 0 -70.5 14.5t-43.5 35.5t-22 45.5t-6 44.5v19h75v-11zM193 578h-39l46 122h81z" />
    <glyph glyph-name="afii10096.var.accented" unicode="&#x44e;`" horiz-adv-x="567" 
d="M224 220h-87v-220h-75v496h75v-212h87v80q0 14 5 37.5t20 46.5t43 39.5t74 16.5t74 -16.5t43.5 -39.5t20.5 -46.5t5 -36.5v-231q0 -15 -5 -39t-20.5 -47t-43.5 -39.5t-74 -16.5t-74 16.5t-43 39.5t-20 47t-5 39v86zM434 350q0 42 -20 61.5t-48 19.5t-48 -19.5t-20 -61.5
v-204q0 -39 17.5 -60t50.5 -21q32 0 50 20t18 61v204zM245 578h-39l46 122h81z" />
    <glyph glyph-name="afii10097.var.accented" unicode="&#x44f;`" horiz-adv-x="399" 
d="M262 0v216h-69l-74 -216h-80l80 224q-38 17 -51.5 43.5t-13.5 64.5v48q0 39 14 62t35 35t45.5 15.5t44.5 3.5h144v-496h-75zM262 441h-63q-27 0 -48.5 -17t-21.5 -58v-27q0 -37 20.5 -53t49.5 -16h63v171zM217 578h-39l46 122h81z" />
    <glyph glyph-name="afii10071.var.accented" unicode="&#x451;`" horiz-adv-x="397" 
d="M266 139h75v-7q0 -18 -5.5 -42.5t-20.5 -46t-42 -36.5t-70 -15q-47 0 -75 16.5t-44 39.5t-21 47.5t-5 40.5v230q0 15 5 38t20 45.5t42.5 38.5t72.5 16q44 0 72.5 -16t44.5 -38.5t22 -47t6 -40.5v-142h-210v-79q0 -40 17.5 -58t52.5 -18q33 0 48 18.5t15 49.5v6zM268 276
v85q0 12 -3 24.5t-11 22.5t-21 16.5t-32 6.5q-20 0 -33 -7t-21 -18t-11 -24t-3 -25v-81h135zM164 599h-77v77h77v-77zM233 676h77v-77h-77v77zM214 701h-39l46 122h81z" />
    <glyph glyph-name="fi" unicode="fi" horiz-adv-x="452" 
d="M86 436h-54v60h54v75q0 27 5.5 51t20.5 41t41.5 27t68.5 10h23v-65h-21q-29 0 -46.5 -16t-17.5 -52v-71h84v-60h-83v-436h-75v436zM315 496h75v-496h-75v496zM390 686v-73h-75v73h75z" />
    <glyph glyph-name="fl" unicode="fl" horiz-adv-x="480" 
d="M86 436h-54v60h54v75q0 27 5.5 51t20.5 41t41.5 27t68.5 10h23v-65h-21q-29 0 -46.5 -16t-17.5 -52v-71h84v-60h-83v-436h-75v436zM390 700v-576q0 -8 2 -17.5t8 -17.5t17 -14t28 -6h11v-69h-23q-57 0 -87.5 30.5t-30.5 79.5v590h75z" />
    <glyph glyph-name=".notdef" horiz-adv-x="500" 
d="M442 8v496h-384v-496h384zM50 512h400v-512h-400v512z" />
    <glyph glyph-name=".null" horiz-adv-x="0" 
 />
    <glyph glyph-name=".null" horiz-adv-x="0" 
 />
    <glyph glyph-name="uni000D" unicode="&#xd;" horiz-adv-x="233" 
 />
    <glyph glyph-name="space" unicode=" " horiz-adv-x="233" 
 />
    <glyph glyph-name="exclam" unicode="!" horiz-adv-x="203" 
d="M148 700l-22 -518h-54l-17 518h93zM142 85v-85h-85v85h85z" />
    <glyph glyph-name="quotedbl" unicode="&#x22;" horiz-adv-x="320" 
d="M129 686l-19 -237h-34l-21 237h74zM265 686l-19 -237h-34l-21 237h74z" />
    <glyph glyph-name="numbersign" unicode="#" 
d="M193 700l-29 -214h120l29 214h54l-29 -214h60v-45h-66l-26 -179h60v-46h-67l-30 -216h-53l29 216h-119l-31 -216h-52l28 216h-59v46h66l26 179h-60v45h66l31 214h52zM278 441h-119l-26 -179h119z" />
    <glyph glyph-name="dollar" unicode="$" 
d="M294 522q0 14 -3.5 35.5t-17.5 40.5q-7 8 -17.5 15t-26.5 11v-231l27 -9q22 -8 47 -21.5t42 -37.5q19 -26 23.5 -54.5t4.5 -61.5v-15q0 -52 -13 -89.5t-33 -60.5q-16 -17 -41 -28t-57 -14v-82h-42v80q-46 3 -75.5 18.5t-44.5 36.5q-11 15 -17 33.5t-9 36t-3.5 30.5
t-0.5 16v25h75v-20q0 -14 3.5 -35.5t16.5 -38.5q12 -15 27 -21t28 -8v262l-42 15q-26 9 -49.5 25.5t-37.5 49.5q-10 23 -12 48t-2 51v11q0 42 14 73.5t36 51.5q19 19 42.5 28.5t50.5 11.5v80h42v-80q63 -6 101.5 -51t38.5 -123v-24h-75v20zM278 285q-11 14 -24.5 22
t-24.5 13v-245q20 5 31 13t18 16q14 18 17 40.5t3 40.5v17q0 20 -3.5 43.5t-16.5 39.5zM137 445q9 -14 23 -22.5t27 -13.5v216q-11 -2 -21.5 -6.5t-20.5 -14.5q-18 -19 -22 -42t-4 -43q0 -16 2.5 -35t15.5 -39z" />
    <glyph glyph-name="percent" unicode="%" horiz-adv-x="600" 
d="M247 431q0 -21 -5 -39.5t-21 -33.5q-16 -14 -34.5 -18.5t-35.5 -4.5t-35.5 4t-34.5 19q-15 14 -20.5 33t-5.5 40v173q0 21 5.5 40t20.5 33q16 15 34.5 19t35.5 4t35.5 -4.5t34.5 -18.5t21 -32.5t5 -40.5v-173zM107 430q0 -6 1 -16.5t9 -18.5q5 -5 15.5 -9t18.5 -4t18 4
t16 9q8 10 9 19.5t1 15.5v175q0 5 -1 14.5t-9 19.5q-7 6 -16.5 10t-17.5 4t-18 -4t-16 -10q-8 -9 -9 -19t-1 -15v-175zM466 700l-288 -700h-48l288 700h48zM545 96q0 -21 -5.5 -40t-20.5 -33q-16 -15 -34.5 -19t-35.5 -4t-35.5 4.5t-34.5 18.5q-16 15 -21 33.5t-5 39.5v173
q0 21 5 39.5t21 33.5q16 14 34.5 18.5t35.5 4.5t35.5 -4.5t34.5 -18.5q15 -14 20.5 -32.5t5.5 -40.5v-173zM405 95q0 -6 1 -16.5t8 -18.5q6 -5 16 -9t19 -4q8 0 18 4t15 9q8 10 9 19.5t1 15.5v175q0 5 -1 14.5t-9 19.5q-6 6 -15.5 10t-17.5 4t-18 -4t-17 -10q-7 -9 -8 -18.5
t-1 -15.5v-175z" />
    <glyph glyph-name="ampersand" unicode="&#x26;" horiz-adv-x="488" 
d="M476 255q-12 -42 -31.5 -79t-36.5 -58l75 -118h-75l-41 66q-39 -42 -79.5 -59t-91.5 -17q-38 0 -68.5 13t-52.5 35.5t-33.5 52.5t-11.5 64q0 68 31.5 119t95.5 101q-16 25 -30.5 46t-25.5 42.5t-17.5 47t-6.5 60.5q0 34 12.5 60.5t33 43.5t47 26t55.5 9q67 0 108 -33
t41 -95q0 -33 -10.5 -61t-28.5 -52.5t-42 -47t-51 -45.5l129 -207q14 19 25.5 44.5t21.5 56.5zM196 323q-24 -19 -41.5 -36.5t-28.5 -36t-16 -39t-5 -44.5q0 -50 28.5 -80.5t82.5 -30.5q29 0 60 14.5t51 40.5zM212 421q16 14 32.5 31t29.5 36.5t21 41.5t8 47q0 24 -7.5 39
t-18.5 24t-25 12t-26 3q-27 0 -43 -10t-23.5 -23.5t-9.5 -27.5t-2 -22q0 -40 13.5 -67t28.5 -50z" />
    <glyph glyph-name="quotesingle" unicode="'" horiz-adv-x="214" 
d="M144 686l-19 -237h-34l-21 237h74z" />
    <glyph glyph-name="parenleft" unicode="(" horiz-adv-x="249" 
d="M175 -204q-31 62 -53 118t-35.5 110t-20 109t-6.5 116q0 60 6.5 115t20 109t35.5 109.5t53 117.5h44q-19 -60 -34.5 -113.5t-26.5 -107.5t-17 -110t-6 -120q0 -66 6 -122t17 -109.5t26.5 -107.5t34.5 -114h-44z" />
    <glyph glyph-name="parenright" unicode=")" horiz-adv-x="249" 
d="M30 -204q19 60 34.5 114t26.5 107.5t17 109.5t6 122q0 64 -6 120t-17 110t-26.5 107.5t-34.5 113.5h44q31 -62 53 -117.5t35.5 -109.5t20 -109t6.5 -115q0 -61 -6.5 -116t-20 -109t-35.5 -110t-53 -118h-44z" />
    <glyph glyph-name="asterisk" unicode="*" horiz-adv-x="394" 
d="M173 400l4 117l-99 -60l-25 45l106 54l-105 47l24 45l99 -59l-4 111h48l-4 -111l99 59l24 -45l-105 -47l106 -54l-25 -45l-99 60l4 -117h-48z" />
    <glyph glyph-name="plus" unicode="+" horiz-adv-x="491" 
d="M218 319v163h55v-163h163v-55h-163v-163h-55v163h-163v55h163z" />
    <glyph glyph-name="comma" unicode="," horiz-adv-x="216" 
d="M146 85v-94l-86 -77v171h86z" />
    <glyph glyph-name="hyphen" unicode="-" horiz-adv-x="324" 
d="M269 336v-64h-214v64h214z" />
    <glyph glyph-name="period" unicode="." horiz-adv-x="216" 
d="M146 85v-85h-86v85h86z" />
    <glyph glyph-name="slash" unicode="/" horiz-adv-x="330" 
d="M335 700l-288 -700h-52l288 700h52z" />
    <glyph glyph-name="zero" unicode="0" 
d="M351 138q0 -20 -5 -45.5t-20 -48.5t-44 -38.5t-77 -15.5t-77 15.5t-44 38.5t-20 48.5t-5 45.5v424q0 20 5 45.5t20 48.5t44 38.5t77 15.5t77 -15.5t44 -38.5t20 -48.5t5 -45.5v-424zM276 552q0 15 -3.5 30t-11.5 27t-21.5 20t-34.5 8t-34.5 -8t-21.5 -20t-11.5 -27
t-3.5 -30v-404q0 -15 3.5 -30t11.5 -27t21.5 -20t34.5 -8t34.5 8t21.5 20t11.5 27t3.5 30v404z" />
    <glyph glyph-name="one" unicode="1" 
d="M194 622l-113 -71v71l115 78h73v-700h-75v622z" />
    <glyph glyph-name="two" unicode="2" 
d="M59 553q0 52 16 83.5t39 47.5t48 21t44 5q66 0 105 -38t39 -107v-47q0 -28 -9.5 -59.5t-20.5 -51.5l-180 -338h210v-69h-291v66l182 348q17 32 25.5 59.5t8.5 63.5v16q0 34 -14.5 59t-56.5 25q-24 0 -38 -9.5t-21 -24.5t-9 -32t-2 -32v-35h-75v49z" />
    <glyph glyph-name="three" unicode="3" 
d="M59 576q0 17 5.5 40t21.5 44t43.5 35.5t72.5 14.5q25 0 51 -5.5t48 -20t36 -39.5t14 -65v-97q0 -17 -2.5 -34.5t-10 -33.5t-21.5 -29.5t-38 -21.5q27 -7 41.5 -21t21 -30.5t8 -33.5t1.5 -31v-115q0 -30 -8.5 -56t-27 -45.5t-47 -30.5t-68.5 -11q-20 0 -44.5 5.5t-46 19.5
t-36 39.5t-14.5 65.5v79h75v-53q0 -13 2.5 -27.5t10 -27t22 -20.5t37.5 -8q12 0 24.5 3.5t22.5 12t16.5 23.5t6.5 38v113q0 29 -15.5 51.5t-56.5 22.5h-24v67h25q20 0 33.5 7t22 18.5t12 25t3.5 26.5v93q0 29 -18.5 51t-54.5 22q-21 0 -34.5 -9t-21 -22.5t-10.5 -28.5
t-3 -26v-47h-75v72z" />
    <glyph glyph-name="four" unicode="4" 
d="M263 700l-149 -510h132v194h75v-195h50v-66h-50v-123h-75v123h-207v66l151 511h73z" />
    <glyph glyph-name="five" unicode="5" 
d="M349 700v-69h-202v-228q27 27 51 34.5t46 7.5q46 0 75.5 -29t29.5 -84v-197q0 -18 -4 -42.5t-18.5 -47.5t-43 -39t-76.5 -16q-44 0 -72 14.5t-44.5 36t-23 45.5t-6.5 43v33h75v-20q0 -11 2.5 -25t10 -26t21 -20t34.5 -8q25 0 39 9.5t21 22t8.5 26t1.5 21.5v158
q0 12 -3 25.5t-10.5 24.5t-19.5 18.5t-31 7.5q-20 0 -38 -12t-28 -41h-72v377h277z" />
    <glyph glyph-name="six" unicode="6" 
d="M305 700l-133 -321q19 14 38 17.5t30 3.5q13 0 32 -4.5t36 -18t29 -37.5t12 -62v-143q0 -42 -12 -70t-32.5 -44.5t-47 -23.5t-54.5 -7q-40 0 -67 13t-43.5 33.5t-24 45t-7.5 47.5v115q0 44 12 76.5t25 64.5l127 315h80zM274 267q0 11 -3 24t-10 24t-19.5 18.5t-31.5 7.5
q-10 0 -22.5 -4.5t-24 -14.5t-19.5 -26t-8 -40v-117q0 -8 1 -20.5t7.5 -25t20 -21.5t37.5 -9q23 0 37 8t22 20.5t10.5 27.5t2.5 29v119z" />
    <glyph glyph-name="seven" unicode="7" 
d="M348 700v-67l-166 -633h-74l165 633h-146v-86h-65v153h286z" />
    <glyph glyph-name="eight" unicode="8" 
d="M350 476q0 -13 -1.5 -27t-7.5 -28t-17 -28.5t-30 -27.5q18 -12 29 -26.5t17 -30t8 -31t2 -29.5v-105q0 -7 -2.5 -31.5t-16 -51.5t-43 -48.5t-83.5 -21.5t-83.5 21.5t-43 48.5t-16 51.5t-2.5 31.5v105q0 14 2 29.5t8 31t17 30t29 26.5q-19 13 -30 27.5t-17 28.5t-7.5 28
t-1.5 27v81q0 7 2.5 31.5t16 51.5t43 48.5t83.5 21.5t83.5 -21.5t43 -48.5t16 -51.5t2.5 -31.5v-81zM135 157q0 -12 1.5 -28t8.5 -31t21 -25t39 -10t39 10t21 25t8.5 31t1.5 28v91q0 12 -1.5 28.5t-8.5 31t-21 25t-39 10.5t-39 -10.5t-21 -25t-8.5 -31t-1.5 -28.5v-91z
M135 488q0 -12 1.5 -28.5t8.5 -31.5t21 -25t39 -10t39 10t21 25t8.5 31.5t1.5 28.5v55q0 12 -1.5 28t-8.5 31t-21 25t-39 10t-39 -10t-21 -25t-8.5 -31t-1.5 -28v-55z" />
    <glyph glyph-name="nine" unicode="9" 
d="M105 0l133 321q-19 -14 -38 -17.5t-30 -3.5q-14 0 -32.5 4.5t-35.5 18t-29 37.5t-12 62v143q0 42 12 70t32.5 44.5t46.5 23.5t55 7q40 0 67 -13t43.5 -33.5t24 -45t7.5 -47.5v-115q0 -44 -12 -76.5t-25 -64.5l-127 -315h-80zM136 433q0 -11 3 -24t10 -24t19.5 -18.5
t31.5 -7.5q10 0 22.5 4.5t24 14.5t19.5 26t8 40v117q0 7 -1 20t-7.5 25.5t-20 21.5t-37.5 9q-23 0 -37 -8t-22 -20.5t-10.5 -27.5t-2.5 -29v-119z" />
    <glyph glyph-name="colon" unicode=":" horiz-adv-x="211" 
d="M141 491v-80h-81v80h81zM141 80v-80h-81v80h81z" />
    <glyph glyph-name="semicolon" unicode=";" horiz-adv-x="211" 
d="M141 80v-87l-81 -78v165h81zM141 491v-80h-81v80h81z" />
    <glyph glyph-name="less" unicode="&#x3c;" horiz-adv-x="491" 
d="M41 278v36l384 180v-51l-316 -147l316 -146v-51z" />
    <glyph glyph-name="equal" unicode="=" horiz-adv-x="491" 
d="M436 238v-55h-381v55h381zM436 384v-55h-381v55h381z" />
    <glyph glyph-name="greater" unicode="&#x3e;" horiz-adv-x="491" 
d="M66 99v51l316 146l-316 147v51l384 -180v-36z" />
    <glyph glyph-name="question" unicode="?" horiz-adv-x="353" 
d="M130 252q0 12 0.5 21.5t4 20t10.5 23.5t19 33l59 94q14 22 17 43.5t3 33.5v44q0 33 -18 52.5t-56 19.5q-40 0 -54.5 -23t-14.5 -52v-35h-75v48q0 34 11.5 59t31 42t45 25.5t53.5 8.5q31 0 58.5 -7t48.5 -22t33 -38t12 -56v-68q0 -22 -2.5 -38.5t-7.5 -30t-12 -26
t-16 -25.5l-57 -88q-14 -20 -16 -40.5t-2 -34.5v-56h-75v72zM210 85v-85h-85v85h85z" />
    <glyph glyph-name="at" unicode="@" horiz-adv-x="662" 
d="M444 168q0 -6 2 -14.5t7 -17t14.5 -14.5t23.5 -6q24 0 34 18.5t10 57.5v250q0 36 -5.5 73t-26.5 68t-61.5 50.5t-110.5 19.5q-53 0 -87 -12t-54.5 -29t-30 -35.5t-14.5 -32.5q-4 -11 -11 -45.5t-7 -105.5v-247q0 -37 3 -64.5t8.5 -47.5t12.5 -34t16 -23
q18 -19 40.5 -29.5t45.5 -16t43 -6.5t32 -1q29 0 65 4t73 19l13 -40q-29 -9 -49 -15t-38 -9.5t-37 -4.5t-44 -1q-18 0 -43 2t-51.5 9t-52.5 20.5t-46 36.5q-18 20 -27.5 45t-14 52t-5.5 54t-1 52v245q0 31 2 63t7 62t15 57t26 47q11 14 28 28t41.5 25t58.5 18t79 7
q66 0 119 -14t92 -56q33 -35 43.5 -84t10.5 -116v-235q0 -41 -10.5 -65.5t-26 -38t-34.5 -18t-36 -4.5q-11 0 -24.5 2t-26.5 9t-22.5 19.5t-10.5 32.5q-24 -39 -50 -51t-51 -12q-27 0 -43.5 9t-26 23t-12.5 30.5t-3 31.5v230q0 15 3 31.5t12.5 30.5t26 23t43.5 9
q21 0 44 -10t43 -37v40h57v-312zM328 126q18 0 29.5 8.5t18 20.5t9 25.5t2.5 22.5v150q0 9 -2.5 22.5t-9 25.5t-18 20.5t-29.5 8.5q-30 0 -43 -21t-13 -44v-174q0 -23 13 -44t43 -21z" />
    <glyph glyph-name="A" unicode="A" horiz-adv-x="443" 
d="M335 0l-35 156h-158l-34 -156h-73l152 700h68l153 -700h-73zM219 550l-67 -330h137z" />
    <glyph glyph-name="B" unicode="B" horiz-adv-x="443" 
d="M210 700q36 0 67.5 -9.5t55 -28.5t37 -48t13.5 -68v-44q0 -47 -18.5 -81t-69.5 -56q32 -11 49.5 -27t26 -35t10.5 -39t2 -37v-55q0 -17 -3.5 -45.5t-20 -57t-51 -49t-97.5 -20.5h-143v700h142zM143 65h61q46 0 75 29t29 91v50q0 17 -5.5 34.5t-17.5 31.5t-30.5 23
t-44.5 9h-67v-268zM143 398h58q32 0 52.5 9.5t32.5 24.5t17 33.5t5 36.5v45q0 16 -6 32t-18.5 28.5t-31.5 20t-46 7.5h-63v-237z" />
    <glyph glyph-name="C" unicode="C" horiz-adv-x="415" 
d="M306 549q0 9 -2.5 24t-11.5 29.5t-25 24.5t-43 10q-30 0 -47 -11t-25.5 -27.5t-11 -35t-2.5 -32.5v-377q0 -9 3 -24.5t11.5 -30.5t24.5 -25.5t42 -10.5q15 0 30 4t28 14.5t21 30t8 49.5v22h76v-26q0 -75 -38 -121t-128 -46q-53 0 -83 18.5t-46 43.5t-20 51t-4 41v414
q0 30 10 57.5t30 48.5t49.5 33.5t67.5 12.5q33 0 61.5 -8.5t50.5 -26.5t34.5 -47t12.5 -71v-45h-73v37z" />
    <glyph glyph-name="D" unicode="D" horiz-adv-x="450" 
d="M208 700q14 0 31.5 -1.5t35.5 -7t36 -16t34 -27.5q28 -32 35 -68t7 -72v-316q0 -36 -7 -72t-35 -68q-16 -17 -34 -27.5t-36 -16t-35.5 -7t-31.5 -1.5h-140v700h140zM284 102q20 21 24 48.5t4 47.5v304q0 20 -4 47.5t-24 48.5q-18 20 -39.5 24.5t-40.5 4.5h-61v-554h61
q19 0 40.5 4.5t39.5 24.5z" />
    <glyph glyph-name="E" unicode="E" horiz-adv-x="382" 
d="M68 700h281v-69h-206v-244h182v-65h-182v-253h209v-69h-284v700z" />
    <glyph glyph-name="F" unicode="F" horiz-adv-x="371" 
d="M68 700h288v-69h-213v-248h187v-71h-187v-312h-75v700z" />
    <glyph glyph-name="G" unicode="G" horiz-adv-x="461" 
d="M335 56q-11 -19 -26 -32t-32 -20.5t-34 -10.5t-31 -3q-32 0 -61.5 8.5t-52.5 37.5q-22 28 -28.5 61.5t-6.5 56.5v369q0 32 4.5 63t27.5 62q14 20 32 32t36.5 19t35.5 9t31 2q75 0 121.5 -39.5t46.5 -126.5v-32h-75v31q0 11 -3 27t-12.5 31t-27.5 25.5t-49 10.5t-49.5 -12
t-28 -30t-12.5 -38.5t-3 -36.5v-342q0 -54 20 -84.5t71 -30.5t72.5 35.5t21.5 93.5v112h-89v65h164v-369h-43z" />
    <glyph glyph-name="H" unicode="H" horiz-adv-x="455" 
d="M143 700v-313h169v313h75v-700h-75v322h-169v-322h-75v700h75z" />
    <glyph glyph-name="I" unicode="I" horiz-adv-x="220" 
d="M147 700v-700h-75v700h75z" />
    <glyph glyph-name="J" unicode="J" horiz-adv-x="356" 
d="M53 91q12 -11 26.5 -19.5t40.5 -8.5q23 0 39.5 7t27.5 17q18 18 22 36.5t4 37.5v539h75v-523q0 -39 -8 -76t-42 -69q-44 -42 -118 -42q-38 0 -67 11t-53 36z" />
    <glyph glyph-name="K" unicode="K" horiz-adv-x="462" 
d="M143 700v-372l189 372h76l-143 -279l172 -421h-81l-137 349l-76 -148v-201h-75v700h75z" />
    <glyph glyph-name="L" unicode="L" horiz-adv-x="384" 
d="M143 700v-631h221v-69h-296v700h75z" />
    <glyph glyph-name="M" unicode="M" horiz-adv-x="579" 
d="M68 700h76l147 -438h3l141 438h76v-700h-75v474h-3l-125 -356h-37l-125 356h-3v-474h-75v700z" />
    <glyph glyph-name="N" unicode="N" horiz-adv-x="484" 
d="M143 700l198 -521v521h75v-700h-75l-198 511v-511h-75v700h75z" />
    <glyph glyph-name="O" unicode="O" horiz-adv-x="462" 
d="M63 523q0 19 1.5 38.5t6.5 37.5t15 35.5t27 33.5q44 42 118 42t118 -42q34 -32 42 -69t8 -76v-346q0 -39 -8 -76t-42 -69q-44 -42 -118 -42t-118 42q-17 16 -27 33.5t-15 35.5t-6.5 37t-1.5 39v346zM324 539q0 19 -4 37.5t-22 35.5q-11 11 -27.5 18t-39.5 7t-39.5 -7
t-27.5 -18q-18 -17 -22 -35.5t-4 -37.5v-378q0 -19 4 -37.5t22 -36.5q11 -10 27.5 -17t39.5 -7t39.5 7t27.5 17q18 18 22 36.5t4 37.5v378z" />
    <glyph glyph-name="P" unicode="P" horiz-adv-x="427" 
d="M68 700h152q47 0 80 -14.5t53.5 -38.5t30 -56.5t9.5 -68.5v-62q0 -34 -10.5 -65t-31 -54.5t-50 -37.5t-66.5 -14h-92v-289h-75v700zM143 353h71q26 0 45.5 8t32.5 21t19.5 30.5t6.5 35.5v83q0 48 -25 76t-78 28h-72v-282z" />
    <glyph glyph-name="Q" unicode="Q" horiz-adv-x="466" 
d="M63 523q0 19 1.5 38.5t6.5 37.5t15 35.5t27 33.5q44 42 118 42t118 -42q34 -32 42 -69t8 -76v-346q0 -28 -3.5 -54t-16.5 -51l59 -46l-41 -48l-58 45q-42 -33 -108 -33q-74 0 -118 42q-17 16 -27 33.5t-15 35.5t-6.5 37t-1.5 39v346zM324 539q0 19 -4 37.5t-22 35.5
q-11 11 -27.5 18t-39.5 7t-39.5 -7t-27.5 -18q-18 -17 -22 -35.5t-4 -37.5v-378q0 -19 4 -37.5t22 -36.5q11 -10 27.5 -17t39.5 -7q14 0 25 2.5t21 7.5l-57 45l40 48l59 -47q3 11 4 21t1 21v378z" />
    <glyph glyph-name="R" unicode="R" horiz-adv-x="446" 
d="M208 700q28 0 60.5 -4t60.5 -20.5t46 -50t18 -91.5v-55q0 -58 -24 -96t-72 -53l112 -330h-78l-103 315h-85v-315h-75v700h140zM143 380h74q42 0 71.5 23.5t29.5 70.5v66q0 33 -11 51.5t-27 28.5t-34.5 12.5t-32.5 2.5h-70v-255z" />
    <glyph glyph-name="S" unicode="S" horiz-adv-x="436" 
d="M307 532q0 14 -3.5 35.5t-17.5 40.5q-9 11 -24.5 20t-42.5 9q-14 0 -30.5 -4.5t-30.5 -18.5q-18 -19 -22 -42t-4 -43q0 -16 2.5 -40t15.5 -44q11 -15 26.5 -24t28.5 -14l64 -23q22 -8 47 -21.5t42 -37.5q19 -26 23.5 -54.5t4.5 -61.5v-25q0 -52 -13 -89.5t-33 -60.5
q-19 -20 -51 -32t-74 -12q-52 0 -85 16t-50 39q-11 15 -17 33.5t-9 36t-3.5 30.5t-0.5 16v25h75v-20q0 -14 3.5 -35.5t16.5 -38.5q17 -20 36.5 -24.5t32.5 -4.5q35 0 52 10.5t25 20.5q14 18 17 40.5t3 40.5v27q0 20 -3.5 43.5t-16.5 39.5q-13 17 -30.5 26t-26.5 12l-76 27
q-26 9 -49.5 25.5t-37.5 49.5q-10 23 -12 48t-2 51v21q0 42 14 73.5t36 51.5q23 23 52.5 31.5t62.5 8.5q72 0 116 -44.5t44 -129.5v-24h-75v20z" />
    <glyph glyph-name="T" unicode="T" horiz-adv-x="384" 
d="M359 700v-69h-130v-631h-75v631h-129v69h334z" />
    <glyph glyph-name="U" unicode="U" horiz-adv-x="454" 
d="M143 700v-539q0 -44 21 -71t63 -27t63 27t21 71v539h75v-523q0 -56 -14.5 -92t-38 -57t-51.5 -29.5t-55 -8.5t-55 8.5t-51.5 29.5t-38 57t-14.5 92v523h75z" />
    <glyph glyph-name="V" unicode="V" horiz-adv-x="404" 
d="M236 0h-67l-149 700h84l98 -519h3l100 519h79z" />
    <glyph glyph-name="W" unicode="W" horiz-adv-x="597" 
d="M100 700l72 -504h4l96 504h53l99 -504h4l68 504h81l-110 -700h-69l-97 487h-4l-98 -487h-69l-110 700h80z" />
    <glyph glyph-name="X" unicode="X" horiz-adv-x="426" 
d="M117 700l94 -257l95 257h82l-138 -329l154 -371h-80l-114 291l-105 -291h-83l150 370l-134 330h79z" />
    <glyph glyph-name="Y" unicode="Y" horiz-adv-x="414" 
d="M244 295v-295h-75v298l-146 402h83l102 -305h3l101 305h79z" />
    <glyph glyph-name="Z" unicode="Z" horiz-adv-x="399" 
d="M349 700v-66l-224 -565h219v-69h-294v77l219 554h-204v69h284z" />
    <glyph glyph-name="bracketleft" unicode="[" horiz-adv-x="250" 
d="M230 649h-96v-802h95v-51h-159v904h160v-51z" />
    <glyph glyph-name="backslash" unicode="\" horiz-adv-x="330" 
d="M47 700l288 -700h-52l-288 700h52z" />
    <glyph glyph-name="bracketright" unicode="]" horiz-adv-x="250" 
d="M180 700v-904h-159v51h95v802h-96v51h160z" />
    <glyph glyph-name="asciicircum" unicode="^" horiz-adv-x="587" 
d="M266 700h54l212 -420h-56l-183 364l-182 -364h-56z" />
    <glyph glyph-name="underscore" unicode="_" horiz-adv-x="529" 
d="M529 -164v-40h-529v40h529z" />
    <glyph glyph-name="grave" unicode="`" horiz-adv-x="237" 
d="M30 700h81l46 -122h-39z" />
    <glyph glyph-name="a" unicode="a" horiz-adv-x="405" 
d="M268 49h-1q-9 -11 -19 -21t-23 -18t-29.5 -13t-40.5 -5q-30 0 -49.5 10.5t-31 29.5t-16.5 44t-5 55q0 39 7 69.5t24 51.5t44.5 32t69.5 11q8 0 23 -0.5t47 -3.5v73q0 10 -4 22t-12.5 22t-21.5 16.5t-32 6.5q-10 0 -20.5 -2.5t-20 -9.5t-17 -19t-10.5 -30h-72
q0 31 11.5 56t31 42.5t46 26.5t56.5 9q43 0 70.5 -14.5t43 -36t21 -48t5.5 -50.5v-355h-75v49zM268 236q-16 2 -29 3.5t-22 1.5q-16 0 -32 -4.5t-28.5 -16t-20.5 -30t-8 -45.5q0 -53 16 -71t48 -18q12 0 25 7t24.5 20t19 29.5t7.5 36.5v87z" />
    <glyph glyph-name="b" unicode="b" 
d="M62 700h75v-253q24 32 52.5 44.5t54.5 12.5q33 0 53.5 -11t31.5 -28.5t15 -37.5t4 -38v-282q0 -18 -4 -38t-15 -37.5t-31.5 -28.5t-53.5 -11q-26 0 -54.5 12.5t-52.5 44.5v-49h-75v700zM210 65q18 0 30 6.5t19.5 17.5t10.5 25t3 28v212q0 14 -3 28t-10.5 25t-19.5 17.5
t-30 6.5q-23 0 -37 -10t-22 -24t-11 -29.5t-3 -27.5v-184q0 -12 3 -27.5t11 -29.5t22 -24t37 -10z" />
    <glyph glyph-name="c" unicode="c" horiz-adv-x="384" 
d="M273 152h75v-20q0 -18 -6.5 -42.5t-23 -46t-44.5 -36.5t-71 -15q-47 0 -75 16.5t-44 39.5t-21 47.5t-5 40.5v225q0 15 5 39.5t21 47.5t44 39.5t75 16.5q44 0 72.5 -15t44.5 -37t22 -45.5t6 -41.5v-22h-75v7q0 42 -20.5 61.5t-49.5 19.5t-49.5 -19.5t-20.5 -61.5v-204
q0 -81 70 -81q33 0 51.5 20t18.5 61v6z" />
    <glyph glyph-name="d" unicode="d" 
d="M348 0h-75v49q-24 -32 -52.5 -44.5t-54.5 -12.5q-33 0 -53.5 11t-31.5 28.5t-15 37.5t-4 38v282q0 18 4 38t15 37.5t31.5 28.5t53.5 11q26 0 54.5 -12.5t52.5 -44.5v253h75v-700zM200 65q23 0 37 10t22 24t11 29.5t3 27.5v184q0 12 -3 27.5t-11 29.5t-22 24t-37 10
q-18 0 -30 -6.5t-19.5 -17.5t-10.5 -25t-3 -28v-212q0 -14 3 -28t10.5 -25t19.5 -17.5t30 -6.5z" />
    <glyph glyph-name="e" unicode="e" horiz-adv-x="397" 
d="M266 139h75v-7q0 -18 -5.5 -42.5t-20.5 -46t-42 -36.5t-70 -15q-47 0 -75 16.5t-44 39.5t-21 47.5t-5 40.5v230q0 15 5 38t20 45.5t42.5 38.5t72.5 16q44 0 72.5 -16t44.5 -38.5t22 -47t6 -40.5v-142h-210v-79q0 -40 17.5 -58t52.5 -18q33 0 48 18.5t15 49.5v6zM268 276
v85q0 12 -3 24.5t-11 22.5t-21 16.5t-32 6.5q-20 0 -33 -7t-21 -18t-11 -24t-3 -25v-81h135z" />
    <glyph glyph-name="f" unicode="f" horiz-adv-x="260" 
d="M86 436h-54v60h54v75q0 27 5.5 51t20.5 41t41.5 27t68.5 10h23v-65h-21q-29 0 -46.5 -16t-17.5 -52v-71h84v-60h-83v-436h-75v436z" />
    <glyph glyph-name="g" unicode="g" 
d="M348 -60q0 -23 -7 -49t-24.5 -48.5t-46 -37t-71.5 -14.5q-61 0 -99 33t-38 101h72q3 -21 10.5 -33t17 -18t20 -8t20.5 -2q19 0 32.5 6.5t22 16.5t12.5 21.5t4 22.5v123q-24 -32 -52.5 -44.5t-54.5 -12.5q-33 0 -53.5 11t-31.5 28.5t-15 37.5t-4 38v277q0 18 4 38t15 37.5
t31.5 28.5t53.5 11q26 0 54.5 -12.5t52.5 -44.5v49h75v-556zM200 70q23 0 37 10t22 24t11 29.5t3 27.5v179q0 12 -3 27.5t-11 29.5t-22 24t-37 10q-18 0 -30 -6.5t-19.5 -17.5t-10.5 -25t-3 -28v-207q0 -14 3 -28t10.5 -25t19.5 -17.5t30 -6.5z" />
    <glyph glyph-name="h" unicode="h" 
d="M62 700h75v-253q24 32 52.5 44.5t54.5 12.5q33 0 53.5 -11t31.5 -28.5t15 -37.5t4 -38v-389h-75v354q0 14 -3 28t-10.5 25t-19.5 17.5t-30 6.5q-23 0 -37 -10t-22 -24t-11 -29.5t-3 -27.5v-340h-75v700z" />
    <glyph glyph-name="i" unicode="i" horiz-adv-x="199" 
d="M62 496h75v-496h-75v496zM137 686v-73h-75v73h75z" />
    <glyph glyph-name="j" unicode="j" horiz-adv-x="202" 
d="M140 -63q0 -69 -31 -105t-99 -36h-20v73h5q26 0 40 9.5t21 22t8 25.5t1 19v551h75v-559zM140 686v-73h-75v73h75z" />
    <glyph glyph-name="k" unicode="k" horiz-adv-x="392" 
d="M62 700h75v-452l145 248h79l-121 -195l145 -301h-81l-110 235l-57 -95v-140h-75v700z" />
    <glyph glyph-name="l" unicode="l" horiz-adv-x="227" 
d="M137 700v-576q0 -8 2 -17.5t8 -17.5t17 -14t28 -6h11v-69h-23q-57 0 -87.5 30.5t-30.5 79.5v590h75z" />
    <glyph glyph-name="m" unicode="m" horiz-adv-x="613" 
d="M137 496v-49q27 35 55 46t51 11q36 0 58.5 -14t39.5 -43q26 33 51 45t57 12q52 0 77 -32t25 -85v-387h-75v354q0 32 -14.5 54.5t-48.5 22.5q-35 0 -52 -27.5t-17 -63.5v-340h-75v354q0 12 -2.5 25.5t-9.5 25t-19 19t-31 7.5q-18 0 -31 -8t-22 -20.5t-13 -29t-4 -33.5
v-340h-75v496h75z" />
    <glyph glyph-name="n" unicode="n" 
d="M62 496h75v-49q24 32 52.5 44.5t54.5 12.5q33 0 53.5 -11t31.5 -28.5t15 -37.5t4 -38v-389h-75v354q0 14 -3 28t-10.5 25t-19.5 17.5t-30 6.5q-23 0 -37 -10t-22 -24t-11 -29.5t-3 -27.5v-340h-75v496z" />
    <glyph glyph-name="o" unicode="o" horiz-adv-x="402" 
d="M58 364q0 14 5 37.5t20.5 46.5t43.5 39.5t74 16.5t74 -16.5t43.5 -39.5t20.5 -46.5t5 -36.5v-231q0 -15 -5 -39t-20.5 -47t-43.5 -39.5t-74 -16.5t-74 16.5t-43.5 39.5t-20.5 47t-5 39v230zM269 350q0 42 -20 61.5t-48 19.5t-48 -19.5t-20 -61.5v-204q0 -39 17.5 -60
t50.5 -21q32 0 50 20t18 61v204z" />
    <glyph glyph-name="p" unicode="p" 
d="M62 496h75v-49q24 32 52.5 44.5t54.5 12.5q33 0 53.5 -11t31.5 -28.5t15 -37.5t4 -38v-282q0 -18 -4 -38t-15 -37.5t-31.5 -28.5t-53.5 -11q-26 0 -54.5 12.5t-52.5 44.5v-253h-75v700zM210 65q18 0 30 6.5t19.5 17.5t10.5 25t3 28v212q0 14 -3 28t-10.5 25t-19.5 17.5
t-30 6.5q-23 0 -37 -10t-22 -24t-11 -29.5t-3 -27.5v-184q0 -12 3 -27.5t11 -29.5t22 -24t37 -10z" />
    <glyph glyph-name="q" unicode="q" 
d="M348 -204h-75v253q-24 -32 -52.5 -44.5t-54.5 -12.5q-33 0 -53.5 11t-31.5 28.5t-15 37.5t-4 38v282q0 18 4 38t15 37.5t31.5 28.5t53.5 11q26 0 54.5 -12.5t52.5 -44.5v49h75v-700zM200 65q23 0 37 10t22 24t11 29.5t3 27.5v184q0 12 -3 27.5t-11 29.5t-22 24t-37 10
q-18 0 -30 -6.5t-19.5 -17.5t-10.5 -25t-3 -28v-212q0 -14 3 -28t10.5 -25t19.5 -17.5t30 -6.5z" />
    <glyph glyph-name="r" unicode="r" horiz-adv-x="291" 
d="M137 496v-78q20 27 38.5 43.5t35.5 26t33 13t31 3.5v-84h-14q-21 0 -43 -5t-40 -19.5t-29.5 -40t-11.5 -66.5v-289h-75v496h75z" />
    <glyph glyph-name="s" unicode="s" horiz-adv-x="371" 
d="M253 365q-2 21 -8.5 34t-15.5 20.5t-20 10.5t-23 3q-28 0 -46 -13t-18 -51q0 -29 17.5 -44t41.5 -26l62 -30q17 -9 32.5 -19.5t27 -25.5t18.5 -37t7 -53q0 -15 -4.5 -39.5t-19.5 -47t-43.5 -39t-77.5 -16.5q-42 0 -69.5 12.5t-44 32.5t-23.5 45.5t-8 51.5h76
q3 -40 20.5 -56t46.5 -16q39 0 55.5 20t16.5 52q0 28 -12.5 45t-50.5 36l-61 30q-27 13 -43.5 28t-25 31.5t-11 34.5t-2.5 37q0 25 8.5 48t26 41t44.5 28.5t64 10.5q41 0 67.5 -13t42 -33.5t21.5 -45t7 -47.5h-75z" />
    <glyph glyph-name="t" unicode="t" horiz-adv-x="255" 
d="M150 647v-151h70v-60h-70v-301q0 -9 3 -26t17 -29q11 -9 24.5 -10.5t22.5 -1.5h8v-68h-22q-11 0 -24 0.5t-27 3.5t-27.5 9.5t-23.5 17.5q-19 20 -22.5 46.5t-3.5 48.5v310h-53v60h53v151h75z" />
    <glyph glyph-name="u" unicode="u" 
d="M348 0h-75v49q-24 -32 -52.5 -44.5t-54.5 -12.5q-33 0 -53.5 11t-31.5 28.5t-15 37.5t-4 38v389h75v-354q0 -14 3 -28t10.5 -25t19.5 -17.5t30 -6.5q23 0 37 10t22 24t11 29.5t3 27.5v340h75v-496z" />
    <glyph glyph-name="v" unicode="v" horiz-adv-x="354" 
d="M207 0h-59l-130 496h79l83 -348h2l81 348h76z" />
    <glyph glyph-name="w" unicode="w" horiz-adv-x="548" 
d="M93 496l77 -344h3l73 344h61l75 -344h3l75 344h73l-115 -496h-65l-76 330h-3l-75 -330h-66l-115 496h75z" />
    <glyph glyph-name="x" unicode="x" horiz-adv-x="344" 
d="M136 253l-115 243h80l75 -169l71 169h79l-115 -239l121 -257h-78l-80 180l-80 -180h-79z" />
    <glyph glyph-name="y" unicode="y" horiz-adv-x="368" 
d="M207 -88q-8 -32 -19 -54.5t-26.5 -36t-37 -19.5t-50.5 -6h-17v68h14q35 0 50 20t26 64l14 59l-146 489h79l100 -361h2l76 361h76z" />
    <glyph glyph-name="z" unicode="z" horiz-adv-x="339" 
d="M47 496h258v-60l-190 -373h190v-63h-271v60l191 373h-178v63z" />
    <glyph glyph-name="braceleft" unicode="{" horiz-adv-x="266" 
d="M107 538q0 72 32 117t104 45h5v-58h-3q-25 -1 -40 -11.5t-22.5 -25t-9.5 -31t-2 -29.5v-135q0 -69 -19.5 -104.5t-65.5 -56.5v-2q46 -21 65.5 -56.5t19.5 -104.5v-135q0 -14 2 -30t9.5 -30.5t22.5 -25t40 -11.5h3v-58h-5q-72 0 -104 45t-32 117v127q0 22 -3.5 44.5
t-13.5 41.5t-27.5 32.5t-44.5 16.5v56q27 3 44.5 16.5t27.5 32.5t13.5 41.5t3.5 44.5v127z" />
    <glyph glyph-name="bar" unicode="|" horiz-adv-x="192" 
d="M124 710v-914h-56v914h56z" />
    <glyph glyph-name="braceright" unicode="}" horiz-adv-x="266" 
d="M159 -42q0 -72 -32 -117t-104 -45h-5v58h3q25 1 40 11.5t22.5 25t9.5 30.5t2 30v135q0 34 4.5 60t14.5 44.5t26.5 32t39.5 24.5v2q-23 10 -39.5 24t-26.5 32.5t-14.5 44t-4.5 60.5v135q0 13 -2 29.5t-9.5 31t-22.5 25t-40 11.5h-3v58h5q72 0 104 -45t32 -117v-127
q0 -22 3.5 -44.5t13.5 -41.5t27.5 -32.5t44.5 -16.5v-56q-27 -3 -44.5 -16.5t-27.5 -32.5t-13.5 -41.5t-3.5 -44.5v-127z" />
    <glyph glyph-name="asciitilde" unicode="~" horiz-adv-x="438" 
d="M383 345q-3 -19 -8.5 -37t-16.5 -32t-28 -22.5t-42 -8.5q-22 0 -41.5 5.5t-36.5 12t-32.5 12t-30.5 5.5q-23 0 -31.5 -15.5t-12.5 -29.5h-48q3 19 9 37t17 32.5t28.5 23t42.5 8.5q19 0 36 -5.5t33.5 -12t33 -12t34.5 -5.5q23 0 33 15t14 29h47z" />
    <glyph glyph-name="uni00A0" unicode="&#xa0;" horiz-adv-x="233" 
 />
    <glyph glyph-name="exclamdown" unicode="&#xa1;" horiz-adv-x="203" 
d="M55 -150l22 518h54l17 -518h-93zM61 465v85h85v-85h-85z" />
    <glyph glyph-name="cent" unicode="&#xa2;" 
d="M188 0v77q-41 3 -66 20.5t-39 39.5t-18.5 45.5t-4.5 38.5v225q0 15 4.5 37.5t18.5 44.5t39 39.5t66 20.5v66h36v-66q38 -4 62.5 -19.5t38.5 -36.5t19.5 -43.5t5.5 -38.5v-22h-75v7q0 35 -14.5 54t-36.5 25v-362q24 5 37.5 24.5t13.5 54.5v6h75v-20q0 -17 -6 -39.5
t-20 -43.5t-38.5 -37t-61.5 -19v-78h-36zM135 231q0 -69 53 -80v363q-23 -5 -38 -24.5t-15 -54.5v-204z" />
    <glyph glyph-name="sterling" unicode="&#xa3;" 
d="M254 301h-85v-236h169v-65h-298v65h54v236h-54v55h54v201q0 81 39.5 117t104.5 36q43 0 70 -12.5t42.5 -31.5t21 -41t5.5 -41v-28h-75v17q0 12 -3.5 24t-11.5 21.5t-20.5 16t-29.5 6.5q-25 0 -39 -11t-20.5 -25.5t-7.5 -28.5t-1 -20v-200h85v-55z" />
    <glyph glyph-name="currency" unicode="&#xa4;" horiz-adv-x="588" 
d="M135 229q-26 40 -31 70t-5 43q0 12 5 42t31 70l-75 74l44 46l76 -76q6 4 16.5 10.5t24.5 12.5t32.5 10.5t40.5 4.5t40.5 -4.5t32.5 -10.5t24.5 -12.5t16.5 -10.5l76 76l44 -46l-76 -75q5 -7 11.5 -16t12 -22.5t9.5 -31t4 -41.5q0 -48 -13 -73t-24 -39l76 -76l-44 -45
l-75 75q-6 -4 -17 -10.5t-25.5 -12.5t-32.5 -10t-40 -4t-40 4t-32.5 10t-25.5 12.5t-17 10.5l-75 -75l-44 45zM159 342q0 -29 10.5 -53.5t29 -42.5t43 -28.5t51.5 -10.5q28 0 53 10.5t43.5 28.5t29 42.5t10.5 53.5q0 28 -10.5 52.5t-29 42.5t-43.5 28.5t-53 10.5
t-52.5 -10.5t-42.5 -28.5t-28.5 -42.5t-10.5 -52.5z" />
    <glyph glyph-name="yen" unicode="&#xa5;" 
d="M167 251v46l-18 51h-115v47h97l-111 305h84l102 -305h5l99 305h80l-110 -305h96v-47h-114l-20 -53v-44h134v-47h-134v-204h-75v204h-133v47h133z" />
    <glyph glyph-name="brokenbar" unicode="&#xa6;" horiz-adv-x="192" 
d="M124 163v-367h-56v367h56zM124 710v-367h-56v367h56z" />
    <glyph glyph-name="section" unicode="&#xa7;" horiz-adv-x="420" 
d="M134 135v-10q0 -24 17 -43t52 -19q29 0 49 15t20 44q0 15 -8 27t-19.5 22t-25 17.5t-24.5 13.5l-43 23q-16 9 -34 19.5t-33 26t-25 37t-10 53.5q0 35 22 65t54 47q-32 23 -43 47.5t-11 52.5q0 37 12.5 62t32 39t44.5 20t51 6q29 0 55 -8.5t46 -25t31.5 -42t11.5 -59.5
v-10h-70v10q0 24 -18.5 43t-54.5 19q-32 0 -49 -14.5t-17 -39.5q0 -17 6.5 -30t17.5 -22.5t24.5 -17.5t28.5 -16l47 -25q21 -11 39 -23t31.5 -27t21 -35.5t7.5 -48.5q0 -42 -23 -66.5t-54 -43.5q20 -17 31 -30.5t16 -26t6 -25t1 -27.5q0 -30 -12 -52.5t-32 -37t-45.5 -22
t-53.5 -7.5q-63 0 -101.5 36t-38.5 99v10h70zM171 440q-19 -15 -32.5 -33t-13.5 -42q0 -19 7 -33t16.5 -24t20 -16.5t17.5 -10.5l59 -30q16 9 26 21.5t15 24t7 20t2 11.5q0 31 -20.5 50t-41.5 30z" />
    <glyph glyph-name="dieresis" unicode="&#xa8;" horiz-adv-x="363" 
d="M147 599h-77v77h77v-77zM216 676h77v-77h-77v77z" />
    <glyph glyph-name="copyright" unicode="&#xa9;" horiz-adv-x="692" 
d="M50 414q0 61 23.5 115t63.5 94t94 63.5t115 23.5t115 -23.5t94 -63.5t63.5 -94t23.5 -115t-23.5 -115t-63.5 -94t-94 -63.5t-115 -23.5t-115 23.5t-94 63.5t-63.5 94t-23.5 115zM102 414q0 -51 19 -95.5t52 -77.5t77.5 -52t95.5 -19t95 19t77 52t52 77.5t19 95.5t-19 95
t-52 77t-77 52t-95 19t-95.5 -19t-77.5 -52t-52 -77t-19 -95zM451 466h-67v5q0 6 -1.5 13.5t-6.5 14.5q-11 13 -30 13t-30 -13q-6 -7 -7.5 -14.5t-1.5 -13.5v-114q0 -6 1.5 -13.5t7.5 -14.5q11 -13 30 -13q8 0 17 3.5t14 9.5t6 14.5t1 13.5v5h67v-4q0 -23 -5.5 -41.5
t-23.5 -33.5q-17 -14 -37 -19.5t-39 -5.5t-39 5.5t-37 19.5q-18 15 -24 33.5t-6 41.5v112q0 23 6 41.5t24 33.5q17 14 37 19.5t39 5.5t39 -5.5t37 -19.5q18 -15 23.5 -33.5t5.5 -41.5v-4z" />
    <glyph glyph-name="ordfeminine" unicode="&#xaa;" horiz-adv-x="310" 
d="M191 433h-1q-11 -13 -24 -23t-41 -10q-35 0 -47.5 23t-12.5 58q0 47 18 72t67 25q5 0 13.5 -0.5t27.5 -2.5v43q0 12 -9.5 25.5t-31.5 13.5q-11 0 -23.5 -7t-16.5 -29h-42q0 38 24.5 58.5t60.5 20.5q25 0 41 -8.5t25 -21t12.5 -28t3.5 -29.5v-208h-44v28zM191 543
q-18 3 -30 3q-19 0 -35.5 -12t-16.5 -44q0 -31 9 -42t28 -11q7 0 15 4.5t14.5 12t11 17.5t4.5 21v51z" />
    <glyph glyph-name="guillemotleft" unicode="&#xab;" horiz-adv-x="420" 
d="M210 369l-100 -93l100 -93v-86l-185 179l185 179v-86zM385 369l-100 -93l100 -93v-86l-185 179l185 179v-86z" />
    <glyph glyph-name="logicalnot" unicode="&#xac;" horiz-adv-x="491" 
d="M447 172h-60v155h-348v60h408v-215z" />
    <glyph glyph-name="uni00AD" unicode="&#xad;" horiz-adv-x="324" 
d="M269 336v-64h-214v64h214z" />
    <glyph glyph-name="registered" unicode="&#xae;" horiz-adv-x="692" 
d="M247 570h106q18 0 38 -3.5t37 -15.5q20 -14 25 -32t5 -36v-19q0 -12 -3 -27t-16 -28q-6 -8 -26 -16l56 -133h-71l-46 118h-38v-118h-67v310zM346 434q5 0 15.5 1t18.5 9q11 10 11 29q0 21 -14 31q-8 5 -16.5 7t-14.5 2h-32v-79h32zM50 414q0 61 23.5 115t63.5 94t94 63.5
t115 23.5t115 -23.5t94 -63.5t63.5 -94t23.5 -115t-23.5 -115t-63.5 -94t-94 -63.5t-115 -23.5t-115 23.5t-94 63.5t-63.5 94t-23.5 115zM102 414q0 -51 19 -95.5t52 -77.5t77.5 -52t95.5 -19t95 19t77 52t52 77.5t19 95.5t-19 95t-52 77t-77 52t-95 19t-95.5 -19t-77.5 -52
t-52 -77t-19 -95z" />
    <glyph glyph-name="macron" unicode="&#xaf;" horiz-adv-x="332" 
d="M272 665v-58h-212v58h212z" />
    <glyph glyph-name="degree" unicode="&#xb0;" horiz-adv-x="334" 
d="M30 546q0 20 9 44t26.5 44.5t43 34.5t58.5 14q24 0 48 -8.5t44 -26t32.5 -43t12.5 -59.5q0 -60 -37 -98.5t-100 -38.5q-29 0 -54 10t-43.5 28t-29 43.5t-10.5 55.5zM81 546q0 -18 7 -33.5t18.5 -27.5t27 -18.5t33.5 -6.5q36 0 61.5 25t25.5 61q0 18 -7 33.5t-18.5 27
t-27.5 18.5t-34 7t-33.5 -7t-27 -18.5t-18.5 -27t-7 -33.5z" />
    <glyph glyph-name="plusminus" unicode="&#xb1;" horiz-adv-x="491" 
d="M218 339v143h55v-143h163v-55h-163v-143h-55v143h-163v55h163zM436 55v-55h-381v55h381z" />
    <glyph glyph-name="twosuperior" unicode="&#xb2;" horiz-adv-x="315" 
d="M89 636q0 20 5.5 33t12.5 21q13 11 25.5 14t23.5 3q14 0 27 -4t24 -16q15 -20 15 -49v-16q0 -15 -4 -28q-3 -9 -6 -14t-5 -10l-68 -128h83v-42h-133v41l76 140q2 5 5 11t5 11q1 6 2 14t1 13v6q0 15 -6 21q-2 2 -6 4.5t-11 2.5q-8 0 -12 -3t-6 -6q-3 -5 -3.5 -11t-0.5 -14
v-11h-44v17z" />
    <glyph glyph-name="threesuperior" unicode="&#xb3;" horiz-adv-x="315" 
d="M86 645q0 8 3.5 21.5t17.5 25.5q18 15 44 15q12 0 25 -3t22 -11q8 -6 15 -18.5t7 -29.5v-45q0 -11 -4.5 -24t-22.5 -21q20 -7 23.5 -23.5t3.5 -30.5v-30q0 -18 -2.5 -31.5t-15.5 -26.5q-11 -11 -24.5 -14.5t-27.5 -3.5q-11 0 -23.5 3t-23.5 14q-7 6 -12 17t-5 25v32h44
v-21q0 -5 1 -10.5t4 -9.5q2 -2 6 -4.5t11 -2.5q8 0 16 5t8 20v46q0 5 -0.5 11t-5.5 11q-4 5 -9 5.5t-11 0.5h-10v38h10q5 0 10 0.5t10 5.5t5.5 11t0.5 9v40q0 11 -6 17q-7 7 -19 7q-10 0 -15 -8q-5 -5 -5.5 -10.5t-0.5 -10.5v-19h-44v28z" />
    <glyph glyph-name="acute" unicode="&#xb4;" horiz-adv-x="237" 
d="M134 578h-39l46 122h81z" />
    <glyph glyph-name="mu" unicode="&#xb5;" horiz-adv-x="420" 
d="M358 0h-75v49q-13 -27 -32.5 -42t-51.5 -15q-23 0 -37.5 7t-24.5 21v-224h-75v700h75v-360q0 -8 2 -20t9 -23.5t20 -19.5t35 -8q23 0 38.5 8.5t24.5 21.5t13 27.5t4 25.5v348h75v-496z" />
    <glyph glyph-name="mu" unicode="&#x3bc;" horiz-adv-x="420" 
d="M358 0h-75v49q-13 -27 -32.5 -42t-51.5 -15q-23 0 -37.5 7t-24.5 21v-224h-75v700h75v-360q0 -8 2 -20t9 -23.5t20 -19.5t35 -8q23 0 38.5 8.5t24.5 21.5t13 27.5t4 25.5v348h75v-496z" />
    <glyph glyph-name="paragraph" unicode="&#xb6;" horiz-adv-x="490" 
d="M470 641h-64v-845h-61v845h-76v-845h-61v513h-27q-21 0 -49 6t-52 30q-25 25 -31.5 53t-6.5 48v115q0 44 15 68.5t29 35.5q20 16 51 25.5t62 9.5h271v-59z" />
    <glyph glyph-name="periodcentered" unicode="&#xb7;" horiz-adv-x="336" 
d="M110 350q0 24 17 41t41 17t41 -17t17 -41t-17 -41t-41 -17t-41 17t-17 41z" />
    <glyph glyph-name="cedilla" unicode="&#xb8;" horiz-adv-x="459" 
d="M248 0l-3 -36q30 0 47 -18.5t17 -44.5q0 -22 -8 -36.5t-20.5 -23t-27 -12t-27.5 -3.5q-47 0 -76 32l36 33q12 -12 30 -12q11 0 19 5.5t8 18.5q0 11 -9.5 16.5t-22.5 5.5q-5 0 -8.5 -0.5t-7.5 -1.5l5 77h48z" />
    <glyph glyph-name="onesuperior" unicode="&#xb9;" horiz-adv-x="315" 
d="M145 650l-47 -33v47l48 36h46v-300h-47v250z" />
    <glyph glyph-name="ordmasculine" unicode="&#xba;" horiz-adv-x="310" 
d="M71 618q0 8 3 22t12 27.5t25.5 23t43.5 9.5t43.5 -9.5t25.5 -23t12 -27t3 -21.5v-136q0 -9 -3 -23t-12 -27.5t-25.5 -23t-43.5 -9.5t-43.5 9.5t-25.5 23t-12 27.5t-3 23v135zM195 610q0 24 -12 35.5t-28 11.5q-17 0 -28.5 -11.5t-11.5 -35.5v-120q0 -47 40 -47
q18 0 29 12t11 35v120z" />
    <glyph glyph-name="guillemotright" unicode="&#xbb;" horiz-adv-x="420" 
d="M210 183l100 93l-100 93v86l185 -179l-185 -179v86zM35 183l100 93l-100 93v86l185 -179l-185 -179v86z" />
    <glyph glyph-name="onequarter" unicode="&#xbc;" horiz-adv-x="630" 
d="M477 700l-288 -700h-52l288 700h52zM503 300l-63 -214h42v84h43v-85h20v-39h-20v-46h-43v46h-85v37l64 217h42zM127 650l-47 -33v47l48 36h46v-300h-47v250z" />
    <glyph glyph-name="onehalf" unicode="&#xbd;" horiz-adv-x="630" 
d="M478 700l-288 -700h-52l288 700h52zM422 236q0 20 5.5 33t12.5 21q13 11 25.5 14t23.5 3q14 0 27 -4t24 -16q15 -20 15 -49v-16q0 -15 -4 -28q-3 -9 -6 -14t-5 -10l-68 -128h83v-42h-133v41l76 140q2 5 5 11t5 11q1 6 2 14t1 13v6q0 15 -6 21q-2 2 -6 4.5t-11 2.5
q-8 0 -12 -3t-6 -6q-3 -5 -3.5 -11t-0.5 -14v-11h-44v17zM127 650l-47 -33v47l48 36h46v-300h-47v250z" />
    <glyph glyph-name="threequarters" unicode="&#xbe;" horiz-adv-x="630" 
d="M492 700l-288 -700h-52l288 700h52zM508 300l-63 -214h42v84h43v-85h20v-39h-20v-46h-43v46h-85v37l64 217h42zM80 645q0 8 3.5 21.5t17.5 25.5q18 15 44 15q12 0 25 -3t22 -11q8 -6 15 -18.5t7 -29.5v-45q0 -11 -4.5 -24t-22.5 -21q20 -7 23.5 -23.5t3.5 -30.5v-30
q0 -18 -2.5 -31.5t-15.5 -26.5q-11 -11 -24.5 -14.5t-27.5 -3.5q-11 0 -23.5 3t-23.5 14q-7 6 -12 17t-5 25v32h44v-21q0 -5 1 -10.5t4 -9.5q2 -2 6 -4.5t11 -2.5q8 0 16 5t8 20v46q0 5 -0.5 11t-5.5 11q-4 5 -9 5.5t-11 0.5h-10v38h10q5 0 10 0.5t10 5.5t5.5 11t0.5 9v40
q0 11 -6 17q-7 7 -19 7q-10 0 -15 -8q-5 -5 -5.5 -10.5t-0.5 -10.5v-19h-44v28z" />
    <glyph glyph-name="questiondown" unicode="&#xbf;" horiz-adv-x="353" 
d="M223 298q0 -12 -0.5 -21.5t-4 -20t-10.5 -23.5t-19 -33l-59 -94q-14 -22 -17 -43.5t-3 -33.5v-44q0 -33 18 -52.5t56 -19.5q40 0 54.5 23t14.5 52v35h75v-48q0 -34 -11.5 -59t-31 -42t-45 -25.5t-53.5 -8.5q-31 0 -58.5 7t-48.5 22t-33 38t-12 56v68q0 22 2.5 38.5
t7.5 30t12 25.5t16 26l57 88q14 20 16 40.5t2 34.5v56h75v-72zM143 465v85h85v-85h-85z" />
    <glyph glyph-name="Agrave" unicode="&#xc0;" horiz-adv-x="443" 
d="M335 0l-35 156h-158l-34 -156h-73l152 700h68l153 -700h-73zM219 550l-67 -330h137zM99 880h101l59 -116h-50z" />
    <glyph glyph-name="Aacute" unicode="&#xc1;" horiz-adv-x="443" 
d="M335 0l-35 156h-158l-34 -156h-73l152 700h68l153 -700h-73zM219 550l-67 -330h137zM246 764h-50l59 116h101z" />
    <glyph glyph-name="Acircumflex" unicode="&#xc2;" horiz-adv-x="443" 
d="M335 0l-35 156h-158l-34 -156h-73l152 700h68l153 -700h-73zM219 550l-67 -330h137zM336 768h-56l-60 65l-60 -65h-56l56 106h120z" />
    <glyph glyph-name="Atilde" unicode="&#xc3;" horiz-adv-x="443" 
d="M335 0l-35 156h-158l-34 -156h-73l152 700h68l153 -700h-73zM219 550l-67 -330h137zM101 771q0 16 4 32.5t13 30t22 22t31 8.5q7 0 18 -1.5t28 -9.5l19 -9q7 -3 13.5 -6t16.5 -3t17.5 6.5t10.5 28.5h46q0 -48 -21.5 -70.5t-46.5 -22.5q-13 0 -26.5 3.5t-20.5 6.5l-20 9
q-8 4 -14.5 6.5t-14.5 2.5q-9 0 -17.5 -6.5t-10.5 -28.5h-47v1z" />
    <glyph glyph-name="Adieresis" unicode="&#xc4;" horiz-adv-x="443" 
d="M335 0l-35 156h-158l-34 -156h-73l152 700h68l153 -700h-73zM219 550l-67 -330h137zM178 779h-76v81h76v-81zM262 860h76v-81h-76v81z" />
    <glyph glyph-name="Aring" unicode="&#xc5;" horiz-adv-x="443" 
d="M335 0l-35 156h-158l-34 -156h-73l152 700h68l153 -700h-73zM219 550l-67 -330h137zM141 822q0 33 23.5 56.5t56.5 23.5t56.5 -23.5t23.5 -56.5t-23.5 -56.5t-56.5 -23.5t-56.5 23.5t-23.5 56.5zM189 822q0 -13 9.5 -22.5t22.5 -9.5q15 0 25 9.5t10 22.5q0 15 -10 25
t-25 10q-13 0 -22.5 -10t-9.5 -25z" />
    <glyph glyph-name="AE" unicode="&#xc6;" horiz-adv-x="632" 
d="M318 0v156h-160l-65 -156h-78l290 700h294v-69h-206v-244h182v-65h-182v-253h209v-69h-284zM318 562h-3l-134 -342h137v342z" />
    <glyph glyph-name="Ccedilla" unicode="&#xc7;" horiz-adv-x="415" 
d="M306 549q0 9 -2.5 24t-11.5 29.5t-25 24.5t-43 10q-30 0 -47 -11t-25.5 -27.5t-11 -35t-2.5 -32.5v-377q0 -9 3 -24.5t11.5 -30.5t24.5 -25.5t42 -10.5q15 0 30 4t28 14.5t21 30t8 49.5v22h76v-26q0 -69 -32 -114t-107 -52l-2 -27q30 0 47 -18.5t17 -44.5q0 -22 -8 -36.5
t-20.5 -23t-27 -12t-27.5 -3.5q-47 0 -76 32l36 33q12 -12 30 -12q11 0 19 5.5t8 18.5q0 11 -9.5 16.5t-22.5 5.5q-5 0 -8.5 -0.5t-7.5 -1.5l4 68q-45 4 -71.5 23t-40 43t-17 48.5t-3.5 38.5v414q0 30 10 57.5t30 48.5t49.5 33.5t67.5 12.5q33 0 61.5 -8.5t50.5 -26.5
t34.5 -47t12.5 -71v-45h-73v37z" />
    <glyph glyph-name="Egrave" unicode="&#xc8;" horiz-adv-x="382" 
d="M68 700h281v-69h-206v-244h182v-65h-182v-253h209v-69h-284v700zM88 880h101l59 -116h-50z" />
    <glyph glyph-name="Eacute" unicode="&#xc9;" horiz-adv-x="382" 
d="M68 700h281v-69h-206v-244h182v-65h-182v-253h209v-69h-284v700zM217 764h-50l59 116h101z" />
    <glyph glyph-name="Ecircumflex" unicode="&#xca;" horiz-adv-x="382" 
d="M68 700h281v-69h-206v-244h182v-65h-182v-253h209v-69h-284v700zM323 768h-56l-60 65l-60 -65h-56l56 106h120z" />
    <glyph glyph-name="Edieresis" unicode="&#xcb;" horiz-adv-x="382" 
d="M68 700h281v-69h-206v-244h182v-65h-182v-253h209v-69h-284v700zM160 779h-76v81h76v-81zM244 860h76v-81h-76v81z" />
    <glyph glyph-name="Igrave" unicode="&#xcc;" horiz-adv-x="220" 
d="M147 700v-700h-75v700h75zM-16 880h101l59 -116h-50z" />
    <glyph glyph-name="Iacute" unicode="&#xcd;" horiz-adv-x="220" 
d="M147 700v-700h-75v700h75zM128 764h-50l59 116h101z" />
    <glyph glyph-name="Icircumflex" unicode="&#xce;" horiz-adv-x="220" 
d="M147 700v-700h-75v700h75zM227 768h-56l-60 65l-60 -65h-56l56 106h120z" />
    <glyph glyph-name="Idieresis" unicode="&#xcf;" horiz-adv-x="220" 
d="M147 700v-700h-75v700h75zM69 779h-76v81h76v-81zM153 860h76v-81h-76v81z" />
    <glyph glyph-name="Eth" unicode="&#xd0;" horiz-adv-x="454" 
d="M212 700q14 0 31.5 -1.5t35.5 -7t36 -16t34 -27.5q28 -32 35 -68t7 -72v-316q0 -36 -7 -72t-35 -68q-16 -17 -34 -27.5t-36 -16t-35.5 -7t-31.5 -1.5h-140v328h-66v52h66v320h140zM288 102q20 21 24 48.5t4 47.5v304q0 20 -4 47.5t-24 48.5q-18 20 -39.5 24.5t-40.5 4.5
h-61v-247h73v-52h-73v-255h61q19 0 40.5 4.5t39.5 24.5z" />
    <glyph glyph-name="Ntilde" unicode="&#xd1;" horiz-adv-x="484" 
d="M143 700l198 -521v521h75v-700h-75l-198 511v-511h-75v700h75zM124 771q0 16 4 32.5t13 30t22 22t31 8.5q7 0 18 -1.5t28 -9.5l19 -9q7 -3 13.5 -6t16.5 -3t17.5 6.5t10.5 28.5h46q0 -48 -21.5 -70.5t-46.5 -22.5q-13 0 -26.5 3.5t-20.5 6.5l-20 9q-8 4 -14.5 6.5
t-14.5 2.5q-9 0 -17.5 -6.5t-10.5 -28.5h-47v1z" />
    <glyph glyph-name="Ograve" unicode="&#xd2;" horiz-adv-x="462" 
d="M63 523q0 19 1.5 38.5t6.5 37.5t15 35.5t27 33.5q44 42 118 42t118 -42q34 -32 42 -69t8 -76v-346q0 -39 -8 -76t-42 -69q-44 -42 -118 -42t-118 42q-17 16 -27 33.5t-15 35.5t-6.5 37t-1.5 39v346zM324 539q0 19 -4 37.5t-22 35.5q-11 11 -27.5 18t-39.5 7t-39.5 -7
t-27.5 -18q-18 -17 -22 -35.5t-4 -37.5v-378q0 -19 4 -37.5t22 -36.5q11 -10 27.5 -17t39.5 -7t39.5 7t27.5 17q18 18 22 36.5t4 37.5v378zM108 880h101l59 -116h-50z" />
    <glyph glyph-name="Oacute" unicode="&#xd3;" horiz-adv-x="462" 
d="M63 523q0 19 1.5 38.5t6.5 37.5t15 35.5t27 33.5q44 42 118 42t118 -42q34 -32 42 -69t8 -76v-346q0 -39 -8 -76t-42 -69q-44 -42 -118 -42t-118 42q-17 16 -27 33.5t-15 35.5t-6.5 37t-1.5 39v346zM324 539q0 19 -4 37.5t-22 35.5q-11 11 -27.5 18t-39.5 7t-39.5 -7
t-27.5 -18q-18 -17 -22 -35.5t-4 -37.5v-378q0 -19 4 -37.5t22 -36.5q11 -10 27.5 -17t39.5 -7t39.5 7t27.5 17q18 18 22 36.5t4 37.5v378zM245 764h-50l59 116h101z" />
    <glyph glyph-name="Ocircumflex" unicode="&#xd4;" horiz-adv-x="462" 
d="M63 523q0 19 1.5 38.5t6.5 37.5t15 35.5t27 33.5q44 42 118 42t118 -42q34 -32 42 -69t8 -76v-346q0 -39 -8 -76t-42 -69q-44 -42 -118 -42t-118 42q-17 16 -27 33.5t-15 35.5t-6.5 37t-1.5 39v346zM324 539q0 19 -4 37.5t-22 35.5q-11 11 -27.5 18t-39.5 7t-39.5 -7
t-27.5 -18q-18 -17 -22 -35.5t-4 -37.5v-378q0 -19 4 -37.5t22 -36.5q11 -10 27.5 -17t39.5 -7t39.5 7t27.5 17q18 18 22 36.5t4 37.5v378zM347 768h-56l-60 65l-60 -65h-56l56 106h120z" />
    <glyph glyph-name="Otilde" unicode="&#xd5;" horiz-adv-x="462" 
d="M63 523q0 19 1.5 38.5t6.5 37.5t15 35.5t27 33.5q44 42 118 42t118 -42q34 -32 42 -69t8 -76v-346q0 -39 -8 -76t-42 -69q-44 -42 -118 -42t-118 42q-17 16 -27 33.5t-15 35.5t-6.5 37t-1.5 39v346zM324 539q0 19 -4 37.5t-22 35.5q-11 11 -27.5 18t-39.5 7t-39.5 -7
t-27.5 -18q-18 -17 -22 -35.5t-4 -37.5v-378q0 -19 4 -37.5t22 -36.5q11 -10 27.5 -17t39.5 -7t39.5 7t27.5 17q18 18 22 36.5t4 37.5v378zM113 771q0 16 4 32.5t13 30t22 22t31 8.5q7 0 18 -1.5t28 -9.5l19 -9q7 -3 13.5 -6t16.5 -3t17.5 6.5t10.5 28.5h46
q0 -48 -21.5 -70.5t-46.5 -22.5q-13 0 -26.5 3.5t-20.5 6.5l-20 9q-8 4 -14.5 6.5t-14.5 2.5q-9 0 -17.5 -6.5t-10.5 -28.5h-47v1z" />
    <glyph glyph-name="Odieresis" unicode="&#xd6;" horiz-adv-x="462" 
d="M63 523q0 19 1.5 38.5t6.5 37.5t15 35.5t27 33.5q44 42 118 42t118 -42q34 -32 42 -69t8 -76v-346q0 -39 -8 -76t-42 -69q-44 -42 -118 -42t-118 42q-17 16 -27 33.5t-15 35.5t-6.5 37t-1.5 39v346zM324 539q0 19 -4 37.5t-22 35.5q-11 11 -27.5 18t-39.5 7t-39.5 -7
t-27.5 -18q-18 -17 -22 -35.5t-4 -37.5v-378q0 -19 4 -37.5t22 -36.5q11 -10 27.5 -17t39.5 -7t39.5 7t27.5 17q18 18 22 36.5t4 37.5v378zM189 779h-76v81h76v-81zM273 860h76v-81h-76v81z" />
    <glyph glyph-name="multiply" unicode="&#xd7;" horiz-adv-x="491" 
d="M207 289l-137 137l38 39l138 -138l137 138l39 -39l-137 -137l137 -138l-39 -38l-137 137l-138 -137l-38 38z" />
    <glyph glyph-name="Oslash" unicode="&#xd8;" horiz-adv-x="462" 
d="M86 65q-16 26 -19.5 54.5t-3.5 57.5v346q0 19 1.5 38.5t6.5 37.5t15 35.5t27 33.5q44 42 118 42q68 0 109 -35l17 40h52l-34 -80q16 -26 20 -54.5t4 -57.5v-346q0 -39 -8 -76t-42 -69q-44 -42 -118 -42q-67 0 -110 34l-16 -39h-52zM324 511l-171 -411q5 -8 11 -13
q11 -10 27.5 -17t39.5 -7t39.5 7t27.5 17q18 18 22 36.5t4 37.5v350zM138 189l171 410l-11 13q-11 11 -27.5 18t-39.5 7t-39.5 -7t-27.5 -18q-18 -17 -22 -35.5t-4 -37.5v-350z" />
    <glyph glyph-name="Ugrave" unicode="&#xd9;" horiz-adv-x="454" 
d="M143 700v-539q0 -44 21 -71t63 -27t63 27t21 71v539h75v-523q0 -56 -14.5 -92t-38 -57t-51.5 -29.5t-55 -8.5t-55 8.5t-51.5 29.5t-38 57t-14.5 92v523h75zM104 880h101l59 -116h-50z" />
    <glyph glyph-name="Uacute" unicode="&#xda;" horiz-adv-x="454" 
d="M143 700v-539q0 -44 21 -71t63 -27t63 27t21 71v539h75v-523q0 -56 -14.5 -92t-38 -57t-51.5 -29.5t-55 -8.5t-55 8.5t-51.5 29.5t-38 57t-14.5 92v523h75zM247 764h-50l59 116h101z" />
    <glyph glyph-name="Ucircumflex" unicode="&#xdb;" horiz-adv-x="454" 
d="M143 700v-539q0 -44 21 -71t63 -27t63 27t21 71v539h75v-523q0 -56 -14.5 -92t-38 -57t-51.5 -29.5t-55 -8.5t-55 8.5t-51.5 29.5t-38 57t-14.5 92v523h75zM343 768h-56l-60 65l-60 -65h-56l56 106h120z" />
    <glyph glyph-name="Udieresis" unicode="&#xdc;" horiz-adv-x="454" 
d="M143 700v-539q0 -44 21 -71t63 -27t63 27t21 71v539h75v-523q0 -56 -14.5 -92t-38 -57t-51.5 -29.5t-55 -8.5t-55 8.5t-51.5 29.5t-38 57t-14.5 92v523h75zM185 779h-76v81h76v-81zM269 860h76v-81h-76v81z" />
    <glyph glyph-name="Yacute" unicode="&#xdd;" horiz-adv-x="414" 
d="M244 295v-295h-75v298l-146 402h83l102 -305h3l101 305h79zM221 764h-50l59 116h101z" />
    <glyph glyph-name="Thorn" unicode="&#xde;" horiz-adv-x="452" 
d="M143 565h76q15 0 32.5 -1t35.5 -5.5t35.5 -13.5t32.5 -24q32 -33 40.5 -75.5t8.5 -80.5v-22q0 -15 -1 -32.5t-5.5 -35.5t-13 -36.5t-22.5 -34.5q-17 -19 -35.5 -29.5t-36.5 -16t-34 -6.5t-26 -1h-87v-151h-75v710h75v-145zM143 216h82q19 0 39.5 4t41.5 29q17 21 20 39
t3 39v54q0 21 -4.5 47.5t-29.5 48.5q-20 17 -40.5 20t-42.5 3h-69v-284z" />
    <glyph glyph-name="germandbls" unicode="&#xdf;" horiz-adv-x="416" 
d="M62 571q0 16 5 39.5t20.5 45.5t44 38t74.5 16q24 0 50.5 -6t48 -22t35.5 -42.5t14 -66.5v-74q0 -11 -2.5 -26t-11.5 -30t-25.5 -28t-44.5 -20q27 -7 43.5 -18t25.5 -27.5t12 -38.5t3 -51v-90q0 -42 -5.5 -73t-33.5 -58q-27 -27 -56 -33t-48 -6h-16v73h14q24 0 38 8.5
t21 21t9 25.5t2 22v129q0 9 -1.5 22.5t-7.5 26.5t-18.5 22.5t-34.5 9.5h-20v64h19q24 0 43.5 18.5t19.5 59.5v62q0 7 -2.5 19.5t-10 24.5t-22 20.5t-38.5 8.5q-20 0 -33.5 -8.5t-21.5 -21.5t-11 -27t-3 -25v-555h-75v571z" />
    <glyph glyph-name="agrave" unicode="&#xe0;" horiz-adv-x="405" 
d="M268 49h-1q-9 -11 -19 -21t-23 -18t-29.5 -13t-40.5 -5q-30 0 -49.5 10.5t-31 29.5t-16.5 44t-5 55q0 39 7 69.5t24 51.5t44.5 32t69.5 11q8 0 23 -0.5t47 -3.5v73q0 10 -4 22t-12.5 22t-21.5 16.5t-32 6.5q-10 0 -20.5 -2.5t-20 -9.5t-17 -19t-10.5 -30h-72
q0 31 11.5 56t31 42.5t46 26.5t56.5 9q43 0 70.5 -14.5t43 -36t21 -48t5.5 -50.5v-355h-75v49zM268 236q-16 2 -29 3.5t-22 1.5q-16 0 -32 -4.5t-28.5 -16t-20.5 -30t-8 -45.5q0 -53 16 -71t48 -18q12 0 25 7t24.5 20t19 29.5t7.5 36.5v87zM114 700h81l46 -122h-39z" />
    <glyph glyph-name="aacute" unicode="&#xe1;" horiz-adv-x="405" 
d="M268 49h-1q-9 -11 -19 -21t-23 -18t-29.5 -13t-40.5 -5q-30 0 -49.5 10.5t-31 29.5t-16.5 44t-5 55q0 39 7 69.5t24 51.5t44.5 32t69.5 11q8 0 23 -0.5t47 -3.5v73q0 10 -4 22t-12.5 22t-21.5 16.5t-32 6.5q-10 0 -20.5 -2.5t-20 -9.5t-17 -19t-10.5 -30h-72
q0 31 11.5 56t31 42.5t46 26.5t56.5 9q43 0 70.5 -14.5t43 -36t21 -48t5.5 -50.5v-355h-75v49zM268 236q-16 2 -29 3.5t-22 1.5q-16 0 -32 -4.5t-28.5 -16t-20.5 -30t-8 -45.5q0 -53 16 -71t48 -18q12 0 25 7t24.5 20t19 29.5t7.5 36.5v87zM216 578h-39l46 122h81z" />
    <glyph glyph-name="acircumflex" unicode="&#xe2;" horiz-adv-x="405" 
d="M268 49h-1q-9 -11 -19 -21t-23 -18t-29.5 -13t-40.5 -5q-30 0 -49.5 10.5t-31 29.5t-16.5 44t-5 55q0 39 7 69.5t24 51.5t44.5 32t69.5 11q8 0 23 -0.5t47 -3.5v73q0 10 -4 22t-12.5 22t-21.5 16.5t-32 6.5q-10 0 -20.5 -2.5t-20 -9.5t-17 -19t-10.5 -30h-72
q0 31 11.5 56t31 42.5t46 26.5t56.5 9q43 0 70.5 -14.5t43 -36t21 -48t5.5 -50.5v-355h-75v49zM268 236q-16 2 -29 3.5t-22 1.5q-16 0 -32 -4.5t-28.5 -16t-20.5 -30t-8 -45.5q0 -53 16 -71t48 -18q12 0 25 7t24.5 20t19 29.5t7.5 36.5v87zM154 586h-46l51 114h104l50 -114
h-46l-56 70z" />
    <glyph glyph-name="atilde" unicode="&#xe3;" horiz-adv-x="405" 
d="M268 49h-1q-9 -11 -19 -21t-23 -18t-29.5 -13t-40.5 -5q-30 0 -49.5 10.5t-31 29.5t-16.5 44t-5 55q0 39 7 69.5t24 51.5t44.5 32t69.5 11q8 0 23 -0.5t47 -3.5v73q0 10 -4 22t-12.5 22t-21.5 16.5t-32 6.5q-10 0 -20.5 -2.5t-20 -9.5t-17 -19t-10.5 -30h-72
q0 31 11.5 56t31 42.5t46 26.5t56.5 9q43 0 70.5 -14.5t43 -36t21 -48t5.5 -50.5v-355h-75v49zM268 236q-16 2 -29 3.5t-22 1.5q-16 0 -32 -4.5t-28.5 -16t-20.5 -30t-8 -45.5q0 -53 16 -71t48 -18q12 0 25 7t24.5 20t19 29.5t7.5 36.5v87zM85 585q0 16 4 33t12.5 31.5
t21.5 23.5t31 9q7 0 16.5 -1.5t26.5 -9.5l19 -9q7 -3 14 -5.5t17 -2.5t18.5 8t11.5 30h45q0 -48 -21 -72.5t-46 -24.5q-13 0 -25.5 4t-19.5 7l-20 9q-7 3 -13.5 5t-15.5 2t-18.5 -8t-11.5 -30h-46v1z" />
    <glyph glyph-name="adieresis" unicode="&#xe4;" horiz-adv-x="405" 
d="M268 49h-1q-9 -11 -19 -21t-23 -18t-29.5 -13t-40.5 -5q-30 0 -49.5 10.5t-31 29.5t-16.5 44t-5 55q0 39 7 69.5t24 51.5t44.5 32t69.5 11q8 0 23 -0.5t47 -3.5v73q0 10 -4 22t-12.5 22t-21.5 16.5t-32 6.5q-10 0 -20.5 -2.5t-20 -9.5t-17 -19t-10.5 -30h-72
q0 31 11.5 56t31 42.5t46 26.5t56.5 9q43 0 70.5 -14.5t43 -36t21 -48t5.5 -50.5v-355h-75v49zM268 236q-16 2 -29 3.5t-22 1.5q-16 0 -32 -4.5t-28.5 -16t-20.5 -30t-8 -45.5q0 -53 16 -71t48 -18q12 0 25 7t24.5 20t19 29.5t7.5 36.5v87zM169 599h-77v77h77v-77zM238 676
h77v-77h-77v77z" />
    <glyph glyph-name="aring" unicode="&#xe5;" horiz-adv-x="405" 
d="M268 49h-1q-9 -11 -19 -21t-23 -18t-29.5 -13t-40.5 -5q-30 0 -49.5 10.5t-31 29.5t-16.5 44t-5 55q0 39 7 69.5t24 51.5t44.5 32t69.5 11q8 0 23 -0.5t47 -3.5v73q0 10 -4 22t-12.5 22t-21.5 16.5t-32 6.5q-10 0 -20.5 -2.5t-20 -9.5t-17 -19t-10.5 -30h-72
q0 31 11.5 56t31 42.5t46 26.5t56.5 9q43 0 70.5 -14.5t43 -36t21 -48t5.5 -50.5v-355h-75v49zM268 236q-16 2 -29 3.5t-22 1.5q-16 0 -32 -4.5t-28.5 -16t-20.5 -30t-8 -45.5q0 -53 16 -71t48 -18q12 0 25 7t24.5 20t19 29.5t7.5 36.5v87zM122 643q0 16 6 30.5t16.5 25
t24.5 16.5t30 6q32 0 55 -23t23 -55q0 -16 -6 -30t-16.5 -24.5t-25 -16.5t-30.5 -6q-32 0 -54.5 22.5t-22.5 54.5zM168 643q0 -13 9 -22t22 -9q14 0 23 9t9 22q0 14 -9 23t-23 9q-13 0 -22 -9t-9 -23z" />
    <glyph glyph-name="ae" unicode="&#xe6;" horiz-adv-x="607" 
d="M476 139h75v-7q0 -18 -5.5 -42.5t-20.5 -46t-42 -36.5t-70 -15q-49 0 -78 18.5t-45 43.5q-21 -28 -48 -45t-69 -17q-39 0 -62.5 10.5t-36.5 29.5t-17 44t-4 55q0 39 7 69.5t24 51.5t44.5 32t69.5 11q8 0 23 -0.5t47 -3.5v73q0 10 -4 22t-12.5 22t-21.5 16.5t-32 6.5
q-10 0 -20.5 -2.5t-20 -9.5t-17 -19t-10.5 -30h-72q0 31 11.5 56t31 42.5t46 26.5t56.5 9q37 0 62 -11.5t42 -28.5q16 17 40 28.5t61 11.5q44 0 72.5 -16t44.5 -38.5t22 -47t6 -40.5v-142h-210v-79q0 -40 17.5 -58t52.5 -18q33 0 48 18.5t15 49.5v6zM268 236q-16 2 -29 3.5
t-22 1.5q-16 0 -32 -4.5t-28.5 -16t-20.5 -30t-8 -45.5q0 -53 16 -71t48 -18q12 0 25 7t24.5 20t19 29.5t7.5 36.5v87zM478 276v85q0 12 -3 24.5t-11 22.5t-21 16.5t-32 6.5q-20 0 -33 -7t-21 -18t-11 -24t-3 -25v-81h135z" />
    <glyph glyph-name="ccedilla" unicode="&#xe7;" horiz-adv-x="384" 
d="M273 152h75v-20q0 -17 -6 -39.5t-20 -43.5t-38 -36.5t-61 -19.5l-2 -29q30 0 47 -18.5t17 -44.5q0 -22 -8 -36.5t-20.5 -23t-27 -12t-27.5 -3.5q-47 0 -76 32l36 33q12 -12 30 -12q11 0 19 5.5t8 18.5q0 11 -9.5 16.5t-22.5 5.5q-5 0 -8.5 -0.5t-7.5 -1.5l4 71
q-37 5 -60 22.5t-35.5 39t-17 43.5t-4.5 37v225q0 15 5 39.5t21 47.5t44 39.5t75 16.5q44 0 72.5 -15t44.5 -37t22 -45.5t6 -41.5v-22h-75v7q0 42 -20.5 61.5t-49.5 19.5t-49.5 -19.5t-20.5 -61.5v-204q0 -81 70 -81q33 0 51.5 20t18.5 61v6z" />
    <glyph glyph-name="egrave" unicode="&#xe8;" horiz-adv-x="397" 
d="M266 139h75v-7q0 -18 -5.5 -42.5t-20.5 -46t-42 -36.5t-70 -15q-47 0 -75 16.5t-44 39.5t-21 47.5t-5 40.5v230q0 15 5 38t20 45.5t42.5 38.5t72.5 16q44 0 72.5 -16t44.5 -38.5t22 -47t6 -40.5v-142h-210v-79q0 -40 17.5 -58t52.5 -18q33 0 48 18.5t15 49.5v6zM268 276
v85q0 12 -3 24.5t-11 22.5t-21 16.5t-32 6.5q-20 0 -33 -7t-21 -18t-11 -24t-3 -25v-81h135zM101 700h81l46 -122h-39z" />
    <glyph glyph-name="eacute" unicode="&#xe9;" horiz-adv-x="397" 
d="M266 139h75v-7q0 -18 -5.5 -42.5t-20.5 -46t-42 -36.5t-70 -15q-47 0 -75 16.5t-44 39.5t-21 47.5t-5 40.5v230q0 15 5 38t20 45.5t42.5 38.5t72.5 16q44 0 72.5 -16t44.5 -38.5t22 -47t6 -40.5v-142h-210v-79q0 -40 17.5 -58t52.5 -18q33 0 48 18.5t15 49.5v6zM268 276
v85q0 12 -3 24.5t-11 22.5t-21 16.5t-32 6.5q-20 0 -33 -7t-21 -18t-11 -24t-3 -25v-81h135zM212 578h-39l46 122h81z" />
    <glyph glyph-name="ecircumflex" unicode="&#xea;" horiz-adv-x="397" 
d="M266 139h75v-7q0 -18 -5.5 -42.5t-20.5 -46t-42 -36.5t-70 -15q-47 0 -75 16.5t-44 39.5t-21 47.5t-5 40.5v230q0 15 5 38t20 45.5t42.5 38.5t72.5 16q44 0 72.5 -16t44.5 -38.5t22 -47t6 -40.5v-142h-210v-79q0 -40 17.5 -58t52.5 -18q33 0 48 18.5t15 49.5v6zM268 276
v85q0 12 -3 24.5t-11 22.5t-21 16.5t-32 6.5q-20 0 -33 -7t-21 -18t-11 -24t-3 -25v-81h135zM143 586h-46l51 114h104l50 -114h-46l-56 70z" />
    <glyph glyph-name="edieresis" unicode="&#xeb;" horiz-adv-x="397" 
d="M266 139h75v-7q0 -18 -5.5 -42.5t-20.5 -46t-42 -36.5t-70 -15q-47 0 -75 16.5t-44 39.5t-21 47.5t-5 40.5v230q0 15 5 38t20 45.5t42.5 38.5t72.5 16q44 0 72.5 -16t44.5 -38.5t22 -47t6 -40.5v-142h-210v-79q0 -40 17.5 -58t52.5 -18q33 0 48 18.5t15 49.5v6zM268 276
v85q0 12 -3 24.5t-11 22.5t-21 16.5t-32 6.5q-20 0 -33 -7t-21 -18t-11 -24t-3 -25v-81h135zM163 599h-77v77h77v-77zM232 676h77v-77h-77v77z" />
    <glyph glyph-name="igrave" unicode="&#xec;" horiz-adv-x="199" 
d="M62 496h75v-496h-75v496zM2 700h81l46 -122h-39z" />
    <glyph glyph-name="iacute" unicode="&#xed;" horiz-adv-x="199" 
d="M62 496h75v-496h-75v496zM114 578h-39l46 122h81z" />
    <glyph glyph-name="icircumflex" unicode="&#xee;" horiz-adv-x="199" 
d="M62 496h75v-496h-75v496zM44 586h-46l51 114h104l50 -114h-46l-56 70z" />
    <glyph glyph-name="idieresis" unicode="&#xef;" horiz-adv-x="199" 
d="M62 496h75v-496h-75v496zM66 599h-77v77h77v-77zM135 676h77v-77h-77v77z" />
    <glyph glyph-name="eth" unicode="&#xf0;" horiz-adv-x="402" 
d="M344 152q0 -22 -5 -49.5t-20.5 -52t-43.5 -41.5t-74 -17t-74 17t-43.5 41.5t-20.5 52t-5 49.5v242q0 12 3.5 31t15 36.5t32 30t54.5 12.5q36 0 63.5 -15t49.5 -53v33q0 41 -17.5 63t-42.5 37l-139 86l38 55l130 -81q28 -18 47 -33.5t30.5 -35t16.5 -44.5t5 -61v-303z
M133 146q0 -39 17.5 -60t50.5 -21q32 0 50 20t18 61v204q0 37 -20 59t-48 22t-48 -19.5t-20 -61.5v-204z" />
    <glyph glyph-name="ntilde" unicode="&#xf1;" 
d="M62 496h75v-49q24 32 52.5 44.5t54.5 12.5q33 0 53.5 -11t31.5 -28.5t15 -37.5t4 -38v-389h-75v354q0 14 -3 28t-10.5 25t-19.5 17.5t-30 6.5q-23 0 -37 -10t-22 -24t-11 -29.5t-3 -27.5v-340h-75v496zM88 585q0 16 4 33t12.5 31.5t21.5 23.5t31 9q7 0 16.5 -1.5
t26.5 -9.5l19 -9q7 -3 14 -5.5t17 -2.5t18.5 8t11.5 30h45q0 -48 -21 -72.5t-46 -24.5q-13 0 -25.5 4t-19.5 7l-20 9q-7 3 -13.5 5t-15.5 2t-18.5 -8t-11.5 -30h-46v1z" />
    <glyph glyph-name="ograve" unicode="&#xf2;" horiz-adv-x="402" 
d="M58 364q0 14 5 37.5t20.5 46.5t43.5 39.5t74 16.5t74 -16.5t43.5 -39.5t20.5 -46.5t5 -36.5v-231q0 -15 -5 -39t-20.5 -47t-43.5 -39.5t-74 -16.5t-74 16.5t-43.5 39.5t-20.5 47t-5 39v230zM269 350q0 42 -20 61.5t-48 19.5t-48 -19.5t-20 -61.5v-204q0 -39 17.5 -60
t50.5 -21q32 0 50 20t18 61v204zM112 700h81l46 -122h-39z" />
    <glyph glyph-name="oacute" unicode="&#xf3;" horiz-adv-x="402" 
d="M58 364q0 14 5 37.5t20.5 46.5t43.5 39.5t74 16.5t74 -16.5t43.5 -39.5t20.5 -46.5t5 -36.5v-231q0 -15 -5 -39t-20.5 -47t-43.5 -39.5t-74 -16.5t-74 16.5t-43.5 39.5t-20.5 47t-5 39v230zM269 350q0 42 -20 61.5t-48 19.5t-48 -19.5t-20 -61.5v-204q0 -39 17.5 -60
t50.5 -21q32 0 50 20t18 61v204zM214 578h-39l46 122h81z" />
    <glyph glyph-name="ocircumflex" unicode="&#xf4;" horiz-adv-x="402" 
d="M58 364q0 14 5 37.5t20.5 46.5t43.5 39.5t74 16.5t74 -16.5t43.5 -39.5t20.5 -46.5t5 -36.5v-231q0 -15 -5 -39t-20.5 -47t-43.5 -39.5t-74 -16.5t-74 16.5t-43.5 39.5t-20.5 47t-5 39v230zM269 350q0 42 -20 61.5t-48 19.5t-48 -19.5t-20 -61.5v-204q0 -39 17.5 -60
t50.5 -21q32 0 50 20t18 61v204zM145 586h-46l51 114h104l50 -114h-46l-56 70z" />
    <glyph glyph-name="otilde" unicode="&#xf5;" horiz-adv-x="402" 
d="M58 364q0 14 5 37.5t20.5 46.5t43.5 39.5t74 16.5t74 -16.5t43.5 -39.5t20.5 -46.5t5 -36.5v-231q0 -15 -5 -39t-20.5 -47t-43.5 -39.5t-74 -16.5t-74 16.5t-43.5 39.5t-20.5 47t-5 39v230zM269 350q0 42 -20 61.5t-48 19.5t-48 -19.5t-20 -61.5v-204q0 -39 17.5 -60
t50.5 -21q32 0 50 20t18 61v204zM83 585q0 16 4 33t12.5 31.5t21.5 23.5t31 9q7 0 16.5 -1.5t26.5 -9.5l19 -9q7 -3 14 -5.5t17 -2.5t18.5 8t11.5 30h45q0 -48 -21 -72.5t-46 -24.5q-13 0 -25.5 4t-19.5 7l-20 9q-7 3 -13.5 5t-15.5 2t-18.5 -8t-11.5 -30h-46v1z" />
    <glyph glyph-name="odieresis" unicode="&#xf6;" horiz-adv-x="402" 
d="M58 364q0 14 5 37.5t20.5 46.5t43.5 39.5t74 16.5t74 -16.5t43.5 -39.5t20.5 -46.5t5 -36.5v-231q0 -15 -5 -39t-20.5 -47t-43.5 -39.5t-74 -16.5t-74 16.5t-43.5 39.5t-20.5 47t-5 39v230zM269 350q0 42 -20 61.5t-48 19.5t-48 -19.5t-20 -61.5v-204q0 -39 17.5 -60
t50.5 -21q32 0 50 20t18 61v204zM166 599h-77v77h77v-77zM235 676h77v-77h-77v77z" />
    <glyph glyph-name="divide" unicode="&#xf7;" horiz-adv-x="491" 
d="M208 149q0 16 10.5 26.5t26.5 10.5t26.5 -10.5t10.5 -26.5t-10.5 -27t-26.5 -11t-26.5 11t-10.5 27zM208 428q0 16 10.5 27t26.5 11t26.5 -11t10.5 -27t-10.5 -26.5t-26.5 -10.5t-26.5 10.5t-10.5 26.5zM436 316v-55h-381v55h381z" />
    <glyph glyph-name="oslash" unicode="&#xf8;" horiz-adv-x="402" 
d="M91 38q-20 24 -26.5 51.5t-6.5 44.5v230q0 14 5 37.5t20.5 46.5t43.5 39.5t74 16.5q25 0 44 -5.5t34 -13.5l12 29h42l-23 -55q20 -25 27 -52t7 -42v-231q0 -15 -5 -39t-20.5 -47t-43.5 -39.5t-74 -16.5q-26 0 -45.5 5.5t-34.5 13.5l-12 -29h-41zM269 350q0 7 -1 11
l-116 -277q16 -19 49 -19q32 0 50 20t18 61v204zM133 137l115 275q-21 19 -47 19q-28 0 -48 -19.5t-20 -61.5v-204v-9z" />
    <glyph glyph-name="ugrave" unicode="&#xf9;" 
d="M348 0h-75v49q-24 -32 -52.5 -44.5t-54.5 -12.5q-33 0 -53.5 11t-31.5 28.5t-15 37.5t-4 38v389h75v-354q0 -14 3 -28t10.5 -25t19.5 -17.5t30 -6.5q23 0 37 10t22 24t11 29.5t3 27.5v340h75v-496zM106 700h81l46 -122h-39z" />
    <glyph glyph-name="uacute" unicode="&#xfa;" 
d="M348 0h-75v49q-24 -32 -52.5 -44.5t-54.5 -12.5q-33 0 -53.5 11t-31.5 28.5t-15 37.5t-4 38v389h75v-354q0 -14 3 -28t10.5 -25t19.5 -17.5t30 -6.5q23 0 37 10t22 24t11 29.5t3 27.5v340h75v-496zM218 578h-39l46 122h81z" />
    <glyph glyph-name="ucircumflex" unicode="&#xfb;" 
d="M348 0h-75v49q-24 -32 -52.5 -44.5t-54.5 -12.5q-33 0 -53.5 11t-31.5 28.5t-15 37.5t-4 38v389h75v-354q0 -14 3 -28t10.5 -25t19.5 -17.5t30 -6.5q23 0 37 10t22 24t11 29.5t3 27.5v340h75v-496zM148 586h-46l51 114h104l50 -114h-46l-56 70z" />
    <glyph glyph-name="udieresis" unicode="&#xfc;" 
d="M348 0h-75v49q-24 -32 -52.5 -44.5t-54.5 -12.5q-33 0 -53.5 11t-31.5 28.5t-15 37.5t-4 38v389h75v-354q0 -14 3 -28t10.5 -25t19.5 -17.5t30 -6.5q23 0 37 10t22 24t11 29.5t3 27.5v340h75v-496zM172 599h-77v77h77v-77zM241 676h77v-77h-77v77z" />
    <glyph glyph-name="yacute" unicode="&#xfd;" horiz-adv-x="368" 
d="M207 -88q-8 -32 -19 -54.5t-26.5 -36t-37 -19.5t-50.5 -6h-17v68h14q35 0 50 20t26 64l14 59l-146 489h79l100 -361h2l76 361h76zM192 578h-39l46 122h81z" />
    <glyph glyph-name="thorn" unicode="&#xfe;" 
d="M62 700h75v-253q24 32 52.5 44.5t54.5 12.5q33 0 53.5 -11t31.5 -28.5t15 -37.5t4 -38v-282q0 -18 -4 -38t-15 -37.5t-31.5 -28.5t-53.5 -11q-26 0 -54.5 12.5t-52.5 44.5v-253h-75v904zM210 65q18 0 30 6.5t19.5 17.5t10.5 25t3 28v212q0 14 -3 28t-10.5 25t-19.5 17.5
t-30 6.5q-23 0 -37 -10t-22 -24t-11 -29.5t-3 -27.5v-184q0 -12 3 -27.5t11 -29.5t22 -24t37 -10z" />
    <glyph glyph-name="ydieresis" unicode="&#xff;" horiz-adv-x="368" 
d="M207 -88q-8 -32 -19 -54.5t-26.5 -36t-37 -19.5t-50.5 -6h-17v68h14q35 0 50 20t26 64l14 59l-146 489h79l100 -361h2l76 361h76zM142 599h-77v77h77v-77zM211 676h77v-77h-77v77z" />
    <glyph glyph-name="Amacron" unicode="&#x100;" horiz-adv-x="443" 
d="M335 0l-35 156h-158l-34 -156h-73l152 700h68l153 -700h-73zM219 550l-67 -330h137zM330 844v-58h-218v58h218z" />
    <glyph glyph-name="amacron" unicode="&#x101;" horiz-adv-x="405" 
d="M268 49h-1q-9 -11 -19 -21t-23 -18t-29.5 -13t-40.5 -5q-30 0 -49.5 10.5t-31 29.5t-16.5 44t-5 55q0 39 7 69.5t24 51.5t44.5 32t69.5 11q8 0 23 -0.5t47 -3.5v73q0 10 -4 22t-12.5 22t-21.5 16.5t-32 6.5q-10 0 -20.5 -2.5t-20 -9.5t-17 -19t-10.5 -30h-72
q0 31 11.5 56t31 42.5t46 26.5t56.5 9q43 0 70.5 -14.5t43 -36t21 -48t5.5 -50.5v-355h-75v49zM268 236q-16 2 -29 3.5t-22 1.5q-16 0 -32 -4.5t-28.5 -16t-20.5 -30t-8 -45.5q0 -53 16 -71t48 -18q12 0 25 7t24.5 20t19 29.5t7.5 36.5v87zM307 665v-58h-212v58h212z" />
    <glyph glyph-name="Abreve" unicode="&#x102;" horiz-adv-x="443" 
d="M335 0l-35 156h-158l-34 -156h-73l152 700h68l153 -700h-73zM219 550l-67 -330h137zM339 864q0 -52 -33.5 -77t-86.5 -25q-54 0 -87 25t-33 77v5h54v-3q0 -15 7 -24t17.5 -14t21.5 -6.5t20 -1.5t20 1.5t21.5 6.5t17.5 14t7 24v3h54v-5z" />
    <glyph glyph-name="abreve" unicode="&#x103;" horiz-adv-x="405" 
d="M268 49h-1q-9 -11 -19 -21t-23 -18t-29.5 -13t-40.5 -5q-30 0 -49.5 10.5t-31 29.5t-16.5 44t-5 55q0 39 7 69.5t24 51.5t44.5 32t69.5 11q8 0 23 -0.5t47 -3.5v73q0 10 -4 22t-12.5 22t-21.5 16.5t-32 6.5q-10 0 -20.5 -2.5t-20 -9.5t-17 -19t-10.5 -30h-72
q0 31 11.5 56t31 42.5t46 26.5t56.5 9q43 0 70.5 -14.5t43 -36t21 -48t5.5 -50.5v-355h-75v49zM268 236q-16 2 -29 3.5t-22 1.5q-16 0 -32 -4.5t-28.5 -16t-20.5 -30t-8 -45.5q0 -53 16 -71t48 -18q12 0 25 7t24.5 20t19 29.5t7.5 36.5v87zM317 700q0 -15 -3.5 -35t-15 -38
t-34 -30.5t-60.5 -12.5t-60.5 12.5t-34 30.5t-15 38t-3.5 35h46q3 -20 10 -31t16 -17t20 -7.5t21 -1.5t21 1.5t20 7.5t16 17t10 31h46z" />
    <glyph glyph-name="Aogonek" unicode="&#x104;" horiz-adv-x="443" 
d="M384 0l-8 -6q-5 -3 -13 -9t-16 -13.5t-14 -17t-6 -21.5q0 -11 7.5 -20t24.5 -9q12 0 20.5 4t13.5 9l32 -30q-22 -25 -43 -30.5t-32 -5.5q-25 0 -41.5 7t-26 17.5t-13 23t-3.5 22.5q0 14 6 25.5t14 20.5t17 15l15 10l16 10l-34 154h-158l-34 -156h-73l152 700h68l153 -700
h-24zM219 550l-67 -330h137z" />
    <glyph glyph-name="aogonek" unicode="&#x105;" horiz-adv-x="405" 
d="M318 0l-8 -6q-5 -3 -13 -9t-16 -13.5t-14 -17t-6 -21.5q0 -11 7.5 -20t24.5 -9q12 0 20.5 4t13.5 9l32 -30q-22 -25 -43 -30.5t-32 -5.5q-25 0 -41.5 7t-26 17.5t-13 23t-3.5 22.5q0 14 6 25.5t14 20.5t17 15l15 10l16 10v47h-1q-9 -11 -19 -21t-23 -18t-29.5 -13
t-40.5 -5q-30 0 -49.5 10.5t-31 29.5t-16.5 44t-5 55q0 39 7 69.5t24 51.5t44.5 32t69.5 11q8 0 23 -0.5t47 -3.5v73q0 10 -4 22t-12.5 22t-21.5 16.5t-32 6.5q-10 0 -20.5 -2.5t-20 -9.5t-17 -19t-10.5 -30h-72q0 31 11.5 56t31 42.5t46 26.5t56.5 9q43 0 70.5 -14.5
t43 -36t21 -48t5.5 -50.5v-355h-25zM268 236q-16 2 -29 3.5t-22 1.5q-16 0 -32 -4.5t-28.5 -16t-20.5 -30t-8 -45.5q0 -53 16 -71t48 -18q12 0 25 7t24.5 20t19 29.5t7.5 36.5v87z" />
    <glyph glyph-name="Cacute" unicode="&#x106;" horiz-adv-x="415" 
d="M306 549q0 9 -2.5 24t-11.5 29.5t-25 24.5t-43 10q-30 0 -47 -11t-25.5 -27.5t-11 -35t-2.5 -32.5v-377q0 -9 3 -24.5t11.5 -30.5t24.5 -25.5t42 -10.5q15 0 30 4t28 14.5t21 30t8 49.5v22h76v-26q0 -75 -38 -121t-128 -46q-53 0 -83 18.5t-46 43.5t-20 51t-4 41v414
q0 30 10 57.5t30 48.5t49.5 33.5t67.5 12.5q33 0 61.5 -8.5t50.5 -26.5t34.5 -47t12.5 -71v-45h-73v37zM237 764h-50l59 116h101z" />
    <glyph glyph-name="cacute" unicode="&#x107;" horiz-adv-x="384" 
d="M273 152h75v-20q0 -18 -6.5 -42.5t-23 -46t-44.5 -36.5t-71 -15q-47 0 -75 16.5t-44 39.5t-21 47.5t-5 40.5v225q0 15 5 39.5t21 47.5t44 39.5t75 16.5q44 0 72.5 -15t44.5 -37t22 -45.5t6 -41.5v-22h-75v7q0 42 -20.5 61.5t-49.5 19.5t-49.5 -19.5t-20.5 -61.5v-204
q0 -81 70 -81q33 0 51.5 20t18.5 61v6zM215 578h-39l46 122h81z" />
    <glyph glyph-name="Ccircumflex" unicode="&#x108;" horiz-adv-x="415" 
d="M306 549q0 9 -2.5 24t-11.5 29.5t-25 24.5t-43 10q-30 0 -47 -11t-25.5 -27.5t-11 -35t-2.5 -32.5v-377q0 -9 3 -24.5t11.5 -30.5t24.5 -25.5t42 -10.5q15 0 30 4t28 14.5t21 30t8 49.5v22h76v-26q0 -75 -38 -121t-128 -46q-53 0 -83 18.5t-46 43.5t-20 51t-4 41v414
q0 30 10 57.5t30 48.5t49.5 33.5t67.5 12.5q33 0 61.5 -8.5t50.5 -26.5t34.5 -47t12.5 -71v-45h-73v37zM341 768h-56l-60 65l-60 -65h-56l56 106h120z" />
    <glyph glyph-name="ccircumflex" unicode="&#x109;" horiz-adv-x="384" 
d="M273 152h75v-20q0 -18 -6.5 -42.5t-23 -46t-44.5 -36.5t-71 -15q-47 0 -75 16.5t-44 39.5t-21 47.5t-5 40.5v225q0 15 5 39.5t21 47.5t44 39.5t75 16.5q44 0 72.5 -15t44.5 -37t22 -45.5t6 -41.5v-22h-75v7q0 42 -20.5 61.5t-49.5 19.5t-49.5 -19.5t-20.5 -61.5v-204
q0 -81 70 -81q33 0 51.5 20t18.5 61v6zM144 586h-46l51 114h104l50 -114h-46l-56 70z" />
    <glyph glyph-name="Cdotaccent" unicode="&#x10a;" horiz-adv-x="415" 
d="M306 549q0 9 -2.5 24t-11.5 29.5t-25 24.5t-43 10q-30 0 -47 -11t-25.5 -27.5t-11 -35t-2.5 -32.5v-377q0 -9 3 -24.5t11.5 -30.5t24.5 -25.5t42 -10.5q15 0 30 4t28 14.5t21 30t8 49.5v22h76v-26q0 -75 -38 -121t-128 -46q-53 0 -83 18.5t-46 43.5t-20 51t-4 41v414
q0 30 10 57.5t30 48.5t49.5 33.5t67.5 12.5q33 0 61.5 -8.5t50.5 -26.5t34.5 -47t12.5 -71v-45h-73v37zM263 863v-85h-84v85h84z" />
    <glyph glyph-name="cdotaccent" unicode="&#x10b;" horiz-adv-x="384" 
d="M273 152h75v-20q0 -18 -6.5 -42.5t-23 -46t-44.5 -36.5t-71 -15q-47 0 -75 16.5t-44 39.5t-21 47.5t-5 40.5v225q0 15 5 39.5t21 47.5t44 39.5t75 16.5q44 0 72.5 -15t44.5 -37t22 -45.5t6 -41.5v-22h-75v7q0 42 -20.5 61.5t-49.5 19.5t-49.5 -19.5t-20.5 -61.5v-204
q0 -81 70 -81q33 0 51.5 20t18.5 61v6zM233 679v-81h-83v81h83z" />
    <glyph glyph-name="Ccaron" unicode="&#x10c;" horiz-adv-x="415" 
d="M306 549q0 9 -2.5 24t-11.5 29.5t-25 24.5t-43 10q-30 0 -47 -11t-25.5 -27.5t-11 -35t-2.5 -32.5v-377q0 -9 3 -24.5t11.5 -30.5t24.5 -25.5t42 -10.5q15 0 30 4t28 14.5t21 30t8 49.5v22h76v-26q0 -75 -38 -121t-128 -46q-53 0 -83 18.5t-46 43.5t-20 51t-4 41v414
q0 30 10 57.5t30 48.5t49.5 33.5t67.5 12.5q33 0 61.5 -8.5t50.5 -26.5t34.5 -47t12.5 -71v-45h-73v37zM104 874h56l60 -65l60 65h56l-56 -106h-120z" />
    <glyph glyph-name="ccaron" unicode="&#x10d;" horiz-adv-x="384" 
d="M273 152h75v-20q0 -18 -6.5 -42.5t-23 -46t-44.5 -36.5t-71 -15q-47 0 -75 16.5t-44 39.5t-21 47.5t-5 40.5v225q0 15 5 39.5t21 47.5t44 39.5t75 16.5q44 0 72.5 -15t44.5 -37t22 -45.5t6 -41.5v-22h-75v7q0 42 -20.5 61.5t-49.5 19.5t-49.5 -19.5t-20.5 -61.5v-204
q0 -81 70 -81q33 0 51.5 20t18.5 61v6zM260 700h46l-51 -114h-104l-50 114h46l56 -70z" />
    <glyph glyph-name="Dcaron" unicode="&#x10e;" horiz-adv-x="450" 
d="M208 700q14 0 31.5 -1.5t35.5 -7t36 -16t34 -27.5q28 -32 35 -68t7 -72v-316q0 -36 -7 -72t-35 -68q-16 -17 -34 -27.5t-36 -16t-35.5 -7t-31.5 -1.5h-140v700h140zM284 102q20 21 24 48.5t4 47.5v304q0 20 -4 47.5t-24 48.5q-18 20 -39.5 24.5t-40.5 4.5h-61v-554h61
q19 0 40.5 4.5t39.5 24.5zM95 874h56l60 -65l60 65h56l-56 -106h-120z" />
    <glyph glyph-name="dcaron" unicode="&#x10f;" 
d="M348 0h-75v49q-24 -32 -52.5 -44.5t-54.5 -12.5q-33 0 -53.5 11t-31.5 28.5t-15 37.5t-4 38v282q0 18 4 38t15 37.5t31.5 28.5t53.5 11q26 0 54.5 -12.5t52.5 -44.5v253h75v-700zM200 65q23 0 37 10t22 24t11 29.5t3 27.5v184q0 12 -3 27.5t-11 29.5t-22 24t-37 10
q-18 0 -30 -6.5t-19.5 -17.5t-10.5 -25t-3 -28v-212q0 -14 3 -28t10.5 -25t19.5 -17.5t30 -6.5zM476 700v-92l-73 -61v153h73z" />
    <glyph glyph-name="Dcroat" unicode="&#x110;" horiz-adv-x="450" 
d="M68 429v271h140q14 0 31.5 -1.5t35.5 -7t36 -16t34 -27.5q28 -32 35 -68t7 -72v-316q0 -36 -7 -72t-35 -68q-16 -17 -34 -27.5t-36 -16t-35.5 -7t-31.5 -1.5h-140v365h-68v64h68zM284 102q20 21 24 48.5t4 47.5v304q0 20 -4 47.5t-24 48.5q-18 20 -39.5 24.5t-40.5 4.5
h-61v-198h71v-64h-71v-292h61q19 0 40.5 4.5t39.5 24.5z" />
    <glyph glyph-name="dcroat" unicode="&#x111;" 
d="M273 617v83h75v-83h55v-64h-55v-553h-75v49q-24 -32 -52.5 -44.5t-54.5 -12.5q-33 0 -53.5 11t-31.5 28.5t-15 37.5t-4 38v282q0 18 4 38t15 37.5t31.5 28.5t53.5 11q26 0 54.5 -12.5t52.5 -44.5v106h-84v64h84zM200 65q23 0 37 10t22 24t11 29.5t3 27.5v184
q0 12 -3 27.5t-11 29.5t-22 24t-37 10q-18 0 -30 -6.5t-19.5 -17.5t-10.5 -25t-3 -28v-212q0 -14 3 -28t10.5 -25t19.5 -17.5t30 -6.5z" />
    <glyph glyph-name="Emacron" unicode="&#x112;" horiz-adv-x="382" 
d="M68 700h281v-69h-206v-244h182v-65h-182v-253h209v-69h-284v700zM317 844v-58h-218v58h218z" />
    <glyph glyph-name="emacron" unicode="&#x113;" horiz-adv-x="397" 
d="M266 139h75v-7q0 -18 -5.5 -42.5t-20.5 -46t-42 -36.5t-70 -15q-47 0 -75 16.5t-44 39.5t-21 47.5t-5 40.5v230q0 15 5 38t20 45.5t42.5 38.5t72.5 16q44 0 72.5 -16t44.5 -38.5t22 -47t6 -40.5v-142h-210v-79q0 -40 17.5 -58t52.5 -18q33 0 48 18.5t15 49.5v6zM268 276
v85q0 12 -3 24.5t-11 22.5t-21 16.5t-32 6.5q-20 0 -33 -7t-21 -18t-11 -24t-3 -25v-81h135zM304 665v-58h-212v58h212z" />
    <glyph glyph-name="Edotaccent" unicode="&#x116;" horiz-adv-x="382" 
d="M68 700h281v-69h-206v-244h182v-65h-182v-253h209v-69h-284v700zM251 863v-85h-84v85h84z" />
    <glyph glyph-name="edotaccent" unicode="&#x117;" horiz-adv-x="397" 
d="M266 139h75v-7q0 -18 -5.5 -42.5t-20.5 -46t-42 -36.5t-70 -15q-47 0 -75 16.5t-44 39.5t-21 47.5t-5 40.5v230q0 15 5 38t20 45.5t42.5 38.5t72.5 16q44 0 72.5 -16t44.5 -38.5t22 -47t6 -40.5v-142h-210v-79q0 -40 17.5 -58t52.5 -18q33 0 48 18.5t15 49.5v6zM268 276
v85q0 12 -3 24.5t-11 22.5t-21 16.5t-32 6.5q-20 0 -33 -7t-21 -18t-11 -24t-3 -25v-81h135zM239 679v-81h-83v81h83z" />
    <glyph glyph-name="Eogonek" unicode="&#x118;" horiz-adv-x="382" 
d="M68 700h281v-69h-206v-244h182v-65h-182v-253h209v-69h-41l-8 -6q-5 -3 -13 -9t-16 -13.5t-14 -17t-6 -21.5q0 -11 7.5 -20t24.5 -9q12 0 20.5 4t13.5 9l32 -30q-22 -25 -43 -30.5t-32 -5.5q-25 0 -41.5 7t-26 17.5t-13 23t-3.5 22.5q0 14 6 25.5t14 20.5t17 15l15 10
l12 8h-189v700z" />
    <glyph glyph-name="eogonek" unicode="&#x119;" horiz-adv-x="397" 
d="M266 139h75v-7q0 -14 -3 -32t-11.5 -36t-23 -34t-36.5 -26l-14 -10q-5 -3 -13 -9t-16 -13.5t-14 -17t-6 -21.5q0 -11 7.5 -20t24.5 -9q12 0 20.5 4t13.5 9l32 -30q-22 -25 -43 -30.5t-32 -5.5q-25 0 -41.5 7t-26 17.5t-13 23t-3.5 22.5q0 14 6 25.5t14 20.5t17 15l15 10
q-44 2 -71 19t-41.5 39.5t-19.5 46t-5 39.5v230q0 15 5 38t20 45.5t42.5 38.5t72.5 16q44 0 72.5 -16t44.5 -38.5t22 -47t6 -40.5v-142h-210v-79q0 -40 17.5 -58t52.5 -18q33 0 48 18.5t15 49.5v6zM268 276v85q0 12 -3 24.5t-11 22.5t-21 16.5t-32 6.5q-20 0 -33 -7t-21 -18
t-11 -24t-3 -25v-81h135z" />
    <glyph glyph-name="Ecaron" unicode="&#x11a;" horiz-adv-x="382" 
d="M68 700h281v-69h-206v-244h182v-65h-182v-253h209v-69h-284v700zM91 874h56l60 -65l60 65h56l-56 -106h-120z" />
    <glyph glyph-name="ecaron" unicode="&#x11b;" horiz-adv-x="397" 
d="M266 139h75v-7q0 -18 -5.5 -42.5t-20.5 -46t-42 -36.5t-70 -15q-47 0 -75 16.5t-44 39.5t-21 47.5t-5 40.5v230q0 15 5 38t20 45.5t42.5 38.5t72.5 16q44 0 72.5 -16t44.5 -38.5t22 -47t6 -40.5v-142h-210v-79q0 -40 17.5 -58t52.5 -18q33 0 48 18.5t15 49.5v6zM268 276
v85q0 12 -3 24.5t-11 22.5t-21 16.5t-32 6.5q-20 0 -33 -7t-21 -18t-11 -24t-3 -25v-81h135zM256 700h46l-51 -114h-104l-50 114h46l56 -70z" />
    <glyph glyph-name="Gcircumflex" unicode="&#x11c;" horiz-adv-x="461" 
d="M335 56q-11 -19 -26 -32t-32 -20.5t-34 -10.5t-31 -3q-32 0 -61.5 8.5t-52.5 37.5q-22 28 -28.5 61.5t-6.5 56.5v369q0 32 4.5 63t27.5 62q14 20 32 32t36.5 19t35.5 9t31 2q75 0 121.5 -39.5t46.5 -126.5v-32h-75v31q0 11 -3 27t-12.5 31t-27.5 25.5t-49 10.5t-49.5 -12
t-28 -30t-12.5 -38.5t-3 -36.5v-342q0 -54 20 -84.5t71 -30.5t72.5 35.5t21.5 93.5v112h-89v65h164v-369h-43zM354 768h-56l-60 65l-60 -65h-56l56 106h120z" />
    <glyph glyph-name="gcircumflex" unicode="&#x11d;" 
d="M348 -60q0 -23 -7 -49t-24.5 -48.5t-46 -37t-71.5 -14.5q-61 0 -99 33t-38 101h72q3 -21 10.5 -33t17 -18t20 -8t20.5 -2q19 0 32.5 6.5t22 16.5t12.5 21.5t4 22.5v123q-24 -32 -52.5 -44.5t-54.5 -12.5q-33 0 -53.5 11t-31.5 28.5t-15 37.5t-4 38v277q0 18 4 38t15 37.5
t31.5 28.5t53.5 11q26 0 54.5 -12.5t52.5 -44.5v49h75v-556zM200 70q23 0 37 10t22 24t11 29.5t3 27.5v179q0 12 -3 27.5t-11 29.5t-22 24t-37 10q-18 0 -30 -6.5t-19.5 -17.5t-10.5 -25t-3 -28v-207q0 -14 3 -28t10.5 -25t19.5 -17.5t30 -6.5zM150 586h-46l51 114h104
l50 -114h-46l-56 70z" />
    <glyph glyph-name="Gbreve" unicode="&#x11e;" horiz-adv-x="461" 
d="M335 56q-11 -19 -26 -32t-32 -20.5t-34 -10.5t-31 -3q-32 0 -61.5 8.5t-52.5 37.5q-22 28 -28.5 61.5t-6.5 56.5v369q0 32 4.5 63t27.5 62q14 20 32 32t36.5 19t35.5 9t31 2q75 0 121.5 -39.5t46.5 -126.5v-32h-75v31q0 11 -3 27t-12.5 31t-27.5 25.5t-49 10.5t-49.5 -12
t-28 -30t-12.5 -38.5t-3 -36.5v-342q0 -54 20 -84.5t71 -30.5t72.5 35.5t21.5 93.5v112h-89v65h164v-369h-43zM348 864q0 -52 -33.5 -77t-86.5 -25q-54 0 -87 25t-33 77v5h54v-3q0 -15 7 -24t17.5 -14t21.5 -6.5t20 -1.5t20 1.5t21.5 6.5t17.5 14t7 24v3h54v-5z" />
    <glyph glyph-name="gbreve" unicode="&#x11f;" 
d="M348 -60q0 -23 -7 -49t-24.5 -48.5t-46 -37t-71.5 -14.5q-61 0 -99 33t-38 101h72q3 -21 10.5 -33t17 -18t20 -8t20.5 -2q19 0 32.5 6.5t22 16.5t12.5 21.5t4 22.5v123q-24 -32 -52.5 -44.5t-54.5 -12.5q-33 0 -53.5 11t-31.5 28.5t-15 37.5t-4 38v277q0 18 4 38t15 37.5
t31.5 28.5t53.5 11q26 0 54.5 -12.5t52.5 -44.5v49h75v-556zM200 70q23 0 37 10t22 24t11 29.5t3 27.5v179q0 12 -3 27.5t-11 29.5t-22 24t-37 10q-18 0 -30 -6.5t-19.5 -17.5t-10.5 -25t-3 -28v-207q0 -14 3 -28t10.5 -25t19.5 -17.5t30 -6.5zM310 700q0 -15 -3.5 -35
t-15 -38t-34 -30.5t-60.5 -12.5t-60.5 12.5t-34 30.5t-15 38t-3.5 35h46q3 -20 10 -31t16 -17t20 -7.5t21 -1.5t21 1.5t20 7.5t16 17t10 31h46z" />
    <glyph glyph-name="Gdotaccent" unicode="&#x120;" horiz-adv-x="461" 
d="M335 56q-11 -19 -26 -32t-32 -20.5t-34 -10.5t-31 -3q-32 0 -61.5 8.5t-52.5 37.5q-22 28 -28.5 61.5t-6.5 56.5v369q0 32 4.5 63t27.5 62q14 20 32 32t36.5 19t35.5 9t31 2q75 0 121.5 -39.5t46.5 -126.5v-32h-75v31q0 11 -3 27t-12.5 31t-27.5 25.5t-49 10.5t-49.5 -12
t-28 -30t-12.5 -38.5t-3 -36.5v-342q0 -54 20 -84.5t71 -30.5t72.5 35.5t21.5 93.5v112h-89v65h164v-369h-43zM271 863v-85h-84v85h84z" />
    <glyph glyph-name="gdotaccent" unicode="&#x121;" 
d="M348 -60q0 -23 -7 -49t-24.5 -48.5t-46 -37t-71.5 -14.5q-61 0 -99 33t-38 101h72q3 -21 10.5 -33t17 -18t20 -8t20.5 -2q19 0 32.5 6.5t22 16.5t12.5 21.5t4 22.5v123q-24 -32 -52.5 -44.5t-54.5 -12.5q-33 0 -53.5 11t-31.5 28.5t-15 37.5t-4 38v277q0 18 4 38t15 37.5
t31.5 28.5t53.5 11q26 0 54.5 -12.5t52.5 -44.5v49h75v-556zM200 70q23 0 37 10t22 24t11 29.5t3 27.5v179q0 12 -3 27.5t-11 29.5t-22 24t-37 10q-18 0 -30 -6.5t-19.5 -17.5t-10.5 -25t-3 -28v-207q0 -14 3 -28t10.5 -25t19.5 -17.5t30 -6.5zM233 679v-81h-83v81h83z" />
    <glyph glyph-name="Gcommaaccent" unicode="&#x122;" horiz-adv-x="461" 
d="M335 56q-11 -19 -26 -32t-32 -20.5t-34 -10.5t-31 -3q-32 0 -61.5 8.5t-52.5 37.5q-22 28 -28.5 61.5t-6.5 56.5v369q0 32 4.5 63t27.5 62q14 20 32 32t36.5 19t35.5 9t31 2q75 0 121.5 -39.5t46.5 -126.5v-32h-75v31q0 11 -3 27t-12.5 31t-27.5 25.5t-49 10.5t-49.5 -12
t-28 -30t-12.5 -38.5t-3 -36.5v-342q0 -54 20 -84.5t71 -30.5t72.5 35.5t21.5 93.5v112h-89v65h164v-369h-43zM260 -73v-92l-75 -61v153h75z" />
    <glyph glyph-name="gcommaaccent" unicode="&#x123;" 
d="M348 -60q0 -23 -7 -49t-24.5 -48.5t-46 -37t-71.5 -14.5q-61 0 -99 33t-38 101h72q3 -21 10.5 -33t17 -18t20 -8t20.5 -2q19 0 32.5 6.5t22 16.5t12.5 21.5t4 22.5v123q-24 -32 -52.5 -44.5t-54.5 -12.5q-33 0 -53.5 11t-31.5 28.5t-15 37.5t-4 38v277q0 18 4 38t15 37.5
t31.5 28.5t53.5 11q26 0 54.5 -12.5t52.5 -44.5v49h75v-556zM200 70q23 0 37 10t22 24t11 29.5t3 27.5v179q0 12 -3 27.5t-11 29.5t-22 24t-37 10q-18 0 -30 -6.5t-19.5 -17.5t-10.5 -25t-3 -28v-207q0 -14 3 -28t10.5 -25t19.5 -17.5t30 -6.5zM173.01 596.995v85.9951
l70.9961 60.9961v-146.991h-70.9961z" />
    <glyph glyph-name="Hcircumflex" unicode="&#x124;" horiz-adv-x="455" 
d="M143 700v-313h169v313h75v-700h-75v322h-169v-322h-75v700h75zM344 768h-56l-60 65l-60 -65h-56l56 106h120z" />
    <glyph glyph-name="hcircumflex" unicode="&#x125;" 
d="M62 700h75v-253q24 32 52.5 44.5t54.5 12.5q33 0 53.5 -11t31.5 -28.5t15 -37.5t4 -38v-389h-75v354q0 14 -3 28t-10.5 25t-19.5 17.5t-30 6.5q-23 0 -37 -10t-22 -24t-11 -29.5t-3 -27.5v-340h-75v700zM45 790h-46l51 114h104l50 -114h-46l-56 70z" />
    <glyph glyph-name="Hbar" unicode="&#x126;" horiz-adv-x="459" 
d="M68 642v58h75v-58h169v58h75v-58h51v-44h-51v-598h-75v322h-169v-322h-75v598h-47v44h47zM312 387v211h-169v-211h169z" />
    <glyph glyph-name="hbar" unicode="&#x127;" horiz-adv-x="413" 
d="M140 447q24 32 52.5 44.5t54.5 12.5q33 0 53.5 -11t31.5 -28.5t15 -37.5t4 -38v-389h-75v354q0 14 -3 28t-10.5 25t-19.5 17.5t-30 6.5q-23 0 -37 -10t-22 -24t-11 -29.5t-3 -27.5v-340h-75v556h-60v51h60v93h75v-93h114v-51h-114v-109z" />
    <glyph glyph-name="Imacron" unicode="&#x12a;" horiz-adv-x="220" 
d="M147 700v-700h-75v700h75zM220 844v-58h-218v58h218z" />
    <glyph glyph-name="imacron" unicode="&#x12b;" horiz-adv-x="199" 
d="M62 496h75v-496h-75v496zM206 665v-58h-212v58h212z" />
    <glyph glyph-name="Iogonek" unicode="&#x12e;" horiz-adv-x="220" 
d="M147 700v-700h-10l-8 -6q-5 -3 -13 -9t-16 -13.5t-14 -17t-6 -21.5q0 -11 7.5 -20t24.5 -9q12 0 20.5 4t13.5 9l32 -30q-22 -25 -43 -30.5t-32 -5.5q-25 0 -41.5 7t-26 17.5t-13 23t-3.5 22.5q0 14 6 25.5t14 20.5t17 15l15 10l12 8h-11v700h75z" />
    <glyph glyph-name="iogonek" unicode="&#x12f;" horiz-adv-x="199" 
d="M62 496h75v-496h-12l-8 -6q-5 -3 -13 -9t-16 -13.5t-14 -17t-6 -21.5q0 -11 7.5 -20t24.5 -9q12 0 20.5 4t13.5 9l32 -30q-22 -25 -43 -30.5t-32 -5.5q-25 0 -41.5 7t-26 17.5t-13 23t-3.5 22.5q0 14 6 25.5t14 20.5t17 15l15 10l12 8h-9v496zM137 686v-73h-75v73h75z
" />
    <glyph glyph-name="Idotaccent" unicode="&#x130;" horiz-adv-x="220" 
d="M147 700v-700h-75v700h75zM153 863v-85h-84v85h84z" />
    <glyph glyph-name="dotlessi" unicode="&#x131;" horiz-adv-x="199" 
d="M62 496h75v-496h-75v496z" />
    <glyph glyph-name="Jcircumflex" unicode="&#x134;" horiz-adv-x="356" 
d="M53 91q12 -11 26.5 -19.5t40.5 -8.5q23 0 39.5 7t27.5 17q18 18 22 36.5t4 37.5v539h75v-523q0 -39 -8 -76t-42 -69q-44 -42 -118 -42q-38 0 -67 11t-53 36zM364 768h-56l-60 65l-60 -65h-56l56 106h120z" />
    <glyph glyph-name="jcircumflex" unicode="&#x135;" horiz-adv-x="202" 
d="M140 -63q0 -69 -31 -105t-99 -36h-20v73h5q26 0 40 9.5t21 22t8 25.5t1 19v551h75v-559zM48 578h-57l51 122h118l51 -122h-57l-53 67z" />
    <glyph glyph-name="Kcommaaccent" unicode="&#x136;" horiz-adv-x="462" 
d="M143 700v-372l189 372h76l-143 -279l172 -421h-81l-137 349l-76 -148v-201h-75v700h75zM271 -73v-92l-75 -61v153h75z" />
    <glyph glyph-name="kcommaaccent" unicode="&#x137;" horiz-adv-x="392" 
d="M62 700h75v-452l145 248h79l-121 -195l145 -301h-81l-110 235l-57 -95v-140h-75v700zM253 -73v-86l-71 -61v147h71z" />
    <glyph glyph-name="Lacute" unicode="&#x139;" horiz-adv-x="384" 
d="M143 700v-631h221v-69h-296v700h75zM134 764h-50l59 116h101z" />
    <glyph glyph-name="lacute" unicode="&#x13a;" horiz-adv-x="227" 
d="M137 700v-576q0 -8 2 -17.5t8 -17.5t17 -14t28 -6h11v-69h-23q-57 0 -87.5 30.5t-30.5 79.5v590h75zM113 750h-39l46 122h81z" />
    <glyph glyph-name="Lcommaaccent" unicode="&#x13b;" horiz-adv-x="384" 
d="M143 700v-631h221v-69h-296v700h75zM251 -73v-92l-75 -61v153h75z" />
    <glyph glyph-name="lcommaaccent" unicode="&#x13c;" horiz-adv-x="227" 
d="M137 700v-576q0 -8 2 -17.5t8 -17.5t17 -14t28 -6h11v-69h-23q-57 0 -87.5 30.5t-30.5 79.5v590h75zM171 -73v-86l-71 -61v147h71z" />
    <glyph glyph-name="Lcaron" unicode="&#x13d;" horiz-adv-x="384" 
d="M143 700v-631h221v-69h-296v700h75zM345 700v-94l-88 -80v174h88z" />
    <glyph glyph-name="lcaron" unicode="&#x13e;" horiz-adv-x="227" 
d="M137 700v-576q0 -8 2 -17.5t8 -17.5t17 -14t28 -6h11v-69h-23q-57 0 -87.5 30.5t-30.5 79.5v590h75zM266 700v-92l-73 -61v153h73z" />
    <glyph glyph-name="Ldot" unicode="&#x13f;" horiz-adv-x="384" 
d="M143 700v-631h221v-69h-296v700h75zM324 414v-81h-83v81h83z" />
    <glyph glyph-name="ldot" unicode="&#x140;" horiz-adv-x="260" 
d="M137 700v-576q0 -8 2 -17.5t8 -17.5t17 -14t28 -6h11v-69h-23q-57 0 -87.5 30.5t-30.5 79.5v590h75zM273 421v-81h-83v81h83z" />
    <glyph glyph-name="Lslash" unicode="&#x141;" horiz-adv-x="384" 
d="M143 700v-298l70 60l26 -32l-96 -83v-278h221v-69h-296v283l-50 -43l-25 34l75 64v362h75z" />
    <glyph glyph-name="lslash" unicode="&#x142;" horiz-adv-x="227" 
d="M62 354v346h75v-282l61 53l24 -32l-85 -74v-241q0 -8 2 -17.5t8 -17.5t17 -14t28 -6h11v-69h-23q-57 0 -87.5 30.5t-30.5 79.5v190l-51 -44l-25 33z" />
    <glyph glyph-name="Nacute" unicode="&#x143;" horiz-adv-x="484" 
d="M143 700l198 -521v521h75v-700h-75l-198 511v-511h-75v700h75zM266 764h-50l59 116h101z" />
    <glyph glyph-name="nacute" unicode="&#x144;" 
d="M62 496h75v-49q24 32 52.5 44.5t54.5 12.5q33 0 53.5 -11t31.5 -28.5t15 -37.5t4 -38v-389h-75v354q0 14 -3 28t-10.5 25t-19.5 17.5t-30 6.5q-23 0 -37 -10t-22 -24t-11 -29.5t-3 -27.5v-340h-75v496zM218 578h-39l46 122h81z" />
    <glyph glyph-name="Ncommaaccent" unicode="&#x145;" horiz-adv-x="484" 
d="M143 700l198 -521v521h75v-700h-75l-198 511v-511h-75v700h75zM272 -73v-92l-75 -61v153h75z" />
    <glyph glyph-name="ncommaaccent" unicode="&#x146;" 
d="M62 496h75v-49q24 32 52.5 44.5t54.5 12.5q33 0 53.5 -11t31.5 -28.5t15 -37.5t4 -38v-389h-75v354q0 14 -3 28t-10.5 25t-19.5 17.5t-30 6.5q-23 0 -37 -10t-22 -24t-11 -29.5t-3 -27.5v-340h-75v496zM236 -73v-86l-71 -61v147h71z" />
    <glyph glyph-name="Ncaron" unicode="&#x147;" horiz-adv-x="484" 
d="M143 700l198 -521v521h75v-700h-75l-198 511v-511h-75v700h75zM126 874h56l60 -65l60 65h56l-56 -106h-120z" />
    <glyph glyph-name="ncaron" unicode="&#x148;" 
d="M62 496h75v-49q24 32 52.5 44.5t54.5 12.5q33 0 53.5 -11t31.5 -28.5t15 -37.5t4 -38v-389h-75v354q0 14 -3 28t-10.5 25t-19.5 17.5t-30 6.5q-23 0 -37 -10t-22 -24t-11 -29.5t-3 -27.5v-340h-75v496zM261 700h46l-51 -114h-104l-50 114h46l56 -70z" />
    <glyph glyph-name="Omacron" unicode="&#x14c;" horiz-adv-x="462" 
d="M63 523q0 19 1.5 38.5t6.5 37.5t15 35.5t27 33.5q44 42 118 42t118 -42q34 -32 42 -69t8 -76v-346q0 -39 -8 -76t-42 -69q-44 -42 -118 -42t-118 42q-17 16 -27 33.5t-15 35.5t-6.5 37t-1.5 39v346zM324 539q0 19 -4 37.5t-22 35.5q-11 11 -27.5 18t-39.5 7t-39.5 -7
t-27.5 -18q-18 -17 -22 -35.5t-4 -37.5v-378q0 -19 4 -37.5t22 -36.5q11 -10 27.5 -17t39.5 -7t39.5 7t27.5 17q18 18 22 36.5t4 37.5v378zM340 844v-58h-218v58h218z" />
    <glyph glyph-name="omacron" unicode="&#x14d;" horiz-adv-x="402" 
d="M58 364q0 14 5 37.5t20.5 46.5t43.5 39.5t74 16.5t74 -16.5t43.5 -39.5t20.5 -46.5t5 -36.5v-231q0 -15 -5 -39t-20.5 -47t-43.5 -39.5t-74 -16.5t-74 16.5t-43.5 39.5t-20.5 47t-5 39v230zM269 350q0 42 -20 61.5t-48 19.5t-48 -19.5t-20 -61.5v-204q0 -39 17.5 -60
t50.5 -21q32 0 50 20t18 61v204zM304 665v-58h-212v58h212z" />
    <glyph glyph-name="Obreve" unicode="&#x14e;" horiz-adv-x="462" 
d="M63 523q0 19 1.5 38.5t6.5 37.5t15 35.5t27 33.5q44 42 118 42t118 -42q34 -32 42 -69t8 -76v-346q0 -39 -8 -76t-42 -69q-44 -42 -118 -42t-118 42q-17 16 -27 33.5t-15 35.5t-6.5 37t-1.5 39v346zM324 539q0 19 -4 37.5t-22 35.5q-11 11 -27.5 18t-39.5 7t-39.5 -7
t-27.5 -18q-18 -17 -22 -35.5t-4 -37.5v-378q0 -19 4 -37.5t22 -36.5q11 -10 27.5 -17t39.5 -7t39.5 7t27.5 17q18 18 22 36.5t4 37.5v378zM351 864q0 -52 -33.5 -77t-86.5 -25q-54 0 -87 25t-33 77v5h54v-3q0 -15 7 -24t17.5 -14t21.5 -6.5t20 -1.5t20 1.5t21.5 6.5
t17.5 14t7 24v3h54v-5z" />
    <glyph glyph-name="obreve" unicode="&#x14f;" horiz-adv-x="402" 
d="M58 364q0 14 5 37.5t20.5 46.5t43.5 39.5t74 16.5t74 -16.5t43.5 -39.5t20.5 -46.5t5 -36.5v-231q0 -15 -5 -39t-20.5 -47t-43.5 -39.5t-74 -16.5t-74 16.5t-43.5 39.5t-20.5 47t-5 39v230zM269 350q0 42 -20 61.5t-48 19.5t-48 -19.5t-20 -61.5v-204q0 -39 17.5 -60
t50.5 -21q32 0 50 20t18 61v204zM314 700q0 -15 -3.5 -35t-15 -38t-34 -30.5t-60.5 -12.5t-60.5 12.5t-34 30.5t-15 38t-3.5 35h46q3 -20 10 -31t16 -17t20 -7.5t21 -1.5t21 1.5t20 7.5t16 17t10 31h46z" />
    <glyph glyph-name="Ohungarumlaut" unicode="&#x150;" horiz-adv-x="462" 
d="M63 523q0 19 1.5 38.5t6.5 37.5t15 35.5t27 33.5q44 42 118 42t118 -42q34 -32 42 -69t8 -76v-346q0 -39 -8 -76t-42 -69q-44 -42 -118 -42t-118 42q-17 16 -27 33.5t-15 35.5t-6.5 37t-1.5 39v346zM324 539q0 19 -4 37.5t-22 35.5q-11 11 -27.5 18t-39.5 7t-39.5 -7
t-27.5 -18q-18 -17 -22 -35.5t-4 -37.5v-378q0 -19 4 -37.5t22 -36.5q11 -10 27.5 -17t39.5 -7t39.5 7t27.5 17q18 18 22 36.5t4 37.5v378zM183 764h-48l56 111h97zM316 764h-48l57 111h96z" />
    <glyph glyph-name="ohungarumlaut" unicode="&#x151;" horiz-adv-x="402" 
d="M58 364q0 14 5 37.5t20.5 46.5t43.5 39.5t74 16.5t74 -16.5t43.5 -39.5t20.5 -46.5t5 -36.5v-231q0 -15 -5 -39t-20.5 -47t-43.5 -39.5t-74 -16.5t-74 16.5t-43.5 39.5t-20.5 47t-5 39v230zM269 350q0 42 -20 61.5t-48 19.5t-48 -19.5t-20 -61.5v-204q0 -39 17.5 -60
t50.5 -21q32 0 50 20t18 61v204zM154 578h-38l46 122h80zM280 578h-38l46 122h80z" />
    <glyph glyph-name="OE" unicode="&#x152;" horiz-adv-x="638" 
d="M324 33q-18 -18 -42 -30.5t-59 -12.5q-48 0 -79 18.5t-49 46t-25 60.5t-7 62v346q0 28 6.5 61t24.5 61t51 46.5t86 18.5q35 0 57 -12.5t36 -28.5v31h281v-69h-206v-244h182v-65h-182v-253h209v-69h-284v33zM324 550q-1 12 -5.5 27t-15 28.5t-28 22.5t-44.5 9
q-30 0 -48.5 -10.5t-28 -25.5t-13 -32t-3.5 -30v-378q0 -13 3 -30t12.5 -32t28 -25.5t49.5 -10.5t49 10.5t28 25.5t13 32t3 30v389z" />
    <glyph glyph-name="oe" unicode="&#x153;" horiz-adv-x="608" 
d="M477 139h75v-7q0 -18 -5.5 -42.5t-20.5 -46t-42 -36.5t-70 -15q-40 0 -65.5 12t-42.5 30q-16 -18 -41.5 -30t-63.5 -12q-46 0 -74 16.5t-43.5 39.5t-20.5 47t-5 39v230q0 14 5 37.5t20.5 46.5t43.5 39.5t74 16.5q38 0 63 -12t41 -30q16 18 41 30t63 12q44 0 72.5 -16
t44.5 -38.5t22 -47t6 -40.5v-142h-210v-79q0 -40 17.5 -58t52.5 -18q33 0 48 18.5t15 49.5v6zM269 350q0 42 -20 61.5t-48 19.5t-48 -19.5t-20 -61.5v-204q0 -39 17.5 -60t50.5 -21q32 0 50 20t18 61v204zM479 276v85q0 12 -3 24.5t-11 22.5t-21 16.5t-32 6.5q-20 0 -33 -7
t-21 -18t-11 -24t-3 -25v-81h135z" />
    <glyph glyph-name="Racute" unicode="&#x154;" horiz-adv-x="446" 
d="M208 700q28 0 60.5 -4t60.5 -20.5t46 -50t18 -91.5v-55q0 -58 -24 -96t-72 -53l112 -330h-78l-103 315h-85v-315h-75v700h140zM143 380h74q42 0 71.5 23.5t29.5 70.5v66q0 33 -11 51.5t-27 28.5t-34.5 12.5t-32.5 2.5h-70v-255zM237 764h-50l59 116h101z" />
    <glyph glyph-name="racute" unicode="&#x155;" horiz-adv-x="291" 
d="M137 496v-78q20 27 38.5 43.5t35.5 26t33 13t31 3.5v-84h-14q-21 0 -43 -5t-40 -19.5t-29.5 -40t-11.5 -66.5v-289h-75v496h75zM187 578h-39l46 122h81z" />
    <glyph glyph-name="Rcommaaccent" unicode="&#x156;" horiz-adv-x="446" 
d="M208 700q28 0 60.5 -4t60.5 -20.5t46 -50t18 -91.5v-55q0 -58 -24 -96t-72 -53l112 -330h-78l-103 315h-85v-315h-75v700h140zM143 380h74q42 0 71.5 23.5t29.5 70.5v66q0 33 -11 51.5t-27 28.5t-34.5 12.5t-32.5 2.5h-70v-255zM260 -73v-92l-75 -61v153h75z" />
    <glyph glyph-name="rcommaaccent" unicode="&#x157;" horiz-adv-x="291" 
d="M137 496v-78q20 27 38.5 43.5t35.5 26t33 13t31 3.5v-84h-14q-21 0 -43 -5t-40 -19.5t-29.5 -40t-11.5 -66.5v-289h-75v496h75zM135 -73v-86l-71 -61v147h71z" />
    <glyph glyph-name="Rcaron" unicode="&#x158;" horiz-adv-x="446" 
d="M208 700q28 0 60.5 -4t60.5 -20.5t46 -50t18 -91.5v-55q0 -58 -24 -96t-72 -53l112 -330h-78l-103 315h-85v-315h-75v700h140zM143 380h74q42 0 71.5 23.5t29.5 70.5v66q0 33 -11 51.5t-27 28.5t-34.5 12.5t-32.5 2.5h-70v-255zM88 874h56l60 -65l60 65h56l-56 -106h-120
z" />
    <glyph glyph-name="rcaron" unicode="&#x159;" horiz-adv-x="291" 
d="M137 496v-78q20 27 38.5 43.5t35.5 26t33 13t31 3.5v-84h-14q-21 0 -43 -5t-40 -19.5t-29.5 -40t-11.5 -66.5v-289h-75v496h75zM225 700h46l-51 -114h-104l-50 114h46l56 -70z" />
    <glyph glyph-name="Sacute" unicode="&#x15a;" horiz-adv-x="436" 
d="M307 532q0 14 -3.5 35.5t-17.5 40.5q-9 11 -24.5 20t-42.5 9q-14 0 -30.5 -4.5t-30.5 -18.5q-18 -19 -22 -42t-4 -43q0 -16 2.5 -40t15.5 -44q11 -15 26.5 -24t28.5 -14l64 -23q22 -8 47 -21.5t42 -37.5q19 -26 23.5 -54.5t4.5 -61.5v-25q0 -52 -13 -89.5t-33 -60.5
q-19 -20 -51 -32t-74 -12q-52 0 -85 16t-50 39q-11 15 -17 33.5t-9 36t-3.5 30.5t-0.5 16v25h75v-20q0 -14 3.5 -35.5t16.5 -38.5q17 -20 36.5 -24.5t32.5 -4.5q35 0 52 10.5t25 20.5q14 18 17 40.5t3 40.5v27q0 20 -3.5 43.5t-16.5 39.5q-13 17 -30.5 26t-26.5 12l-76 27
q-26 9 -49.5 25.5t-37.5 49.5q-10 23 -12 48t-2 51v21q0 42 14 73.5t36 51.5q23 23 52.5 31.5t62.5 8.5q72 0 116 -44.5t44 -129.5v-24h-75v20zM232 764h-50l59 116h101z" />
    <glyph glyph-name="sacute" unicode="&#x15b;" horiz-adv-x="371" 
d="M253 365q-2 21 -8.5 34t-15.5 20.5t-20 10.5t-23 3q-28 0 -46 -13t-18 -51q0 -29 17.5 -44t41.5 -26l62 -30q17 -9 32.5 -19.5t27 -25.5t18.5 -37t7 -53q0 -15 -4.5 -39.5t-19.5 -47t-43.5 -39t-77.5 -16.5q-42 0 -69.5 12.5t-44 32.5t-23.5 45.5t-8 51.5h76
q3 -40 20.5 -56t46.5 -16q39 0 55.5 20t16.5 52q0 28 -12.5 45t-50.5 36l-61 30q-27 13 -43.5 28t-25 31.5t-11 34.5t-2.5 37q0 25 8.5 48t26 41t44.5 28.5t64 10.5q41 0 67.5 -13t42 -33.5t21.5 -45t7 -47.5h-75zM199 578h-39l46 122h81z" />
    <glyph glyph-name="Scircumflex" unicode="&#x15c;" horiz-adv-x="436" 
d="M307 532q0 14 -3.5 35.5t-17.5 40.5q-9 11 -24.5 20t-42.5 9q-14 0 -30.5 -4.5t-30.5 -18.5q-18 -19 -22 -42t-4 -43q0 -16 2.5 -40t15.5 -44q11 -15 26.5 -24t28.5 -14l64 -23q22 -8 47 -21.5t42 -37.5q19 -26 23.5 -54.5t4.5 -61.5v-25q0 -52 -13 -89.5t-33 -60.5
q-19 -20 -51 -32t-74 -12q-52 0 -85 16t-50 39q-11 15 -17 33.5t-9 36t-3.5 30.5t-0.5 16v25h75v-20q0 -14 3.5 -35.5t16.5 -38.5q17 -20 36.5 -24.5t32.5 -4.5q35 0 52 10.5t25 20.5q14 18 17 40.5t3 40.5v27q0 20 -3.5 43.5t-16.5 39.5q-13 17 -30.5 26t-26.5 12l-76 27
q-26 9 -49.5 25.5t-37.5 49.5q-10 23 -12 48t-2 51v21q0 42 14 73.5t36 51.5q23 23 52.5 31.5t62.5 8.5q72 0 116 -44.5t44 -129.5v-24h-75v20zM332 768h-56l-60 65l-60 -65h-56l56 106h120z" />
    <glyph glyph-name="scircumflex" unicode="&#x15d;" horiz-adv-x="371" 
d="M253 365q-2 21 -8.5 34t-15.5 20.5t-20 10.5t-23 3q-28 0 -46 -13t-18 -51q0 -29 17.5 -44t41.5 -26l62 -30q17 -9 32.5 -19.5t27 -25.5t18.5 -37t7 -53q0 -15 -4.5 -39.5t-19.5 -47t-43.5 -39t-77.5 -16.5q-42 0 -69.5 12.5t-44 32.5t-23.5 45.5t-8 51.5h76
q3 -40 20.5 -56t46.5 -16q39 0 55.5 20t16.5 52q0 28 -12.5 45t-50.5 36l-61 30q-27 13 -43.5 28t-25 31.5t-11 34.5t-2.5 37q0 25 8.5 48t26 41t44.5 28.5t64 10.5q41 0 67.5 -13t42 -33.5t21.5 -45t7 -47.5h-75zM129 586h-46l51 114h104l50 -114h-46l-56 70z" />
    <glyph glyph-name="Scedilla" unicode="&#x15e;" horiz-adv-x="436" 
d="M307 532q0 14 -3.5 35.5t-17.5 40.5q-9 11 -24.5 20t-42.5 9q-14 0 -30.5 -4.5t-30.5 -18.5q-18 -19 -22 -42t-4 -43q0 -16 2.5 -40t15.5 -44q11 -15 26.5 -24t28.5 -14l64 -23q22 -8 47 -21.5t42 -37.5q19 -26 23.5 -54.5t4.5 -61.5v-25q0 -52 -13 -89.5t-33 -60.5
q-33 -34 -96 -42l-2 -28q30 0 47 -18.5t17 -44.5q0 -22 -8 -36.5t-20.5 -23t-27 -12t-27.5 -3.5q-47 0 -76 32l36 33q12 -12 30 -12q11 0 19 5.5t8 18.5q0 11 -9.5 16.5t-22.5 5.5q-5 0 -8.5 -0.5t-7.5 -1.5l4 68q-44 3 -72.5 18.5t-43.5 35.5q-11 15 -17 33.5t-9 36
t-3.5 30.5t-0.5 16v25h75v-20q0 -14 3.5 -35.5t16.5 -38.5q17 -20 36.5 -24.5t32.5 -4.5q35 0 52 10.5t25 20.5q14 18 17 40.5t3 40.5v27q0 20 -3.5 43.5t-16.5 39.5q-13 17 -30.5 26t-26.5 12l-76 27q-26 9 -49.5 25.5t-37.5 49.5q-10 23 -12 48t-2 51v21q0 42 14 73.5
t36 51.5q23 23 52.5 31.5t62.5 8.5q72 0 116 -44.5t44 -129.5v-24h-75v20z" />
    <glyph glyph-name="scedilla" unicode="&#x15f;" horiz-adv-x="370" 
d="M253 365q-2 21 -8.5 34t-15.5 20.5t-20 10.5t-23 3q-28 0 -46 -13t-18 -51q0 -29 17.5 -44t41.5 -26l62 -30q17 -9 32.5 -19.5t27 -25.5t18.5 -37t7 -53q0 -14 -3.5 -36t-16 -43.5t-36 -39t-62.5 -21.5l-2 -30q30 0 47 -18.5t17 -44.5q0 -22 -8 -36.5t-20.5 -23t-27 -12
t-27.5 -3.5q-47 0 -76 32l36 33q12 -12 30 -12q11 0 19 5.5t8 18.5q0 11 -9.5 16.5t-22.5 5.5q-5 0 -8.5 -0.5t-7.5 -1.5l4 70q-35 3 -58.5 16.5t-38 33t-20.5 43.5t-7 48h76q3 -40 20.5 -56t46.5 -16q39 0 55.5 20t16.5 52q0 28 -12.5 45t-50.5 36l-61 30q-27 13 -43.5 28
t-25 31.5t-11 34.5t-2.5 37q0 25 8.5 48t26 41t44.5 28.5t64 10.5q41 0 67.5 -13t42 -33.5t21.5 -45t7 -47.5h-75z" />
    <glyph glyph-name="Scaron" unicode="&#x160;" horiz-adv-x="436" 
d="M307 532q0 14 -3.5 35.5t-17.5 40.5q-9 11 -24.5 20t-42.5 9q-14 0 -30.5 -4.5t-30.5 -18.5q-18 -19 -22 -42t-4 -43q0 -16 2.5 -40t15.5 -44q11 -15 26.5 -24t28.5 -14l64 -23q22 -8 47 -21.5t42 -37.5q19 -26 23.5 -54.5t4.5 -61.5v-25q0 -52 -13 -89.5t-33 -60.5
q-19 -20 -51 -32t-74 -12q-52 0 -85 16t-50 39q-11 15 -17 33.5t-9 36t-3.5 30.5t-0.5 16v25h75v-20q0 -14 3.5 -35.5t16.5 -38.5q17 -20 36.5 -24.5t32.5 -4.5q35 0 52 10.5t25 20.5q14 18 17 40.5t3 40.5v27q0 20 -3.5 43.5t-16.5 39.5q-13 17 -30.5 26t-26.5 12l-76 27
q-26 9 -49.5 25.5t-37.5 49.5q-10 23 -12 48t-2 51v21q0 42 14 73.5t36 51.5q23 23 52.5 31.5t62.5 8.5q72 0 116 -44.5t44 -129.5v-24h-75v20zM100 874h56l60 -65l60 65h56l-56 -106h-120z" />
    <glyph glyph-name="scaron" unicode="&#x161;" horiz-adv-x="371" 
d="M253 365q-2 21 -8.5 34t-15.5 20.5t-20 10.5t-23 3q-28 0 -46 -13t-18 -51q0 -29 17.5 -44t41.5 -26l62 -30q17 -9 32.5 -19.5t27 -25.5t18.5 -37t7 -53q0 -15 -4.5 -39.5t-19.5 -47t-43.5 -39t-77.5 -16.5q-42 0 -69.5 12.5t-44 32.5t-23.5 45.5t-8 51.5h76
q3 -40 20.5 -56t46.5 -16q39 0 55.5 20t16.5 52q0 28 -12.5 45t-50.5 36l-61 30q-27 13 -43.5 28t-25 31.5t-11 34.5t-2.5 37q0 25 8.5 48t26 41t44.5 28.5t64 10.5q41 0 67.5 -13t42 -33.5t21.5 -45t7 -47.5h-75zM241 700h46l-51 -114h-104l-50 114h46l56 -70z" />
    <glyph glyph-name="Tcedilla" unicode="&#x162;" horiz-adv-x="384" 
d="M154 0v631h-129v69h334v-69h-130v-631h-14l-3 -37q31 0 48.5 -19t17.5 -45q0 -23 -8.5 -38t-21 -23.5t-27.5 -12t-28 -3.5q-49 0 -78 33l37 33q12 -12 31 -12q11 0 19 5.5t8 19.5q0 11 -9.5 16.5t-23.5 5.5q-5 0 -8.5 -0.5t-7.5 -1.5l5 79h-12z" />
    <glyph glyph-name="tcedilla" unicode="&#x163;" horiz-adv-x="255" 
d="M150 647v-151h70v-60h-70v-301q0 -9 3 -26t17 -29q11 -9 24.5 -10.5t22.5 -1.5h8v-68h-38l-2 -36q30 0 47 -18.5t17 -44.5q0 -22 -8 -36.5t-20.5 -23t-27 -12t-27.5 -3.5q-47 0 -76 32l36 33q12 -12 30 -12q11 0 19 5.5t8 18.5q0 11 -9.5 16.5t-22.5 5.5q-5 0 -8.5 -0.5
t-7.5 -1.5l4 84q-11 4 -20.5 9.5t-17.5 14.5q-19 20 -22.5 46.5t-3.5 48.5v310h-53v60h53v151h75z" />
    <glyph glyph-name="Tcaron" unicode="&#x164;" horiz-adv-x="384" 
d="M359 700v-69h-130v-631h-75v631h-129v69h334zM79 874h56l60 -65l60 65h56l-56 -106h-120z" />
    <glyph glyph-name="tcaron" unicode="&#x165;" horiz-adv-x="255" 
d="M150 647v-151h70v-60h-70v-301q0 -9 3 -26t17 -29q11 -9 24.5 -10.5t22.5 -1.5h8v-68h-22q-11 0 -24 0.5t-27 3.5t-27.5 9.5t-23.5 17.5q-19 20 -22.5 46.5t-3.5 48.5v310h-53v60h53v151h75zM290 700v-92l-73 -61v153h73z" />
    <glyph glyph-name="Umacron" unicode="&#x16a;" horiz-adv-x="454" 
d="M143 700v-539q0 -44 21 -71t63 -27t63 27t21 71v539h75v-523q0 -56 -14.5 -92t-38 -57t-51.5 -29.5t-55 -8.5t-55 8.5t-51.5 29.5t-38 57t-14.5 92v523h75zM336 844v-58h-218v58h218z" />
    <glyph glyph-name="umacron" unicode="&#x16b;" 
d="M348 0h-75v49q-24 -32 -52.5 -44.5t-54.5 -12.5q-33 0 -53.5 11t-31.5 28.5t-15 37.5t-4 38v389h75v-354q0 -14 3 -28t10.5 -25t19.5 -17.5t30 -6.5q23 0 37 10t22 24t11 29.5t3 27.5v340h75v-496zM310 665v-58h-212v58h212z" />
    <glyph glyph-name="Ubreve" unicode="&#x16c;" horiz-adv-x="454" 
d="M143 700v-539q0 -44 21 -71t63 -27t63 27t21 71v539h75v-523q0 -56 -14.5 -92t-38 -57t-51.5 -29.5t-55 -8.5t-55 8.5t-51.5 29.5t-38 57t-14.5 92v523h75zM347 864q0 -52 -33.5 -77t-86.5 -25q-54 0 -87 25t-33 77v5h54v-3q0 -15 7 -24t17.5 -14t21.5 -6.5t20 -1.5
t20 1.5t21.5 6.5t17.5 14t7 24v3h54v-5z" />
    <glyph glyph-name="ubreve" unicode="&#x16d;" 
d="M348 0h-75v49q-24 -32 -52.5 -44.5t-54.5 -12.5q-33 0 -53.5 11t-31.5 28.5t-15 37.5t-4 38v389h75v-354q0 -14 3 -28t10.5 -25t19.5 -17.5t30 -6.5q23 0 37 10t22 24t11 29.5t3 27.5v340h75v-496zM320 700q0 -15 -3.5 -35t-15 -38t-34 -30.5t-60.5 -12.5t-60.5 12.5
t-34 30.5t-15 38t-3.5 35h46q3 -20 10 -31t16 -17t20 -7.5t21 -1.5t21 1.5t20 7.5t16 17t10 31h46z" />
    <glyph glyph-name="Uring" unicode="&#x16e;" horiz-adv-x="454" 
d="M143 700v-539q0 -44 21 -71t63 -27t63 27t21 71v539h75v-523q0 -56 -14.5 -92t-38 -57t-51.5 -29.5t-55 -8.5t-55 8.5t-51.5 29.5t-38 57t-14.5 92v523h75zM147 822q0 33 23.5 56.5t56.5 23.5t56.5 -23.5t23.5 -56.5t-23.5 -56.5t-56.5 -23.5t-56.5 23.5t-23.5 56.5z
M195 822q0 -13 9.5 -22.5t22.5 -9.5q15 0 25 9.5t10 22.5q0 15 -10 25t-25 10q-13 0 -22.5 -10t-9.5 -25z" />
    <glyph glyph-name="uring" unicode="&#x16f;" 
d="M348 0h-75v49q-24 -32 -52.5 -44.5t-54.5 -12.5q-33 0 -53.5 11t-31.5 28.5t-15 37.5t-4 38v389h75v-354q0 -14 3 -28t10.5 -25t19.5 -17.5t30 -6.5q23 0 37 10t22 24t11 29.5t3 27.5v340h75v-496zM125 643q0 16 6 30.5t16.5 25t24.5 16.5t30 6q32 0 55 -23t23 -55
q0 -16 -6 -30t-16.5 -24.5t-25 -16.5t-30.5 -6q-32 0 -54.5 22.5t-22.5 54.5zM171 643q0 -13 9 -22t22 -9q14 0 23 9t9 22q0 14 -9 23t-23 9q-13 0 -22 -9t-9 -23z" />
    <glyph glyph-name="Uhungarumlaut" unicode="&#x170;" horiz-adv-x="454" 
d="M143 700v-539q0 -44 21 -71t63 -27t63 27t21 71v539h75v-523q0 -56 -14.5 -92t-38 -57t-51.5 -29.5t-55 -8.5t-55 8.5t-51.5 29.5t-38 57t-14.5 92v523h75zM174 764h-48l56 111h97zM307 764h-48l57 111h96z" />
    <glyph glyph-name="uhungarumlaut" unicode="&#x171;" 
d="M348 0h-75v49q-24 -32 -52.5 -44.5t-54.5 -12.5q-33 0 -53.5 11t-31.5 28.5t-15 37.5t-4 38v389h75v-354q0 -14 3 -28t10.5 -25t19.5 -17.5t30 -6.5q23 0 37 10t22 24t11 29.5t3 27.5v340h75v-496zM150 578h-38l46 122h80zM276 578h-38l46 122h80z" />
    <glyph glyph-name="Uogonek" unicode="&#x172;" horiz-adv-x="454" 
d="M143 700v-539q0 -44 21 -71t63 -27t63 27t21 71v539h75v-523q0 -38 -7 -66.5t-19 -49.5t-28 -35t-34 -22l-14 -10q-5 -3 -13 -9t-16 -13.5t-14 -17t-6 -21.5q0 -11 7.5 -20t24.5 -9q12 0 20.5 4t13.5 9l32 -30q-22 -25 -43 -30.5t-32 -5.5q-25 0 -41.5 7t-26 17.5t-13 23
t-3.5 22.5q0 13 5 24t12.5 19.5t16 15t14.5 10.5q-27 1 -54 9.5t-49.5 30t-36.5 57t-14 90.5v523h75z" />
    <glyph glyph-name="uogonek" unicode="&#x173;" 
d="M348 0h-24l-8 -6q-5 -3 -13 -9t-16 -13.5t-14 -17t-6 -21.5q0 -11 7.5 -20t24.5 -9q12 0 20.5 4t13.5 9l32 -30q-22 -25 -43 -30.5t-32 -5.5q-25 0 -41.5 7t-26 17.5t-13 23t-3.5 22.5q0 14 6 25.5t14 20.5t17 15l15 10l15 9v48q-24 -32 -52.5 -44.5t-54.5 -12.5
q-33 0 -53.5 11t-31.5 28.5t-15 37.5t-4 38v389h75v-354q0 -14 3 -28t10.5 -25t19.5 -17.5t30 -6.5q23 0 37 10t22 24t11 29.5t3 27.5v340h75v-496z" />
    <glyph glyph-name="Ydieresis" unicode="&#x178;" horiz-adv-x="414" 
d="M244 295v-295h-75v298l-146 402h83l102 -305h3l101 305h79zM165 779h-76v81h76v-81zM249 860h76v-81h-76v81z" />
    <glyph glyph-name="Zacute" unicode="&#x179;" horiz-adv-x="399" 
d="M349 700v-66l-224 -565h219v-69h-294v77l219 554h-204v69h284zM224 764h-50l59 116h101z" />
    <glyph glyph-name="zacute" unicode="&#x17a;" horiz-adv-x="339" 
d="M47 496h258v-60l-190 -373h190v-63h-271v60l191 373h-178v63zM183 578h-39l46 122h81z" />
    <glyph glyph-name="Zdotaccent" unicode="&#x17b;" horiz-adv-x="399" 
d="M349 700v-66l-224 -565h219v-69h-294v77l219 554h-204v69h284zM248 863v-85h-84v85h84z" />
    <glyph glyph-name="zdotaccent" unicode="&#x17c;" horiz-adv-x="339" 
d="M47 496h258v-60l-190 -373h190v-63h-271v60l191 373h-178v63zM210 679v-81h-83v81h83z" />
    <glyph glyph-name="Zcaron" unicode="&#x17d;" horiz-adv-x="399" 
d="M349 700v-66l-224 -565h219v-69h-294v77l219 554h-204v69h284zM92 874h56l60 -65l60 65h56l-56 -106h-120z" />
    <glyph glyph-name="zcaron" unicode="&#x17e;" horiz-adv-x="339" 
d="M47 496h258v-60l-190 -373h190v-63h-271v60l191 373h-178v63zM231 700h46l-51 -114h-104l-50 114h46l56 -70z" />
    <glyph glyph-name="uni018F" unicode="&#x18f;" horiz-adv-x="444" 
d="M63 573q0 35 13 61t35 43t50 25t58 8t59 -7t52 -23.5t37 -42.5t14 -64v-414q0 -91 -40 -130t-124 -39q-28 0 -55.5 5.5t-49.5 20t-35.5 40t-13.5 64.5v267h243v177q0 34 -24.5 53.5t-61.5 19.5q-39 0 -60.5 -24t-21.5 -62v-29h-75v51zM138 146q0 -42 23.5 -62.5
t61.5 -20.5q30 0 47 9.5t25 23t9.5 28.5t1.5 27v172h-168v-177z" />
    <glyph glyph-name="florin" unicode="&#x192;" 
d="M330 433h-86l-81 -505q-6 -38 -21.5 -63t-37 -40.5t-47.5 -22t-53 -6.5h-21l12 64h6q30 0 56.5 18.5t33.5 60.5l77 494h-82l10 56h80l14 80q6 36 17.5 61t30.5 40.5t46.5 22.5t64.5 7h26l-10 -64h-24q-37 0 -55.5 -22t-23.5 -57l-10 -68h87z" />
    <glyph glyph-name="uni01CF" unicode="&#x1cf;" horiz-adv-x="220" 
d="M147 700v-700h-75v700h75zM-5 874h56l60 -65l60 65h56l-56 -106h-120z" />
    <glyph glyph-name="uni01D0" unicode="&#x1d0;" horiz-adv-x="199" 
d="M62 496h75v-496h-75v496zM157 700h46l-51 -114h-104l-50 114h46l56 -70z" />
    <glyph glyph-name="uni01DD" unicode="&#x1dd;" horiz-adv-x="397" 
d="M131 357h-75v7q0 18 5.5 42.5t20.5 46t42 36.5t70 15q46 0 74.5 -16.5t44.5 -39.5t21 -47.5t5 -40.5v-230q0 -15 -5 -38t-20 -45.5t-42.5 -38.5t-72.5 -16q-44 0 -72.5 16t-44.5 38.5t-22 47t-6 40.5v142h210v79q0 40 -17.5 58t-52.5 18q-33 0 -48 -18.5t-15 -49.5v-6z
M129 220v-85q0 -12 3 -24.5t11 -22.5t20.5 -16.5t32.5 -6.5t33 7t21 18t11 24t3 25v81h-135z" />
    <glyph glyph-name="Gcaron" unicode="&#x1e6;" horiz-adv-x="461" 
d="M335 56q-11 -19 -26 -32t-32 -20.5t-34 -10.5t-31 -3q-32 0 -61.5 8.5t-52.5 37.5q-22 28 -28.5 61.5t-6.5 56.5v369q0 32 4.5 63t27.5 62q14 20 32 32t36.5 19t35.5 9t31 2q75 0 121.5 -39.5t46.5 -126.5v-32h-75v31q0 11 -3 27t-12.5 31t-27.5 25.5t-49 10.5t-49.5 -12
t-28 -30t-12.5 -38.5t-3 -36.5v-342q0 -54 20 -84.5t71 -30.5t72.5 35.5t21.5 93.5v112h-89v65h164v-369h-43zM120 874h56l60 -65l60 65h56l-56 -106h-120z" />
    <glyph glyph-name="gcaron" unicode="&#x1e7;" 
d="M348 -60q0 -23 -7 -49t-24.5 -48.5t-46 -37t-71.5 -14.5q-61 0 -99 33t-38 101h72q3 -21 10.5 -33t17 -18t20 -8t20.5 -2q19 0 32.5 6.5t22 16.5t12.5 21.5t4 22.5v123q-24 -32 -52.5 -44.5t-54.5 -12.5q-33 0 -53.5 11t-31.5 28.5t-15 37.5t-4 38v277q0 18 4 38t15 37.5
t31.5 28.5t53.5 11q26 0 54.5 -12.5t52.5 -44.5v49h75v-556zM200 70q23 0 37 10t22 24t11 29.5t3 27.5v179q0 12 -3 27.5t-11 29.5t-22 24t-37 10q-18 0 -30 -6.5t-19.5 -17.5t-10.5 -25t-3 -28v-207q0 -14 3 -28t10.5 -25t19.5 -17.5t30 -6.5zM261 700h46l-51 -114h-104
l-50 114h46l56 -70z" />
    <glyph glyph-name="Scommaaccent" unicode="&#x218;" horiz-adv-x="436" 
d="M307 532q0 14 -3.5 35.5t-17.5 40.5q-9 11 -24.5 20t-42.5 9q-14 0 -30.5 -4.5t-30.5 -18.5q-18 -19 -22 -42t-4 -43q0 -16 2.5 -40t15.5 -44q11 -15 26.5 -24t28.5 -14l64 -23q22 -8 47 -21.5t42 -37.5q19 -26 23.5 -54.5t4.5 -61.5v-25q0 -52 -13 -89.5t-33 -60.5
q-19 -20 -51 -32t-74 -12q-52 0 -85 16t-50 39q-11 15 -17 33.5t-9 36t-3.5 30.5t-0.5 16v25h75v-20q0 -14 3.5 -35.5t16.5 -38.5q17 -20 36.5 -24.5t32.5 -4.5q35 0 52 10.5t25 20.5q14 18 17 40.5t3 40.5v27q0 20 -3.5 43.5t-16.5 39.5q-13 17 -30.5 26t-26.5 12l-76 27
q-26 9 -49.5 25.5t-37.5 49.5q-10 23 -12 48t-2 51v21q0 42 14 73.5t36 51.5q23 23 52.5 31.5t62.5 8.5q72 0 116 -44.5t44 -129.5v-24h-75v20zM268 -73v-92l-75 -61v153h75z" />
    <glyph glyph-name="scommaaccent" unicode="&#x219;" horiz-adv-x="371" 
d="M253 365q-2 21 -8.5 34t-15.5 20.5t-20 10.5t-23 3q-28 0 -46 -13t-18 -51q0 -29 17.5 -44t41.5 -26l62 -30q17 -9 32.5 -19.5t27 -25.5t18.5 -37t7 -53q0 -15 -4.5 -39.5t-19.5 -47t-43.5 -39t-77.5 -16.5q-42 0 -69.5 12.5t-44 32.5t-23.5 45.5t-8 51.5h76
q3 -40 20.5 -56t46.5 -16q39 0 55.5 20t16.5 52q0 28 -12.5 45t-50.5 36l-61 30q-27 13 -43.5 28t-25 31.5t-11 34.5t-2.5 37q0 25 8.5 48t26 41t44.5 28.5t64 10.5q41 0 67.5 -13t42 -33.5t21.5 -45t7 -47.5h-75zM219 -73v-86l-71 -61v147h71z" />
    <glyph glyph-name="Tcommaaccent" unicode="&#x21a;" horiz-adv-x="384" 
d="M359 700v-69h-130v-631h-75v631h-129v69h334zM229 -73v-92l-75 -61v153h75z" />
    <glyph glyph-name="tcommaaccent" unicode="&#x21b;" horiz-adv-x="255" 
d="M150 647v-151h70v-60h-70v-301q0 -9 3 -26t17 -29q11 -9 24.5 -10.5t22.5 -1.5h8v-68h-22q-11 0 -24 0.5t-27 3.5t-27.5 9.5t-23.5 17.5q-19 20 -22.5 46.5t-3.5 48.5v310h-53v60h53v151h75zM188 -73v-86l-71 -61v147h71z" />
    <glyph glyph-name="uni0259" unicode="&#x259;" horiz-adv-x="397" 
d="M131 357h-75v7q0 18 5.5 42.5t20.5 46t42 36.5t70 15q46 0 74.5 -16.5t44.5 -39.5t21 -47.5t5 -40.5v-230q0 -15 -5 -38t-20 -45.5t-42.5 -38.5t-72.5 -16q-44 0 -72.5 16t-44.5 38.5t-22 47t-6 40.5v142h210v79q0 40 -17.5 58t-52.5 18q-33 0 -48 -18.5t-15 -49.5v-6z
M129 220v-85q0 -12 3 -24.5t11 -22.5t20.5 -16.5t32.5 -6.5t33 7t21 18t11 24t3 25v81h-135z" />
    <glyph glyph-name="afii57929" unicode="&#x2bc;" horiz-adv-x="183" 
d="M133 700v-92l-73 -61v153h73z" />
    <glyph glyph-name="circumflex" unicode="&#x2c6;" horiz-adv-x="345" 
d="M116 586h-46l51 114h104l50 -114h-46l-56 70z" />
    <glyph glyph-name="caron" unicode="&#x2c7;" horiz-adv-x="345" 
d="M229 700h46l-51 -114h-104l-50 114h46l56 -70z" />
    <glyph glyph-name="breve" unicode="&#x2d8;" horiz-adv-x="356" 
d="M291 700q0 -15 -3.5 -35t-15 -38t-34 -30.5t-60.5 -12.5t-60.5 12.5t-34 30.5t-15 38t-3.5 35h46q3 -20 10 -31t16 -17t20 -7.5t21 -1.5t21 1.5t20 7.5t16 17t10 31h46z" />
    <glyph glyph-name="dotaccent" unicode="&#x2d9;" horiz-adv-x="207" 
d="M145 679v-81h-83v81h83z" />
    <glyph glyph-name="ring" unicode="&#x2da;" horiz-adv-x="295" 
d="M70 643q0 16 6 30.5t16.5 25t24.5 16.5t30 6q32 0 55 -23t23 -55q0 -16 -6 -30t-16.5 -24.5t-25 -16.5t-30.5 -6q-32 0 -54.5 22.5t-22.5 54.5zM116 643q0 -13 9 -22t22 -9q14 0 23 9t9 22q0 14 -9 23t-23 9q-13 0 -22 -9t-9 -23z" />
    <glyph glyph-name="ogonek" unicode="&#x2db;" horiz-adv-x="269" 
d="M175 -6q-5 -3 -13 -9t-16 -13.5t-14 -17t-6 -21.5q0 -11 7.5 -20t24.5 -9q12 0 20.5 4t13.5 9l32 -30q-22 -25 -43 -30.5t-32 -5.5q-25 0 -41.5 7t-26 17.5t-13 23t-3.5 22.5q0 14 6 25.5t14 20.5t17 15l15 10l20 13h53z" />
    <glyph glyph-name="tilde" unicode="&#x2dc;" horiz-adv-x="357" 
d="M60 585q0 16 4 33t12.5 31.5t21.5 23.5t31 9q7 0 16.5 -1.5t26.5 -9.5l19 -9q7 -3 14 -5.5t17 -2.5t18.5 8t11.5 30h45q0 -48 -21 -72.5t-46 -24.5q-13 0 -25.5 4t-19.5 7l-20 9q-7 3 -13.5 5t-15.5 2t-18.5 -8t-11.5 -30h-46v1z" />
    <glyph glyph-name="hungarumlaut" unicode="&#x2dd;" horiz-adv-x="392" 
d="M128 578h-38l46 122h80zM254 578h-38l46 122h80z" />
    <glyph glyph-name="acutecomb" unicode="&#x301;" horiz-adv-x="0" 
d="M-202 578h-39l46 122h81z" />
    <glyph glyph-name="uni0394" unicode="&#x394;" horiz-adv-x="426" 
d="M42 76l138 624h66l138 -624v-76h-342v76zM213 567h-2l-99 -502h202z" />
    <glyph glyph-name="uni0394" unicode="&#x2206;" horiz-adv-x="426" 
d="M42 76l138 624h66l138 -624v-76h-342v76zM213 567h-2l-99 -502h202z" />
    <glyph glyph-name="uni03A9" unicode="&#x3a9;" horiz-adv-x="456" 
d="M60 522q0 30 7.5 62t26.5 57.5t51.5 42t82.5 16.5q49 0 81.5 -16.5t52 -42.5t27 -57.5t7.5 -61.5v-261q0 -66 -16 -97t-48 -39v-52h72v-73h-136v181q35 11 44 34t9 55v258q0 13 -3 30t-13 32.5t-28.5 26t-48.5 10.5t-48.5 -10.5t-28.5 -26t-13 -32.5t-3 -30v-258
q0 -17 1 -31t6.5 -25t16 -19.5t29.5 -13.5v-181h-136v73h72v52q-32 8 -48 39t-16 97v261z" />
    <glyph glyph-name="uni03A9" unicode="&#x2126;" horiz-adv-x="456" 
d="M60 522q0 30 7.5 62t26.5 57.5t51.5 42t82.5 16.5q49 0 81.5 -16.5t52 -42.5t27 -57.5t7.5 -61.5v-261q0 -66 -16 -97t-48 -39v-52h72v-73h-136v181q35 11 44 34t9 55v258q0 13 -3 30t-13 32.5t-28.5 26t-48.5 10.5t-48.5 -10.5t-28.5 -26t-13 -32.5t-3 -30v-258
q0 -17 1 -31t6.5 -25t16 -19.5t29.5 -13.5v-181h-136v73h72v52q-32 8 -48 39t-16 97v261z" />
    <glyph glyph-name="pi" unicode="&#x3c0;" horiz-adv-x="422" 
d="M68 433h-41v63h368v-63h-41v-433h-75v433h-136v-433h-75v433z" />
    <glyph glyph-name="afii10023" unicode="&#x401;" horiz-adv-x="382" 
d="M68 700h281v-69h-206v-244h182v-65h-182v-253h209v-69h-284v700zM167 778h-78v82h78v-82zM247 860h78v-82h-78v82z" />
    <glyph glyph-name="afii10051" unicode="&#x402;" horiz-adv-x="518" 
d="M359 700v-69h-130v-218h75q13 0 29 -1.5t32.5 -5.5t32 -12.5t28.5 -21.5q24 -25 30.5 -59t6.5 -60v-51q0 -41 -3.5 -82t-22.5 -70q-12 -18 -27 -28t-29.5 -15t-27.5 -6t-21 -1h-16v75h7q23 0 35.5 11t16.5 19q10 19 11.5 40.5t1.5 38.5v46q0 9 -0.5 21.5t-3.5 26t-8 26
t-14 21.5q-17 17 -42 20t-41 3h-50v-348h-75v631h-129v69h334z" />
    <glyph glyph-name="afii10052" unicode="&#x403;" horiz-adv-x="371" 
d="M68 700h288v-69h-213v-631h-75v700zM231 764h-50l59 116h101z" />
    <glyph glyph-name="afii10053" unicode="&#x404;" horiz-adv-x="414" 
d="M307 549q0 9 -3 24t-11.5 29.5t-25 24.5t-43.5 10q-30 0 -47 -11t-25.5 -27.5t-11 -35t-2.5 -32.5v-133h129v-65h-129v-179q0 -9 3 -24.5t11.5 -30.5t24.5 -25.5t42 -10.5q15 0 30 4t28 14.5t21 30t8 49.5v12h76v-16q0 -75 -38 -121t-128 -46q-53 0 -83 18.5t-46 43.5
t-20 51t-4 41v414q0 30 10 57.5t30 48.5t49.5 33.5t67.5 12.5q33 0 62 -8.5t50.5 -26.5t34.5 -47t13 -71v-35h-73v27z" />
    <glyph glyph-name="afii10054" unicode="&#x405;" horiz-adv-x="436" 
d="M307 532q0 14 -3.5 35.5t-17.5 40.5q-9 11 -24.5 20t-42.5 9q-14 0 -30.5 -4.5t-30.5 -18.5q-18 -19 -22 -42t-4 -43q0 -16 2.5 -40t15.5 -44q11 -15 26.5 -24t28.5 -14l64 -23q22 -8 47 -21.5t42 -37.5q19 -26 23.5 -54.5t4.5 -61.5v-25q0 -52 -13 -89.5t-33 -60.5
q-19 -20 -51 -32t-74 -12q-52 0 -85 16t-50 39q-11 15 -17 33.5t-9 36t-3.5 30.5t-0.5 16v25h75v-20q0 -14 3.5 -35.5t16.5 -38.5q17 -20 36.5 -24.5t32.5 -4.5q35 0 52 10.5t25 20.5q14 18 17 40.5t3 40.5v27q0 20 -3.5 43.5t-16.5 39.5q-13 17 -30.5 26t-26.5 12l-76 27
q-26 9 -49.5 25.5t-37.5 49.5q-10 23 -12 48t-2 51v21q0 42 14 73.5t36 51.5q23 23 52.5 31.5t62.5 8.5q72 0 116 -44.5t44 -129.5v-24h-75v20z" />
    <glyph glyph-name="afii10055" unicode="&#x406;" horiz-adv-x="220" 
d="M147 700v-700h-75v700h75z" />
    <glyph glyph-name="afii10056" unicode="&#x407;" horiz-adv-x="220" 
d="M147 700v-700h-75v700h75zM70 778h-78v82h78v-82zM150 860h78v-82h-78v82z" />
    <glyph glyph-name="afii10057" unicode="&#x408;" horiz-adv-x="356" 
d="M53 91q12 -11 26.5 -19.5t40.5 -8.5q23 0 39.5 7t27.5 17q18 18 22 36.5t4 37.5v539h75v-523q0 -39 -8 -76t-42 -69q-44 -42 -118 -42q-38 0 -67 11t-53 36z" />
    <glyph glyph-name="afii10058" unicode="&#x409;" horiz-adv-x="670" 
d="M310 0v635h-113l-3 -116l-6 -157q-3 -65 -5.5 -107.5t-6.5 -71t-8 -46.5t-10 -34q-17 -51 -54.5 -77t-91.5 -26h-9v70h4q23 0 39.5 10.5t27.5 30.5q22 38 29 103.5t10 146.5q2 38 3.5 77.5t2.5 80.5l3 181h263v-304h65q15 0 32 -0.5t35 -4.5t35.5 -11.5t32.5 -20.5
q15 -14 23 -29.5t12 -30.5t4.5 -28.5t0.5 -22.5v-76q0 -24 -5 -52.5t-23 -56.5q-7 -10 -19 -21t-30.5 -20.5t-44 -15.5t-58.5 -6h-135zM385 65h70q11 0 27 3t31 14.5t26 34t11 61.5v50q0 45 -21 74t-74 29h-70v-266z" />
    <glyph glyph-name="afii10059" unicode="&#x40a;" horiz-adv-x="672" 
d="M143 700v-304h169v304h75v-304h65q15 0 32 -0.5t35 -4.5t35.5 -11.5t32.5 -20.5q15 -14 23 -29.5t12 -30.5t4.5 -28.5t0.5 -22.5v-76q0 -24 -5 -52.5t-23 -56.5q-7 -10 -19 -21t-30.5 -20.5t-44 -15.5t-58.5 -6h-135v331h-169v-331h-75v700h75zM387 65h70q11 0 27 3
t31 14.5t26 34t11 61.5v50q0 45 -21 74t-74 29h-70v-266z" />
    <glyph glyph-name="afii10060" unicode="&#x40b;" horiz-adv-x="518" 
d="M359 700v-69h-130v-218h75q13 0 29 -1.5t32.5 -5.5t32 -12.5t28.5 -21.5q24 -25 30.5 -59t6.5 -60v-253h-75v230q0 9 -0.5 21.5t-3 26t-8 26t-14.5 21.5q-17 17 -43 20t-48 3h-42v-348h-75v631h-129v69h334z" />
    <glyph glyph-name="afii10061" unicode="&#x40c;" horiz-adv-x="462" 
d="M143 700v-312h67q22 0 35 8t20.5 22.5t11 34.5t6.5 45l11 95q4 35 12.5 57.5t23 35t35 17.5t47.5 5h7v-65h-7q-16 0 -25 -6t-14.5 -16.5t-7.5 -25t-4 -30.5l-12 -103q-5 -39 -11 -64.5t-25 -42.5l112 -355h-80l-102 323h-100v-323h-75v700h75zM250 764h-50l59 116h101z
" />
    <glyph glyph-name="afii10062" unicode="&#x40e;" horiz-adv-x="399" 
d="M103 700l111 -371h3q7 28 15.5 68t18.5 80l54 223h76l-128 -515q-6 -25 -13 -50t-16 -47t-21.5 -40t-28.5 -28q-20 -12 -42 -16t-41 -4h-23v70h16q18 0 31.5 6t23.5 16q8 8 15 23.5t9 27.5l15 65l-160 492h85zM203 757q-118 0 -118 107v11h62v-11q0 -29 16.5 -41.5
t39.5 -12.5t39.5 12.5t16.5 41.5v11h62v-11q0 -107 -118 -107z" />
    <glyph glyph-name="afii10145" unicode="&#x40f;" horiz-adv-x="450" 
d="M68 700h75v-635h164v635h75v-700h-120v-123h-74v123h-120v700z" />
    <glyph glyph-name="afii10017" unicode="&#x410;" horiz-adv-x="443" 
d="M335 0l-35 156h-158l-34 -156h-73l152 700h68l153 -700h-73zM219 550l-67 -330h137z" />
    <glyph glyph-name="afii10018" unicode="&#x411;" horiz-adv-x="431" 
d="M355 700v-69h-212v-225h65q15 0 32 -0.5t35 -4.5t35.5 -11.5t32.5 -20.5q15 -14 23 -29.5t12 -30.5t4.5 -28.5t0.5 -22.5v-86q0 -24 -5 -52.5t-23 -56.5q-7 -10 -19 -21t-30.5 -20.5t-44 -15.5t-58.5 -6h-135v700h287zM143 65h70q11 0 27 3t31 14.5t26 34t11 61.5v60
q0 45 -21 74t-74 29h-70v-276z" />
    <glyph glyph-name="afii10019" unicode="&#x412;" horiz-adv-x="443" 
d="M210 700q36 0 67.5 -9.5t55 -28.5t37 -48t13.5 -68v-44q0 -47 -18.5 -81t-69.5 -56q32 -11 49.5 -27t26 -35t10.5 -39t2 -37v-55q0 -17 -3.5 -45.5t-20 -57t-51 -49t-97.5 -20.5h-143v700h142zM143 65h61q46 0 75 29t29 91v50q0 17 -5.5 34.5t-17.5 31.5t-30.5 23
t-44.5 9h-67v-268zM143 398h58q32 0 52.5 9.5t32.5 24.5t17 33.5t5 36.5v45q0 16 -6 32t-18.5 28.5t-31.5 20t-46 7.5h-63v-237z" />
    <glyph glyph-name="afii10020" unicode="&#x413;" horiz-adv-x="371" 
d="M68 700h288v-69h-213v-631h-75v700z" />
    <glyph glyph-name="afii10021" unicode="&#x414;" horiz-adv-x="458" 
d="M446 65v-178h-70v113h-301v-113h-70v178h46q20 42 34.5 89.5t22.5 96.5q6 38 10.5 87.5t7 101.5t3.5 100.5t1 84.5v75h254v-635h62zM199 635v-71q0 -132 -7.5 -211t-14.5 -121q-8 -43 -19 -84t-33 -88h184v575h-110z" />
    <glyph glyph-name="afii10022" unicode="&#x415;" horiz-adv-x="382" 
d="M68 700h281v-69h-206v-244h182v-65h-182v-253h209v-69h-284v700z" />
    <glyph glyph-name="afii10024" unicode="&#x416;" horiz-adv-x="659" 
d="M367 700v-313h46q22 0 35 8t20.5 22.5t11 34.5t6.5 45l11 96q4 35 12.5 57.5t22.5 35t34 17.5t47 5h5v-65h-5q-15 0 -24 -6t-14 -16.5t-7 -25t-4 -30.5l-12 -102q-5 -39 -11 -65t-25 -43l106 -355h-80l-96 326h-79v-326h-75v326h-79l-96 -326h-80l106 355q-19 17 -25 43
t-11 65l-12 102q-2 16 -4 30.5t-7 25t-14 16.5t-24 6h-5v65h5q27 0 47 -5t34 -17.5t22.5 -35t12.5 -57.5l11 -96q3 -25 6.5 -45t11 -34.5t20.5 -22.5t35 -8h46v313h75z" />
    <glyph glyph-name="afii10025" unicode="&#x417;" horiz-adv-x="416" 
d="M40 562q0 19 5 44.5t21.5 48.5t48.5 39t86 16q32 0 60.5 -7t50 -23.5t34 -44.5t12.5 -69v-55q0 -26 -3.5 -53.5t-23.5 -50.5q-6 -8 -19.5 -20t-39.5 -21q35 -11 49 -26t19 -24q12 -21 15 -45t3 -46v-85q0 -29 -9.5 -59t-32.5 -51q-26 -24 -57 -32t-65 -8q-28 0 -58.5 6
t-56.5 29q-2 2 -8.5 9.5t-13.5 20.5t-12 32t-5 44v42h75v-27q0 -42 17.5 -62.5t67.5 -20.5q27 0 43.5 9.5t25.5 24t11.5 30.5t2.5 28v65q0 12 -2 31.5t-11 37.5t-28 31t-53 13h-26v65h27q31 0 49.5 11.5t28.5 28t12.5 34t2.5 30.5v42q0 8 -1.5 23.5t-9.5 31t-24.5 27
t-46.5 11.5q-27 0 -44 -9t-26.5 -22t-12.5 -28t-3 -27v-29h-75v40z" />
    <glyph glyph-name="afii10026" unicode="&#x418;" horiz-adv-x="484" 
d="M416 700v-700h-75v511l-198 -511h-75v700h75v-521l198 521h75z" />
    <glyph glyph-name="afii10027" unicode="&#x419;" horiz-adv-x="484" 
d="M242 757q-118 0 -118 107v11h62v-11q0 -29 16.5 -41.5t39.5 -12.5t39.5 12.5t16.5 41.5v11h62v-11q0 -107 -118 -107zM416 700v-700h-75v511l-198 -511h-75v700h75v-521l198 521h75z" />
    <glyph glyph-name="afii10028" unicode="&#x41a;" horiz-adv-x="462" 
d="M143 700v-312h67q22 0 35 8t20.5 22.5t11 34.5t6.5 45l11 95q4 35 12.5 57.5t23 35t35 17.5t47.5 5h7v-65h-7q-16 0 -25 -6t-14.5 -16.5t-7.5 -25t-4 -30.5l-12 -103q-5 -39 -11 -64.5t-25 -42.5l112 -355h-80l-102 323h-100v-323h-75v700h75z" />
    <glyph glyph-name="afii10029" unicode="&#x41b;" horiz-adv-x="453" 
d="M385 0h-75v635h-113l-3 -116l-6 -157q-3 -65 -5.5 -107.5t-6.5 -71t-8 -46.5t-10 -34q-17 -51 -54.5 -77t-91.5 -26h-9v70h4q23 0 39.5 10.5t27.5 30.5q22 38 29 103.5t10 146.5q2 38 3.5 77.5t2.5 80.5l3 181h263v-700z" />
    <glyph glyph-name="afii10030" unicode="&#x41c;" horiz-adv-x="579" 
d="M68 700h76l147 -438h3l141 438h76v-700h-75v474h-3l-125 -356h-37l-125 356h-3v-474h-75v700z" />
    <glyph glyph-name="afii10031" unicode="&#x41d;" horiz-adv-x="455" 
d="M143 700v-313h169v313h75v-700h-75v322h-169v-322h-75v700h75z" />
    <glyph glyph-name="afii10032" unicode="&#x41e;" horiz-adv-x="462" 
d="M63 523q0 19 1.5 38.5t6.5 37.5t15 35.5t27 33.5q44 42 118 42t118 -42q34 -32 42 -69t8 -76v-346q0 -39 -8 -76t-42 -69q-44 -42 -118 -42t-118 42q-17 16 -27 33.5t-15 35.5t-6.5 37t-1.5 39v346zM324 539q0 19 -4 37.5t-22 35.5q-11 11 -27.5 18t-39.5 7t-39.5 -7
t-27.5 -18q-18 -17 -22 -35.5t-4 -37.5v-378q0 -19 4 -37.5t22 -36.5q11 -10 27.5 -17t39.5 -7t39.5 7t27.5 17q18 18 22 36.5t4 37.5v378z" />
    <glyph glyph-name="afii10033" unicode="&#x41f;" horiz-adv-x="455" 
d="M387 700v-700h-75v635h-169v-635h-75v700h319z" />
    <glyph glyph-name="afii10034" unicode="&#x420;" horiz-adv-x="427" 
d="M68 700h152q47 0 80 -14.5t53.5 -38.5t30 -56.5t9.5 -68.5v-62q0 -34 -10.5 -65t-31 -54.5t-50 -37.5t-66.5 -14h-92v-289h-75v700zM143 353h71q26 0 45.5 8t32.5 21t19.5 30.5t6.5 35.5v83q0 48 -25 76t-78 28h-72v-282z" />
    <glyph glyph-name="afii10035" unicode="&#x421;" horiz-adv-x="415" 
d="M306 549q0 9 -2.5 24t-11.5 29.5t-25 24.5t-43 10q-30 0 -47 -11t-25.5 -27.5t-11 -35t-2.5 -32.5v-377q0 -9 3 -24.5t11.5 -30.5t24.5 -25.5t42 -10.5q15 0 30 4t28 14.5t21 30t8 49.5v22h76v-26q0 -75 -38 -121t-128 -46q-53 0 -83 18.5t-46 43.5t-20 51t-4 41v414
q0 30 10 57.5t30 48.5t49.5 33.5t67.5 12.5q33 0 61.5 -8.5t50.5 -26.5t34.5 -47t12.5 -71v-45h-73v37z" />
    <glyph glyph-name="afii10036" unicode="&#x422;" horiz-adv-x="384" 
d="M359 700v-69h-130v-631h-75v631h-129v69h334z" />
    <glyph glyph-name="afii10037" unicode="&#x423;" horiz-adv-x="399" 
d="M103 700l111 -371h3q7 28 15.5 68t18.5 80l54 223h76l-128 -515q-6 -25 -13 -50t-16 -47t-21.5 -40t-28.5 -28q-20 -12 -42 -16t-41 -4h-23v70h16q18 0 31.5 6t23.5 16q8 8 15 23.5t9 27.5l15 65l-160 492h85z" />
    <glyph glyph-name="afii10038" unicode="&#x424;" horiz-adv-x="609" 
d="M342 617h35q16 0 33 -1t34.5 -5.5t35 -13t32.5 -24.5q16 -17 26 -36.5t15 -39.5t6.5 -40.5t1.5 -39.5v-126q0 -15 -1 -32.5t-5.5 -35.5t-12.5 -36.5t-22 -34.5q-16 -19 -35 -29.5t-37 -16t-34 -6.5t-27 -1h-45v-99h-75v99h-46q-11 0 -27 1t-34 6.5t-37 16t-35 29.5
q-14 16 -21.5 34t-12 36.5t-5.5 36t-1 32.5v126q0 19 1.5 39.5t6.5 40.5t14.5 39.5t25.5 36.5q31 31 67.5 37.5t68.5 6.5h35v93h75v-93zM246 551q-23 0 -46.5 -2.5t-43.5 -19.5q-24 -21 -28.5 -48.5t-4.5 -47.5v-158q0 -20 2.5 -39t19.5 -39q22 -23 43 -27.5t39 -4.5h40v386
h-21zM342 165h40q18 0 39 4.5t41 27.5q18 21 21 39.5t3 38.5v158q0 20 -4.5 47.5t-28.5 48.5q-20 17 -43.5 19.5t-47.5 2.5h-20v-386z" />
    <glyph glyph-name="afii10039" unicode="&#x425;" horiz-adv-x="426" 
d="M117 700l94 -257l95 257h82l-138 -329l154 -371h-80l-114 291l-105 -291h-83l150 370l-134 330h79z" />
    <glyph glyph-name="afii10040" unicode="&#x426;" horiz-adv-x="453" 
d="M68 700h75v-635h159v635h75v-635h64v-178h-70v113h-303v700z" />
    <glyph glyph-name="afii10041" unicode="&#x427;" horiz-adv-x="429" 
d="M361 700v-700h-75v308q-21 -11 -46 -15.5t-49 -4.5q-48 0 -72.5 15t-33.5 24q-11 12 -17.5 28t-9.5 32t-4 32t-1 28v253h75v-231q0 -9 0.5 -21.5t2.5 -25.5t6 -25t12 -20q13 -14 30 -19t34 -5t36 4.5t37 16.5v326h75z" />
    <glyph glyph-name="afii10042" unicode="&#x428;" horiz-adv-x="639" 
d="M66 700h75v-635h140v635h75v-635h140v635h75v-700h-505v700z" />
    <glyph glyph-name="afii10043" unicode="&#x429;" horiz-adv-x="647" 
d="M66 700h75v-635h140v635h75v-635h140v635h75v-635h64v-178h-70v113h-499v700z" />
    <glyph glyph-name="afii10044" unicode="&#x42a;" horiz-adv-x="507" 
d="M147 0v631h-132v69h207v-294h65q15 0 32 -0.5t35 -4.5t35.5 -11.5t32.5 -20.5q15 -14 23 -29.5t12 -30.5t4.5 -28.5t0.5 -22.5v-86q0 -24 -5 -52.5t-23 -56.5q-7 -10 -19 -21t-30.5 -20.5t-44 -15.5t-58.5 -6h-135zM222 65h70q11 0 27 3t31 14.5t26 34t11 61.5v60
q0 45 -21 74t-74 29h-70v-276z" />
    <glyph glyph-name="afii10045" unicode="&#x42b;" horiz-adv-x="617" 
d="M549 700v-700h-75v700h75zM68 0v700h75v-294h65q15 0 32 -0.5t35 -4.5t35.5 -11.5t32.5 -20.5q15 -14 23 -29.5t12 -30.5t4.5 -28.5t0.5 -22.5v-86q0 -24 -5 -52.5t-23 -56.5q-7 -10 -19 -21t-30.5 -20.5t-44 -15.5t-58.5 -6h-135zM143 65h70q11 0 27 3t31 14.5t26 34
t11 61.5v60q0 45 -21 74t-74 29h-70v-276z" />
    <glyph glyph-name="afii10046" unicode="&#x42c;" horiz-adv-x="428" 
d="M68 0v700h75v-294h65q15 0 32 -0.5t35 -4.5t35.5 -11.5t32.5 -20.5q15 -14 23 -29.5t12 -30.5t4.5 -28.5t0.5 -22.5v-86q0 -24 -5 -52.5t-23 -56.5q-7 -10 -19 -21t-30.5 -20.5t-44 -15.5t-58.5 -6h-135zM143 65h70q11 0 27 3t31 14.5t26 34t11 61.5v60q0 45 -21 74
t-74 29h-70v-276z" />
    <glyph glyph-name="afii10047" unicode="&#x42d;" horiz-adv-x="427" 
d="M121 522h-75v33q0 45 13 75t35 48t51 25t62 7q77 0 117 -37.5t40 -114.5v-414q0 -20 -5.5 -46.5t-23 -50.5t-49.5 -40.5t-85 -16.5q-87 0 -121.5 40t-34.5 116v27h75v-19q0 -31 7 -49t18.5 -27.5t26 -12t29.5 -2.5q26 0 43 8t27 20.5t14 29t4 33.5v179h-130v65h130v133
q0 18 -2.5 37t-11 34t-25.5 25t-47 10q-27 0 -43 -10t-25 -24t-11.5 -29t-2.5 -25v-27z" />
    <glyph glyph-name="afii10048" unicode="&#x42e;" horiz-adv-x="649" 
d="M250 322h-107v-322h-75v700h75v-313h107v136q0 19 1.5 38.5t6.5 37.5t15 35.5t27 33.5q44 42 118 42t118 -42q34 -32 42 -69t8 -76v-346q0 -39 -8 -76t-42 -69q-44 -42 -118 -42t-118 42q-17 16 -27 33.5t-15 35.5t-6.5 37t-1.5 39v145zM511 539q0 19 -4 37.5t-22 35.5
q-11 11 -27.5 18t-39.5 7t-39.5 -7t-27.5 -18q-18 -17 -22 -35.5t-4 -37.5v-378q0 -19 4 -37.5t22 -36.5q11 -10 27.5 -17t39.5 -7t39.5 7t27.5 17q18 18 22 36.5t4 37.5v378z" />
    <glyph glyph-name="afii10049" unicode="&#x42f;" horiz-adv-x="444" 
d="M376 700v-700h-75v315h-89l-97 -315h-80l105 328q-48 17 -66 55t-18 96v55q0 58 17.5 91.5t44 50t58 20.5t60.5 4h140zM301 635h-70q-14 0 -31.5 -2.5t-32.5 -12t-25.5 -28t-10.5 -51.5v-70q0 -47 26.5 -69t70.5 -22h73v255z" />
    <glyph glyph-name="afii10065" unicode="&#x430;" horiz-adv-x="405" 
d="M268 49h-1q-9 -11 -19 -21t-23 -18t-29.5 -13t-40.5 -5q-30 0 -49.5 10.5t-31 29.5t-16.5 44t-5 55q0 39 7 69.5t24 51.5t44.5 32t69.5 11q8 0 23 -0.5t47 -3.5v73q0 10 -4 22t-12.5 22t-21.5 16.5t-32 6.5q-10 0 -20.5 -2.5t-20 -9.5t-17 -19t-10.5 -30h-72
q0 31 11.5 56t31 42.5t46 26.5t56.5 9q43 0 70.5 -14.5t43 -36t21 -48t5.5 -50.5v-355h-75v49zM268 236q-16 2 -29 3.5t-22 1.5q-16 0 -32 -4.5t-28.5 -16t-20.5 -30t-8 -45.5q0 -53 16 -71t48 -18q12 0 25 7t24.5 20t19 29.5t7.5 36.5v87z" />
    <glyph glyph-name="afii10066" unicode="&#x431;" horiz-adv-x="406" 
d="M62 415q0 37 4.5 75.5t24.5 68.5q17 26 37.5 40t41.5 22q13 5 26.5 9.5t24.5 8.5q52 18 52 53v8h66v-13q0 -13 -1 -28.5t-7 -27.5q-11 -20 -30.5 -29.5t-47.5 -18.5l-50 -17q-14 -5 -30.5 -13.5t-28.5 -24.5q-11 -15 -16.5 -35t-5.5 -37v-25h3q14 26 41.5 45.5t75.5 19.5
q25 0 44 -8t30 -19q14 -13 23 -32.5t9 -44.5v-240q0 -14 -1 -30.5t-5.5 -33.5t-14 -33.5t-25.5 -29.5q-20 -17 -45.5 -25t-51.5 -8t-51.5 7.5t-45.5 24.5q-16 13 -25.5 29.5t-14 34t-5.5 34t-1 30.5v263zM273 350q0 20 -6 36t-14 25q-20 20 -48 20q-14 0 -26.5 -6t-21.5 -15
q-8 -9 -14 -26.5t-6 -37.5v-200q0 -21 6 -37t14 -26q8 -8 20.5 -13t27.5 -5t27.5 5t20.5 13q8 10 14 26t6 37v204z" />
    <glyph glyph-name="afii10067" unicode="&#x432;" horiz-adv-x="398" 
d="M208 496q37 0 62.5 -9.5t41 -25t22.5 -36t7 -41.5v-30q0 -38 -14 -62.5t-52 -38.5q44 -11 57.5 -37.5t13.5 -61.5v-38q0 -35 -14 -57.5t-36 -35.5t-47.5 -18t-47.5 -5h-139v496h146zM137 63h63q29 0 50 14t21 49v25q0 40 -22 56.5t-49 16.5h-63v-161zM137 279h61
q31 0 49.5 19t18.5 49v26q0 20 -8 32t-19 18t-22.5 8t-18.5 2h-61v-154z" />
    <glyph glyph-name="afii10068" unicode="&#x433;" horiz-adv-x="313" 
d="M62 496h232v-63h-157v-433h-75v496z" />
    <glyph glyph-name="afii10069" unicode="&#x434;" horiz-adv-x="430" 
d="M414 63v-167h-70v104h-264v-104h-70v167h49q20 45 30.5 83t16.5 77q3 22 5 49.5t3.5 56t2.5 57t1 52.5v58h237v-433h59zM184 434v-63q0 -42 -2.5 -82.5t-10.5 -87.5q-5 -29 -13.5 -63.5t-27.5 -76.5h150v373h-96z" />
    <glyph glyph-name="afii10070" unicode="&#x435;" horiz-adv-x="397" 
d="M266 139h75v-7q0 -18 -5.5 -42.5t-20.5 -46t-42 -36.5t-70 -15q-47 0 -75 16.5t-44 39.5t-21 47.5t-5 40.5v230q0 15 5 38t20 45.5t42.5 38.5t72.5 16q44 0 72.5 -16t44.5 -38.5t22 -47t6 -40.5v-142h-210v-79q0 -40 17.5 -58t52.5 -18q33 0 48 18.5t15 49.5v6zM268 276
v85q0 12 -3 24.5t-11 22.5t-21 16.5t-32 6.5q-20 0 -33 -7t-21 -18t-11 -24t-3 -25v-81h135z" />
    <glyph glyph-name="afii10072" unicode="&#x436;" horiz-adv-x="579" 
d="M252 283v213h75v-213h44q18 0 29 8.5t17.5 21.5t9 28.5t4.5 29.5l6 44q3 19 8 35t15.5 27.5t29 17.5t48.5 6h9v-61h-9q-20 0 -28 -15t-12 -43l-6 -41q-5 -32 -10 -51t-24 -35l89 -255h-74l-78 225h-68v-225h-75v225h-68l-78 -225h-74l89 255q-19 16 -24 35t-10 51l-6 41
q-4 28 -12 43t-28 15h-9v61h9q30 0 48.5 -6t29 -17.5t15.5 -27.5t8 -35l6 -44q2 -14 4.5 -29.5t9 -28.5t17.5 -21.5t29 -8.5h44z" />
    <glyph glyph-name="afii10073" unicode="&#x437;" horiz-adv-x="377" 
d="M39 365q0 18 5.5 41.5t21 45.5t44 37t73.5 15q64 0 100.5 -34t36.5 -97v-19q0 -42 -20.5 -65t-46.5 -32q26 -6 40.5 -19t21 -28t8 -30t1.5 -24v-30q0 -61 -39.5 -97.5t-104.5 -36.5q-43 0 -70.5 14t-43.5 35t-22 45.5t-6 45.5v19h75v-11q0 -41 17 -58t50 -17q39 0 54 21
t15 52v13q0 41 -18.5 55t-47.5 14h-38v62h35q29 0 47 21.5t18 50.5v18q0 27 -19.5 43t-42.5 16q-31 0 -50 -19t-19 -61v-7h-75v21v0z" />
    <glyph glyph-name="afii10074" unicode="&#x438;" horiz-adv-x="431" 
d="M137 496v-329l157 268v61h75v-496h-75v320l-157 -268v-52h-75v496h75z" />
    <glyph glyph-name="afii10075" unicode="&#x439;" horiz-adv-x="431" 
d="M137 496v-329l157 268v61h75v-496h-75v320l-157 -268v-52h-75v496h75zM260 684h61v-10q0 -19 -5 -40.5t-22 -37.5q-17 -17 -39.5 -21t-39.5 -4t-39.5 4t-39.5 21q-17 16 -22 37.5t-5 40.5v10h61v-10q0 -8 1.5 -17t6 -17t13.5 -13.5t24 -5.5t24 5.5t13.5 13.5t6 17t1.5 17
v10z" />
    <glyph glyph-name="afii10076" unicode="&#x43a;" horiz-adv-x="404" 
d="M193 285q18 0 29 8t17.5 21t9 28t4.5 29l6 44q3 19 8 35t15.5 27.5t29 17.5t48.5 6h11v-63h-11q-20 0 -28 -14t-12 -42l-6 -41q-5 -32 -10 -51t-24 -35l89 -255h-74l-78 225h-80v-225h-75v496h75v-211h56z" />
    <glyph glyph-name="afii10077" unicode="&#x43b;" horiz-adv-x="407" 
d="M345 0h-75v433h-95l-2 -58q0 -13 -1 -40t-3 -59.5t-4.5 -66t-6.5 -60.5q-5 -32 -13.5 -59t-24.5 -47t-40 -31.5t-60 -11.5h-12v62h9q24 0 39 14t23.5 37.5t12 53t6.5 59.5q1 15 2 36.5t1.5 43.5t1.5 41.5t1 30.5l3 118h238v-496z" />
    <glyph glyph-name="afii10078" unicode="&#x43c;" horiz-adv-x="502" 
d="M252 190l116 306h72v-496h-71v328l-101 -257h-34l-101 257v-328h-71v496h71z" />
    <glyph glyph-name="afii10079" unicode="&#x43d;" 
d="M62 496h75v-212h136v212h75v-496h-75v220h-136v-220h-75v496z" />
    <glyph glyph-name="afii10080" unicode="&#x43e;" horiz-adv-x="402" 
d="M58 364q0 14 5 37.5t20.5 46.5t43.5 39.5t74 16.5t74 -16.5t43.5 -39.5t20.5 -46.5t5 -36.5v-231q0 -15 -5 -39t-20.5 -47t-43.5 -39.5t-74 -16.5t-74 16.5t-43.5 39.5t-20.5 47t-5 39v230zM269 350q0 42 -20 61.5t-48 19.5t-48 -19.5t-20 -61.5v-204q0 -39 17.5 -60
t50.5 -21q32 0 50 20t18 61v204z" />
    <glyph glyph-name="afii10081" unicode="&#x43f;" horiz-adv-x="404" 
d="M62 496h280v-496h-75v433h-130v-433h-75v496z" />
    <glyph glyph-name="afii10082" unicode="&#x440;" 
d="M62 496h75v-49q24 32 52.5 44.5t54.5 12.5q33 0 53.5 -11t31.5 -28.5t15 -37.5t4 -38v-282q0 -18 -4 -38t-15 -37.5t-31.5 -28.5t-53.5 -11q-26 0 -54.5 12.5t-52.5 44.5v-253h-75v700zM210 65q18 0 30 6.5t19.5 17.5t10.5 25t3 28v212q0 14 -3 28t-10.5 25t-19.5 17.5
t-30 6.5q-23 0 -37 -10t-22 -24t-11 -29.5t-3 -27.5v-184q0 -12 3 -27.5t11 -29.5t22 -24t37 -10z" />
    <glyph glyph-name="afii10083" unicode="&#x441;" horiz-adv-x="384" 
d="M273 152h75v-20q0 -18 -6.5 -42.5t-23 -46t-44.5 -36.5t-71 -15q-47 0 -75 16.5t-44 39.5t-21 47.5t-5 40.5v225q0 15 5 39.5t21 47.5t44 39.5t75 16.5q44 0 72.5 -15t44.5 -37t22 -45.5t6 -41.5v-22h-75v7q0 42 -20.5 61.5t-49.5 19.5t-49.5 -19.5t-20.5 -61.5v-204
q0 -81 70 -81q33 0 51.5 20t18.5 61v6z" />
    <glyph glyph-name="afii10084" unicode="&#x442;" horiz-adv-x="321" 
d="M198 433v-433h-75v433h-105v63h285v-63h-105z" />
    <glyph glyph-name="afii10085" unicode="&#x443;" horiz-adv-x="368" 
d="M207 -88q-8 -32 -19 -54.5t-26.5 -36t-37 -19.5t-50.5 -6h-17v68h14q35 0 50 20t26 64l14 59l-146 489h79l100 -361h2l76 361h76z" />
    <glyph glyph-name="afii10086" unicode="&#x444;" horiz-adv-x="571" 
d="M248 42q-15 -28 -37.5 -39t-48.5 -11q-33 0 -53.5 11t-31.5 28.5t-15 37.5t-4 38v282q0 18 4 38t15.5 37.5t31 28.5t49.5 11q27 0 50.5 -11.5t39.5 -38.5v246h75v-246q16 27 39.5 38.5t50.5 11.5q30 0 49.5 -11t31 -28.5t15.5 -37.5t4 -38v-282q0 -18 -4 -38t-15 -37.5
t-31.5 -28.5t-53.5 -11q-26 0 -48.5 11t-37.5 39v-246h-75v246zM183 56q18 0 31 9.5t21.5 24t12.5 30.5t4 29v198q0 12 -2 27.5t-8.5 29.5t-19.5 24t-34 10q-36 0 -47.5 -22.5t-11.5 -54.5v-228q0 -32 11.5 -54.5t42.5 -22.5zM389 56q30 0 41.5 22.5t11.5 54.5v228
q0 32 -11.5 54.5t-47.5 22.5q-21 0 -34 -10t-19.5 -24t-8.5 -29.5t-2 -27.5v-198q0 -13 4 -29t12.5 -30.5t22 -24t31.5 -9.5z" />
    <glyph glyph-name="afii10087" unicode="&#x445;" horiz-adv-x="344" 
d="M136 253l-115 243h80l75 -169l71 169h79l-115 -239l121 -257h-78l-80 180l-80 -180h-79z" />
    <glyph glyph-name="afii10088" unicode="&#x446;" horiz-adv-x="428" 
d="M62 496h75v-433h135v433h75v-433h65v-167h-70v104h-280v496z" />
    <glyph glyph-name="afii10089" unicode="&#x447;" horiz-adv-x="381" 
d="M244 209q-26 -13 -52 -16.5t-48 -3.5q-50 0 -78 25t-28 88v194h75v-178q0 -65 65 -65q20 0 36 5.5t30 13.5v224h75v-496h-75v209z" />
    <glyph glyph-name="afii10090" unicode="&#x448;" horiz-adv-x="597" 
d="M137 496v-433h124v433h75v-433h124v433h75v-496h-473v496h75z" />
    <glyph glyph-name="afii10091" unicode="&#x449;" horiz-adv-x="616" 
d="M62 0v496h75v-433h124v433h75v-433h124v433h75v-433h65v-167h-70v104h-468z" />
    <glyph glyph-name="afii10092" unicode="&#x44a;" horiz-adv-x="442" 
d="M197 496v-198h67q21 0 45.5 -3.5t45.5 -15.5t35 -35t14 -62v-60q0 -66 -38.5 -94t-101.5 -28h-142v433h-110v63h185zM197 63h61q12 0 24.5 3t23 10.5t17 20t6.5 31.5v41q0 37 -22.5 51.5t-48.5 14.5h-61v-172z" />
    <glyph glyph-name="afii10093" unicode="&#x44b;" horiz-adv-x="557" 
d="M420 496h75v-496h-75v496zM137 496v-198h67q21 0 45.5 -3.5t45.5 -15.5t35 -35t14 -62v-60q0 -66 -38.5 -94t-101.5 -28h-142v496h75zM137 63h61q12 0 24.5 3t23 10.5t17 20t6.5 31.5v41q0 37 -22.5 51.5t-48.5 14.5h-61v-172z" />
    <glyph glyph-name="afii10094" unicode="&#x44c;" horiz-adv-x="382" 
d="M137 496v-198h67q21 0 45.5 -3.5t45.5 -15.5t35 -35t14 -62v-60q0 -66 -38.5 -94t-101.5 -28h-142v496h75zM137 63h61q12 0 24.5 3t23 10.5t17 20t6.5 31.5v41q0 37 -22.5 51.5t-48.5 14.5h-61v-172z" />
    <glyph glyph-name="afii10095" unicode="&#x44d;" horiz-adv-x="385" 
d="M113 140q0 -41 17 -58t50 -17q35 0 53.5 20.5t18.5 60.5v73h-110v64h110v67q0 42 -21 61.5t-50 19.5t-48 -19t-19 -61v-7h-75v21q0 18 5.5 41.5t21 45.5t43.5 37t72 15q46 0 75 -16.5t44.5 -39.5t21 -47.5t5.5 -39.5v-225q0 -16 -5.5 -40.5t-21.5 -47.5t-45 -39.5
t-75 -16.5q-43 0 -70.5 14.5t-43.5 35.5t-22 45.5t-6 44.5v19h75v-11z" />
    <glyph glyph-name="afii10096" unicode="&#x44e;" horiz-adv-x="567" 
d="M224 220h-87v-220h-75v496h75v-212h87v80q0 14 5 37.5t20 46.5t43 39.5t74 16.5t74 -16.5t43.5 -39.5t20.5 -46.5t5 -36.5v-231q0 -15 -5 -39t-20.5 -47t-43.5 -39.5t-74 -16.5t-74 16.5t-43 39.5t-20 47t-5 39v86zM434 350q0 42 -20 61.5t-48 19.5t-48 -19.5t-20 -61.5
v-204q0 -39 17.5 -60t50.5 -21q32 0 50 20t18 61v204z" />
    <glyph glyph-name="afii10097" unicode="&#x44f;" horiz-adv-x="399" 
d="M262 0v216h-69l-74 -216h-80l80 224q-38 17 -51.5 43.5t-13.5 64.5v48q0 39 14 62t35 35t45.5 15.5t44.5 3.5h144v-496h-75zM262 441h-63q-27 0 -48.5 -17t-21.5 -58v-27q0 -37 20.5 -53t49.5 -16h63v171z" />
    <glyph glyph-name="afii10071" unicode="&#x451;" horiz-adv-x="397" 
d="M266 139h75v-7q0 -18 -5.5 -42.5t-20.5 -46t-42 -36.5t-70 -15q-47 0 -75 16.5t-44 39.5t-21 47.5t-5 40.5v230q0 15 5 38t20 45.5t42.5 38.5t72.5 16q44 0 72.5 -16t44.5 -38.5t22 -47t6 -40.5v-142h-210v-79q0 -40 17.5 -58t52.5 -18q33 0 48 18.5t15 49.5v6zM268 276
v85q0 12 -3 24.5t-11 22.5t-21 16.5t-32 6.5q-20 0 -33 -7t-21 -18t-11 -24t-3 -25v-81h135zM165 599h-77v77h77v-77zM234 676h77v-77h-77v77z" />
    <glyph glyph-name="afii10099" unicode="&#x452;" horiz-adv-x="413" 
d="M206 -136q26 0 40 9.5t21 22t8 25.5t1 19v414q0 14 -3 28t-10.5 25t-19.5 17.5t-30 6.5q-23 0 -37 -10t-22 -24t-11 -29.5t-3 -27.5v-340h-75v556h-60v51h60v93h75v-93h114v-51h-114v-109q24 32 52.5 44.5t54.5 12.5q33 0 53.5 -11t31.5 -28.5t15 -37.5t4 -38v-452
q0 -69 -31 -105t-99 -36h-20v68h5v0z" />
    <glyph glyph-name="afii10100" unicode="&#x453;" horiz-adv-x="313" 
d="M62 496h232v-63h-157v-433h-75v496zM188 578h-39l46 122h81z" />
    <glyph glyph-name="afii10101" unicode="&#x454;" horiz-adv-x="384" 
d="M273 149h75v-20q0 -18 -6.5 -42t-23 -45t-44.5 -35.5t-71 -14.5q-47 0 -75 16.5t-44 39.5t-21 47.5t-5 40.5v225q0 15 5 39.5t21 47.5t44 39.5t75 16.5q44 0 72.5 -14.5t44.5 -35.5t22 -44.5t6 -41.5v-22h-75v7q0 42 -20.5 60t-49.5 18t-49.5 -19.5t-20.5 -61.5v-71h103
v-64h-103v-69q0 -81 70 -81q33 0 51.5 18.5t18.5 59.5v6z" />
    <glyph glyph-name="afii10102" unicode="&#x455;" horiz-adv-x="371" 
d="M253 365q-2 21 -8.5 34t-15.5 20.5t-20 10.5t-23 3q-28 0 -46 -13t-18 -51q0 -29 17.5 -44t41.5 -26l62 -30q17 -9 32.5 -19.5t27 -25.5t18.5 -37t7 -53q0 -15 -4.5 -39.5t-19.5 -47t-43.5 -39t-77.5 -16.5q-42 0 -69.5 12.5t-44 32.5t-23.5 45.5t-8 51.5h76
q3 -40 20.5 -56t46.5 -16q39 0 55.5 20t16.5 52q0 28 -12.5 45t-50.5 36l-61 30q-27 13 -43.5 28t-25 31.5t-11 34.5t-2.5 37q0 25 8.5 48t26 41t44.5 28.5t64 10.5q41 0 67.5 -13t42 -33.5t21.5 -45t7 -47.5h-75z" />
    <glyph glyph-name="afii10103" unicode="&#x456;" horiz-adv-x="199" 
d="M62 496h75v-496h-75v496zM137 686v-73h-75v73h75z" />
    <glyph glyph-name="afii10104" unicode="&#x457;" horiz-adv-x="199" 
d="M62 496h75v-496h-75v496zM65 599h-77v77h77v-77zM134 676h77v-77h-77v77z" />
    <glyph glyph-name="afii10105" unicode="&#x458;" horiz-adv-x="202" 
d="M140 -63q0 -69 -31 -105t-99 -36h-20v73h5q26 0 40 9.5t21 22t8 25.5t1 19v551h75v-559zM140 686v-73h-75v73h75z" />
    <glyph glyph-name="afii10106" unicode="&#x459;" horiz-adv-x="590" 
d="M345 496v-212h67q21 0 45.5 -3.5t45.5 -15.5t35 -35t14 -62v-46q0 -66 -38.5 -94t-101.5 -28h-142v433h-95l-2 -58q0 -13 -1 -40t-3 -59.5t-4.5 -66t-6.5 -60.5q-5 -32 -13.5 -59t-24.5 -47t-40 -31.5t-60 -11.5h-12v62h9q24 0 39 14t23.5 37.5t12 53t6.5 59.5
q1 15 2 36.5t1.5 43.5t1.5 41.5t1 30.5l3 118h238zM345 63h61q12 0 24.5 3t23 10.5t17 20t6.5 31.5v27q0 37 -22.5 51.5t-48.5 14.5h-61v-158z" />
    <glyph glyph-name="afii10107" unicode="&#x45a;" horiz-adv-x="593" 
d="M348 496v-212h67q21 0 45.5 -3.5t45.5 -15.5t35 -35t14 -62v-46q0 -66 -38.5 -94t-101.5 -28h-142v220h-136v-220h-75v496h75v-212h136v212h75zM348 63h61q12 0 24.5 3t23 10.5t17 20t6.5 31.5v27q0 37 -22.5 51.5t-48.5 14.5h-61v-158z" />
    <glyph glyph-name="afii10108" unicode="&#x45b;" horiz-adv-x="413" 
d="M140 447q24 32 52.5 44.5t54.5 12.5q33 0 53.5 -11t31.5 -28.5t15 -37.5t4 -38v-389h-75v354q0 14 -3 28t-10.5 25t-19.5 17.5t-30 6.5q-23 0 -37 -10t-22 -24t-11 -29.5t-3 -27.5v-340h-75v556h-60v51h60v93h75v-93h114v-51h-114v-109z" />
    <glyph glyph-name="afii10109" unicode="&#x45c;" horiz-adv-x="404" 
d="M193 285q18 0 29 8t17.5 21t9 28t4.5 29l6 44q3 19 8 35t15.5 27.5t29 17.5t48.5 6h11v-63h-11q-20 0 -28 -14t-12 -42l-6 -41q-5 -32 -10 -51t-24 -35l89 -255h-74l-78 225h-80v-225h-75v496h75v-211h56zM223 578h-39l46 122h81z" />
    <glyph glyph-name="afii10110" unicode="&#x45e;" horiz-adv-x="368" 
d="M207 -88q-8 -32 -19 -54.5t-26.5 -36t-37 -19.5t-50.5 -6h-17v68h14q35 0 50 20t26 64l14 59l-146 489h79l100 -361h2l76 361h76zM222 684h61v-10q0 -19 -5 -40.5t-22 -37.5q-17 -17 -39.5 -21t-39.5 -4t-39.5 4t-39.5 21q-17 16 -22 37.5t-5 40.5v10h61v-10
q0 -8 1.5 -17t6 -17t13.5 -13.5t24 -5.5t24 5.5t13.5 13.5t6 17t1.5 17v10z" />
    <glyph glyph-name="afii10193" unicode="&#x45f;" 
d="M348 0h-107v-104h-72v104h-107v496h75v-433h136v433h75v-496z" />
    <glyph glyph-name="afii10146" unicode="&#x462;" horiz-adv-x="466" 
d="M105 0v552h-90v65h90v83h75v-83h143v-65h-143v-146h65q15 0 32 -0.5t35 -4.5t35.5 -11.5t32.5 -20.5q15 -14 23 -29.5t12 -30.5t4.5 -28.5t0.5 -22.5v-86q0 -24 -5 -52.5t-23 -56.5q-7 -10 -19 -21t-30.5 -20.5t-44 -15.5t-58.5 -6h-135zM180 65h70q11 0 27 3t31 14.5
t26 34t11 61.5v60q0 45 -21 74t-74 29h-70v-276z" />
    <glyph glyph-name="afii10194" unicode="&#x463;" horiz-adv-x="415" 
d="M170 298h67q21 0 45.5 -3.5t45.5 -15.5t35 -35t14 -62v-60q0 -66 -38.5 -94t-101.5 -28h-142v433h-78v63h78v151h75v-151h120v-63h-120v-135zM170 63h61q12 0 24.5 3t23 10.5t17 20t6.5 31.5v41q0 37 -22.5 51.5t-48.5 14.5h-61v-172z" />
    <glyph glyph-name="afii10147" unicode="&#x472;" horiz-adv-x="462" 
d="M63 523q0 19 1.5 38.5t6.5 37.5t15 35.5t27 33.5q44 42 118 42t118 -42q34 -32 42 -69t8 -76v-346q0 -39 -8 -76t-42 -69q-44 -42 -118 -42t-118 42q-17 16 -27 33.5t-15 35.5t-6.5 37t-1.5 39v346zM324 322h-186v-161q0 -19 4 -37.5t22 -36.5q11 -10 27.5 -17t39.5 -7
t39.5 7t27.5 17q18 18 22 36.5t4 37.5v161zM138 387h186v152q0 19 -4 37.5t-22 35.5q-11 11 -27.5 18t-39.5 7t-39.5 -7t-27.5 -18q-18 -17 -22 -35.5t-4 -37.5v-152z" />
    <glyph glyph-name="afii10195" unicode="&#x473;" horiz-adv-x="402" 
d="M58 364q0 14 5 37.5t20.5 46.5t43.5 39.5t74 16.5t74 -16.5t43.5 -39.5t20.5 -46.5t5 -36.5v-231q0 -15 -5 -39t-20.5 -47t-43.5 -39.5t-74 -16.5t-74 16.5t-43.5 39.5t-20.5 47t-5 39v230zM269 220h-136v-74q0 -39 17.5 -60t50.5 -21q32 0 50 20t18 61v74zM133 284h136
v66q0 42 -20 61.5t-48 19.5t-48 -19.5t-20 -61.5v-66z" />
    <glyph glyph-name="afii10148" unicode="&#x474;" horiz-adv-x="418" 
d="M237 0h-68l-149 700h84l98 -518h3l71 396q5 26 13.5 58.5t29.5 51.5q15 14 38.5 17t42.5 3h13v-73h-10q-17 0 -27 -7.5t-16.5 -18.5t-9.5 -24t-5 -23z" />
    <glyph glyph-name="afii10196" unicode="&#x475;" horiz-adv-x="365" 
d="M180 148h2q21 92 33 142.5t17.5 74.5t6.5 28.5t1 5.5q8 32 15.5 52t18.5 31t28 15t44 4h14v-64h-11q-32 0 -44 -52l-98 -385h-59l-130 496h79z" />
    <glyph glyph-name="afii10050" unicode="&#x490;" horiz-adv-x="371" 
d="M68 700h215v71h73v-140h-213v-631h-75v700z" />
    <glyph glyph-name="afii10098" unicode="&#x491;" horiz-adv-x="313" 
d="M62 496h162v52h70v-115h-157v-433h-75v496z" />
    <glyph glyph-name="uni0492" unicode="&#x492;" horiz-adv-x="388" 
d="M85 312h-75v70h75v318h288v-69h-213v-249h164v-70h-164v-312h-75v312z" />
    <glyph glyph-name="uni0493" unicode="&#x493;" horiz-adv-x="316" 
d="M65 221h-50v57h50v218h232v-63h-157v-155h88v-57h-88v-221h-75v221z" />
    <glyph glyph-name="uni0494" unicode="&#x494;" horiz-adv-x="429" 
d="M143 0h-75v700h288v-69h-213v-218h75q13 0 29 -1.5t32.5 -5.5t32 -12.5t28.5 -21.5q24 -25 30.5 -59t6.5 -60v-51q0 -41 -3.5 -82t-22.5 -70q-12 -18 -27 -28t-29.5 -15t-27.5 -6t-21 -1h-16v75h7q23 0 35.5 11t16.5 19q10 19 11.5 40.5t1.5 38.5v46q0 9 -0.5 21.5
t-3.5 26t-8 26t-14 21.5q-17 17 -42 20t-41 3h-50v-348z" />
    <glyph glyph-name="uni0495" unicode="&#x495;" 
d="M203 -136q26 0 40 9.5t21 22t8 25.5t1 19v202q0 14 -3 28t-10.5 25t-19.5 17.5t-30 6.5q-23 0 -37 -10t-22 -24t-11 -29.5t-3 -27.5v-128h-75v496h286v-63h-211v-198q24 32 52.5 44.5t54.5 12.5q33 0 53.5 -11t31.5 -28.5t15 -37.5t4 -38v-240q0 -69 -31 -105t-99 -36
h-20v68h5v0z" />
    <glyph glyph-name="uni0496" unicode="&#x496;" horiz-adv-x="674" 
d="M367 700v-313h46q22 0 35 8t20.5 22.5t11 34.5t6.5 45l11 96q4 35 12.5 57.5t22.5 35t34 17.5t47 5h5v-65h-5q-15 0 -24 -6t-14 -16.5t-7 -25t-4 -30.5l-12 -102q-5 -39 -11 -65t-25 -43l86 -290h62v-178h-70v113h-52l-96 326h-79v-326h-75v326h-79l-96 -326h-80l106 355
q-19 17 -25 43t-11 65l-12 102q-2 16 -4 30.5t-7 25t-14 16.5t-24 6h-5v65h5q27 0 47 -5t34 -17.5t22.5 -35t12.5 -57.5l11 -96q3 -25 6.5 -45t11 -34.5t20.5 -22.5t35 -8h46v313h75z" />
    <glyph glyph-name="uni0497" unicode="&#x497;" horiz-adv-x="595" 
d="M252 283v213h75v-213h45q18 0 29 8.5t17.5 21.5t9 28.5t4.5 29.5l6 44q3 19 7.5 35t15.5 27.5t29 17.5t48 6h9v-61h-9q-20 0 -28 -15t-12 -43l-6 -41q-5 -32 -10 -51t-24 -35l67 -192h60v-167h-70v104h-42l-78 225h-68v-225h-75v225h-68l-78 -225h-74l89 255
q-19 16 -24 35t-10 51l-6 41q-4 28 -12 43t-28 15h-9v61h9q30 0 48 -6t29 -17.5t15.5 -27.5t7.5 -35l6 -44q2 -14 4.5 -29.5t9 -28.5t17.5 -21.5t29 -8.5h45z" />
    <glyph glyph-name="uni0498" unicode="&#x498;" horiz-adv-x="416" 
d="M40 562q0 19 5 44.5t21.5 48.5t48.5 39t86 16q32 0 60.5 -7t50 -23.5t34 -44.5t12.5 -69v-55q0 -26 -3.5 -53.5t-23.5 -50.5q-6 -8 -19.5 -20t-39.5 -21q35 -11 49 -26t19 -24q12 -21 15 -45t3 -46v-85q0 -29 -9.5 -59t-32.5 -51q-20 -18 -41.5 -26.5t-44.5 -11.5v-105
h-70v105q-21 2 -42 9t-39 24q-2 2 -8.5 9.5t-13.5 20.5t-12 32t-5 44v42h75v-27q0 -42 17.5 -62.5t67.5 -20.5q27 0 43.5 9.5t25.5 24t11.5 30.5t2.5 28v65q0 12 -2 31.5t-11 37.5t-28 31t-53 13h-26v65h27q31 0 49.5 11.5t28.5 28t12.5 34t2.5 30.5v42q0 8 -1.5 23.5
t-9.5 31t-24.5 27t-46.5 11.5q-27 0 -44 -9t-26.5 -22t-12.5 -28t-3 -27v-29h-75v40z" />
    <glyph glyph-name="uni0499" unicode="&#x499;" horiz-adv-x="377" 
d="M39 365q0 18 5.5 41.5t21 45.5t44 37t73.5 15q64 0 100.5 -34t36.5 -97v-19q0 -42 -20.5 -65t-46.5 -32q26 -6 40.5 -19t21 -28t8 -30t1.5 -24v-30q0 -53 -29.5 -87.5t-80.5 -43.5v-99h-70v99q-32 6 -52.5 21t-32.5 34.5t-16.5 41t-4.5 40.5v19h75v-11q0 -41 17 -58
t50 -17q39 0 54 21t15 52v13q0 41 -18.5 55t-47.5 14h-38v62h35q29 0 47 21.5t18 50.5v18q0 27 -19.5 43t-42.5 16q-31 0 -50 -19t-19 -61v-7h-75v21v0z" />
    <glyph glyph-name="uni049A" unicode="&#x49a;" horiz-adv-x="478" 
d="M143 700v-312h67q22 0 35 8t20.5 22.5t11 34.5t6.5 45l11 95q4 35 12.5 57.5t23 35t35 17.5t47.5 5h7v-65h-7q-16 0 -25 -6t-14.5 -16.5t-7.5 -25t-4 -30.5l-12 -103q-5 -39 -11 -64.5t-25 -42.5l91 -290h64v-178h-70v113h-53l-102 323h-100v-323h-75v700h75z" />
    <glyph glyph-name="uni049B" unicode="&#x49b;" horiz-adv-x="425" 
d="M194 285q18 0 29 8t17.5 21t9 28t4.5 29l6 44q3 19 7.5 35t15.5 27.5t29 17.5t48 6h11v-63h-11q-20 0 -28 -14t-12 -42l-6 -41q-5 -32 -10 -51t-24 -35l67 -192h60v-167h-70v104h-42l-78 225h-80v-225h-75v496h75v-211h57z" />
    <glyph glyph-name="uni049C" unicode="&#x49c;" horiz-adv-x="487" 
d="M193 323h-50v-323h-75v700h75v-312h50v135h42v-135q22 0 35 8t20.5 22.5t11 34.5t6.5 45l11 95q4 35 12.5 57.5t23 35t35 17.5t47.5 5h7v-65h-7q-16 0 -25 -6t-14.5 -16.5t-7.5 -25t-4 -30.5l-12 -103q-5 -39 -11 -64.5t-25 -42.5l112 -355h-80l-102 323h-33v-128h-42
v128z" />
    <glyph glyph-name="uni049D" unicode="&#x49d;" horiz-adv-x="434" 
d="M183 225h-46v-225h-75v496h75v-211h46v88h37v-88h4q18 0 29 8t17.5 21t9 28t4.5 29l6 44q3 19 7.5 35t15.5 27.5t29 17.5t48 6h11v-63h-11q-20 0 -28 -14t-12 -42l-6 -41q-5 -32 -10 -51t-24 -35l89 -255h-74l-78 225h-27v-98h-37v98z" />
    <glyph glyph-name="uni04A0" unicode="&#x4a0;" horiz-adv-x="564" 
d="M245 700v-312h67q22 0 35 8t20.5 22.5t11 34.5t6.5 45l11 95q4 35 12.5 57.5t23 35t35 17.5t47.5 5h7v-65h-7q-16 0 -25 -6t-14.5 -16.5t-7.5 -25t-4 -30.5l-12 -103q-5 -39 -11 -64.5t-25 -42.5l112 -355h-80l-102 323h-100v-323h-75v631h-155v69h230z" />
    <glyph glyph-name="uni04A1" unicode="&#x4a1;" horiz-adv-x="493" 
d="M283 285q18 0 29 8t17.5 21t9 28t4.5 29l6 44q3 19 7.5 35t15.5 27.5t29 17.5t48 6h11v-63h-11q-20 0 -28 -14t-12 -42l-6 -41q-5 -32 -10 -51t-24 -35l89 -255h-74l-78 225h-80v-225h-75v431h-136v65h211v-211h57z" />
    <glyph glyph-name="uni04A2" unicode="&#x4a2;" horiz-adv-x="464" 
d="M143 700v-313h169v313h75v-635h65v-178h-70v113h-70v322h-169v-322h-75v700h75z" />
    <glyph glyph-name="uni04A3" unicode="&#x4a3;" horiz-adv-x="428" 
d="M273 220h-136v-220h-75v496h75v-212h136v212h75v-433h60v-167h-70v104h-65v220z" />
    <glyph glyph-name="uni04A4" unicode="&#x4a4;" horiz-adv-x="585" 
d="M312 322h-169v-322h-75v700h75v-313h169v313h258v-69h-183v-631h-75v322z" />
    <glyph glyph-name="uni04A5" unicode="&#x4a5;" horiz-adv-x="519" 
d="M62 496h75v-212h136v212h227v-63h-152v-433h-75v220h-136v-220h-75v496z" />
    <glyph glyph-name="uni04AA" unicode="&#x4aa;" horiz-adv-x="415" 
d="M185 -8q-42 6 -66 25t-36.5 42.5t-16 47t-3.5 37.5v414q0 30 10 57.5t30 48.5t49.5 33.5t67.5 12.5q33 0 61.5 -8.5t50.5 -26.5t34.5 -47t12.5 -71v-45h-73v37q0 9 -2.5 24t-11.5 29.5t-25 24.5t-43 10q-30 0 -47 -11t-25.5 -27.5t-11 -35t-2.5 -32.5v-377q0 -9 3 -24.5
t11.5 -30.5t24.5 -25.5t42 -10.5q15 0 30 4t28 14.5t21 30t8 49.5v22h76v-26q0 -67 -29 -110.5t-98 -53.5v-106h-70v105z" />
    <glyph glyph-name="uni04AB" unicode="&#x4ab;" horiz-adv-x="384" 
d="M273 152h75v-20q0 -17 -5 -38t-18 -41.5t-34.5 -36t-54.5 -21.5v-99h-70v100q-35 6 -56 23.5t-32.5 38.5t-15.5 42t-4 36v225q0 15 5 39.5t21 47.5t44 39.5t75 16.5q44 0 72.5 -15t44.5 -37t22 -45.5t6 -41.5v-22h-75v7q0 42 -20.5 61.5t-49.5 19.5t-49.5 -19.5
t-20.5 -61.5v-204q0 -81 70 -81q33 0 51.5 20t18.5 61v6z" />
    <glyph glyph-name="uni04AE" unicode="&#x4ae;" horiz-adv-x="414" 
d="M244 295v-295h-75v298l-146 402h83l102 -305h3l101 305h79z" />
    <glyph glyph-name="uni04AF" unicode="&#x4af;" horiz-adv-x="354" 
d="M215 30v-234h-75v234l-122 466h79l83 -348h2l81 348h76z" />
    <glyph glyph-name="uni04B0" unicode="&#x4b0;" horiz-adv-x="414" 
d="M158 327l-135 373h83l102 -305h3l101 305h79l-136 -373h110v-54h-121v-273h-75v273h-120v54h109z" />
    <glyph glyph-name="uni04B1" unicode="&#x4b1;" horiz-adv-x="354" 
d="M133 54l-115 442h79l83 -348h2l81 348h76l-119 -442h117v-54h-122v-204h-75v204h-120v54h113z" />
    <glyph glyph-name="uni04B2" unicode="&#x4b2;" horiz-adv-x="448" 
d="M117 700l94 -257l95 257h82l-138 -329l127 -306h59v-178h-70v113h-42l-114 291l-105 -291h-83l150 370l-134 330h79z" />
    <glyph glyph-name="uni04B3" unicode="&#x4b3;" horiz-adv-x="381" 
d="M174 180l-80 -180h-79l121 253l-115 243h80l75 -169l71 169h79l-115 -239l91 -194h61v-167h-70v104h-39z" />
    <glyph glyph-name="uni04B6" unicode="&#x4b6;" horiz-adv-x="437" 
d="M361 700v-635h64v-178h-69v113h-70v308q-21 -11 -46 -15.5t-49 -4.5q-48 0 -72.5 15t-33.5 24q-11 12 -17.5 28t-9.5 32t-4 32t-1 28v253h75v-231q0 -9 0.5 -21.5t2.5 -25.5t6 -25t12 -20q13 -14 30 -19t34 -5t36 4.5t37 16.5v326h75z" />
    <glyph glyph-name="uni04B7" unicode="&#x4b7;" horiz-adv-x="399" 
d="M244 209q-26 -13 -52 -16.5t-48 -3.5q-50 0 -78 25t-28 88v194h75v-178q0 -65 65 -65q20 0 36 5.5t30 13.5v224h75v-433h60v-167h-70v104h-65v209z" />
    <glyph glyph-name="uni04B8" unicode="&#x4b8;" horiz-adv-x="432" 
d="M188 288q-45 1 -70 15.5t-33 23.5q-11 12 -17.5 28t-9.5 32t-4 32t-1 28v253h75v-231q0 -9 0.5 -21.5t2.5 -25.5t6 -25t12 -20q8 -9 18 -14t21 -7v127h42v-130q14 2 29.5 6.5t29.5 14.5v326h75v-700h-75v308q-14 -7 -29 -11.5t-30 -6.5v-115h-42v113z" />
    <glyph glyph-name="uni04B9" unicode="&#x4b9;" horiz-adv-x="396" 
d="M259 209q-12 -6 -26 -10t-28 -6v-81h-37v77h-24q-50 0 -78 25t-28 88v194h75v-178q0 -61 55 -65v105h37v-103q16 2 30 7t24 10v224h75v-496h-75v209z" />
    <glyph glyph-name="uni04BA" unicode="&#x4ba;" horiz-adv-x="431" 
d="M68 0v700h75v-308q21 11 46 15.5t49 4.5q48 0 72.5 -15t33.5 -24q11 -12 17.5 -28t9.5 -32t4 -32t1 -28v-253h-75v231q0 9 -0.5 21.5t-2.5 25.5t-6 25t-12 20q-13 14 -30 19t-34 5t-36 -4.5t-37 -16.5v-326h-75z" />
    <glyph glyph-name="uni04BB" unicode="&#x4bb;" 
d="M62 700h75v-253q24 32 52.5 44.5t54.5 12.5q33 0 53.5 -11t31.5 -28.5t15 -37.5t4 -38v-389h-75v354q0 14 -3 28t-10.5 25t-19.5 17.5t-30 6.5q-23 0 -37 -10t-22 -24t-11 -29.5t-3 -27.5v-340h-75v700z" />
    <glyph glyph-name="uni04C0" unicode="&#x4c0;" horiz-adv-x="220" 
d="M147 700v-700h-75v700h75z" />
    <glyph glyph-name="uni04C3" unicode="&#x4c3;" horiz-adv-x="468" 
d="M143 700v-312h67q22 0 35 8t20.5 22.5t11 34.5t6.5 45l11 95q4 35 12.5 57.5t23 35t35 17.5t47.5 5h7v-65h-7q-16 0 -25 -6t-14.5 -16.5t-7.5 -25t-4 -30.5l-12 -103q-5 -39 -11 -64.5t-25 -42.5q35 -59 56.5 -101.5t33.5 -75.5t16 -59.5t4 -53.5q0 -79 -34 -122
t-105 -43h-16v75h7q33 0 51.5 22.5t18.5 67.5q0 54 -25.5 114.5t-76.5 143.5h-100v-323h-75v700h75z" />
    <glyph glyph-name="uni04C4" unicode="&#x4c4;" horiz-adv-x="411" 
d="M194 285q18 0 29 8t17.5 21t9 28t4.5 29l6 44q3 19 7.5 35t15.5 27.5t29 17.5t48 6h11v-63h-11q-20 0 -28 -14t-12 -42l-6 -41q-5 -32 -10 -51t-24 -35q23 -72 38 -120t23.5 -82.5t12 -62t3.5 -57.5q0 -49 -12 -78t-31 -44t-42 -19.5t-45 -4.5h-19v68h5q26 0 40 9.5
t20.5 22.5t7.5 26.5t1 21.5q0 28 -3 55.5t-10.5 60.5t-20 75t-31.5 99h-80v-225h-75v496h75v-211h57z" />
    <glyph glyph-name="uni04C7" unicode="&#x4c7;" horiz-adv-x="455" 
d="M242 -26q26 0 40 9.5t21 22t8 25.5t1 19v272h-169v-322h-75v700h75v-313h169v313h75v-658q0 -69 -31 -105t-99 -36h-30v73h15v0z" />
    <glyph glyph-name="uni04C8" unicode="&#x4c8;" 
d="M203 -131q26 0 40 9.5t21 22t8 25.5t1 19v275h-136v-220h-75v496h75v-212h136v212h75v-559q0 -69 -31 -105t-99 -36h-23v73h8v0z" />
    <glyph glyph-name="uni04CF" unicode="&#x4cf;" horiz-adv-x="220" 
d="M147 700v-700h-75v700h75z" />
    <glyph glyph-name="uni04D0" unicode="&#x4d0;" horiz-adv-x="443" 
d="M335 0l-35 156h-158l-34 -156h-73l152 700h68l153 -700h-73zM219 550l-67 -330h137zM221 757q-118 0 -118 107v11h62v-11q0 -29 16.5 -41.5t39.5 -12.5t39.5 12.5t16.5 41.5v11h62v-11q0 -107 -118 -107z" />
    <glyph glyph-name="uni04D1" unicode="&#x4d1;" horiz-adv-x="405" 
d="M268 49h-1q-9 -11 -19 -21t-23 -18t-29.5 -13t-40.5 -5q-30 0 -49.5 10.5t-31 29.5t-16.5 44t-5 55q0 39 7 69.5t24 51.5t44.5 32t69.5 11q8 0 23 -0.5t47 -3.5v73q0 10 -4 22t-12.5 22t-21.5 16.5t-32 6.5q-10 0 -20.5 -2.5t-20 -9.5t-17 -19t-10.5 -30h-72
q0 31 11.5 56t31 42.5t46 26.5t56.5 9q43 0 70.5 -14.5t43 -36t21 -48t5.5 -50.5v-355h-75v49zM268 236q-16 2 -29 3.5t-22 1.5q-16 0 -32 -4.5t-28.5 -16t-20.5 -30t-8 -45.5q0 -53 16 -71t48 -18q12 0 25 7t24.5 20t19 29.5t7.5 36.5v87zM250 684h61v-10q0 -19 -5 -40.5
t-22 -37.5q-17 -17 -39.5 -21t-39.5 -4t-39.5 4t-39.5 21q-17 16 -22 37.5t-5 40.5v10h61v-10q0 -8 1.5 -17t6 -17t13.5 -13.5t24 -5.5t24 5.5t13.5 13.5t6 17t1.5 17v10z" />
    <glyph glyph-name="uni04D2" unicode="&#x4d2;" horiz-adv-x="443" 
d="M335 0l-35 156h-158l-34 -156h-73l152 700h68l153 -700h-73zM219 550l-67 -330h137zM179 779h-76v81h76v-81zM263 860h76v-81h-76v81z" />
    <glyph glyph-name="uni04D3" unicode="&#x4d3;" horiz-adv-x="405" 
d="M268 49h-1q-9 -11 -19 -21t-23 -18t-29.5 -13t-40.5 -5q-30 0 -49.5 10.5t-31 29.5t-16.5 44t-5 55q0 39 7 69.5t24 51.5t44.5 32t69.5 11q8 0 23 -0.5t47 -3.5v73q0 10 -4 22t-12.5 22t-21.5 16.5t-32 6.5q-10 0 -20.5 -2.5t-20 -9.5t-17 -19t-10.5 -30h-72
q0 31 11.5 56t31 42.5t46 26.5t56.5 9q43 0 70.5 -14.5t43 -36t21 -48t5.5 -50.5v-355h-75v49zM268 236q-16 2 -29 3.5t-22 1.5q-16 0 -32 -4.5t-28.5 -16t-20.5 -30t-8 -45.5q0 -53 16 -71t48 -18q12 0 25 7t24.5 20t19 29.5t7.5 36.5v87zM167 599h-77v77h77v-77zM236 676
h77v-77h-77v77z" />
    <glyph glyph-name="uni04D4" unicode="&#x4d4;" horiz-adv-x="632" 
d="M318 0v156h-160l-65 -156h-78l290 700h294v-69h-206v-244h182v-65h-182v-253h209v-69h-284zM318 562h-3l-134 -342h137v342z" />
    <glyph glyph-name="uni04D5" unicode="&#x4d5;" horiz-adv-x="607" 
d="M476 139h75v-7q0 -18 -5.5 -42.5t-20.5 -46t-42 -36.5t-70 -15q-49 0 -78 18.5t-45 43.5q-21 -28 -48 -45t-69 -17q-39 0 -62.5 10.5t-36.5 29.5t-17 44t-4 55q0 39 7 69.5t24 51.5t44.5 32t69.5 11q8 0 23 -0.5t47 -3.5v73q0 10 -4 22t-12.5 22t-21.5 16.5t-32 6.5
q-10 0 -20.5 -2.5t-20 -9.5t-17 -19t-10.5 -30h-72q0 31 11.5 56t31 42.5t46 26.5t56.5 9q37 0 62 -11.5t42 -28.5q16 17 40 28.5t61 11.5q44 0 72.5 -16t44.5 -38.5t22 -47t6 -40.5v-142h-210v-79q0 -40 17.5 -58t52.5 -18q33 0 48 18.5t15 49.5v6zM268 236q-16 2 -29 3.5
t-22 1.5q-16 0 -32 -4.5t-28.5 -16t-20.5 -30t-8 -45.5q0 -53 16 -71t48 -18q12 0 25 7t24.5 20t19 29.5t7.5 36.5v87zM478 276v85q0 12 -3 24.5t-11 22.5t-21 16.5t-32 6.5q-20 0 -33 -7t-21 -18t-11 -24t-3 -25v-81h135z" />
    <glyph glyph-name="uni04D6" unicode="&#x4d6;" horiz-adv-x="382" 
d="M68 700h281v-69h-206v-244h182v-65h-182v-253h209v-69h-284v700zM223 757q-118 0 -118 107v11h62v-11q0 -29 16.5 -41.5t39.5 -12.5t39.5 12.5t16.5 41.5v11h62v-11q0 -107 -118 -107z" />
    <glyph glyph-name="uni04D7" unicode="&#x4d7;" horiz-adv-x="397" 
d="M266 139h75v-7q0 -18 -5.5 -42.5t-20.5 -46t-42 -36.5t-70 -15q-47 0 -75 16.5t-44 39.5t-21 47.5t-5 40.5v230q0 15 5 38t20 45.5t42.5 38.5t72.5 16q44 0 72.5 -16t44.5 -38.5t22 -47t6 -40.5v-142h-210v-79q0 -40 17.5 -58t52.5 -18q33 0 48 18.5t15 49.5v6zM268 276
v85q0 12 -3 24.5t-11 22.5t-21 16.5t-32 6.5q-20 0 -33 -7t-21 -18t-11 -24t-3 -25v-81h135zM249 684h61v-10q0 -19 -5 -40.5t-22 -37.5q-17 -17 -39.5 -21t-39.5 -4t-39.5 4t-39.5 21q-17 16 -22 37.5t-5 40.5v10h61v-10q0 -8 1.5 -17t6 -17t13.5 -13.5t24 -5.5t24 5.5
t13.5 13.5t6 17t1.5 17v10z" />
    <glyph glyph-name="uni04D8" unicode="&#x4d8;" horiz-adv-x="444" 
d="M63 573q0 35 13 61t35 43t50 25t58 8t59 -7t52 -23.5t37 -42.5t14 -64v-414q0 -91 -40 -130t-124 -39q-28 0 -55.5 5.5t-49.5 20t-35.5 40t-13.5 64.5v267h243v177q0 34 -24.5 53.5t-61.5 19.5q-39 0 -60.5 -24t-21.5 -62v-29h-75v51zM138 146q0 -42 23.5 -62.5
t61.5 -20.5q30 0 47 9.5t25 23t9.5 28.5t1.5 27v172h-168v-177z" />
    <glyph glyph-name="afii10846" unicode="&#x4d9;" horiz-adv-x="397" 
d="M131 357h-75v7q0 18 5.5 42.5t20.5 46t42 36.5t70 15q46 0 74.5 -16.5t44.5 -39.5t21 -47.5t5 -40.5v-230q0 -15 -5 -38t-20 -45.5t-42.5 -38.5t-72.5 -16q-44 0 -72.5 16t-44.5 38.5t-22 47t-6 40.5v142h210v79q0 40 -17.5 58t-52.5 18q-33 0 -48 -18.5t-15 -49.5v-6z
M129 220v-85q0 -12 3 -24.5t11 -22.5t20.5 -16.5t32.5 -6.5t33 7t21 18t11 24t3 25v81h-135z" />
    <glyph glyph-name="uni04DA" unicode="&#x4da;" horiz-adv-x="444" 
d="M63 573q0 35 13 61t35 43t50 25t58 8t59 -7t52 -23.5t37 -42.5t14 -64v-414q0 -91 -40 -130t-124 -39q-28 0 -55.5 5.5t-49.5 20t-35.5 40t-13.5 64.5v267h243v177q0 34 -24.5 53.5t-61.5 19.5q-39 0 -60.5 -24t-21.5 -62v-29h-75v51zM138 146q0 -42 23.5 -62.5
t61.5 -20.5q30 0 47 9.5t25 23t9.5 28.5t1.5 27v172h-168v-177zM178 779h-76v81h76v-81zM262 860h76v-81h-76v81z" />
    <glyph glyph-name="uni04DB" unicode="&#x4db;" horiz-adv-x="397" 
d="M131 357h-75v7q0 18 5.5 42.5t20.5 46t42 36.5t70 15q46 0 74.5 -16.5t44.5 -39.5t21 -47.5t5 -40.5v-230q0 -15 -5 -38t-20 -45.5t-42.5 -38.5t-72.5 -16q-44 0 -72.5 16t-44.5 38.5t-22 47t-6 40.5v142h210v79q0 40 -17.5 58t-52.5 18q-33 0 -48 -18.5t-15 -49.5v-6z
M129 220v-85q0 -12 3 -24.5t11 -22.5t20.5 -16.5t32.5 -6.5t33 7t21 18t11 24t3 25v81h-135zM161 599h-77v77h77v-77zM230 676h77v-77h-77v77z" />
    <glyph glyph-name="uni04DC" unicode="&#x4dc;" horiz-adv-x="659" 
d="M367 700v-313h46q22 0 35 8t20.5 22.5t11 34.5t6.5 45l11 96q4 35 12.5 57.5t22.5 35t34 17.5t47 5h5v-65h-5q-15 0 -24 -6t-14 -16.5t-7 -25t-4 -30.5l-12 -102q-5 -39 -11 -65t-25 -43l106 -355h-80l-96 326h-79v-326h-75v326h-79l-96 -326h-80l106 355q-19 17 -25 43
t-11 65l-12 102q-2 16 -4 30.5t-7 25t-14 16.5t-24 6h-5v65h5q27 0 47 -5t34 -17.5t22.5 -35t12.5 -57.5l11 -96q3 -25 6.5 -45t11 -34.5t20.5 -22.5t35 -8h46v313h75zM288 779h-76v81h76v-81zM372 860h76v-81h-76v81z" />
    <glyph glyph-name="uni04DD" unicode="&#x4dd;" horiz-adv-x="579" 
d="M252 283v213h75v-213h44q18 0 29 8.5t17.5 21.5t9 28.5t4.5 29.5l6 44q3 19 8 35t15.5 27.5t29 17.5t48.5 6h9v-61h-9q-20 0 -28 -15t-12 -43l-6 -41q-5 -32 -10 -51t-24 -35l89 -255h-74l-78 225h-68v-225h-75v225h-68l-78 -225h-74l89 255q-19 16 -24 35t-10 51l-6 41
q-4 28 -12 43t-28 15h-9v61h9q30 0 48.5 -6t29 -17.5t15.5 -27.5t8 -35l6 -44q2 -14 4.5 -29.5t9 -28.5t17.5 -21.5t29 -8.5h44zM255 599h-77v77h77v-77zM324 676h77v-77h-77v77z" />
    <glyph glyph-name="uni04DE" unicode="&#x4de;" horiz-adv-x="416" 
d="M40 562q0 19 5 44.5t21.5 48.5t48.5 39t86 16q32 0 60.5 -7t50 -23.5t34 -44.5t12.5 -69v-55q0 -26 -3.5 -53.5t-23.5 -50.5q-6 -8 -19.5 -20t-39.5 -21q35 -11 49 -26t19 -24q12 -21 15 -45t3 -46v-85q0 -29 -9.5 -59t-32.5 -51q-26 -24 -57 -32t-65 -8q-28 0 -58.5 6
t-56.5 29q-2 2 -8.5 9.5t-13.5 20.5t-12 32t-5 44v42h75v-27q0 -42 17.5 -62.5t67.5 -20.5q27 0 43.5 9.5t25.5 24t11.5 30.5t2.5 28v65q0 12 -2 31.5t-11 37.5t-28 31t-53 13h-26v65h27q31 0 49.5 11.5t28.5 28t12.5 34t2.5 30.5v42q0 8 -1.5 23.5t-9.5 31t-24.5 27
t-46.5 11.5q-27 0 -44 -9t-26.5 -22t-12.5 -28t-3 -27v-29h-75v40zM156 779h-76v81h76v-81zM240 860h76v-81h-76v81z" />
    <glyph glyph-name="uni04DF" unicode="&#x4df;" horiz-adv-x="377" 
d="M39 365q0 18 5.5 41.5t21 45.5t44 37t73.5 15q64 0 100.5 -34t36.5 -97v-19q0 -42 -20.5 -65t-46.5 -32q26 -6 40.5 -19t21 -28t8 -30t1.5 -24v-30q0 -61 -39.5 -97.5t-104.5 -36.5q-43 0 -70.5 14t-43.5 35t-22 45.5t-6 45.5v19h75v-11q0 -41 17 -58t50 -17q39 0 54 21
t15 52v13q0 41 -18.5 55t-47.5 14h-38v62h35q29 0 47 21.5t18 50.5v18q0 27 -19.5 43t-42.5 16q-31 0 -50 -19t-19 -61v-7h-75v21v0zM146 599h-77v77h77v-77zM215 676h77v-77h-77v77z" />
    <glyph glyph-name="uni04E2" unicode="&#x4e2;" horiz-adv-x="484" 
d="M416 700v-700h-75v511l-198 -511h-75v700h75v-521l198 521h75zM351 844v-58h-218v58h218z" />
    <glyph glyph-name="uni04E3" unicode="&#x4e3;" horiz-adv-x="431" 
d="M137 496v-329l157 268v61h75v-496h-75v320l-157 -268v-52h-75v496h75zM322 665v-58h-212v58h212z" />
    <glyph glyph-name="uni04E4" unicode="&#x4e4;" horiz-adv-x="484" 
d="M416 700v-700h-75v511l-198 -511h-75v700h75v-521l198 521h75zM208 779h-76v81h76v-81zM292 860h76v-81h-76v81z" />
    <glyph glyph-name="uni04E5" unicode="&#x4e5;" horiz-adv-x="431" 
d="M137 496v-329l157 268v61h75v-496h-75v320l-157 -268v-52h-75v496h75zM181 599h-77v77h77v-77zM250 676h77v-77h-77v77z" />
    <glyph glyph-name="uni04E6" unicode="&#x4e6;" horiz-adv-x="462" 
d="M63 523q0 19 1.5 38.5t6.5 37.5t15 35.5t27 33.5q44 42 118 42t118 -42q34 -32 42 -69t8 -76v-346q0 -39 -8 -76t-42 -69q-44 -42 -118 -42t-118 42q-17 16 -27 33.5t-15 35.5t-6.5 37t-1.5 39v346zM324 539q0 19 -4 37.5t-22 35.5q-11 11 -27.5 18t-39.5 7t-39.5 -7
t-27.5 -18q-18 -17 -22 -35.5t-4 -37.5v-378q0 -19 4 -37.5t22 -36.5q11 -10 27.5 -17t39.5 -7t39.5 7t27.5 17q18 18 22 36.5t4 37.5v378zM189 779h-76v81h76v-81zM273 860h76v-81h-76v81z" />
    <glyph glyph-name="uni04E7" unicode="&#x4e7;" horiz-adv-x="402" 
d="M58 364q0 14 5 37.5t20.5 46.5t43.5 39.5t74 16.5t74 -16.5t43.5 -39.5t20.5 -46.5t5 -36.5v-231q0 -15 -5 -39t-20.5 -47t-43.5 -39.5t-74 -16.5t-74 16.5t-43.5 39.5t-20.5 47t-5 39v230zM269 350q0 42 -20 61.5t-48 19.5t-48 -19.5t-20 -61.5v-204q0 -39 17.5 -60
t50.5 -21q32 0 50 20t18 61v204zM167 599h-77v77h77v-77zM236 676h77v-77h-77v77z" />
    <glyph glyph-name="uni04E8" unicode="&#x4e8;" horiz-adv-x="462" 
d="M63 523q0 19 1.5 38.5t6.5 37.5t15 35.5t27 33.5q44 42 118 42t118 -42q34 -32 42 -69t8 -76v-346q0 -39 -8 -76t-42 -69q-44 -42 -118 -42t-118 42q-17 16 -27 33.5t-15 35.5t-6.5 37t-1.5 39v346zM324 322h-186v-161q0 -19 4 -37.5t22 -36.5q11 -10 27.5 -17t39.5 -7
t39.5 7t27.5 17q18 18 22 36.5t4 37.5v161zM138 387h186v152q0 19 -4 37.5t-22 35.5q-11 11 -27.5 18t-39.5 7t-39.5 -7t-27.5 -18q-18 -17 -22 -35.5t-4 -37.5v-152z" />
    <glyph glyph-name="uni04E9" unicode="&#x4e9;" horiz-adv-x="402" 
d="M58 364q0 14 5 37.5t20.5 46.5t43.5 39.5t74 16.5t74 -16.5t43.5 -39.5t20.5 -46.5t5 -36.5v-231q0 -15 -5 -39t-20.5 -47t-43.5 -39.5t-74 -16.5t-74 16.5t-43.5 39.5t-20.5 47t-5 39v230zM269 220h-136v-74q0 -39 17.5 -60t50.5 -21q32 0 50 20t18 61v74zM133 284h136
v66q0 42 -20 61.5t-48 19.5t-48 -19.5t-20 -61.5v-66z" />
    <glyph glyph-name="uni04EA" unicode="&#x4ea;" horiz-adv-x="462" 
d="M63 523q0 19 1.5 38.5t6.5 37.5t15 35.5t27 33.5q44 42 118 42t118 -42q34 -32 42 -69t8 -76v-346q0 -39 -8 -76t-42 -69q-44 -42 -118 -42t-118 42q-17 16 -27 33.5t-15 35.5t-6.5 37t-1.5 39v346zM324 322h-186v-161q0 -19 4 -37.5t22 -36.5q11 -10 27.5 -17t39.5 -7
t39.5 7t27.5 17q18 18 22 36.5t4 37.5v161zM138 387h186v152q0 19 -4 37.5t-22 35.5q-11 11 -27.5 18t-39.5 7t-39.5 -7t-27.5 -18q-18 -17 -22 -35.5t-4 -37.5v-152zM189 779h-76v81h76v-81zM273 860h76v-81h-76v81z" />
    <glyph glyph-name="uni04EB" unicode="&#x4eb;" horiz-adv-x="402" 
d="M58 364q0 14 5 37.5t20.5 46.5t43.5 39.5t74 16.5t74 -16.5t43.5 -39.5t20.5 -46.5t5 -36.5v-231q0 -15 -5 -39t-20.5 -47t-43.5 -39.5t-74 -16.5t-74 16.5t-43.5 39.5t-20.5 47t-5 39v230zM269 220h-136v-74q0 -39 17.5 -60t50.5 -21q32 0 50 20t18 61v74zM133 284h136
v66q0 42 -20 61.5t-48 19.5t-48 -19.5t-20 -61.5v-66zM168 599h-77v77h77v-77zM237 676h77v-77h-77v77z" />
    <glyph glyph-name="uni04EE" unicode="&#x4ee;" horiz-adv-x="399" 
d="M103 700l111 -371h3q7 28 15.5 68t18.5 80l54 223h76l-128 -515q-6 -25 -13 -50t-16 -47t-21.5 -40t-28.5 -28q-20 -12 -42 -16t-41 -4h-23v70h16q18 0 31.5 6t23.5 16q8 8 15 23.5t9 27.5l15 65l-160 492h85zM312 844v-58h-218v58h218z" />
    <glyph glyph-name="uni04EF" unicode="&#x4ef;" horiz-adv-x="368" 
d="M207 -88q-8 -32 -19 -54.5t-26.5 -36t-37 -19.5t-50.5 -6h-17v68h14q35 0 50 20t26 64l14 59l-146 489h79l100 -361h2l76 361h76zM291 665v-58h-212v58h212z" />
    <glyph glyph-name="uni04F0" unicode="&#x4f0;" horiz-adv-x="399" 
d="M103 700l111 -371h3q7 28 15.5 68t18.5 80l54 223h76l-128 -515q-6 -25 -13 -50t-16 -47t-21.5 -40t-28.5 -28q-20 -12 -42 -16t-41 -4h-23v70h16q18 0 31.5 6t23.5 16q8 8 15 23.5t9 27.5l15 65l-160 492h85zM163 779h-76v81h76v-81zM247 860h76v-81h-76v81z" />
    <glyph glyph-name="uni04F1" unicode="&#x4f1;" horiz-adv-x="368" 
d="M207 -88q-8 -32 -19 -54.5t-26.5 -36t-37 -19.5t-50.5 -6h-17v68h14q35 0 50 20t26 64l14 59l-146 489h79l100 -361h2l76 361h76zM147 599h-77v77h77v-77zM216 676h77v-77h-77v77z" />
    <glyph glyph-name="uni04F2" unicode="&#x4f2;" horiz-adv-x="399" 
d="M103 700l111 -371h3q7 28 15.5 68t18.5 80l54 223h76l-128 -515q-6 -25 -13 -50t-16 -47t-21.5 -40t-28.5 -28q-20 -12 -42 -16t-41 -4h-23v70h16q18 0 31.5 6t23.5 16q8 8 15 23.5t9 27.5l15 65l-160 492h85zM152 764h-48l56 111h97zM285 764h-48l57 111h96z" />
    <glyph glyph-name="uni04F3" unicode="&#x4f3;" horiz-adv-x="368" 
d="M207 -88q-8 -32 -19 -54.5t-26.5 -36t-37 -19.5t-50.5 -6h-17v68h14q35 0 50 20t26 64l14 59l-146 489h79l100 -361h2l76 361h76zM127 578h-38l46 122h80zM253 578h-38l46 122h80z" />
    <glyph glyph-name="uni04F4" unicode="&#x4f4;" horiz-adv-x="429" 
d="M361 700v-700h-75v308q-21 -11 -46 -15.5t-49 -4.5q-48 0 -72.5 15t-33.5 24q-11 12 -17.5 28t-9.5 32t-4 32t-1 28v253h75v-231q0 -9 0.5 -21.5t2.5 -25.5t6 -25t12 -20q13 -14 30 -19t34 -5t36 4.5t37 16.5v326h75zM162 779h-76v81h76v-81zM246 860h76v-81h-76v81z" />
    <glyph glyph-name="uni04F5" unicode="&#x4f5;" horiz-adv-x="381" 
d="M244 209q-26 -13 -52 -16.5t-48 -3.5q-50 0 -78 25t-28 88v194h75v-178q0 -65 65 -65q20 0 36 5.5t30 13.5v224h75v-496h-75v209zM139 599h-77v77h77v-77zM208 676h77v-77h-77v77z" />
    <glyph glyph-name="uni04F8" unicode="&#x4f8;" horiz-adv-x="617" 
d="M549 700v-700h-75v700h75zM68 0v700h75v-294h65q15 0 32 -0.5t35 -4.5t35.5 -11.5t32.5 -20.5q15 -14 23 -29.5t12 -30.5t4.5 -28.5t0.5 -22.5v-86q0 -24 -5 -52.5t-23 -56.5q-7 -10 -19 -21t-30.5 -20.5t-44 -15.5t-58.5 -6h-135zM143 65h70q11 0 27 3t31 14.5t26 34
t11 61.5v60q0 45 -21 74t-74 29h-70v-276zM269 779h-76v81h76v-81zM353 860h76v-81h-76v81z" />
    <glyph glyph-name="uni04F9" unicode="&#x4f9;" horiz-adv-x="557" 
d="M420 496h75v-496h-75v496zM137 496v-198h67q21 0 45.5 -3.5t45.5 -15.5t35 -35t14 -62v-60q0 -66 -38.5 -94t-101.5 -28h-142v496h75zM137 63h61q12 0 24.5 3t23 10.5t17 20t6.5 31.5v41q0 37 -22.5 51.5t-48.5 14.5h-61v-172zM250 599h-77v77h77v-77zM319 676h77v-77
h-77v77z" />
    <glyph glyph-name="uni1E9E" unicode="&#x1e9e;" horiz-adv-x="446" 
d="M68 562q0 33 12.5 60.5t33.5 47t50 30t62 10.5q30 0 57 -8t48 -25t33 -43t12 -61v-37l-86 -142q35 -6 54.5 -21.5t28.5 -34.5t11 -39.5t2 -38.5v-110q0 -74 -38.5 -112t-118.5 -38h-5v75h5q25 0 41 8t25 20.5t12.5 28.5t3.5 33v96q0 12 -2 28t-10 30.5t-24.5 24.5
t-45.5 10h-10v39l82 139v28q0 33 -19.5 55t-59.5 22q-37 0 -58 -22.5t-21 -60.5v-554h-75v562z" />
    <glyph glyph-name="uni2010" unicode="&#x2010;" horiz-adv-x="314" 
d="M269 351v-90h-224v90h224z" />
    <glyph glyph-name="uni2011" unicode="&#x2011;" horiz-adv-x="314" 
d="M269 351v-90h-224v90h224z" />
    <glyph glyph-name="figuredash" unicode="&#x2012;" horiz-adv-x="463" 
d="M398 385v-60h-333v60h333z" />
    <glyph glyph-name="endash" unicode="&#x2013;" horiz-adv-x="463" 
d="M398 333v-60h-333v60h333z" />
    <glyph glyph-name="emdash" unicode="&#x2014;" horiz-adv-x="661" 
d="M616 333v-60h-571v60h571z" />
    <glyph glyph-name="quoteleft" unicode="&#x2018;" horiz-adv-x="188" 
d="M50 545v91l78 75v-166h-78z" />
    <glyph glyph-name="quoteright" unicode="&#x2019;" horiz-adv-x="188" 
d="M138 700v-91l-78 -75v166h78z" />
    <glyph glyph-name="quotesinglbase" unicode="&#x201a;" horiz-adv-x="187" 
d="M137 85v-91l-77 -75v166h77z" />
    <glyph glyph-name="quotedblleft" unicode="&#x201c;" horiz-adv-x="342" 
d="M205 545v91l77 75v-166h-77zM50 545v91l77 75v-166h-77z" />
    <glyph glyph-name="quotedblright" unicode="&#x201d;" horiz-adv-x="342" 
d="M137 700v-91l-77 -75v166h77zM292 700v-91l-77 -75v166h77z" />
    <glyph glyph-name="quotedblbase" unicode="&#x201e;" horiz-adv-x="342" 
d="M137 85v-91l-77 -75v166h77zM292 85v-91l-77 -75v166h77z" />
    <glyph glyph-name="dagger" unicode="&#x2020;" horiz-adv-x="380" 
d="M227 700v-210h110v-65h-110v-425h-75v425h-109v65h109v210h75z" />
    <glyph glyph-name="daggerdbl" unicode="&#x2021;" horiz-adv-x="380" 
d="M227 700v-210h110v-65h-110v-150h110v-65h-110v-210h-75v210h-109v65h109v150h-109v65h109v210h75z" />
    <glyph glyph-name="bullet" unicode="&#x2022;" horiz-adv-x="440" 
d="M110 350q0 22 8.5 42t23.5 35t35 24t43 9q22 0 42 -9t35 -24t24 -35t9 -42q0 -23 -9 -43t-24 -35t-35 -23.5t-42 -8.5q-23 0 -43 8.5t-35 23.5t-23.5 35t-8.5 43z" />
    <glyph glyph-name="ellipsis" unicode="&#x2026;" horiz-adv-x="549" 
d="M130 80v-80h-80v80h80zM499 80v-80h-80v80h80zM321 80v-80h-80v80h80z" />
    <glyph glyph-name="perthousand" unicode="&#x2030;" horiz-adv-x="875" 
d="M247 431q0 -21 -5 -39.5t-21 -33.5q-16 -14 -34.5 -18.5t-35.5 -4.5t-35.5 4t-34.5 19q-15 14 -20.5 33t-5.5 40v173q0 21 5.5 40t20.5 33q16 15 34.5 19t35.5 4t35.5 -4.5t34.5 -18.5t21 -32.5t5 -40.5v-173zM107 430q0 -6 1 -16.5t9 -18.5q5 -5 15.5 -9t18.5 -4t18 4
t16 9q8 10 9 19.5t1 15.5v175q0 5 -1 14.5t-9 19.5q-7 6 -16.5 10t-17.5 4t-18 -4t-16 -10q-8 -9 -9 -19t-1 -15v-175zM466 700l-288 -700h-48l288 700h48zM545 96q0 -21 -5.5 -40t-20.5 -33q-16 -15 -34.5 -19t-35.5 -4t-35.5 4.5t-34.5 18.5q-16 15 -21 33.5t-5 39.5v173
q0 21 5 39.5t21 33.5q16 14 34.5 18.5t35.5 4.5t35.5 -4.5t34.5 -18.5q15 -14 20.5 -32.5t5.5 -40.5v-173zM405 95q0 -6 1 -16.5t8 -18.5q6 -5 16 -9t19 -4q8 0 18 4t15 9q8 10 9 19.5t1 15.5v175q0 5 -1 14.5t-9 19.5q-6 6 -15.5 10t-17.5 4t-18 -4t-17 -10q-7 -9 -8 -18.5
t-1 -15.5v-175zM820 96q0 -21 -5.5 -40t-20.5 -33q-16 -15 -34.5 -19t-35.5 -4t-35.5 4.5t-34.5 18.5q-16 15 -21 33.5t-5 39.5v173q0 21 5 39.5t21 33.5q16 14 34.5 18.5t35.5 4.5t35.5 -4.5t34.5 -18.5q15 -14 20.5 -32.5t5.5 -40.5v-173zM680 95q0 -6 1 -16.5t8 -18.5
q6 -5 16 -9t19 -4q8 0 18 4t15 9q8 10 9 19.5t1 15.5v175q0 5 -1 14.5t-9 19.5q-6 6 -15.5 10t-17.5 4t-18 -4t-17 -10q-7 -9 -8 -18.5t-1 -15.5v-175z" />
    <glyph glyph-name="guilsinglleft" unicode="&#x2039;" horiz-adv-x="245" 
d="M210 369l-100 -93l100 -93v-86l-185 179l185 179v-86z" />
    <glyph glyph-name="guilsinglright" unicode="&#x203a;" horiz-adv-x="245" 
d="M35 183l100 93l-100 93v86l185 -179l-185 -179v86z" />
    <glyph glyph-name="fraction" unicode="&#x2044;" horiz-adv-x="80" 
d="M210 700l-288 -700h-52l288 700h52z" />
    <glyph glyph-name="Euro" unicode="&#x20ac;" 
d="M147 377v-74h139v-44h-139v-105q0 -9 2.5 -24.5t11 -30.5t24.5 -25.5t42 -10.5q15 0 30 4t28 14.5t21 30t8 49.5v12h76v-16q0 -75 -38 -121t-128 -46q-53 0 -83 18.5t-45.5 43.5t-19.5 51t-4 41v115h-72v44h72v74h-72v43h72v138q0 30 10 57.5t29.5 48.5t49 33.5
t67.5 12.5q33 0 61.5 -8.5t50.5 -26.5t34.5 -47t12.5 -71v-35h-73v27q0 9 -2.5 24t-11.5 29.5t-25 24.5t-43 10q-30 0 -47 -11t-25.5 -27.5t-10.5 -35t-2 -32.5v-111h139v-43h-139z" />
    <glyph glyph-name="uni20B4" unicode="&#x20b4;" 
d="M25 434h220q20 25 34.5 54.5t14.5 67.5q0 33 -20 57t-65 24q-50 0 -70 -27.5t-20 -67.5h-72q0 79 42.5 123.5t119.5 44.5q73 0 116.5 -37.5t43.5 -118.5q0 -19 -4.5 -38t-11 -35t-13 -28.5t-10.5 -18.5h54v-45h-86l-93 -98h179v-46h-218q-17 -20 -32 -46t-15 -62
q0 -10 3.5 -23t13.5 -24t27.5 -19t45.5 -8q12 0 28 5t30 15.5t23.5 27t9.5 39.5h75q-3 -70 -47 -115t-120 -45q-78 0 -121 37.5t-43 108.5q0 29 7.5 56t25.5 53h-52v46h90l94 98h-184v45z" />
    <glyph glyph-name="uni20B8" unicode="&#x20b8;" 
d="M372 570v-69h-130v-501h-75v501h-129v69h334zM38 631v69h334v-69h-334z" />
    <glyph glyph-name="uni20BD" unicode="&#x20bd;" 
d="M65 353v347h130q15 0 32.5 -1t35 -5.5t35 -13t33.5 -24.5q32 -33 40.5 -75.5t8.5 -80.5v-21q0 -14 -1.5 -31.5t-6 -35.5t-12.5 -36.5t-22 -34.5q-30 -34 -66 -43t-66 -9h-66v-78h92v-65h-92v-146h-75v146h-58v65h58v78h-58v64h58zM140 353h60q17 0 39 5.5t42 26.5
q18 20 21 39t3 40v54q0 10 -0.5 22t-4 25t-10.5 25.5t-19 23.5q-20 16 -43.5 18.5t-46.5 2.5h-41v-282z" />
    <glyph glyph-name="afii61352" unicode="&#x2116;" horiz-adv-x="759" 
d="M711 355q0 -48 -27.5 -72t-68.5 -24q-40 0 -68 24t-28 72v159q0 48 28 72t68 24q18 0 35.5 -5t31 -16.5t21.5 -30t8 -44.5v-159zM579 364q0 -6 1 -14.5t5 -16t11 -12.5t19 -5t19.5 5.5t11 13.5t4.5 16t1 13v141q0 4 -1 12t-5 16t-11 14t-19 6t-19 -5.5t-10.5 -13
t-5 -15.5t-1.5 -14v-141zM711 177v-58h-192v58h192zM143 700l198 -521v521h75v-700h-75l-198 511v-511h-75v700h75z" />
    <glyph glyph-name="uni2117" unicode="&#x2117;" horiz-adv-x="692" 
d="M262 570h106q19 0 38.5 -3t36.5 -16q20 -14 25 -32t5 -36v-19q0 -14 -4 -29t-16 -29q-18 -20 -43.5 -24t-46.5 -4h-34v-118h-67v310zM361 434q5 0 16 1t19 9q10 10 10 29q0 21 -13 31q-8 5 -17 7t-15 2h-32v-79h32zM50 414q0 61 23.5 115t63.5 94t94 63.5t115 23.5
t115 -23.5t94 -63.5t63.5 -94t23.5 -115t-23.5 -115t-63.5 -94t-94 -63.5t-115 -23.5t-115 23.5t-94 63.5t-63.5 94t-23.5 115zM102 414q0 -51 19 -95.5t52 -77.5t77.5 -52t95.5 -19t95 19t77 52t52 77.5t19 95.5t-19 95t-52 77t-77 52t-95 19t-95.5 -19t-77.5 -52t-52 -77
t-19 -95z" />
    <glyph glyph-name="trademark" unicode="&#x2122;" horiz-adv-x="729" 
d="M350 700h60l96 -217l96 217h61v-349h-58v225h-3l-80 -175h-32l-80 175l-3 -1v-224h-57v349zM182 650v-299h-62v299h-84v50h230v-50h-84z" />
    <glyph glyph-name="partialdiff" unicode="&#x2202;" horiz-adv-x="402" 
d="M344 152q0 -22 -5 -49.5t-20.5 -52t-43.5 -41.5t-74 -17t-74 17t-43.5 41.5t-20.5 52t-5 49.5v242q0 12 3.5 31t15 36.5t32 30t54.5 12.5q36 0 63.5 -15t49.5 -53v33q0 41 -17.5 63t-42.5 37l-34 21l-32 -47l-36 25l31 45l-68 42l38 55l68 -43l29 43l35 -24l-28 -41
l26 -16q28 -18 47 -33.5t30.5 -35t16.5 -44.5t5 -61v-303zM133 146q0 -39 17.5 -60t50.5 -21q32 0 50 20t18 61v204q0 37 -20 59t-48 22t-48 -19.5t-20 -61.5v-204z" />
    <glyph glyph-name="product" unicode="&#x220f;" horiz-adv-x="450" 
d="M143 635v-839h-75v839h-52v65h418v-65h-52v-839h-75v839h-164z" />
    <glyph glyph-name="summation" unicode="&#x2211;" horiz-adv-x="400" 
d="M347 -204h-294v74l155 407l-153 358v65h278v-65h-203l156 -348l-165 -417h226v-74z" />
    <glyph glyph-name="minus" unicode="&#x2212;" horiz-adv-x="491" 
d="M436 316v-55h-381v55h381z" />
    <glyph glyph-name="uni2215" unicode="&#x2215;" horiz-adv-x="330" 
d="M335 700l-288 -700h-52l288 700h52z" />
    <glyph glyph-name="radical" unicode="&#x221a;" horiz-adv-x="489" 
d="M303 700h121v-54h-72l-78 -664h-68l-108 334h-48v58h99l82 -255h2z" />
    <glyph glyph-name="infinity" unicode="&#x221e;" horiz-adv-x="708" 
d="M55 339q0 33 11 60.5t30 47t45.5 30t58.5 10.5q53 0 89 -28.5t65 -71.5q26 40 64.5 70t89.5 30q31 0 58 -10.5t46 -30t30 -47t11 -60.5t-11 -60t-30 -46t-45.5 -29.5t-57.5 -10.5q-33 0 -58 11.5t-44 27t-32 32.5t-21 29q-8 -14 -22.5 -31t-34.5 -32.5t-44.5 -26
t-53.5 -10.5q-31 0 -57.5 10.5t-45.5 29.5t-30 46t-11 60zM501 427q-17 0 -33.5 -7.5t-31.5 -20t-27.5 -28t-21.5 -31.5q19 -36 50 -62t64 -26q15 0 30 5t27 16t19.5 27.5t7.5 39.5q0 22 -8 38.5t-20.5 27.5t-27.5 16t-28 5zM207 252q33 0 64 26t50 62q-9 16 -20.5 31.5
t-25.5 28t-31 20t-37 7.5q-35 0 -59.5 -25t-24.5 -62q0 -38 23.5 -63t60.5 -25z" />
    <glyph glyph-name="integral" unicode="&#x222b;" horiz-adv-x="344" 
d="M134 -72q-6 -38 -21.5 -63t-37 -40.5t-47.5 -22t-53 -6.5h-21l12 64h6q30 0 56.5 18.5t33.5 60.5l99 630q11 73 48 102t111 29h26l-10 -64h-24q-37 0 -55.5 -22t-23.5 -57z" />
    <glyph glyph-name="approxequal" unicode="&#x2248;" horiz-adv-x="491" 
d="M436 399q-4 -21 -10.5 -38t-18 -30t-29.5 -20t-46 -7q-8 0 -25.5 2.5t-46.5 10.5l-28 8q-13 4 -31 8t-41 4q-18 0 -34.5 -10t-21.5 -34h-49q4 21 10.5 38t18 29.5t30 19.5t46.5 7q8 0 25.5 -1.5t46.5 -10.5l26 -8q14 -5 32.5 -9t41.5 -4q18 0 34.5 11t21.5 34h48z
M436 253q-4 -21 -10.5 -38t-18 -30t-29.5 -20t-46 -7q-8 0 -25.5 2.5t-46.5 10.5l-28 8q-13 4 -31 8t-41 4q-18 0 -34.5 -10t-21.5 -34h-49q4 21 10.5 38t18 29.5t30 19.5t46.5 7q8 0 25.5 -1.5t46.5 -10.5l26 -8q14 -5 32.5 -9t41.5 -4q18 0 34.5 11t21.5 34h48z" />
    <glyph glyph-name="notequal" unicode="&#x2260;" horiz-adv-x="491" 
d="M254 384l28 73h53l-28 -73h129v-55h-149l-35 -91h184v-55h-205l-23 -63h-53l23 63h-123v55h144l35 91h-179v55h199z" />
    <glyph glyph-name="lessequal" unicode="&#x2264;" horiz-adv-x="491" 
d="M41 265l384 -178v-51l-384 178v51zM41 334v36l384 180v-51l-316 -147l316 -146v-51z" />
    <glyph glyph-name="greaterequal" unicode="&#x2265;" horiz-adv-x="491" 
d="M450 214l-384 -178v51l384 178v-51zM66 155v51l316 146l-316 147v51l384 -180v-36z" />
    <glyph glyph-name="lozenge" unicode="&#x25ca;" horiz-adv-x="356" 
d="M306 350l-128 -350l-128 350l128 350zM178 534l-67 -184l67 -184l67 184z" />
    <glyph glyph-name="uniF400" unicode="&#xf400;" horiz-adv-x="0" 
d="M-202 578h-39l46 122h81z" />
    <glyph glyph-name="uniF401" unicode="&#xf401;" horiz-adv-x="0" 
d="M-213 764h-50l59 116h101z" />
    <glyph glyph-name="uniF406" unicode="&#xf406;" horiz-adv-x="350" 
d="M295 864q0 -52 -33.5 -77t-86.5 -25q-54 0 -87 25t-33 77v5h54v-3q0 -15 7 -24t17.5 -14t21.5 -6.5t20 -1.5t20 1.5t21.5 6.5t17.5 14t7 24v3h54v-5z" />
    <glyph glyph-name="uniF407" unicode="&#xf407;" horiz-adv-x="463" 
d="M250 0l-3 -37q31 0 48.5 -19t17.5 -45q0 -23 -8.5 -38t-21 -23.5t-27.5 -12t-28 -3.5q-49 0 -78 33l37 33q12 -12 31 -12q11 0 19 5.5t8 19.5q0 11 -9.5 16.5t-23.5 5.5q-5 0 -8.5 -0.5t-7.5 -1.5l5 79h49z" />
    <glyph glyph-name="uniF408" unicode="&#xf408;" horiz-adv-x="392" 
d="M312 768h-56l-60 65l-60 -65h-56l56 106h120z" />
    <glyph glyph-name="uniF409" unicode="&#xf409;" horiz-adv-x="196" 
d="M135 -73v-92l-75 -61v153h75z" />
    <glyph glyph-name="uniF40A" unicode="&#xf40a;" horiz-adv-x="188" 
d="M138 700v-94l-88 -80v174h88z" />
    <glyph glyph-name="uniF40B" unicode="&#xf40b;" horiz-adv-x="278" 
d="M181 863v-85h-84v85h84z" />
    <glyph glyph-name="uniF40C" unicode="&#xf40c;" horiz-adv-x="268" 
d="M54 822q0 33 23.5 56.5t56.5 23.5t56.5 -23.5t23.5 -56.5t-23.5 -56.5t-56.5 -23.5t-56.5 23.5t-23.5 56.5zM102 822q0 -13 9.5 -22.5t22.5 -9.5q15 0 25 9.5t10 22.5q0 15 -10 25t-25 10q-13 0 -22.5 -10t-9.5 -25z" />
    <glyph glyph-name="uniF40D" unicode="&#xf40d;" horiz-adv-x="359" 
d="M60 771q0 16 4 32.5t13 30t22 22t31 8.5q7 0 18 -1.5t28 -9.5l19 -9q7 -3 13.5 -6t16.5 -3t17.5 6.5t10.5 28.5h46q0 -48 -21.5 -70.5t-46.5 -22.5q-13 0 -26.5 3.5t-20.5 6.5l-20 9q-8 4 -14.5 6.5t-14.5 2.5q-9 0 -17.5 -6.5t-10.5 -28.5h-47v1z" />
    <glyph glyph-name="uniF40E" unicode="&#xf40e;" horiz-adv-x="261" 
d="M176 -6q-5 -3 -13 -9t-16 -13.5t-14 -17t-6 -21.5q0 -11 7.5 -20t24.5 -9q12 0 21 4t14 9l32 -31q-22 -26 -43.5 -31.5t-32.5 -5.5q-26 0 -42 7.5t-26 18.5t-13.5 23.5t-3.5 22.5q0 14 5.5 25.5t14 20.5t17.5 15l15 10l20 13h55z" />
    <glyph glyph-name="uniF4C6" unicode="&#xf4c6;" horiz-adv-x="429" 
d="M216 -26q26 0 40 9.5t21 22t8 25.5t1 19v258q-21 -11 -46 -15.5t-49 -4.5q-48 0 -72.5 15t-33.5 24q-11 12 -17.5 28t-9.5 32t-4 32t-1 28v253h75v-231q0 -9 0.5 -21.5t2.5 -25.5t6 -25t12 -20q13 -14 30 -19t34 -5t36 4.5t37 16.5v326h75v-658q0 -69 -31 -105t-99 -36
h-30v73h15v0z" />
    <glyph glyph-name="uniF4C7" unicode="&#xf4c7;" horiz-adv-x="381" 
d="M174 -131q26 0 40 9.5t21 22t8 25.5t1 19v264q-26 -13 -52 -16.5t-48 -3.5q-50 0 -78 25t-28 88v194h75v-178q0 -65 65 -65q20 0 36 5.5t30 13.5v224h75v-559q0 -69 -31 -105t-99 -36h-23v73h8v0z" />
    <glyph glyph-name="dollar.fitted" unicode="&#xf5f5;" horiz-adv-x="368" 
d="M273 522q0 14 -3.5 35.5t-17.5 40.5q-7 8 -17.5 15t-26.5 11v-231l27 -9q22 -8 47 -21.5t42 -37.5q19 -26 23.5 -54.5t4.5 -61.5v-15q0 -52 -13 -89.5t-33 -60.5q-16 -17 -41 -28t-57 -14v-82h-42v80q-46 3 -75.5 18.5t-44.5 36.5q-11 15 -17 33.5t-9 36t-3.5 30.5
t-0.5 16v25h75v-20q0 -14 3.5 -35.5t16.5 -38.5q12 -15 27 -21t28 -8v262l-42 15q-26 9 -49.5 25.5t-37.5 49.5q-10 23 -12 48t-2 51v11q0 42 14 73.5t36 51.5q19 19 42.5 28.5t50.5 11.5v80h42v-80q63 -6 101.5 -51t38.5 -123v-24h-75v20zM257 285q-11 14 -24.5 22
t-24.5 13v-245q20 5 31 13t18 16q14 18 17 40.5t3 40.5v17q0 20 -3.5 43.5t-16.5 39.5zM116 445q9 -14 23 -22.5t27 -13.5v216q-11 -2 -21.5 -6.5t-20.5 -14.5q-18 -19 -22 -42t-4 -43q0 -16 2.5 -35t15.5 -39z" />
    <glyph glyph-name="Euro.fitted" unicode="&#xf5f6;" 
d="M147 377v-74h139v-44h-139v-105q0 -9 2.5 -24.5t11 -30.5t24.5 -25.5t42 -10.5q15 0 30 4t28 14.5t21 30t8 49.5v12h76v-16q0 -75 -38 -121t-128 -46q-53 0 -83 18.5t-45.5 43.5t-19.5 51t-4 41v115h-72v44h72v74h-72v43h72v138q0 30 10 57.5t29.5 48.5t49 33.5
t67.5 12.5q33 0 61.5 -8.5t50.5 -26.5t34.5 -47t12.5 -71v-35h-73v27q0 9 -2.5 24t-11.5 29.5t-25 24.5t-43 10q-30 0 -47 -11t-25.5 -27.5t-10.5 -35t-2 -32.5v-111h139v-43h-139z" />
    <glyph glyph-name="cent.fitted" unicode="&#xf5f7;" horiz-adv-x="321" 
d="M149 0v77q-41 3 -66 20.5t-39 39.5t-18.5 45.5t-4.5 38.5v225q0 15 4.5 37.5t18.5 44.5t39 39.5t66 20.5v66h36v-66q38 -4 62.5 -19.5t38.5 -36.5t19.5 -43.5t5.5 -38.5v-22h-75v7q0 35 -14.5 54t-36.5 25v-362q24 5 37.5 24.5t13.5 54.5v6h75v-20q0 -17 -6 -39.5
t-20 -43.5t-38.5 -37t-61.5 -19v-78h-36zM96 231q0 -69 53 -80v363q-23 -5 -38 -24.5t-15 -54.5v-204z" />
    <glyph glyph-name="sterling.fitted" unicode="&#xf5f8;" horiz-adv-x="373" 
d="M235 301h-85v-236h169v-65h-298v65h54v236h-54v55h54v201q0 81 39.5 117t104.5 36q43 0 70 -12.5t42.5 -31.5t21 -41t5.5 -41v-28h-75v17q0 12 -3.5 24t-11.5 21.5t-20.5 16t-29.5 6.5q-25 0 -39 -11t-20.5 -25.5t-7.5 -28.5t-1 -20v-200h85v-55z" />
    <glyph glyph-name="yen.fitted" unicode="&#xf5f9;" horiz-adv-x="398" 
d="M162 251v46l-18 51h-115v47h97l-111 305h84l102 -305h5l99 305h80l-110 -305h96v-47h-114l-20 -53v-44h134v-47h-134v-204h-75v204h-133v47h133z" />
    <glyph glyph-name="florin.fitted" unicode="&#xf5fa;" horiz-adv-x="401" 
d="M352 433h-86l-81 -505q-6 -38 -21.5 -63t-37 -40.5t-47.5 -22t-53 -6.5h-21l12 64h6q30 0 56.5 18.5t33.5 60.5l77 494h-82l10 56h80l14 80q6 36 17.5 61t30.5 40.5t46.5 22.5t64.5 7h26l-10 -64h-24q-37 0 -55.5 -22t-23.5 -57l-10 -68h87z" />
    <glyph glyph-name="uni20B4.fitted" unicode="&#xf5fb;" horiz-adv-x="404" 
d="M23 434h220q20 25 34.5 54.5t14.5 67.5q0 33 -20 57t-65 24q-50 0 -70 -27.5t-20 -67.5h-72q0 79 42.5 123.5t119.5 44.5q73 0 116.5 -37.5t43.5 -118.5q0 -19 -4.5 -38t-11 -35t-13 -28.5t-10.5 -18.5h54v-45h-86l-93 -98h179v-46h-218q-17 -20 -32 -46t-15 -62
q0 -10 3.5 -23t13.5 -24t27.5 -19t45.5 -8q12 0 28 5t30 15.5t23.5 27t9.5 39.5h75q-3 -70 -47 -115t-120 -45q-78 0 -121 37.5t-43 108.5q0 29 7.5 56t25.5 53h-52v46h90l94 98h-184v45z" />
    <glyph glyph-name="uni20BD.fitted" unicode="&#xf5fc;" 
d="M65 353v347h130q15 0 32.5 -1t35 -5.5t35 -13t33.5 -24.5q32 -33 40.5 -75.5t8.5 -80.5v-21q0 -14 -1.5 -31.5t-6 -35.5t-12.5 -36.5t-22 -34.5q-30 -34 -66 -43t-66 -9h-66v-78h92v-65h-92v-146h-75v146h-58v65h58v78h-58v64h58zM140 353h60q17 0 39 5.5t42 26.5
q18 20 21 39t3 40v54q0 10 -0.5 22t-4 25t-10.5 25.5t-19 23.5q-20 16 -43.5 18.5t-46.5 2.5h-41v-282z" />
    <glyph glyph-name="uni20B8.fitted" unicode="&#xf5fd;" horiz-adv-x="347" 
d="M341 570v-69h-130v-501h-75v501h-129v69h334zM7 631v69h334v-69h-334z" />
    <glyph glyph-name="numbersign.fitted" unicode="&#xf5ff;" horiz-adv-x="416" 
d="M196 700l-29 -214h120l29 214h54l-29 -214h60v-45h-66l-26 -179h60v-46h-67l-30 -216h-53l29 216h-119l-31 -216h-52l28 216h-59v46h66l26 179h-60v45h66l31 214h52zM281 441h-119l-26 -179h119z" />
    <glyph glyph-name="uniF639" unicode="&#xf639;" horiz-adv-x="353" 
d="M323 138q0 -20 -5 -45.5t-20 -48.5t-44 -38.5t-77 -15.5t-77 15.5t-44 38.5t-20 48.5t-5 45.5v424q0 20 5 45.5t20 48.5t44 38.5t77 15.5t77 -15.5t44 -38.5t20 -48.5t5 -45.5v-424zM248 552q0 15 -3.5 30t-11.5 27t-21.5 20t-34.5 8t-34.5 -8t-21.5 -20t-11.5 -27
t-3.5 -30v-404q0 -15 3.5 -30t11.5 -27t21.5 -20t34.5 -8t34.5 8t21.5 20t11.5 27t3.5 30v404z" />
    <glyph glyph-name="uniF63A" unicode="&#xf63a;" horiz-adv-x="340" 
d="M29 553q0 52 16 83.5t39 47.5t48 21t44 5q66 0 105 -38t39 -107v-47q0 -28 -9.5 -59.5t-20.5 -51.5l-180 -338h210v-69h-291v66l182 348q17 32 25.5 59.5t8.5 63.5v16q0 34 -14.5 59t-56.5 25q-24 0 -38 -9.5t-21 -24.5t-9 -32t-2 -32v-35h-75v49z" />
    <glyph glyph-name="uniF63B" unicode="&#xf63b;" horiz-adv-x="347" 
d="M27 576q0 17 5.5 40t21.5 44t43.5 35.5t72.5 14.5q25 0 51 -5.5t48 -20t36 -39.5t14 -65v-97q0 -17 -2.5 -34.5t-10 -33.5t-21.5 -29.5t-38 -21.5q27 -7 41.5 -21t21 -30.5t8 -33.5t1.5 -31v-115q0 -30 -8.5 -56t-27 -45.5t-47 -30.5t-68.5 -11q-20 0 -44.5 5.5t-46 19.5
t-36 39.5t-14.5 65.5v79h75v-53q0 -13 2.5 -27.5t10 -27t22 -20.5t37.5 -8q12 0 24.5 3.5t22.5 12t16.5 23.5t6.5 38v113q0 29 -15.5 51.5t-56.5 22.5h-24v67h25q20 0 33.5 7t22 18.5t12 25t3.5 26.5v93q0 29 -18.5 51t-54.5 22q-21 0 -34.5 -9t-21 -22.5t-10.5 -28.5
t-3 -26v-47h-75v72z" />
    <glyph glyph-name="uniF63C" unicode="&#xf63c;" horiz-adv-x="353" 
d="M233 700l-149 -510h132v194h75v-195h50v-66h-50v-123h-75v123h-207v66l151 511h73z" />
    <glyph glyph-name="uniF63D" unicode="&#xf63d;" horiz-adv-x="339" 
d="M316 700v-69h-202v-228q27 27 51 34.5t46 7.5q46 0 75.5 -29t29.5 -84v-197q0 -18 -4 -42.5t-18.5 -47.5t-43 -39t-76.5 -16q-44 0 -72 14.5t-44.5 36t-23 45.5t-6.5 43v33h75v-20q0 -11 2.5 -25t10 -26t21 -20t34.5 -8q25 0 39 9.5t21 22t8.5 26t1.5 21.5v158
q0 12 -3 25.5t-10.5 24.5t-19.5 18.5t-31 7.5q-20 0 -38 -12t-28 -41h-72v377h277z" />
    <glyph glyph-name="uniF63E" unicode="&#xf63e;" horiz-adv-x="326" 
d="M261 700l-133 -321q19 14 38 17.5t30 3.5q13 0 32 -4.5t36 -18t29 -37.5t12 -62v-143q0 -42 -12 -70t-32.5 -44.5t-47 -23.5t-54.5 -7q-40 0 -67 13t-43.5 33.5t-24 45t-7.5 47.5v115q0 44 12 76.5t25 64.5l127 315h80zM230 267q0 11 -3 24t-10 24t-19.5 18.5t-31.5 7.5
q-10 0 -22.5 -4.5t-24 -14.5t-19.5 -26t-8 -40v-117q0 -8 1 -20.5t7.5 -25t20 -21.5t37.5 -9q23 0 37 8t22 20.5t10.5 27.5t2.5 29v119z" />
    <glyph glyph-name="uniF63F" unicode="&#xf63f;" horiz-adv-x="318" 
d="M309 700v-67l-166 -633h-74l165 633h-146v-86h-65v153h286z" />
    <glyph glyph-name="uniF640" unicode="&#xf640;" horiz-adv-x="348" 
d="M320 476q0 -13 -1.5 -27t-7.5 -28t-17 -28.5t-30 -27.5q18 -12 29 -26.5t17 -30t8 -31t2 -29.5v-105q0 -7 -2.5 -31.5t-16 -51.5t-43 -48.5t-83.5 -21.5t-83.5 21.5t-43 48.5t-16 51.5t-2.5 31.5v105q0 14 2 29.5t8 31t17 30t29 26.5q-19 13 -30 27.5t-17 28.5t-7.5 28
t-1.5 27v81q0 7 2.5 31.5t16 51.5t43 48.5t83.5 21.5t83.5 -21.5t43 -48.5t16 -51.5t2.5 -31.5v-81zM105 157q0 -12 1.5 -28t8.5 -31t21 -25t39 -10t39 10t21 25t8.5 31t1.5 28v91q0 12 -1.5 28.5t-8.5 31t-21 25t-39 10.5t-39 -10.5t-21 -25t-8.5 -31t-1.5 -28.5v-91z
M105 488q0 -12 1.5 -28.5t8.5 -31.5t21 -25t39 -10t39 10t21 25t8.5 31.5t1.5 28.5v55q0 12 -1.5 28t-8.5 31t-21 25t-39 10t-39 -10t-21 -25t-8.5 -31t-1.5 -28v-55z" />
    <glyph glyph-name="uniF641" unicode="&#xf641;" horiz-adv-x="325" 
d="M66 0l133 321q-19 -14 -38 -17.5t-30 -3.5q-14 0 -32.5 4.5t-35.5 18t-29 37.5t-12 62v143q0 42 12 70t32.5 44.5t46.5 23.5t55 7q40 0 67 -13t43.5 -33.5t24 -45t7.5 -47.5v-115q0 -44 -12 -76.5t-25 -64.5l-127 -315h-80zM97 433q0 -11 3 -24t10 -24t19.5 -18.5
t31.5 -7.5q10 0 22.5 4.5t24 14.5t19.5 26t8 40v117q0 7 -1 20t-7.5 25.5t-20 21.5t-37.5 9q-23 0 -37 -8t-22 -20.5t-10.5 -27.5t-2.5 -29v-119z" />
    <glyph glyph-name="uniF6BA" unicode="&#xf6ba;" horiz-adv-x="324" 
d="M269 383v-64h-214v64h214z" />
    <glyph glyph-name="uniF6BB" unicode="&#xf6bb;" horiz-adv-x="463" 
d="M398 385v-60h-333v60h333z" />
    <glyph glyph-name="uniF6BC" unicode="&#xf6bc;" horiz-adv-x="661" 
d="M616 385v-60h-571v60h571z" />
    <glyph glyph-name="uniF6C3" unicode="&#xf6c3;" horiz-adv-x="255" 
d="M163 -73v-86l-71 -61v147h71z" />
    <glyph glyph-name="uniF6C9" unicode="&#xf6c9;" horiz-adv-x="300" 
d="M165 764h-50l59 116h101z" />
    <glyph glyph-name="uniF6CA" unicode="&#xf6ca;" horiz-adv-x="392" 
d="M80 874h56l60 -65l60 65h56l-56 -106h-120z" />
    <glyph glyph-name="uniF6CB" unicode="&#xf6cb;" horiz-adv-x="376" 
d="M146 779h-76v81h76v-81zM230 860h76v-81h-76v81z" />
    <glyph glyph-name="uniF6CE" unicode="&#xf6ce;" horiz-adv-x="255" 
d="M35 880h101l59 -116h-50z" />
    <glyph glyph-name="uniF6CF" unicode="&#xf6cf;" horiz-adv-x="406" 
d="M138 764h-48l56 111h97zM271 764h-48l57 111h96z" />
    <glyph glyph-name="uniF6D0" unicode="&#xf6d0;" horiz-adv-x="378" 
d="M298 844v-58h-218v58h218z" />
    <glyph glyph-name="uniF6D1" unicode="&#xf6d1;" horiz-adv-x="484" 
d="M242 757q-118 0 -118 107v11h62v-11q0 -29 16.5 -41.5t39.5 -12.5t39.5 12.5t16.5 41.5v11h62v-11q0 -107 -118 -107z" />
    <glyph glyph-name="uniF6D4" unicode="&#xf6d4;" horiz-adv-x="430" 
d="M260 684h61v-10q0 -19 -5 -40.5t-22 -37.5q-17 -17 -39.5 -21t-39.5 -4t-39.5 4t-39.5 21q-17 16 -22 37.5t-5 40.5v10h61v-10q0 -8 1.5 -17t6 -17t13.5 -13.5t24 -5.5t24 5.5t13.5 13.5t6 17t1.5 17v10z" />
    <glyph glyph-name="uniF6DC" unicode="&#xf6dc;" horiz-adv-x="226" 
d="M118 622l-113 -71v71l115 78h73v-700h-75v622z" />
    <glyph glyph-name="uniFEFF" unicode="&#xfeff;" horiz-adv-x="0" 
 />
    <glyph glyph-name="dotlessi1" horiz-adv-x="199" 
d="M62 496h75v-496h-75v496z" />
    <glyph glyph-name="hyphenminus" horiz-adv-x="324" 
d="M269 336v-64h-214v64h214z" />
    </font>
</defs>
</svg>
