<svg width="442" height="441" viewBox="0 0 442 441" fill="none" xmlns="http://www.w3.org/2000/svg">
<ellipse cx="221" cy="220.5" rx="221" ry="220.5" fill="white" fill-opacity="0.4"/>
<circle cx="220" cy="221" r="176" fill="white" fill-opacity="0.4"/>
<g clip-path="url(#clip0_2007_204)">
<g opacity="0.2">
<path opacity="0.04" d="M335.117 383.578C362.034 383.578 383.854 375.526 383.854 365.595C383.854 355.663 362.034 347.611 335.117 347.611C308.201 347.611 286.38 355.663 286.38 365.595C286.38 375.526 308.201 383.578 335.117 383.578Z" fill="#1E1E1D"/>
<path opacity="0.08" d="M335.117 383.154C361.402 383.154 382.71 375.292 382.71 365.595C382.71 355.897 361.402 348.035 335.117 348.035C308.832 348.035 287.524 355.897 287.524 365.595C287.524 375.292 308.832 383.154 335.117 383.154Z" fill="#1E1E1D"/>
<path opacity="0.12" d="M335.117 382.731C360.769 382.731 381.564 375.059 381.564 365.594C381.564 356.13 360.769 348.457 335.117 348.457C309.465 348.457 288.67 356.13 288.67 365.594C288.67 375.059 309.465 382.731 335.117 382.731Z" fill="#1E1E1D"/>
<path opacity="0.15" d="M335.117 382.311C360.136 382.311 380.419 374.827 380.419 365.596C380.419 356.364 360.136 348.881 335.117 348.881C310.098 348.881 289.816 356.364 289.816 365.596C289.816 374.827 310.098 382.311 335.117 382.311Z" fill="#1E1E1D"/>
<path opacity="0.19" d="M335.117 381.888C359.505 381.888 379.275 374.593 379.275 365.595C379.275 356.597 359.505 349.303 335.117 349.303C310.73 349.303 290.96 356.597 290.96 365.595C290.96 374.593 310.73 381.888 335.117 381.888Z" fill="#1E1E1D"/>
<path opacity="0.23" d="M335.117 381.465C358.872 381.465 378.129 374.36 378.129 365.595C378.129 356.83 358.872 349.725 335.117 349.725C311.363 349.725 292.106 356.83 292.106 365.595C292.106 374.36 311.363 381.465 335.117 381.465Z" fill="#1E1E1D"/>
<path opacity="0.27" d="M335.117 381.041C358.239 381.041 376.983 374.126 376.983 365.595C376.983 357.064 358.239 350.148 335.117 350.148C311.995 350.148 293.251 357.064 293.251 365.595C293.251 374.126 311.995 381.041 335.117 381.041Z" fill="#1E1E1D"/>
<path opacity="0.31" d="M335.117 380.619C357.606 380.619 375.837 373.892 375.837 365.594C375.837 357.297 357.606 350.57 335.117 350.57C312.628 350.57 294.397 357.297 294.397 365.594C294.397 373.892 312.628 380.619 335.117 380.619Z" fill="#1E1E1D"/>
<path opacity="0.35" d="M335.117 380.198C356.974 380.198 374.693 373.66 374.693 365.596C374.693 357.532 356.974 350.994 335.117 350.994C313.26 350.994 295.542 357.532 295.542 365.596C295.542 373.66 313.26 380.198 335.117 380.198Z" fill="#1E1E1D"/>
<path opacity="0.38" d="M335.117 379.775C356.342 379.775 373.547 373.427 373.547 365.596C373.547 357.764 356.342 351.416 335.117 351.416C313.893 351.416 296.687 357.764 296.687 365.596C296.687 373.427 313.893 379.775 335.117 379.775Z" fill="#1E1E1D"/>
<path opacity="0.42" d="M335.117 379.352C355.709 379.352 372.402 373.193 372.402 365.595C372.402 357.997 355.709 351.838 335.117 351.838C314.526 351.838 297.833 357.997 297.833 365.595C297.833 373.193 314.526 379.352 335.117 379.352Z" fill="#1E1E1D"/>
<path opacity="0.46" d="M335.117 378.93C355.077 378.93 371.257 372.959 371.257 365.595C371.257 358.23 355.077 352.26 335.117 352.26C315.158 352.26 298.977 358.23 298.977 365.595C298.977 372.959 315.158 378.93 335.117 378.93Z" fill="#1E1E1D"/>
<path opacity="0.5" d="M335.117 378.506C354.444 378.506 370.112 372.725 370.112 365.595C370.112 358.464 354.444 352.684 335.117 352.684C315.79 352.684 300.123 358.464 300.123 365.595C300.123 372.725 315.79 378.506 335.117 378.506Z" fill="#1E1E1D"/>
<path opacity="0.54" d="M335.117 378.083C353.811 378.083 368.966 372.492 368.966 365.594C368.966 358.697 353.811 353.105 335.117 353.105C316.423 353.105 301.269 358.697 301.269 365.594C301.269 372.492 316.423 378.083 335.117 378.083Z" fill="#1E1E1D"/>
<path opacity="0.58" d="M335.117 377.662C353.179 377.662 367.822 372.26 367.822 365.596C367.822 358.932 353.179 353.529 335.117 353.529C317.055 353.529 302.413 358.932 302.413 365.596C302.413 372.26 317.055 377.662 335.117 377.662Z" fill="#1E1E1D"/>
<path opacity="0.62" d="M335.117 377.24C352.547 377.24 366.676 372.026 366.676 365.595C366.676 359.165 352.547 353.951 335.117 353.951C317.688 353.951 303.558 359.165 303.558 365.595C303.558 372.026 317.688 377.24 335.117 377.24Z" fill="#1E1E1D"/>
<path opacity="0.65" d="M335.117 376.817C351.914 376.817 365.53 371.793 365.53 365.595C365.53 359.397 351.914 354.373 335.117 354.373C318.321 354.373 304.704 359.397 304.704 365.595C304.704 371.793 318.321 376.817 335.117 376.817Z" fill="#1E1E1D"/>
<path opacity="0.69" d="M335.117 376.393C351.281 376.393 364.385 371.559 364.385 365.595C364.385 359.631 351.281 354.797 335.117 354.797C318.953 354.797 305.85 359.631 305.85 365.595C305.85 371.559 318.953 376.393 335.117 376.393Z" fill="#1E1E1D"/>
<path opacity="0.73" d="M335.117 375.97C350.649 375.97 363.241 371.325 363.241 365.595C363.241 359.864 350.649 355.219 335.117 355.219C319.585 355.219 306.994 359.864 306.994 365.595C306.994 371.325 319.585 375.97 335.117 375.97Z" fill="#1E1E1D"/>
<path opacity="0.77" d="M335.117 375.548C350.017 375.548 362.095 371.091 362.095 365.594C362.095 360.097 350.017 355.641 335.117 355.641C320.218 355.641 308.14 360.097 308.14 365.594C308.14 371.091 320.218 375.548 335.117 375.548Z" fill="#1E1E1D"/>
<path opacity="0.81" d="M335.117 375.127C349.384 375.127 360.949 370.86 360.949 365.596C360.949 360.332 349.384 356.064 335.117 356.064C320.851 356.064 309.286 360.332 309.286 365.596C309.286 370.86 320.851 375.127 335.117 375.127Z" fill="#1E1E1D"/>
<path opacity="0.85" d="M335.117 374.704C348.752 374.704 359.805 370.626 359.805 365.595C359.805 360.565 348.752 356.486 335.117 356.486C321.483 356.486 310.43 360.565 310.43 365.595C310.43 370.626 321.483 374.704 335.117 374.704Z" fill="#1E1E1D"/>
<path opacity="0.88" d="M335.117 374.282C348.119 374.282 358.659 370.393 358.659 365.595C358.659 360.797 348.119 356.908 335.117 356.908C322.115 356.908 311.575 360.797 311.575 365.595C311.575 370.393 322.115 374.282 335.117 374.282Z" fill="#1E1E1D"/>
<path opacity="0.92" d="M335.117 373.858C347.486 373.858 357.513 370.158 357.513 365.595C357.513 361.031 347.486 357.332 335.117 357.332C322.748 357.332 312.721 361.031 312.721 365.595C312.721 370.158 322.748 373.858 335.117 373.858Z" fill="#1E1E1D"/>
<path opacity="0.96" d="M335.117 373.435C346.854 373.435 356.369 369.925 356.369 365.595C356.369 361.264 346.854 357.754 335.117 357.754C323.38 357.754 313.865 361.264 313.865 365.595C313.865 369.925 323.38 373.435 335.117 373.435Z" fill="#1E1E1D"/>
<path d="M335.117 373.012C346.222 373.012 355.223 369.691 355.223 365.594C355.223 361.497 346.222 358.176 335.117 358.176C324.013 358.176 315.011 361.497 315.011 365.594C315.011 369.691 324.013 373.012 335.117 373.012Z" fill="#1E1E1D"/>
</g>
<g opacity="0.2">
<path opacity="0.04" d="M278.94 250.31C305.857 250.31 327.677 242.259 327.677 232.327C327.677 222.395 305.857 214.344 278.94 214.344C252.024 214.344 230.203 222.395 230.203 232.327C230.203 242.259 252.024 250.31 278.94 250.31Z" fill="#1E1E1D"/>
<path opacity="0.08" d="M278.94 249.886C305.225 249.886 326.533 242.025 326.533 232.327C326.533 222.629 305.225 214.768 278.94 214.768C252.655 214.768 231.347 222.629 231.347 232.327C231.347 242.025 252.655 249.886 278.94 249.886Z" fill="#1E1E1D"/>
<path opacity="0.12" d="M278.94 249.464C304.592 249.464 325.387 241.791 325.387 232.327C325.387 222.862 304.592 215.189 278.94 215.189C253.288 215.189 232.493 222.862 232.493 232.327C232.493 241.791 253.288 249.464 278.94 249.464Z" fill="#1E1E1D"/>
<path opacity="0.15" d="M278.94 249.043C303.959 249.043 324.242 241.559 324.242 232.328C324.242 223.097 303.959 215.613 278.94 215.613C253.921 215.613 233.639 223.097 233.639 232.328C233.639 241.559 253.921 249.043 278.94 249.043Z" fill="#1E1E1D"/>
<path opacity="0.19" d="M278.94 248.62C303.328 248.62 323.098 241.326 323.098 232.328C323.098 223.33 303.328 216.035 278.94 216.035C254.553 216.035 234.783 223.33 234.783 232.328C234.783 241.326 254.553 248.62 278.94 248.62Z" fill="#1E1E1D"/>
<path opacity="0.23" d="M278.94 248.198C302.695 248.198 321.952 241.092 321.952 232.327C321.952 223.562 302.695 216.457 278.94 216.457C255.186 216.457 235.929 223.562 235.929 232.327C235.929 241.092 255.186 248.198 278.94 248.198Z" fill="#1E1E1D"/>
<path opacity="0.27" d="M278.94 247.774C302.062 247.774 320.806 240.858 320.806 232.327C320.806 223.796 302.062 216.881 278.94 216.881C255.818 216.881 237.074 223.796 237.074 232.327C237.074 240.858 255.818 247.774 278.94 247.774Z" fill="#1E1E1D"/>
<path opacity="0.31" d="M278.94 247.351C301.429 247.351 319.66 240.624 319.66 232.327C319.66 224.029 301.429 217.303 278.94 217.303C256.451 217.303 238.22 224.029 238.22 232.327C238.22 240.624 256.451 247.351 278.94 247.351Z" fill="#1E1E1D"/>
<path opacity="0.35" d="M278.94 246.928C300.797 246.928 318.516 240.391 318.516 232.326C318.516 224.262 300.797 217.725 278.94 217.725C257.083 217.725 239.365 224.262 239.365 232.326C239.365 240.391 257.083 246.928 278.94 246.928Z" fill="#1E1E1D"/>
<path opacity="0.38" d="M278.94 246.508C300.165 246.508 317.37 240.159 317.37 232.328C317.37 224.497 300.165 218.148 278.94 218.148C257.716 218.148 240.51 224.497 240.51 232.328C240.51 240.159 257.716 246.508 278.94 246.508Z" fill="#1E1E1D"/>
<path opacity="0.42" d="M278.94 246.085C299.532 246.085 316.225 239.926 316.225 232.328C316.225 224.73 299.532 218.57 278.94 218.57C258.349 218.57 241.656 224.73 241.656 232.328C241.656 239.926 258.349 246.085 278.94 246.085Z" fill="#1E1E1D"/>
<path opacity="0.46" d="M278.94 245.662C298.9 245.662 315.08 239.692 315.08 232.327C315.08 224.962 298.9 218.992 278.94 218.992C258.981 218.992 242.8 224.962 242.8 232.327C242.8 239.692 258.981 245.662 278.94 245.662Z" fill="#1E1E1D"/>
<path opacity="0.5" d="M278.94 245.238C298.267 245.238 313.935 239.458 313.935 232.327C313.935 225.197 298.267 219.416 278.94 219.416C259.613 219.416 243.946 225.197 243.946 232.327C243.946 239.458 259.613 245.238 278.94 245.238Z" fill="#1E1E1D"/>
<path opacity="0.54" d="M278.94 244.816C297.634 244.816 312.789 239.224 312.789 232.327C312.789 225.429 297.634 219.838 278.94 219.838C260.246 219.838 245.092 225.429 245.092 232.327C245.092 239.224 260.246 244.816 278.94 244.816Z" fill="#1E1E1D"/>
<path opacity="0.58" d="M278.94 244.395C297.002 244.395 311.645 238.992 311.645 232.328C311.645 225.664 297.002 220.262 278.94 220.262C260.878 220.262 246.236 225.664 246.236 232.328C246.236 238.992 260.878 244.395 278.94 244.395Z" fill="#1E1E1D"/>
<path opacity="0.62" d="M278.94 243.972C296.37 243.972 310.499 238.759 310.499 232.328C310.499 225.897 296.37 220.684 278.94 220.684C261.511 220.684 247.381 225.897 247.381 232.328C247.381 238.759 261.511 243.972 278.94 243.972Z" fill="#1E1E1D"/>
<path opacity="0.65" d="M278.94 243.55C295.737 243.55 309.353 238.525 309.353 232.327C309.353 226.13 295.737 221.105 278.94 221.105C262.144 221.105 248.527 226.13 248.527 232.327C248.527 238.525 262.144 243.55 278.94 243.55Z" fill="#1E1E1D"/>
<path opacity="0.69" d="M278.94 243.126C295.104 243.126 308.208 238.291 308.208 232.327C308.208 226.364 295.104 221.529 278.94 221.529C262.776 221.529 249.673 226.364 249.673 232.327C249.673 238.291 262.776 243.126 278.94 243.126Z" fill="#1E1E1D"/>
<path opacity="0.73" d="M278.94 242.703C294.472 242.703 307.064 238.057 307.064 232.327C307.064 226.597 294.472 221.951 278.94 221.951C263.408 221.951 250.817 226.597 250.817 232.327C250.817 238.057 263.408 242.703 278.94 242.703Z" fill="#1E1E1D"/>
<path opacity="0.77" d="M278.94 242.28C293.84 242.28 305.918 237.824 305.918 232.327C305.918 226.829 293.84 222.373 278.94 222.373C264.041 222.373 251.963 226.829 251.963 232.327C251.963 237.824 264.041 242.28 278.94 242.28Z" fill="#1E1E1D"/>
<path opacity="0.81" d="M278.94 241.859C293.207 241.859 304.772 237.592 304.772 232.328C304.772 227.064 293.207 222.797 278.94 222.797C264.674 222.797 253.109 227.064 253.109 232.328C253.109 237.592 264.674 241.859 278.94 241.859Z" fill="#1E1E1D"/>
<path opacity="0.85" d="M278.94 241.437C292.575 241.437 303.628 237.359 303.628 232.328C303.628 227.297 292.575 223.219 278.94 223.219C265.306 223.219 254.253 227.297 254.253 232.328C254.253 237.359 265.306 241.437 278.94 241.437Z" fill="#1E1E1D"/>
<path opacity="0.88" d="M278.94 241.014C291.942 241.014 302.482 237.125 302.482 232.327C302.482 227.53 291.942 223.641 278.94 223.641C265.938 223.641 255.398 227.53 255.398 232.327C255.398 237.125 265.938 241.014 278.94 241.014Z" fill="#1E1E1D"/>
<path opacity="0.92" d="M278.94 240.59C291.309 240.59 301.336 236.891 301.336 232.327C301.336 227.764 291.309 224.064 278.94 224.064C266.571 224.064 256.544 227.764 256.544 232.327C256.544 236.891 266.571 240.59 278.94 240.59Z" fill="#1E1E1D"/>
<path opacity="0.96" d="M278.94 240.168C290.677 240.168 300.192 236.657 300.192 232.327C300.192 227.997 290.677 224.486 278.94 224.486C267.203 224.486 257.688 227.997 257.688 232.327C257.688 236.657 267.203 240.168 278.94 240.168Z" fill="#1E1E1D"/>
<path d="M278.94 239.745C290.045 239.745 299.046 236.424 299.046 232.327C299.046 228.229 290.045 224.908 278.94 224.908C267.836 224.908 258.834 228.229 258.834 232.327C258.834 236.424 267.836 239.745 278.94 239.745Z" fill="#1E1E1D"/>
</g>
<g opacity="0.2">
<path opacity="0.04" d="M202.627 377.419C246.401 377.419 281.887 364.326 281.887 348.174C281.887 332.023 246.401 318.93 202.627 318.93C158.853 318.93 123.367 332.023 123.367 348.174C123.367 364.326 158.853 377.419 202.627 377.419Z" fill="#1E1E1D"/>
<path opacity="0.08" d="M202.627 376.733C245.373 376.733 280.025 363.947 280.025 348.175C280.025 332.403 245.373 319.617 202.627 319.617C159.882 319.617 125.229 332.403 125.229 348.175C125.229 363.947 159.882 376.733 202.627 376.733Z" fill="#1E1E1D"/>
<path opacity="0.12" d="M202.627 376.044C244.344 376.044 278.162 363.566 278.162 348.173C278.162 332.781 244.344 320.303 202.627 320.303C160.91 320.303 127.092 332.781 127.092 348.173C127.092 363.566 160.91 376.044 202.627 376.044Z" fill="#1E1E1D"/>
<path opacity="0.15" d="M202.627 375.356C243.315 375.356 276.299 363.187 276.299 348.174C276.299 333.162 243.315 320.992 202.627 320.992C161.939 320.992 128.955 333.162 128.955 348.174C128.955 363.187 161.939 375.356 202.627 375.356Z" fill="#1E1E1D"/>
<path opacity="0.19" d="M202.627 374.67C242.286 374.67 274.436 362.808 274.436 348.175C274.436 333.542 242.286 321.68 202.627 321.68C162.968 321.68 130.818 333.542 130.818 348.175C130.818 362.808 162.968 374.67 202.627 374.67Z" fill="#1E1E1D"/>
<path opacity="0.23" d="M202.627 373.981C241.258 373.981 272.575 362.427 272.575 348.173C272.575 333.92 241.258 322.365 202.627 322.365C163.996 322.365 132.679 333.92 132.679 348.173C132.679 362.427 163.996 373.981 202.627 373.981Z" fill="#1E1E1D"/>
<path opacity="0.27" d="M202.627 373.295C240.229 373.295 270.712 362.048 270.712 348.174C270.712 334.3 240.229 323.053 202.627 323.053C165.025 323.053 134.542 334.3 134.542 348.174C134.542 362.048 165.025 373.295 202.627 373.295Z" fill="#1E1E1D"/>
<path opacity="0.31" d="M202.627 372.608C239.2 372.608 268.849 361.669 268.849 348.174C268.849 334.68 239.2 323.74 202.627 323.74C166.053 323.74 136.405 334.68 136.405 348.174C136.405 361.669 166.053 372.608 202.627 372.608Z" fill="#1E1E1D"/>
<path opacity="0.35" d="M202.627 371.922C238.172 371.922 266.986 361.29 266.986 348.175C266.986 335.06 238.172 324.428 202.627 324.428C167.082 324.428 138.267 335.06 138.267 348.175C138.267 361.29 167.082 371.922 202.627 371.922Z" fill="#1E1E1D"/>
<path opacity="0.38" d="M202.627 371.234C237.143 371.234 265.124 360.909 265.124 348.173C265.124 335.438 237.143 325.113 202.627 325.113C168.111 325.113 140.13 335.438 140.13 348.173C140.13 360.909 168.111 371.234 202.627 371.234Z" fill="#1E1E1D"/>
<path opacity="0.42" d="M202.627 370.546C236.115 370.546 263.263 360.53 263.263 348.174C263.263 335.819 236.115 325.803 202.627 325.803C169.139 325.803 141.991 335.819 141.991 348.174C141.991 360.53 169.139 370.546 202.627 370.546Z" fill="#1E1E1D"/>
<path opacity="0.46" d="M202.627 369.859C235.086 369.859 261.4 360.151 261.4 348.175C261.4 336.199 235.086 326.49 202.627 326.49C170.168 326.49 143.854 336.199 143.854 348.175C143.854 360.151 170.168 369.859 202.627 369.859Z" fill="#1E1E1D"/>
<path opacity="0.5" d="M202.627 369.171C234.057 369.171 259.537 359.77 259.537 348.173C259.537 336.577 234.057 327.176 202.627 327.176C171.196 327.176 145.717 336.577 145.717 348.173C145.717 359.77 171.196 369.171 202.627 369.171Z" fill="#1E1E1D"/>
<path opacity="0.54" d="M202.627 368.484C233.029 368.484 257.674 359.391 257.674 348.174C257.674 336.957 233.029 327.863 202.627 327.863C172.225 327.863 147.58 336.957 147.58 348.174C147.58 359.391 172.225 368.484 202.627 368.484Z" fill="#1E1E1D"/>
<path opacity="0.58" d="M202.627 367.798C232 367.798 255.811 359.012 255.811 348.174C255.811 337.337 232 328.551 202.627 328.551C173.254 328.551 149.443 337.337 149.443 348.174C149.443 359.012 173.254 367.798 202.627 367.798Z" fill="#1E1E1D"/>
<path opacity="0.62" d="M202.627 367.111C230.972 367.111 253.95 358.633 253.95 348.175C253.95 337.716 230.972 329.238 202.627 329.238C174.282 329.238 151.304 337.716 151.304 348.175C151.304 358.633 174.282 367.111 202.627 367.111Z" fill="#1E1E1D"/>
<path opacity="0.65" d="M202.627 366.423C229.943 366.423 252.087 358.252 252.087 348.173C252.087 338.094 229.943 329.924 202.627 329.924C175.311 329.924 153.167 338.094 153.167 348.173C153.167 358.252 175.311 366.423 202.627 366.423Z" fill="#1E1E1D"/>
<path opacity="0.69" d="M202.627 365.736C228.914 365.736 250.225 357.873 250.225 348.174C250.225 338.474 228.914 330.611 202.627 330.611C176.34 330.611 155.03 338.474 155.03 348.174C155.03 357.873 176.34 365.736 202.627 365.736Z" fill="#1E1E1D"/>
<path opacity="0.73" d="M202.627 365.049C227.886 365.049 248.362 357.494 248.362 348.175C248.362 338.856 227.886 331.301 202.627 331.301C177.368 331.301 156.892 338.856 156.892 348.175C156.892 357.494 177.368 365.049 202.627 365.049Z" fill="#1E1E1D"/>
<path opacity="0.77" d="M202.627 364.36C226.857 364.36 246.499 357.113 246.499 348.173C246.499 339.234 226.857 331.986 202.627 331.986C178.397 331.986 158.755 339.234 158.755 348.173C158.755 357.113 178.397 364.36 202.627 364.36Z" fill="#1E1E1D"/>
<path opacity="0.81" d="M202.627 363.674C225.829 363.674 244.638 356.734 244.638 348.174C244.638 339.613 225.829 332.674 202.627 332.674C179.425 332.674 160.616 339.613 160.616 348.174C160.616 356.734 179.425 363.674 202.627 363.674Z" fill="#1E1E1D"/>
<path opacity="0.85" d="M202.627 362.987C224.8 362.987 242.775 356.355 242.775 348.174C242.775 339.993 224.8 333.361 202.627 333.361C180.454 333.361 162.479 339.993 162.479 348.174C162.479 356.355 180.454 362.987 202.627 362.987Z" fill="#1E1E1D"/>
<path opacity="0.88" d="M202.627 362.301C223.771 362.301 240.912 355.976 240.912 348.175C240.912 340.373 223.771 334.049 202.627 334.049C181.483 334.049 164.342 340.373 164.342 348.175C164.342 355.976 181.483 362.301 202.627 362.301Z" fill="#1E1E1D"/>
<path opacity="0.92" d="M202.627 361.612C222.742 361.612 239.049 355.596 239.049 348.173C239.049 340.751 222.742 334.734 202.627 334.734C182.511 334.734 166.205 340.751 166.205 348.173C166.205 355.596 182.511 361.612 202.627 361.612Z" fill="#1E1E1D"/>
<path opacity="0.96" d="M202.627 360.926C221.714 360.926 237.186 355.217 237.186 348.174C237.186 341.131 221.714 335.422 202.627 335.422C183.54 335.422 168.067 341.131 168.067 348.174C168.067 355.217 183.54 360.926 202.627 360.926Z" fill="#1E1E1D"/>
<path d="M202.627 360.239C220.686 360.239 235.325 354.838 235.325 348.174C235.325 341.511 220.686 336.109 202.627 336.109C184.568 336.109 169.929 341.511 169.929 348.174C169.929 354.838 184.568 360.239 202.627 360.239Z" fill="#1E1E1D"/>
</g>
<path d="M353.734 128.933L230.088 57.7166C226.541 55.6761 222.114 58.2365 222.114 62.3286V174.188C222.114 179.329 224.861 184.078 229.318 186.642L351.873 257.231C355.725 259.447 360.531 256.667 360.531 252.224V140.684C360.531 135.833 357.939 131.351 353.734 128.933Z" fill="url(#paint0_linear_2007_204)"/>
<path d="M349.071 131.263L225.423 60.0466C221.876 58.0061 217.449 60.5666 217.449 64.6587V176.518C217.449 181.659 220.196 186.409 224.653 188.972L347.208 259.561C351.06 261.777 355.867 258.997 355.867 254.554V143.014C355.867 138.163 353.274 133.681 349.069 131.263H349.071Z" fill="url(#paint1_linear_2007_204)"/>
<path d="M351.478 143.021V254.554C351.478 254.953 351.344 255.285 351.068 255.54C350.801 255.807 350.436 255.95 350.081 255.95C349.848 255.95 349.627 255.884 349.405 255.761L226.847 185.166C223.753 183.391 221.846 180.078 221.846 176.52V64.6558C221.846 63.9578 222.489 63.7246 222.777 63.7246C222.932 63.7246 223.088 63.7687 223.231 63.857L346.877 135.073C349.716 136.702 351.479 139.74 351.479 143.021H351.478Z" fill="white"/>
<path d="M351.478 143.02V148.962L221.844 73.7771V64.6539C221.844 63.9559 222.487 63.7227 222.776 63.7227C222.93 63.7227 223.086 63.7668 223.23 63.855L346.876 135.071C349.714 136.7 351.478 139.738 351.478 143.019V143.02Z" fill="url(#paint2_linear_2007_204)"/>
<path d="M206.146 76.9711L247.328 101.377C248.748 102.204 249.621 103.721 249.621 105.365V182.66C249.621 184.628 247.485 185.856 245.785 184.864L205.181 160.796C203.946 160.077 203.186 158.755 203.186 157.326V78.6713C203.186 77.1523 204.833 76.2053 206.146 76.9695V76.9711Z" fill="#878AA0"/>
<path d="M204.595 77.7508L245.777 102.157C247.197 102.984 248.07 104.501 248.07 106.145V183.44C248.07 185.408 245.935 186.635 244.234 185.644L203.631 161.576C202.395 160.857 201.635 159.535 201.635 158.106V79.4525C201.635 77.9336 203.282 76.9866 204.595 77.7508Z" fill="#F4F4F4"/>
<path d="M235.082 105.851L216.68 94.7174C216.298 94.4874 215.986 93.9863 215.986 93.605C215.986 93.2237 216.298 93.1008 216.68 93.3308L235.082 104.465C235.464 104.695 235.776 105.196 235.776 105.577C235.776 105.958 235.464 106.081 235.082 105.851Z" fill="url(#paint3_linear_2007_204)"/>
<g opacity="0.75">
<path d="M218.917 101.484V102.817L244.043 117.331V115.998L218.917 101.484Z" fill="#AAADAD"/>
<path d="M218.917 105.33V106.663L244.043 121.128V119.795L218.917 105.33Z" fill="#AAADAD"/>
<path d="M218.917 109.176V110.509L244.043 124.974V123.641L218.917 109.176Z" fill="#AAADAD"/>
</g>
<path d="M214.896 99.6376V107.593L207.596 103.363V95.377L214.896 99.6376Z" fill="#AAADAD"/>
<path d="M208.499 98.9901L209.536 103.509L214.376 101.666V100.378L210.294 101.902L209.362 98.582L208.499 98.9901Z" fill="white"/>
<g opacity="0.75">
<path d="M218.917 118.328V119.661L244.043 134.175V132.842L218.917 118.328Z" fill="#AAADAD"/>
<path d="M218.917 122.174V123.507L244.043 137.97V136.639L218.917 122.174Z" fill="#AAADAD"/>
<path d="M218.917 126.02V127.353L244.043 141.817V140.484L218.917 126.02Z" fill="#AAADAD"/>
</g>
<path d="M214.896 116.481V124.437L207.596 120.206V112.221L214.896 116.481Z" fill="#AAADAD"/>
<path d="M208.499 115.834L209.536 120.353L214.376 118.509V117.222L210.294 118.746L209.362 115.426L208.499 115.834Z" fill="white"/>
<g opacity="0.75">
<path d="M218.917 135.172V136.505L244.043 151.019V149.685L218.917 135.172Z" fill="#AAADAD"/>
<path d="M218.917 139.018V140.351L244.043 154.814V153.482L218.917 139.018Z" fill="#AAADAD"/>
<path d="M218.917 142.863V144.196L244.043 158.661V157.328L218.917 142.863Z" fill="#AAADAD"/>
</g>
<path d="M214.896 133.325V141.281L207.596 137.05V129.064L214.896 133.325Z" fill="#AAADAD"/>
<path d="M208.499 132.678L209.536 137.197L214.376 135.353V134.066L210.294 135.589L209.362 132.27L208.499 132.678Z" fill="white"/>
<g opacity="0.75">
<path d="M218.917 152.016V153.349L244.043 167.862V166.529L218.917 152.016Z" fill="#AAADAD"/>
<path d="M218.917 155.861V157.194L244.043 171.658V170.326L218.917 155.861Z" fill="#AAADAD"/>
<path d="M218.917 159.707V161.04L244.043 175.505V174.172L218.917 159.707Z" fill="#AAADAD"/>
</g>
<path d="M214.896 150.169V158.124L207.596 153.894V145.908L214.896 150.169Z" fill="#AAADAD"/>
<path d="M208.499 149.521L209.536 154.04L214.376 152.197V150.91L210.294 152.433L209.362 149.113L208.499 149.521Z" fill="white"/>
<path d="M232.087 89.9476L230.172 88.8257C230.214 88.6224 230.239 88.4003 230.239 88.1592C230.239 86.0399 228.522 83.3171 226.402 82.0739C224.282 80.8323 222.565 81.5429 222.565 83.6622C222.565 83.9033 222.59 84.1538 222.632 84.4075L220.717 83.2856C218.855 82.1952 217.332 82.8255 217.332 84.6864C217.332 86.5473 218.856 88.9644 220.717 90.0547L232.085 96.7152C233.948 97.8055 235.47 97.1753 235.47 95.3144C235.47 93.4535 233.946 91.0364 232.085 89.946L232.087 89.9476ZM226.404 87.8283C225.345 87.2075 224.487 85.8477 224.487 84.7888C224.487 83.7299 225.345 83.3754 226.404 83.9962C227.463 84.6171 228.32 85.9769 228.32 87.0357C228.32 88.0946 227.461 88.4491 226.404 87.8283Z" fill="url(#paint4_linear_2007_204)"/>
<path d="M231.563 90.346L229.648 89.2241C229.691 89.0209 229.716 88.7987 229.716 88.5576C229.716 86.4383 227.998 83.7156 225.879 82.4723C223.759 81.2307 222.041 81.9413 222.041 84.0606C222.041 84.3017 222.066 84.5522 222.109 84.8059L220.194 83.684C218.331 82.5937 216.809 83.2239 216.809 85.0848C216.809 86.9457 218.333 89.3628 220.194 90.4532L231.562 97.1136C233.424 98.204 234.947 97.5737 234.947 95.7128C234.947 93.8519 233.423 91.4348 231.562 90.3445L231.563 90.346ZM225.88 88.2267C224.821 87.6059 223.964 86.2461 223.964 85.1872C223.964 84.1284 224.821 83.7739 225.88 84.3947C226.939 85.0155 227.797 86.3753 227.797 87.4342C227.797 88.493 226.938 88.8476 225.88 88.2267Z" fill="url(#paint5_linear_2007_204)"/>
<path d="M334.785 154.685L379.353 181.099C380.89 181.994 381.834 183.637 381.834 185.414V254.971C381.834 257.102 379.523 258.428 377.683 257.357L333.74 231.308C332.403 230.529 331.581 229.1 331.581 227.553V156.526C331.581 154.882 333.363 153.858 334.785 154.685Z" fill="#878AA0"/>
<path d="M333.106 155.531L377.675 181.944C379.211 182.839 380.155 184.483 380.155 186.26V255.817C380.155 257.947 377.845 259.274 376.004 258.203L332.061 232.153C330.725 231.375 329.902 229.946 329.902 228.399V157.371C329.902 155.728 331.685 154.704 333.106 155.531Z" fill="#EFEFEF"/>
<g opacity="0.75">
<path d="M337.568 208.045V209.94L366.715 226.955V225.059L337.568 208.045Z" fill="#AAADAD"/>
<path d="M337.568 213.516V215.413L370.98 234.814V232.917L337.568 213.516Z" fill="#AAADAD"/>
<path d="M337.568 218.988V220.885L370.98 240.285V238.39L337.568 218.988Z" fill="#AAADAD"/>
<path d="M337.568 224.461V226.356L370.98 245.758V243.862L337.568 224.461Z" fill="#AAADAD"/>
</g>
<path d="M343.473 188.141L346.483 188.806C346.664 188.216 346.905 187.692 347.202 187.239L345.744 183.185L346.307 182.668C346.597 182.401 346.937 182.205 347.315 182.093L348.048 181.871L350.83 185.169C351.372 185.144 351.949 185.201 352.552 185.342L353.496 182.421L354.409 182.809C354.645 182.909 354.883 183.028 355.121 183.165C355.359 183.302 355.595 183.458 355.832 183.63L356.744 184.296L357.668 188.295C358.27 188.85 358.845 189.458 359.386 190.11L362.177 190.033L362.906 191.1C363.283 191.651 363.62 192.236 363.909 192.839L364.466 194.004L362.99 196.363C363.283 197.155 363.519 197.957 363.696 198.753L366.701 201.566L366.819 202.686C366.881 203.266 366.879 203.817 366.815 204.323L366.69 205.303L363.679 204.638C363.497 205.229 363.256 205.752 362.961 206.206L364.419 210.259L363.857 210.777C363.567 211.045 363.226 211.239 362.848 211.352L362.114 211.573L359.332 208.275C358.788 208.3 358.213 208.242 357.609 208.1L356.667 211.021L355.753 210.634C355.517 210.534 355.28 210.415 355.042 210.278C354.804 210.14 354.566 209.984 354.33 209.811L353.417 209.143L352.494 205.142C351.892 204.589 351.317 203.981 350.776 203.329L347.983 203.406L347.254 202.339C346.875 201.788 346.538 201.203 346.251 200.6L345.693 199.434L347.169 197.076C346.875 196.282 346.638 195.482 346.461 194.685L343.456 191.874L343.337 190.753C343.276 190.173 343.278 189.623 343.342 189.116L343.467 188.136L343.473 188.141ZM355.069 201.707C357.46 203.089 359.404 201.978 359.412 199.227C359.42 196.475 357.488 193.125 355.097 191.741C352.705 190.358 350.76 191.469 350.752 194.22C350.745 196.971 352.677 200.322 355.069 201.706" fill="#AAADAD"/>
<path d="M311.61 217.843L255.895 185.827C254.962 185.291 254.199 184.089 254.199 183.158C254.199 182.225 254.962 181.9 255.895 182.436L311.61 214.452C312.543 214.988 313.306 216.19 313.306 217.122C313.306 218.054 312.543 218.379 311.61 217.843Z" fill="#AAADAD"/>
<path d="M311.61 225.796L255.895 193.78C254.962 193.244 254.199 192.042 254.199 191.111C254.199 190.178 254.962 189.854 255.895 190.389L311.61 222.406C312.543 222.941 313.306 224.144 313.306 225.075C313.306 226.008 312.543 226.332 311.61 225.796Z" fill="#AAADAD"/>
<path d="M337.867 292.608C337.867 292.608 335.398 292.411 331.084 292.069L187.011 209.505C183.934 207.717 180.13 207.731 177.068 209.543L60.5593 278.24C58.0078 277.972 56 277.762 56 277.762V283.802L56.0268 283.805C56.1544 285.091 56.851 286.326 58.1228 287.067L206.821 372.321C209.21 373.71 212.163 373.698 214.54 372.291L336.348 300.457C337.347 299.864 337.847 298.851 337.859 297.833L337.866 297.83V292.61L337.867 292.608Z" fill="url(#paint6_linear_2007_204)"/>
<path d="M337.867 292.29C337.867 292.29 335.398 292.093 331.084 291.751L187.011 209.187C183.934 207.398 180.13 207.413 177.068 209.225L60.5593 277.923C58.0078 277.653 56 277.444 56 277.444V283.483L56.0268 283.487C56.1544 284.772 56.851 286.008 58.1228 286.748L206.821 372.002C209.21 373.392 212.163 373.379 214.54 371.972L336.348 300.138C337.347 299.546 337.847 298.533 337.859 297.515L337.866 297.512V292.291L337.867 292.29Z" fill="url(#paint7_linear_2007_204)"/>
<path d="M336.328 289.45L187.009 203.835C183.933 202.047 180.128 202.061 177.066 203.873L58.0962 274.029C55.2894 275.69 55.3051 279.756 58.1245 281.395L206.822 366.649C209.211 368.039 212.165 368.026 214.541 366.619L336.35 294.785C338.383 293.581 338.372 290.636 336.329 289.448L336.328 289.45Z" fill="url(#paint8_linear_2007_204)"/>
<path d="M336.35 294.371L214.541 366.205C212.163 367.612 209.21 367.624 206.822 366.235L58.1245 280.981C56.7786 280.198 56.0789 278.863 56.0127 277.5C55.9418 279.002 56.6415 280.535 58.1245 281.397L206.822 366.651C209.211 368.04 212.165 368.028 214.541 366.621L336.35 294.787C337.433 294.146 337.916 293.013 337.842 291.911C337.779 292.872 337.295 293.811 336.35 294.371Z" fill="url(#paint9_linear_2007_204)"/>
<path d="M306.082 202.553C306.082 202.553 289.16 211.358 288.795 211.358C288.429 211.358 275.528 201.954 275.528 201.954C275.528 201.954 273.456 201.283 272.304 203.443C271.152 205.603 271.522 205.758 271.522 205.758C271.522 205.758 287.389 219.419 289.707 218.809C292.025 218.199 307.472 211.118 307.472 211.118L306.082 202.553Z" fill="url(#paint10_linear_2007_204)"/>
<path d="M313.864 291.424C313.864 291.424 310.107 296.012 308.966 296.915C307.825 297.82 306.201 298.22 307.549 299.014C308.896 299.808 309.334 300.772 311.527 299.887C313.719 299.001 318.9 295.948 319.808 294.2C320.714 292.453 319.345 291.18 319.345 291.18L313.862 291.424H313.864Z" fill="#404363"/>
<path d="M302.569 285.121C302.569 285.121 296.282 290.786 296.243 291.378C296.203 291.97 297.978 294.452 301.202 292.667C304.427 290.882 308.838 288.19 309.193 287.322C309.547 286.452 308.622 284.852 308.622 284.852L302.567 285.121H302.569Z" fill="#404363"/>
<path d="M301.904 236.75C301.904 236.75 298.796 260.117 300.109 263.54C301.421 266.962 301.896 274.807 302.246 278.274C302.595 281.74 302.567 285.481 302.567 285.481C302.567 285.481 302.071 287.309 305.032 287.177C307.992 287.044 309.065 285.062 309.065 285.062C309.065 285.062 310.751 276.605 310.404 271.721C310.058 266.836 308.318 262.514 308.318 262.514L313.433 241.283L301.905 236.75H301.904Z" fill="#1D2035"/>
<path d="M309.766 245.556L310.852 269.894C310.852 269.894 312.776 275.74 313.399 281C314.02 286.259 313.864 291.425 313.864 291.425C313.864 291.425 314.201 293.215 316.39 293.117C318.577 293.019 319.936 291.669 319.936 291.669C319.936 291.669 321.261 280.907 321.389 275.099C321.517 269.291 320.383 267.02 320.383 267.02C320.383 267.02 319.573 257.514 321.947 252.896C324.32 248.278 323.595 243.762 323.595 243.762C323.595 243.762 320.424 247.131 309.766 245.558V245.556Z" fill="#2D2F4F"/>
<path d="M324.721 209.68C324.721 209.68 309.169 202.143 306.498 202.43C303.826 202.717 301.529 211.808 301.623 213.43C301.719 215.051 302.299 218.675 302.395 221.57C302.492 224.464 301.823 241.879 301.823 241.879C301.823 241.879 303.064 245.596 311.077 246.858C319.091 248.12 324.721 242.503 324.721 242.503C324.721 242.503 322.576 228.285 323.457 222.701C324.339 217.118 326.914 209.678 324.721 209.678V209.68Z" fill="url(#paint11_linear_2007_204)"/>
<path d="M308.132 245.919L301.623 225.022L314.302 218.055L320.811 238.951L308.132 245.919Z" fill="url(#paint12_linear_2007_204)"/>
<path d="M324.721 209.681C321.192 209.799 321.096 213.879 321.859 219.888C322.621 225.898 323.115 231.8 323.115 231.8L309.082 239.242C309.082 239.242 308.792 240.163 309.207 241.549C309.987 244.157 310.843 243.475 310.843 243.475C310.843 243.475 329.586 239.063 330.826 235.246C332.066 231.43 330.445 209.49 324.719 209.681H324.721Z" fill="url(#paint13_linear_2007_204)"/>
<path d="M309.082 239.241C309.082 239.241 307.771 238.41 306.775 238.41C305.779 238.41 303.785 239.241 303.785 239.241C303.785 239.241 303.661 239.822 305.073 239.822C306.485 239.822 306.816 240.03 306.816 240.03C306.816 240.03 305.07 241.279 303.453 241.399C301.836 241.519 301.626 241.399 301.543 241.856C301.459 242.313 303.743 243.764 305.569 243.93C307.396 244.097 309.905 243.117 309.905 243.117C309.905 243.117 308.649 240.361 309.081 239.241H309.082Z" fill="url(#paint14_linear_2007_204)"/>
<path d="M305.621 190.644C305.621 190.644 304.736 195.302 304.849 196.944C304.963 198.585 306.214 203.391 307.153 204.05C308.093 204.709 309.462 204.53 309.462 204.53L309.2 204.921C309.2 204.921 308.936 206.974 312.549 207.586C316.163 208.197 318.458 207.056 318.458 207.056C318.458 207.056 317.61 203.85 318.065 200.988C318.519 198.128 318.757 190.948 315.794 189.506C312.833 188.065 305.623 190.644 305.623 190.644H305.621Z" fill="url(#paint15_linear_2007_204)"/>
<path d="M309.36 204.47C309.36 204.47 311.642 204.63 312.757 203.52C313.872 202.411 314.209 202.113 314.209 202.113C314.209 202.113 313.665 203.531 312.436 204.998C311.208 206.464 311.827 207.433 311.827 207.433C311.827 207.433 309.194 207.062 309.222 205.361C309.24 204.313 309.36 204.472 309.36 204.472V204.47Z" fill="#B7766E"/>
<path d="M313.816 192.212C313.816 192.212 312.173 193.717 313.38 195.034C314.587 196.35 314.451 198.769 314.451 198.769L315.416 198.334C315.416 198.334 315.291 195.658 316.341 195.833C317.391 196.007 317.966 196.557 317.551 198.05C317.137 199.544 318.01 200.598 319.192 200.236C320.374 199.872 322.806 195.449 323.179 193.422C323.553 191.396 321.477 189.34 321.477 189.34C321.477 189.34 320.968 185.67 318.694 184.9C316.42 184.129 308.408 186.778 305.328 186.182C302.249 185.587 302.346 189.17 304.75 190.57C307.153 191.971 309.525 193.815 313.818 192.216L313.816 192.212Z" fill="#3B3E5E"/>
<path d="M274.499 201.854C274.499 201.854 274.219 199.423 273.211 197.936C272.204 196.448 271.253 195.607 271.253 195.607C271.253 195.607 270.022 195.191 270.636 196.826L271.253 198.462C271.253 198.462 267.894 196.636 267.111 194.975C266.328 193.314 264.339 196.403 266.607 200.016C268.874 203.629 271.465 204.94 271.465 204.94C271.465 204.94 272.26 202.726 274.497 201.853L274.499 201.854Z" fill="url(#paint16_linear_2007_204)"/>
<path d="M182.503 220.559C182.503 220.559 186.699 223.261 186.306 223.932C185.915 224.603 182.831 226.505 182.831 226.505L179.593 223.532C179.593 223.532 179.875 220.877 182.503 220.559Z" fill="url(#paint17_linear_2007_204)"/>
<g opacity="0.2">
<path opacity="0.04" d="M231.48 323.689C258.397 323.689 280.217 315.638 280.217 305.706C280.217 295.774 258.397 287.723 231.48 287.723C204.563 287.723 182.743 295.774 182.743 305.706C182.743 315.638 204.563 323.689 231.48 323.689Z" fill="#1E1E1D"/>
<path opacity="0.08" d="M231.48 323.265C257.765 323.265 279.073 315.404 279.073 305.706C279.073 296.008 257.765 288.146 231.48 288.146C205.195 288.146 183.887 296.008 183.887 305.706C183.887 315.404 205.195 323.265 231.48 323.265Z" fill="#1E1E1D"/>
<path opacity="0.12" d="M231.48 322.843C257.132 322.843 277.927 315.17 277.927 305.705C277.927 296.241 257.132 288.568 231.48 288.568C205.828 288.568 185.033 296.241 185.033 305.705C185.033 315.17 205.828 322.843 231.48 322.843Z" fill="#1E1E1D"/>
<path opacity="0.15" d="M231.48 322.422C256.499 322.422 276.781 314.938 276.781 305.707C276.781 296.476 256.499 288.992 231.48 288.992C206.461 288.992 186.178 296.476 186.178 305.707C186.178 314.938 206.461 322.422 231.48 322.422Z" fill="#1E1E1D"/>
<path opacity="0.19" d="M231.48 321.999C255.867 321.999 275.637 314.705 275.637 305.707C275.637 296.708 255.867 289.414 231.48 289.414C207.093 289.414 187.323 296.708 187.323 305.707C187.323 314.705 207.093 321.999 231.48 321.999Z" fill="#1E1E1D"/>
<path opacity="0.23" d="M231.48 321.576C255.235 321.576 274.491 314.471 274.491 305.706C274.491 296.941 255.235 289.836 231.48 289.836C207.725 289.836 188.469 296.941 188.469 305.706C188.469 314.471 207.725 321.576 231.48 321.576Z" fill="#1E1E1D"/>
<path opacity="0.27" d="M231.48 321.153C254.602 321.153 273.346 314.237 273.346 305.706C273.346 297.175 254.602 290.26 231.48 290.26C208.358 290.26 189.614 297.175 189.614 305.706C189.614 314.237 208.358 321.153 231.48 321.153Z" fill="#1E1E1D"/>
<path opacity="0.31" d="M231.48 320.73C253.969 320.73 272.2 314.003 272.2 305.706C272.2 297.408 253.969 290.682 231.48 290.682C208.991 290.682 190.76 297.408 190.76 305.706C190.76 314.003 208.991 320.73 231.48 320.73Z" fill="#1E1E1D"/>
<path opacity="0.35" d="M231.48 320.307C253.337 320.307 271.056 313.77 271.056 305.705C271.056 297.641 253.337 291.104 231.48 291.104C209.623 291.104 191.904 297.641 191.904 305.705C191.904 313.77 209.623 320.307 231.48 320.307Z" fill="#1E1E1D"/>
<path opacity="0.38" d="M231.48 319.886C252.704 319.886 269.91 313.538 269.91 305.707C269.91 297.876 252.704 291.527 231.48 291.527C210.256 291.527 193.05 297.876 193.05 305.707C193.05 313.538 210.256 319.886 231.48 319.886Z" fill="#1E1E1D"/>
<path opacity="0.42" d="M231.48 319.464C252.071 319.464 268.764 313.304 268.764 305.707C268.764 298.109 252.071 291.949 231.48 291.949C210.888 291.949 194.196 298.109 194.196 305.707C194.196 313.304 210.888 319.464 231.48 319.464Z" fill="#1E1E1D"/>
<path opacity="0.46" d="M231.48 319.041C251.439 319.041 267.62 313.071 267.62 305.706C267.62 298.341 251.439 292.371 231.48 292.371C211.52 292.371 195.34 298.341 195.34 305.706C195.34 313.071 211.52 319.041 231.48 319.041Z" fill="#1E1E1D"/>
<path opacity="0.5" d="M231.48 318.617C250.807 318.617 266.474 312.837 266.474 305.706C266.474 298.575 250.807 292.795 231.48 292.795C212.153 292.795 196.485 298.575 196.485 305.706C196.485 312.837 212.153 318.617 231.48 318.617Z" fill="#1E1E1D"/>
<path opacity="0.54" d="M231.48 318.195C250.174 318.195 265.329 312.603 265.329 305.706C265.329 298.808 250.174 293.217 231.48 293.217C212.786 293.217 197.631 298.808 197.631 305.706C197.631 312.603 212.786 318.195 231.48 318.195Z" fill="#1E1E1D"/>
<path opacity="0.58" d="M231.48 317.774C249.542 317.774 264.185 312.371 264.185 305.707C264.185 299.043 249.542 293.641 231.48 293.641C213.418 293.641 198.775 299.043 198.775 305.707C198.775 312.371 213.418 317.774 231.48 317.774Z" fill="#1E1E1D"/>
<path opacity="0.62" d="M231.48 317.351C248.909 317.351 263.039 312.138 263.039 305.707C263.039 299.276 248.909 294.062 231.48 294.062C214.05 294.062 199.921 299.276 199.921 305.707C199.921 312.138 214.05 317.351 231.48 317.351Z" fill="#1E1E1D"/>
<path opacity="0.65" d="M231.48 316.928C248.276 316.928 261.893 311.904 261.893 305.706C261.893 299.509 248.276 294.484 231.48 294.484C214.683 294.484 201.067 299.509 201.067 305.706C201.067 311.904 214.683 316.928 231.48 316.928Z" fill="#1E1E1D"/>
<path opacity="0.69" d="M231.48 316.505C247.644 316.505 260.747 311.67 260.747 305.706C260.747 299.743 247.644 294.908 231.48 294.908C215.316 294.908 202.212 299.743 202.212 305.706C202.212 311.67 215.316 316.505 231.48 316.505Z" fill="#1E1E1D"/>
<path opacity="0.73" d="M231.48 316.082C247.012 316.082 259.603 311.436 259.603 305.706C259.603 299.976 247.012 295.33 231.48 295.33C215.948 295.33 203.357 299.976 203.357 305.706C203.357 311.436 215.948 316.082 231.48 316.082Z" fill="#1E1E1D"/>
<path opacity="0.77" d="M231.48 315.659C246.379 315.659 258.457 311.203 258.457 305.706C258.457 300.208 246.379 295.752 231.48 295.752C216.581 295.752 204.502 300.208 204.502 305.706C204.502 311.203 216.581 315.659 231.48 315.659Z" fill="#1E1E1D"/>
<path opacity="0.81" d="M231.48 315.238C245.746 315.238 257.312 310.971 257.312 305.707C257.312 300.443 245.746 296.176 231.48 296.176C217.213 296.176 205.648 300.443 205.648 305.707C205.648 310.971 217.213 315.238 231.48 315.238Z" fill="#1E1E1D"/>
<path opacity="0.85" d="M231.48 314.816C245.114 314.816 256.167 310.737 256.167 305.707C256.167 300.676 245.114 296.598 231.48 296.598C217.845 296.598 206.792 300.676 206.792 305.707C206.792 310.737 217.845 314.816 231.48 314.816Z" fill="#1E1E1D"/>
<path opacity="0.88" d="M231.48 314.393C244.482 314.393 255.022 310.504 255.022 305.706C255.022 300.909 244.482 297.02 231.48 297.02C218.478 297.02 207.938 300.909 207.938 305.706C207.938 310.504 218.478 314.393 231.48 314.393Z" fill="#1E1E1D"/>
<path opacity="0.92" d="M231.48 313.969C243.849 313.969 253.876 310.27 253.876 305.706C253.876 301.143 243.849 297.443 231.48 297.443C219.111 297.443 209.084 301.143 209.084 305.706C209.084 310.27 219.111 313.969 231.48 313.969Z" fill="#1E1E1D"/>
<path opacity="0.96" d="M231.48 313.546C243.217 313.546 252.732 310.036 252.732 305.706C252.732 301.376 243.217 297.865 231.48 297.865C219.743 297.865 210.228 301.376 210.228 305.706C210.228 310.036 219.743 313.546 231.48 313.546Z" fill="#1E1E1D"/>
<path d="M231.48 313.124C242.584 313.124 251.586 309.802 251.586 305.705C251.586 301.608 242.584 298.287 231.48 298.287C220.375 298.287 211.374 301.608 211.374 305.705C211.374 309.802 220.375 313.124 231.48 313.124Z" fill="#1E1E1D"/>
</g>
<path d="M168.39 259.046C168.39 259.046 169.202 262.359 167.07 263.068C165.822 263.484 164.659 262.688 164.659 262.688L159.6 265.03L169.126 273.784C169.126 273.784 169.632 276.014 167.528 276.2C165.424 276.386 164.372 274.221 164.372 274.221C164.372 274.221 156.618 267.601 155.266 267.601C153.914 267.601 147.663 273.603 147.663 273.603C147.663 273.603 147.416 275.707 144.879 276.51C142.341 277.314 141.632 274.549 141.974 273.726C142.318 272.902 150.509 264.94 150.509 264.94L144.073 261.54C144.073 261.54 142.526 261.786 140.855 260.795C139.185 259.805 140.277 257.482 140.277 257.482L154.407 262.156L161.152 261.8L163.694 261.964L168.389 259.044L168.39 259.046Z" fill="#9297A5"/>
<path d="M159.945 265.499L168.703 272.706C169.376 273.259 169.246 274.324 168.46 274.701L168.085 274.88C167.674 275.077 167.188 275.022 166.83 274.74L156.683 266.706C156.462 266.531 156.188 266.441 155.906 266.449L154.241 266.499C153.97 266.507 153.71 266.608 153.504 266.784L144.188 274.742C143.856 275.025 143.396 275.104 142.989 274.948L142.742 274.854C141.938 274.546 141.716 273.516 142.319 272.903L149.588 265.543C149.98 265.146 150.043 264.528 149.741 264.059L149.061 263.008C148.945 262.828 148.782 262.683 148.59 262.587L140.92 258.778C140.119 258.381 140.025 257.275 140.746 256.749L141.337 256.317C141.686 256.063 142.143 256.016 142.535 256.196L149.635 259.435C149.748 259.487 152.721 260.538 152.845 260.553L155.882 261.32C156.093 261.345 159.253 260.559 159.449 260.472L166.287 257.677C166.704 257.493 167.191 257.564 167.54 257.858L167.976 258.23C168.647 258.8 168.49 259.877 167.681 260.23L160.396 263.184C160.161 263.286 159.965 263.463 159.838 263.687L159.666 263.988C159.379 264.492 159.496 265.128 159.945 265.497V265.499Z" fill="url(#paint18_linear_2007_204)"/>
<path d="M150.875 262.873V263.787C150.875 265.04 152.364 266.054 154.205 266.054C156.046 266.054 157.535 265.04 157.535 263.787V262.873H157.519C157.355 264.023 155.937 264.921 154.205 264.921C152.473 264.921 151.055 264.023 150.891 262.873H150.875Z" fill="url(#paint19_linear_2007_204)"/>
<path d="M150.875 262.65C150.875 262.726 150.88 262.798 150.891 262.872C151.055 264.023 152.473 264.921 154.205 264.921C155.937 264.921 157.355 264.023 157.519 262.872C157.53 262.8 157.535 262.726 157.535 262.65C157.535 261.398 156.046 260.383 154.205 260.383C152.364 260.383 150.875 261.398 150.875 262.65Z" fill="#ADB1BC"/>
<path d="M152.53 256.09V262.497C152.53 263.127 153.28 263.637 154.205 263.637C155.13 263.637 155.88 263.127 155.88 262.497V256.09H155.872C155.79 256.668 155.077 257.12 154.205 257.12C153.334 257.12 152.62 256.668 152.538 256.09H152.53Z" fill="url(#paint20_linear_2007_204)"/>
<path d="M152.53 255.979C152.53 256.017 152.531 256.053 152.538 256.091C152.62 256.669 153.334 257.121 154.205 257.121C155.077 257.121 155.79 256.669 155.872 256.091C155.879 256.054 155.88 256.017 155.88 255.979C155.88 255.348 155.13 254.838 154.205 254.838C153.28 254.838 152.53 255.348 152.53 255.979Z" fill="#ADB1BC"/>
<path d="M150.875 249.857V255.131C150.875 256.384 152.364 257.399 154.205 257.399C156.046 257.399 157.535 256.384 157.535 255.131V249.857H157.519C157.355 251.008 155.937 251.906 154.205 251.906C152.473 251.906 151.055 251.008 150.891 249.857H150.875Z" fill="url(#paint21_linear_2007_204)"/>
<path d="M150.875 249.635C150.875 249.71 150.88 249.783 150.891 249.857C151.055 251.007 152.473 251.905 154.205 251.905C155.937 251.905 157.355 251.007 157.519 249.857C157.53 249.784 157.535 249.71 157.535 249.635C157.535 248.382 156.046 247.367 154.205 247.367C152.364 247.367 150.875 248.382 150.875 249.635Z" fill="#ADB1BC"/>
<path d="M150.937 189.212C150.193 188.746 149.253 188.726 148.491 189.159L130.373 199.448C129.078 200.174 128.383 201.641 128.644 203.104L134.208 235.484C134.876 239.234 137.035 242.554 140.192 244.686L163.477 260.003V253.401L154.077 191.177L150.938 189.209L150.937 189.212Z" fill="url(#paint22_linear_2007_204)"/>
<path d="M152.196 191.469L135.501 200.829C134.206 201.555 133.511 203.022 133.773 204.484L138.62 231.674C139.289 235.425 141.448 238.744 144.604 240.876L163.473 253.401L187.126 239.635L159.846 222.48L155.524 193.103C155.294 191.542 153.572 190.696 152.196 191.468V191.469Z" fill="url(#paint23_linear_2007_204)"/>
<path d="M189.663 271.465C189.663 271.465 191.573 272.961 193.694 274.593C195.815 276.224 196.577 276.341 194.619 277.533C192.662 278.726 191.302 278.625 189.017 277.533C186.733 276.441 182.218 275.028 181.892 273.777C181.566 272.526 181.454 270.922 181.454 270.922L189.663 271.464V271.465Z" fill="#2D2F4F"/>
<path d="M166.624 225.609C166.624 225.609 185.553 232.531 187.392 234.564C189.231 236.597 191.058 273.323 191.058 273.323C191.058 273.323 190.134 274.156 188.152 274.536C186.169 274.916 185.704 274.347 185.704 273.795C185.704 273.537 186.221 257.347 179.17 247.762C171.142 236.849 155.419 232.388 155.419 232.388L166.622 225.611L166.624 225.609Z" fill="#2D2F4F"/>
<path d="M189.663 276.104C189.663 276.104 191.573 277.599 193.694 279.232C195.815 280.864 196.577 280.979 194.619 282.172C192.662 283.365 191.302 283.264 189.017 282.172C186.733 281.08 182.218 279.667 181.892 278.416C181.566 277.165 181.454 275.561 181.454 275.561L189.663 276.103V276.104Z" fill="#2D2F4F"/>
<path d="M147.851 230.107C147.851 230.107 147.153 240.261 153.921 243.37C160.69 246.479 177.337 252.332 177.337 252.332C177.337 252.332 177.369 259.767 178.358 265.24C179.348 270.714 181.452 275.561 181.452 275.561C181.452 275.561 183.465 277.665 186.757 277.116C190.049 276.568 190.14 275.47 190.14 275.47C190.14 275.47 185.739 256.788 186.104 250.571C186.47 244.352 159.957 231.11 159.957 231.11L147.851 230.107Z" fill="#383B5B"/>
<path d="M169.654 192.861C169.654 192.861 171.356 194.103 171.599 197.243C171.842 200.384 173.058 211.727 173.058 211.727L182.864 220.811C182.864 220.811 180.595 220.73 180.19 222.185C179.785 223.639 179.46 224.449 179.46 224.449C179.46 224.449 167.303 218.372 166.655 214.563C166.007 210.755 169.654 192.861 169.654 192.861Z" fill="url(#paint24_linear_2007_204)"/>
<path d="M169.654 192.861C167.096 191.872 162.345 193.216 159.043 194.814C155.742 196.413 145.767 200.912 145.649 202.138C145.531 203.363 146.899 230.361 146.899 230.361C146.899 230.361 152.788 233.78 160.161 231.069C167.531 228.357 166.942 223.289 166.942 223.289C166.942 223.289 171.445 193.555 169.654 192.861Z" fill="url(#paint25_linear_2007_204)"/>
<path d="M167.809 184.841C167.809 184.841 167.954 189.042 167.631 190.465C167.308 191.888 165.562 195.928 164.649 196.377C163.737 196.827 162.563 196.486 162.563 196.486L162.739 196.864C162.739 196.864 162.693 198.699 159.444 198.743C156.194 198.789 154.341 197.48 154.341 197.48C154.341 197.48 155.518 194.785 155.509 192.219C155.499 189.652 156.265 183.329 159.055 182.468C161.844 181.606 167.811 184.843 167.811 184.843L167.809 184.841Z" fill="url(#paint26_linear_2007_204)"/>
<path d="M165.283 185.914C162 186.131 160.418 185.102 160.418 185.102C160.418 185.102 161.19 186.552 160.218 187.315C159.245 188.076 159.474 191.432 158.996 191.421C158.519 191.41 158.791 188.406 157.359 188.384C155.926 188.361 156.33 189.194 156.435 190.371C156.541 191.548 156.843 192.32 155.704 192.588C154.564 192.856 152.254 189.621 152.379 186.5C152.502 183.378 154.55 182.449 154.55 182.449C154.55 182.449 153.854 178.404 159.552 178.812C165.251 179.222 167.302 180.629 168.929 179.66C170.557 178.692 172.069 185.466 165.283 185.914Z" fill="#2D2F4F"/>
<path d="M162.659 196.445C162.659 196.445 160.637 196.275 159.811 195.152C158.985 194.028 158.73 193.723 158.73 193.723C158.73 193.723 159.013 195.038 159.891 196.49C160.769 197.941 160.093 198.705 160.093 198.705C160.093 198.705 162.449 198.738 162.657 197.243C162.785 196.323 162.657 196.445 162.657 196.445H162.659Z" fill="#B7766E"/>
<path d="M212.426 254.024L229.623 244.412L208.362 232.328L191.165 241.94L212.426 254.024Z" fill="white"/>
<path d="M191.165 241.939L212.426 254.023V254.912L191.165 242.827V241.939Z" fill="#CCC4CC"/>
<path d="M229.623 244.412V245.301L212.426 254.912V254.024L229.623 244.412Z" fill="#E5E5E5"/>
<path d="M208.828 242.446L216.078 238.362L208.623 234.123L201.372 238.209L208.828 242.446Z" fill="#C1C1C1"/>
<path d="M210.694 243.653L217.944 239.567L217.433 239.277L210.184 243.362L210.694 243.653Z" fill="#42A8A8"/>
<path d="M206.036 247.891L219.269 240.413L218.759 240.123L205.525 247.601L206.036 247.891Z" fill="#C1C1C1"/>
<path d="M207.243 248.669L220.476 241.19L219.966 240.9L206.732 248.379L207.243 248.669Z" fill="#C1C1C1"/>
<path d="M208.45 249.444L221.684 241.967L221.173 241.676L207.939 249.154L208.45 249.444Z" fill="#C1C1C1"/>
<path d="M209.657 250.221L222.891 242.743L222.38 242.453L209.147 249.931L209.657 250.221Z" fill="#C1C1C1"/>
<path d="M210.865 250.997L224.098 243.518L223.587 243.229L210.354 250.705L210.865 250.997Z" fill="#C1C1C1"/>
<path d="M212.072 251.772L225.305 244.294L224.794 244.004L211.561 251.482L212.072 251.772Z" fill="#C1C1C1"/>
<path d="M202.66 246.248L207.32 243.623L199.864 239.385L195.206 242.01L202.66 246.248Z" fill="#C1C1C1"/>
<path d="M234.543 292.827V336.08L236.934 334.487V294.901L279.853 270.845V309.952L282.16 308.677V266.064L234.543 292.827Z" fill="url(#paint27_linear_2007_204)"/>
<path d="M152.484 287.697L152.427 246.65L234.544 292.827V336.08L232.865 335.199V295.788L153.999 251.538V288.853L152.484 287.697Z" fill="url(#paint28_linear_2007_204)"/>
<path d="M280.537 262.375L204.854 218.684C202.43 217.293 199.451 217.282 197.018 218.656L153.944 242.95C152.007 244.042 151.996 246.829 153.925 247.935L229.622 291.633C232.378 293.215 235.765 293.228 238.534 291.667L280.515 267.989C282.696 266.758 282.707 263.621 280.535 262.375H280.537Z" fill="url(#paint29_linear_2007_204)"/>
<path d="M280.537 259.628L204.854 215.938C202.43 214.547 199.451 214.536 197.018 215.91L153.944 240.203C152.007 241.295 151.996 244.083 153.925 245.189L229.622 288.887C232.378 290.469 235.765 290.482 238.534 288.92L280.515 265.243C282.696 264.012 282.707 260.875 280.535 259.628H280.537Z" fill="url(#paint30_linear_2007_204)"/>
<path d="M198.87 262.168L223.493 276.483C224.085 276.827 224.818 276.822 225.405 276.468L243.56 265.586C244.073 265.277 244.067 264.53 243.549 264.229L218.708 249.788C218.194 249.49 217.559 249.495 217.052 249.802L198.857 260.706C198.304 261.04 198.31 261.844 198.87 262.168Z" fill="#5A5C66"/>
<path d="M198.87 261.743L223.493 276.058C224.085 276.401 224.818 276.396 225.405 276.042L243.56 265.16C244.073 264.851 244.067 264.105 243.549 263.804L218.708 249.362C218.194 249.065 217.559 249.069 217.052 249.377L198.857 260.28C198.304 260.614 198.31 261.418 198.87 261.743Z" fill="#D0D5E2"/>
<path d="M224.435 275.477C224.251 275.477 224.07 275.428 223.912 275.335L199.289 261.02C199.279 261.012 199.279 261 199.283 260.997L217.484 250.088C217.606 250.014 217.748 249.975 217.893 249.975C218.038 249.975 218.171 250.012 218.29 250.082L243.066 264.485L224.976 275.327C224.813 275.425 224.627 275.477 224.438 275.477H224.435Z" fill="white"/>
<path d="M221.111 254.876L231.328 260.814C231.492 260.91 231.763 260.899 231.932 260.792C232.099 260.684 232.102 260.519 231.938 260.423L221.721 254.486C221.557 254.39 221.286 254.401 221.118 254.508C220.951 254.615 220.948 254.78 221.111 254.876Z" fill="url(#paint31_linear_2007_204)"/>
<path d="M216.215 254.812L226.572 260.826C226.736 260.922 227.007 260.911 227.176 260.804C227.343 260.697 227.346 260.532 227.182 260.436L216.825 254.421C216.661 254.325 216.39 254.336 216.221 254.443C216.054 254.55 216.051 254.716 216.215 254.812Z" fill="#AAADAD"/>
<path d="M214.453 255.904L224.81 261.918C224.974 262.014 225.245 262.003 225.414 261.896C225.581 261.789 225.584 261.623 225.42 261.527L215.063 255.513C214.899 255.417 214.628 255.428 214.459 255.535C214.292 255.642 214.289 255.808 214.453 255.904Z" fill="#AAADAD"/>
<path d="M212.693 256.996L223.05 263.01C223.214 263.106 223.485 263.095 223.654 262.988C223.821 262.881 223.824 262.715 223.66 262.619L213.303 256.605C213.139 256.509 212.868 256.52 212.699 256.627C212.532 256.734 212.529 256.899 212.693 256.996Z" fill="#AAADAD"/>
<path d="M210.389 258.742L220.746 264.756C220.91 264.852 221.181 264.841 221.349 264.734C221.516 264.627 221.52 264.461 221.356 264.365L210.998 258.351C210.835 258.255 210.563 258.266 210.395 258.373C210.228 258.48 210.225 258.646 210.389 258.742Z" fill="#AAADAD"/>
<path d="M208.628 259.835L218.986 265.85C219.149 265.946 219.421 265.935 219.589 265.828C219.756 265.721 219.759 265.555 219.596 265.459L209.238 259.445C209.074 259.348 208.803 259.36 208.635 259.467C208.468 259.574 208.464 259.739 208.628 259.835Z" fill="#AAADAD"/>
<path d="M206.868 260.927L217.225 266.942C217.389 267.038 217.66 267.027 217.829 266.919C217.996 266.812 217.999 266.647 217.835 266.551L207.478 260.536C207.314 260.44 207.043 260.451 206.874 260.558C206.707 260.666 206.704 260.831 206.868 260.927Z" fill="#AAADAD"/>
<path d="M203.992 211.336L176.978 226.752V249.95L203.992 234.533L205.065 211.862L203.992 211.336Z" fill="#C6C6C6"/>
<path d="M205.065 211.861L178.051 227.278V250.475L205.065 235.059V211.861Z" fill="#EFEFEF"/>
<path d="M178.051 250.475L161.28 239.296L178.051 229.475V250.475Z" fill="#B2B1B1"/>
<path d="M161.28 239.296V240.465L178.051 250.475V227.278L176.978 226.752V248.889L161.28 239.296Z" fill="#C6C6C6"/>
<path d="M176.978 236.268L170.357 240.323L176.978 244.159V236.268Z" fill="#827F7F"/>
<path d="M163.97 236.835C163.97 236.835 165.831 238.301 167.453 237.678C169.076 237.054 169.959 239.697 170.75 239.437C171.541 239.177 172.096 237.086 171.163 235.964C170.23 234.84 166.293 233.93 166.293 233.93C166.293 233.93 163.918 234.653 163.968 236.837L163.97 236.835Z" fill="url(#paint32_linear_2007_204)"/>
<path d="M148.951 202.14C145.689 200.158 144.278 201.748 144.215 207.546C144.144 213.958 144.751 225.707 145.643 227.167C146.535 228.626 164.282 238.144 164.282 238.144C164.282 238.144 163.34 236.457 164.726 235.24C166.112 234.026 167.038 233.364 167.038 233.364C167.038 233.364 151.803 225.466 152.046 223.683C152.289 221.901 153.329 204.798 148.952 202.14H148.951Z" fill="url(#paint33_linear_2007_204)"/>
<path d="M174.738 335.856C174.738 335.856 174.686 338.695 176.538 338.241C178.39 337.789 179.624 335.526 179.624 335.526C179.624 335.526 186.716 330.054 187.264 330.178C187.813 330.301 194.726 334.745 194.726 334.745C194.726 334.745 196.331 336.873 198.553 337.126C200.775 337.378 201.243 335.033 201.278 334.913C201.312 334.794 190.612 327.092 190.612 327.092L197.689 323.965C197.689 323.965 199.748 324.377 200.118 323.061C200.488 321.744 198.588 320.715 198.588 320.715L188.891 324.801L176.035 320.956C176.035 320.956 175.716 323.266 177.074 323.884C178.433 324.501 179.626 324.953 179.626 324.953L184.522 328.204L174.74 335.857L174.738 335.856Z" fill="url(#paint34_linear_2007_204)"/>
<path d="M183.432 327.233L175 335.069C174.603 335.447 174.666 336.096 175.129 336.391L176.075 336.993C176.387 337.191 176.792 337.163 177.074 336.925L186.5 329.207C186.784 328.966 187.19 328.941 187.504 329.143L198.391 336.172C198.644 336.336 198.966 336.351 199.235 336.213L200.884 335.363C201.456 335.069 201.5 334.268 200.966 333.912L191.27 327.445C190.717 327.077 190.788 326.242 191.397 325.972L198.947 322.627C199.508 322.378 199.625 321.633 199.166 321.226L198.167 320.338C197.923 320.12 197.574 320.063 197.275 320.193L188.125 324.113C187.915 324.203 187.679 324.204 187.468 324.116L177.883 320.122C177.667 320.032 177.424 320.035 177.211 320.131L176.491 320.456C175.864 320.739 175.821 321.614 176.418 321.956L183.276 325.89C183.764 326.171 183.846 326.844 183.438 327.233H183.432Z" fill="url(#paint35_linear_2007_204)"/>
<path d="M184.25 324.471V326.453C184.25 327.318 185.599 328.019 187.264 328.019C188.93 328.019 190.279 327.318 190.279 326.453V324.471H184.251H184.25Z" fill="url(#paint36_linear_2007_204)"/>
<path d="M190.278 324.244C190.278 325.109 188.929 325.81 187.263 325.81C185.597 325.81 184.248 325.109 184.248 324.244C184.248 323.379 185.597 322.678 187.263 322.678C188.927 322.678 190.278 323.379 190.278 324.244Z" fill="url(#paint37_linear_2007_204)"/>
<path d="M185.157 317.422V324.112C185.157 324.716 186.1 325.206 187.263 325.206C188.426 325.206 189.368 324.716 189.368 324.112V317.422H185.157Z" fill="url(#paint38_linear_2007_204)"/>
<path d="M189.37 317.263C189.37 317.867 188.427 318.357 187.264 318.357C186.101 318.357 185.159 317.867 185.159 317.263C185.159 316.66 186.101 316.17 187.264 316.17C188.427 316.17 189.37 316.66 189.37 317.263Z" fill="url(#paint39_linear_2007_204)"/>
<path d="M184.25 309.213V318.788C184.25 319.653 185.599 320.355 187.264 320.355C188.93 320.355 190.279 319.653 190.279 318.788V309.213H184.251H184.25Z" fill="url(#paint40_linear_2007_204)"/>
<path d="M187.264 310.552C188.929 310.552 190.279 309.851 190.279 308.986C190.279 308.121 188.929 307.42 187.264 307.42C185.599 307.42 184.25 308.121 184.25 308.986C184.25 309.851 185.599 310.552 187.264 310.552Z" fill="url(#paint41_linear_2007_204)"/>
<path d="M203.068 314.789C203.068 314.789 202.14 317.302 202.542 317.942C202.944 318.58 206.877 320.667 209.126 317.456C211.375 314.245 212.344 311.114 211.82 309.83C211.295 308.546 209.367 308.546 208.324 309.508C207.281 310.471 203.068 314.789 203.068 314.789Z" fill="url(#paint42_linear_2007_204)"/>
<path d="M213.972 317.007C213.972 317.007 213.436 320.587 213.972 321.309C214.508 322.032 217.077 324.038 218.683 323.316C220.289 322.593 230.889 317.211 231.611 316.169C232.334 315.127 230.326 312.879 226.712 313.522C223.099 314.165 220.45 314.245 220.45 314.245L213.972 317.007Z" fill="url(#paint43_linear_2007_204)"/>
<path d="M194.673 286.336C194.673 286.336 202.663 282.062 206.751 282.341C210.839 282.62 210.467 286.429 210.746 289.586C211.025 292.744 209.26 311.879 209.26 311.879C209.26 311.879 209.818 314.294 207.495 314.944C205.172 315.594 202.602 314.944 202.725 314.386C202.849 313.828 202.384 292.2 202.384 292.2L192.536 296.644L194.673 286.332V286.336Z" fill="url(#paint44_linear_2007_204)"/>
<path d="M211.418 303.126L186.755 287.73C186.755 287.73 190.016 311.999 194.943 313.014C199.869 314.029 211.416 303.126 211.416 303.126H211.418Z" fill="url(#paint45_linear_2007_204)"/>
<path d="M191.012 243.46C191.012 243.46 191.163 246.906 191.012 247.597L190.861 248.287C190.861 248.287 191.184 249.862 191.08 250.53C190.976 251.197 190.478 254.72 189.999 255.218C189.52 255.716 186.762 255.639 186.762 255.639V257.66H179.254C179.254 257.66 180.327 252.09 180.287 251.796C180.25 251.503 178.411 246.714 179.254 244.302C180.097 241.889 189.86 240.511 191.012 243.459V243.46Z" fill="url(#paint46_linear_2007_204)"/>
<path d="M191.474 242.007C191.474 242.007 191.78 244.036 190.325 244.496C188.869 244.956 189.367 247.599 188.793 247.982C188.218 248.364 188.716 249.935 188.372 250.164C188.027 250.394 187.569 248.249 186.61 248.249C185.652 248.249 185.692 249.628 186.19 250.701C186.688 251.774 185.959 253.574 184.313 253.574C182.666 253.574 180.444 253.463 179.64 252.485C178.836 251.506 176.844 248.289 177.15 246.029C177.456 243.77 178.184 242.966 178.184 242.966C178.184 242.966 178.529 239.558 182.128 239.136C185.729 238.715 189.406 240.246 190.517 240.246C191.628 240.246 191.475 242.008 191.475 242.008L191.474 242.007Z" fill="#2D2F4F"/>
<path d="M175.27 297.694C175.27 297.694 176.111 304.627 179.651 306.594C183.19 308.56 188.013 308.926 190.172 310.306C192.331 311.685 201.878 305.206 207.172 302.776L212.466 300.346C212.466 300.346 212.119 302.891 213.161 309.487C214.202 316.081 213.971 317.007 213.971 317.007C213.971 317.007 216.633 318.512 219.409 317.702C222.186 316.892 222.071 315.66 222.071 315.66C222.071 315.66 224.232 290.044 220.645 287.73C217.058 285.415 209.668 289.123 203.096 291.327C196.291 293.61 196.6 293.966 196.6 293.966L175.27 297.694Z" fill="url(#paint47_linear_2007_204)"/>
<path d="M196.846 292.936C196.846 292.936 196.12 267.216 194.293 264.835C192.467 262.454 187.777 260.923 187.777 260.923L187.465 257.691L179.653 254.119L176.757 255.176C176.757 255.176 172.857 252.77 172.143 253.246C171.429 253.722 168.414 253.938 169.445 268.435C170.476 282.933 173.413 295.873 173.413 295.873C173.413 295.873 178.047 302.157 187.242 300.405C196.438 298.652 196.848 292.936 196.848 292.936H196.846Z" fill="url(#paint48_linear_2007_204)"/>
<path d="M190.962 315.529L167.483 302.178C165.379 300.972 163.912 298.904 163.47 296.521L159.685 271.148C159.382 269.522 161.048 268.234 162.544 268.944C169.319 272.156 183.523 279.271 185.394 283.295C187.268 287.327 189.394 303.752 190.308 311.429C190.505 313.083 192.408 316.357 190.962 315.529Z" fill="url(#paint49_linear_2007_204)"/>
<path d="M161.127 268.608L181.884 281.313C183.931 282.565 185.294 284.682 185.589 287.064L188.688 312.095C189.099 315.415 192.782 317.224 195.661 315.518L211.006 306.428C211.512 306.128 211.823 305.585 211.823 304.997V303.973C211.823 303.125 210.91 302.591 210.171 303.007L197.33 310.219C195.356 311.328 192.886 310.086 192.598 307.839L189.745 285.572C189.342 282.42 187.537 279.62 184.833 277.95L166.873 266.846C166.135 266.389 165.209 266.366 164.448 266.785L161.13 268.61L161.127 268.608Z" fill="url(#paint50_linear_2007_204)"/>
<path d="M214.983 266.623C214.983 266.623 217.268 262.322 217.766 261.92C218.264 261.518 222.546 258.846 222.546 258.846C222.546 258.846 223.285 260.09 222.579 260.614C221.873 261.138 219.658 262.772 219.658 262.772C219.658 262.772 221.119 265.558 220.762 266.658C220.405 267.758 217.736 270.706 217.736 270.706C217.736 270.706 215.865 267.364 214.981 266.623H214.983Z" fill="url(#paint51_linear_2007_204)"/>
<path d="M190.579 263.679C187.955 264.825 186.27 268.778 191.17 273.023C196.069 277.268 200.172 279.997 203.576 279.362C206.981 278.728 218.823 271.006 218.823 271.006C218.823 271.006 219.192 269.807 217.715 267.869C216.239 265.931 214.578 265.931 214.578 265.931C214.578 265.931 204.94 272.5 202.862 271.485C200.783 270.47 193.8 262.27 190.577 263.678L190.579 263.679Z" fill="url(#paint52_linear_2007_204)"/>
<path d="M130.561 119.757L167.186 98.1872C168.947 97.1615 171.156 98.4315 171.156 100.469V131.113C171.156 132.71 170.307 134.188 168.926 134.994L130.857 157.405C129.166 158.391 127.042 157.17 127.042 155.213V125.88C127.042 123.359 128.381 121.027 130.561 119.757Z" fill="url(#paint53_linear_2007_204)"/>
<path d="M170.737 99.5642L134.112 121.134C131.932 122.404 130.593 124.736 130.593 127.257V156.59C130.593 158.547 132.715 159.766 134.408 158.782L138.641 156.289V170.528L151.053 148.982L172.477 136.371C173.858 135.565 174.707 134.087 174.707 132.49V101.846C174.707 99.8084 172.498 98.5384 170.737 99.5642Z" fill="url(#paint54_linear_2007_204)"/>
<path d="M168.37 111.932L146.606 124.555C146.067 124.865 145.627 124.678 145.627 124.14V123.874C145.627 123.335 146.068 122.642 146.606 122.331L168.37 109.709C168.909 109.398 169.349 109.586 169.349 110.123V110.389C169.349 110.928 168.907 111.621 168.37 111.932Z" fill="#FEFFFF"/>
<path d="M168.37 117.018L140.316 133.345C139.777 133.655 139.337 133.468 139.337 132.931V132.664C139.337 132.125 139.779 131.432 140.316 131.122L168.37 114.794C168.909 114.484 169.349 114.672 169.349 115.209V115.475C169.349 116.014 168.907 116.707 168.37 117.018Z" fill="#FEFFFF"/>
<path d="M168.37 122.104L140.316 138.431C139.777 138.741 139.337 138.554 139.337 138.017V137.75C139.337 137.211 139.779 136.518 140.316 136.208L168.37 119.88C168.909 119.57 169.349 119.758 169.349 120.295V120.561C169.349 121.1 168.907 121.793 168.37 122.104Z" fill="#FEFFFF"/>
<path d="M160.099 132.928L140.316 144.506C139.777 144.816 139.337 144.629 139.337 144.092V143.825C139.337 143.286 139.779 142.593 140.316 142.283L160.099 130.705C160.638 130.394 161.078 130.582 161.078 131.119V131.385C161.078 131.924 160.637 132.618 160.099 132.928Z" fill="#FEFFFF"/>
<path d="M135.49 158.144V168.989L138.641 170.529V156.289L135.49 158.144Z" fill="url(#paint55_linear_2007_204)"/>
<path d="M291.644 172.267V180.076C291.644 182.252 289.134 183.469 287.425 182.122L282.094 177.916C280.784 176.882 280.02 175.307 280.02 173.64V165.205C280.277 166.001 280.765 166.713 281.437 167.246L287.807 172.288C289.028 173.254 290.598 173.107 291.644 172.269V172.267Z" fill="#7E8282"/>
<path d="M303.01 152.859C303.01 156.937 301.409 159.686 298.802 160.858C298.383 161.047 297.94 161.199 297.474 161.304C296.932 161.43 296.359 161.498 295.762 161.509C295.756 161.509 295.75 161.509 295.742 161.509C294.604 161.533 293.687 162.442 293.687 163.58V165.937C293.687 167.079 293.167 168.023 292.397 168.636C291.214 169.583 289.441 169.748 288.062 168.658L280.866 162.964C280.106 162.363 279.556 161.558 279.266 160.658C279.114 160.184 279.035 159.685 279.035 159.177V151.753C279.035 151.311 278.896 150.881 278.633 150.527C278.409 150.226 278.188 149.92 277.974 149.613C277.508 148.948 277.066 148.269 276.649 147.579C274.039 143.274 272.441 138.611 272.441 134.53C272.441 126.089 279.285 123.354 287.725 128.41C292.161 131.067 296.15 135.35 298.942 140.039C301.469 144.281 303.012 148.855 303.012 152.86L303.01 152.859Z" fill="url(#paint56_linear_2007_204)"/>
<path d="M292.396 168.636V177.456C292.396 179.914 289.561 181.288 287.63 179.766L281.607 175.015C280.127 173.848 279.265 172.069 279.265 170.184V160.656C279.555 161.556 280.106 162.36 280.864 162.961L288.06 168.656C289.439 169.746 291.212 169.581 292.396 168.634V168.636Z" fill="#AAADAD"/>
<path d="M282.338 164.127V141.811C282.338 140.767 283.764 140.468 284.184 141.423L285.83 145.172L288.122 143.405C288.894 142.81 290.015 143.359 290.015 144.335V169.41" stroke="white" stroke-width="4" stroke-miterlimit="10"/>
<path d="M288.062 170.519L280.866 164.825C280.106 164.224 279.556 163.419 279.266 162.52V164.787C279.556 165.687 280.108 166.49 280.866 167.092L288.062 172.787C289.441 173.877 291.214 173.712 292.397 172.765V170.497C291.214 171.444 289.441 171.61 288.062 170.519Z" fill="#7E8282"/>
<path d="M288.062 174.648L280.866 168.954C280.106 168.353 279.556 167.548 279.266 166.648V168.916C279.556 169.816 280.108 170.619 280.866 171.221L288.062 176.916C289.441 178.006 291.214 177.841 292.397 176.894V174.626C291.214 175.573 289.441 175.739 288.062 174.648Z" fill="#7E8282"/>
<path d="M339.386 78.4108C339.317 78.2942 339.248 78.1729 339.178 78.0563C336.304 73.2284 332.194 68.8165 327.625 66.0811C322.383 62.9408 317.742 62.7233 314.882 64.9482L310.958 67.6142L312.827 67.5733C312.217 68.8858 311.884 70.4946 311.884 72.3838C311.884 76.5878 313.53 81.3889 316.218 85.8228C316.647 86.5335 317.102 87.2346 317.583 87.9185C319.285 90.3561 321.294 92.6203 323.494 94.5332C324.481 95.3951 325.504 96.1829 326.56 96.8841C326.798 97.0401 327.031 97.1914 327.27 97.3427C327.387 97.4167 327.508 97.4892 327.625 97.5585C327.746 97.6278 327.868 97.7019 327.984 97.7712C328.222 97.9052 328.456 98.036 328.695 98.1652C330.999 99.391 333.165 100.043 335.09 100.152C335.368 100.169 335.64 100.174 335.905 100.169C336.52 100.157 335.904 101.476 336.461 101.346C336.942 101.238 339.139 99.8984 339.572 99.703C342.258 98.4945 343.371 95.4597 343.371 91.2589C343.371 87.0582 341.869 82.6778 339.386 78.4092V78.4108Z" fill="#7DAD28"/>
<path d="M335.38 80.6235C332.506 75.7956 328.396 71.3837 323.827 68.6483C315.135 63.4407 308.086 66.258 308.086 74.9526C308.086 79.1565 309.731 83.9576 312.42 88.3916C312.849 89.1022 313.304 89.8034 313.785 90.4873C315.487 92.9249 317.496 95.1891 319.696 97.102C320.683 97.9639 321.706 98.7517 322.762 99.4529C323 99.6089 323.234 99.7602 323.472 99.9114C323.589 99.9855 323.71 100.058 323.827 100.127C323.948 100.197 324.07 100.271 324.186 100.34C324.424 100.474 324.658 100.605 324.897 100.734C327.531 102.136 329.984 102.785 332.107 102.738C332.722 102.726 333.311 102.656 333.869 102.525C334.35 102.417 334.805 102.261 335.237 102.067C337.921 100.858 339.571 98.0269 339.571 93.8277C339.571 89.6285 337.982 84.9913 335.379 80.6235H335.38Z" fill="#8CC440"/>
<path d="M323.83 75.9547C318.73 73.0397 314.596 74.8107 314.596 79.9096C314.596 85.0085 318.73 91.5051 323.83 94.4201C328.93 97.3351 333.064 95.5641 333.064 90.4651C333.064 85.3662 328.93 78.8697 323.83 75.9547ZM327.493 94.3886C328.479 93.9962 329.094 93.0099 329.094 91.5287C329.094 88.9998 327.31 85.8704 324.932 84.0048C325.821 84.0978 326.438 83.551 326.438 82.5048C326.438 81.0646 325.27 79.2305 323.83 78.4064C322.39 77.5839 321.222 78.0834 321.222 79.5236C321.222 80.5698 321.84 81.8225 322.728 82.7459C320.35 81.8934 318.566 82.9838 318.566 85.5112C318.566 86.9939 319.181 88.6815 320.167 90.2004C317.594 87.4004 315.832 83.7118 315.832 80.6155C315.832 76.1989 319.413 74.6658 323.83 77.19C328.248 79.7143 331.828 85.341 331.828 89.7561C331.828 92.8523 330.068 94.5288 327.493 94.3854V94.3886Z" fill="white"/>
<path d="M376.712 128.616C376.63 128.477 376.548 128.333 376.466 128.195C373.061 122.477 368.192 117.25 362.779 114.007C356.57 110.286 351.071 110.029 347.683 112.665L343.035 115.824L345.251 115.777C344.529 117.33 344.134 119.239 344.134 121.476C344.134 126.457 346.083 132.145 349.268 137.397C349.776 138.238 350.315 139.069 350.884 139.879C352.899 142.767 355.28 145.449 357.886 147.716C359.055 148.737 360.265 149.67 361.518 150.502C361.8 150.686 362.078 150.866 362.36 151.045C362.498 151.132 362.642 151.22 362.781 151.302C362.924 151.384 363.067 151.471 363.206 151.554C363.488 151.713 363.766 151.868 364.048 152.021C366.777 153.472 369.341 154.247 371.625 154.375C371.953 154.395 372.276 154.4 372.589 154.395C373.317 154.38 372.588 155.943 373.25 155.788C373.819 155.661 376.422 154.072 376.934 153.842C380.115 152.411 381.434 148.814 381.434 143.84C381.434 139.086 379.653 133.673 376.714 128.617L376.712 128.616Z" fill="url(#paint57_linear_2007_204)"/>
<path d="M371.967 131.237C368.561 125.519 363.693 120.292 358.279 117.049C347.984 110.879 339.633 114.218 339.633 124.516C339.633 129.497 341.582 135.185 344.767 140.437C345.275 141.279 345.814 142.109 346.382 142.919C348.398 145.807 350.779 148.489 353.385 150.756C354.554 151.777 355.764 152.71 357.017 153.542C357.299 153.726 357.577 153.906 357.859 154.086C357.997 154.172 358.141 154.261 358.279 154.343C358.423 154.425 358.566 154.511 358.705 154.593C358.987 154.752 359.264 154.907 359.547 155.06C362.665 156.722 365.575 157.491 368.088 157.434C368.816 157.418 369.515 157.336 370.176 157.184C370.745 157.056 371.284 156.87 371.798 156.64C374.978 155.209 376.933 151.855 376.933 146.88C376.933 141.992 375.049 136.411 371.967 131.237Z" fill="#8CC440"/>
<path d="M346.212 129.704C346.212 129.704 349.667 132.593 351.184 136.495C352.702 140.396 353.293 143.748 353.293 143.748C353.293 143.748 357.443 140.754 362.197 139.378C366.952 138.003 368.145 138.479 368.145 138.479L368.351 130.98C368.351 130.98 364.025 131.283 360.557 133.233C357.088 135.184 355.222 136.593 355.222 136.593C355.222 136.593 355.028 133.279 353.728 130.98C352.428 128.681 351.678 127.537 351.678 127.537L346.214 129.702L346.212 129.704Z" fill="white"/>
<path d="M357.911 284.93L344.263 276.633V341.037L357.911 349.336V284.93Z" fill="url(#paint58_linear_2007_204)"/>
<path d="M357.911 285.032L370.066 277.852V342.256L357.911 349.436V285.032Z" fill="url(#paint59_linear_2007_204)"/>
<path d="M357.911 285.032L344.263 276.633L356.418 269.477L370.066 277.875L357.911 285.032Z" fill="url(#paint60_linear_2007_204)"/>
<path d="M339.806 310.555L326.156 302.258V351.507L339.806 359.806V310.555Z" fill="url(#paint61_linear_2007_204)"/>
<path d="M339.806 310.657L351.961 303.477V352.728L339.806 359.907V310.657Z" fill="url(#paint62_linear_2007_204)"/>
<path d="M339.806 310.657L326.156 302.258L338.313 295.102L351.961 303.5L339.806 310.657Z" fill="url(#paint63_linear_2007_204)"/>
<path d="M321.334 331.908L307.686 323.609V362.436L321.334 370.733V331.908Z" fill="url(#paint64_linear_2007_204)"/>
<path d="M321.334 332.007L333.491 324.828V363.653L321.334 370.833V332.007Z" fill="url(#paint65_linear_2007_204)"/>
<path d="M321.334 332.008L307.686 323.61L319.842 316.453L333.491 324.852L321.334 332.008Z" fill="url(#paint66_linear_2007_204)"/>
<path d="M303.303 360.373L289.655 352.074V373.455L303.303 381.752V360.373Z" fill="url(#paint67_linear_2007_204)"/>
<path d="M303.303 360.472L315.459 353.293V374.672L303.303 381.852V360.472Z" fill="url(#paint68_linear_2007_204)"/>
<path d="M303.303 360.473L289.655 352.075L301.811 344.918L315.459 353.316L303.303 360.473Z" fill="url(#paint69_linear_2007_204)"/>
</g>
<defs>
<linearGradient id="paint0_linear_2007_204" x1="287.28" y1="208.803" x2="294.012" y2="122.967" gradientUnits="userSpaceOnUse">
<stop stop-color="#454C5B"/>
<stop offset="1" stop-color="#7D838C"/>
</linearGradient>
<linearGradient id="paint1_linear_2007_204" x1="293.397" y1="81.7438" x2="282.296" y2="210.076" gradientUnits="userSpaceOnUse">
<stop stop-color="#3A4151"/>
<stop offset="1" stop-color="#272735"/>
</linearGradient>
<linearGradient id="paint2_linear_2007_204" x1="288.949" y1="80.3414" x2="279.092" y2="194.297" gradientUnits="userSpaceOnUse">
<stop stop-color="#38ACA8"/>
<stop offset="1" stop-color="#5F637A"/>
</linearGradient>
<linearGradient id="paint3_linear_2007_204" x1="215.985" y1="99.591" x2="235.776" y2="99.591" gradientUnits="userSpaceOnUse">
<stop stop-color="#FFAC06"/>
<stop offset="1" stop-color="#F66C1E"/>
</linearGradient>
<linearGradient id="paint4_linear_2007_204" x1="217.332" y1="89.3583" x2="235.472" y2="89.3583" gradientUnits="userSpaceOnUse">
<stop stop-color="#3A4151"/>
<stop offset="1" stop-color="#272735"/>
</linearGradient>
<linearGradient id="paint5_linear_2007_204" x1="216.81" y1="89.7567" x2="234.95" y2="89.7567" gradientUnits="userSpaceOnUse">
<stop stop-color="#38ACA8"/>
<stop offset="1" stop-color="#5F637A"/>
</linearGradient>
<linearGradient id="paint6_linear_2007_204" x1="194.194" y1="290.823" x2="246.188" y2="289.338" gradientUnits="userSpaceOnUse">
<stop stop-color="#5C5F69"/>
<stop offset="1" stop-color="#888C94"/>
</linearGradient>
<linearGradient id="paint7_linear_2007_204" x1="194.194" y1="290.506" x2="246.188" y2="289.02" gradientUnits="userSpaceOnUse">
<stop stop-color="#DADCDE"/>
<stop offset="1" stop-color="#A4A8AF"/>
</linearGradient>
<linearGradient id="paint8_linear_2007_204" x1="228.806" y1="227.146" x2="167.141" y2="338.656" gradientUnits="userSpaceOnUse">
<stop stop-color="#EEEFF0"/>
<stop offset="1" stop-color="#F5F6F7"/>
</linearGradient>
<linearGradient id="paint9_linear_2007_204" x1="196.928" y1="302.957" x2="196.928" y2="352.098" gradientUnits="userSpaceOnUse">
<stop stop-color="#EEEFF0"/>
<stop offset="1" stop-color="white"/>
</linearGradient>
<linearGradient id="paint10_linear_2007_204" x1="289.728" y1="210.023" x2="290.804" y2="216.914" gradientUnits="userSpaceOnUse">
<stop stop-color="#FFAC06"/>
<stop offset="1" stop-color="#F66C1E"/>
</linearGradient>
<linearGradient id="paint11_linear_2007_204" x1="321.584" y1="224.894" x2="306.078" y2="224.678" gradientUnits="userSpaceOnUse">
<stop stop-color="#C6C9D4"/>
<stop offset="1" stop-color="#F4F5F7"/>
</linearGradient>
<linearGradient id="paint12_linear_2007_204" x1="301.623" y1="231.987" x2="320.811" y2="231.987" gradientUnits="userSpaceOnUse">
<stop stop-color="#EDB55D"/>
<stop offset="1" stop-color="#DA8839"/>
</linearGradient>
<linearGradient id="paint13_linear_2007_204" x1="313.569" y1="226.509" x2="334.35" y2="227.048" gradientUnits="userSpaceOnUse">
<stop stop-color="#FFAC06"/>
<stop offset="1" stop-color="#F66C1E"/>
</linearGradient>
<linearGradient id="paint14_linear_2007_204" x1="309.906" y1="241.179" x2="301.541" y2="241.179" gradientUnits="userSpaceOnUse">
<stop stop-color="#B26F67"/>
<stop offset="1" stop-color="#E7B8B6"/>
</linearGradient>
<linearGradient id="paint15_linear_2007_204" x1="318.456" y1="198.417" x2="304.838" y2="198.417" gradientUnits="userSpaceOnUse">
<stop stop-color="#B26F67"/>
<stop offset="1" stop-color="#E7B8B6"/>
</linearGradient>
<linearGradient id="paint16_linear_2007_204" x1="274.499" y1="199.729" x2="265.555" y2="199.729" gradientUnits="userSpaceOnUse">
<stop stop-color="#B26F67"/>
<stop offset="1" stop-color="#E7B8B6"/>
</linearGradient>
<linearGradient id="paint17_linear_2007_204" x1="179.593" y1="223.532" x2="186.333" y2="223.532" gradientUnits="userSpaceOnUse">
<stop stop-color="#B26F67"/>
<stop offset="1" stop-color="#E7B8B6"/>
</linearGradient>
<linearGradient id="paint18_linear_2007_204" x1="169.138" y1="265.557" x2="140.256" y2="265.557" gradientUnits="userSpaceOnUse">
<stop stop-color="#C6C9D4"/>
<stop offset="1" stop-color="#F4F5F7"/>
</linearGradient>
<linearGradient id="paint19_linear_2007_204" x1="157.533" y1="264.464" x2="150.873" y2="264.464" gradientUnits="userSpaceOnUse">
<stop stop-color="#C6C9D4"/>
<stop offset="1" stop-color="#F4F5F7"/>
</linearGradient>
<linearGradient id="paint20_linear_2007_204" x1="155.879" y1="259.864" x2="152.528" y2="259.864" gradientUnits="userSpaceOnUse">
<stop stop-color="#C6C9D4"/>
<stop offset="1" stop-color="#F4F5F7"/>
</linearGradient>
<linearGradient id="paint21_linear_2007_204" x1="157.533" y1="253.628" x2="150.873" y2="253.628" gradientUnits="userSpaceOnUse">
<stop stop-color="#C6C9D4"/>
<stop offset="1" stop-color="#F4F5F7"/>
</linearGradient>
<linearGradient id="paint22_linear_2007_204" x1="128.589" y1="224.426" x2="163.475" y2="224.426" gradientUnits="userSpaceOnUse">
<stop stop-color="#878AA0"/>
<stop offset="0.99" stop-color="#B7BCBC"/>
</linearGradient>
<linearGradient id="paint23_linear_2007_204" x1="133.719" y1="222.293" x2="187.127" y2="222.293" gradientUnits="userSpaceOnUse">
<stop stop-color="#72758D"/>
<stop offset="0.99" stop-color="#383B5B"/>
</linearGradient>
<linearGradient id="paint24_linear_2007_204" x1="175.348" y1="208.624" x2="167.645" y2="208.929" gradientUnits="userSpaceOnUse">
<stop stop-color="#38ACA8"/>
<stop offset="1" stop-color="#5F637A"/>
</linearGradient>
<linearGradient id="paint25_linear_2007_204" x1="169.67" y1="211.026" x2="147.02" y2="214.459" gradientUnits="userSpaceOnUse">
<stop stop-color="#38ACA8"/>
<stop offset="1" stop-color="#5F637A"/>
</linearGradient>
<linearGradient id="paint26_linear_2007_204" x1="154.339" y1="190.531" x2="167.841" y2="190.531" gradientUnits="userSpaceOnUse">
<stop stop-color="#B26F67"/>
<stop offset="1" stop-color="#E7B8B6"/>
</linearGradient>
<linearGradient id="paint27_linear_2007_204" x1="234.543" y1="301.071" x2="282.16" y2="301.071" gradientUnits="userSpaceOnUse">
<stop stop-color="#B7B2B2"/>
<stop offset="1" stop-color="#D1CECF"/>
</linearGradient>
<linearGradient id="paint28_linear_2007_204" x1="152.427" y1="291.365" x2="234.544" y2="291.365" gradientUnits="userSpaceOnUse">
<stop stop-color="#C6C9D4"/>
<stop offset="1" stop-color="#F4F5F7"/>
</linearGradient>
<linearGradient id="paint29_linear_2007_204" x1="271.382" y1="274.487" x2="173.958" y2="239.711" gradientUnits="userSpaceOnUse">
<stop stop-color="#C6C9D4"/>
<stop offset="1" stop-color="#F4F5F7"/>
</linearGradient>
<linearGradient id="paint30_linear_2007_204" x1="152.484" y1="252.484" x2="282.16" y2="252.484" gradientUnits="userSpaceOnUse">
<stop stop-color="#C6C9D4"/>
<stop offset="1" stop-color="#F4F5F7"/>
</linearGradient>
<linearGradient id="paint31_linear_2007_204" x1="220.992" y1="257.65" x2="232.061" y2="257.65" gradientUnits="userSpaceOnUse">
<stop stop-color="#FFAC06"/>
<stop offset="1" stop-color="#F25227"/>
</linearGradient>
<linearGradient id="paint32_linear_2007_204" x1="163.97" y1="236.69" x2="171.651" y2="236.69" gradientUnits="userSpaceOnUse">
<stop stop-color="#B26F67"/>
<stop offset="1" stop-color="#E7B8B6"/>
</linearGradient>
<linearGradient id="paint33_linear_2007_204" x1="154.148" y1="220.095" x2="143.7" y2="223.222" gradientUnits="userSpaceOnUse">
<stop stop-color="#38ACA8"/>
<stop offset="1" stop-color="#5F637A"/>
</linearGradient>
<linearGradient id="paint34_linear_2007_204" x1="174.737" y1="329.501" x2="201.278" y2="329.501" gradientUnits="userSpaceOnUse">
<stop stop-color="#454C5B"/>
<stop offset="1" stop-color="#7D838C"/>
</linearGradient>
<linearGradient id="paint35_linear_2007_204" x1="174.739" y1="328.589" x2="201.338" y2="328.589" gradientUnits="userSpaceOnUse">
<stop stop-color="#DADCDE"/>
<stop offset="1" stop-color="#A4A8AF"/>
</linearGradient>
<linearGradient id="paint36_linear_2007_204" x1="184.25" y1="326.245" x2="190.278" y2="326.245" gradientUnits="userSpaceOnUse">
<stop stop-color="#DADCDE"/>
<stop offset="1" stop-color="#A4A8AF"/>
</linearGradient>
<linearGradient id="paint37_linear_2007_204" x1="184.25" y1="324.244" x2="190.278" y2="324.244" gradientUnits="userSpaceOnUse">
<stop stop-color="#454C5B"/>
<stop offset="1" stop-color="#7D838C"/>
</linearGradient>
<linearGradient id="paint38_linear_2007_204" x1="185.157" y1="321.314" x2="189.37" y2="321.314" gradientUnits="userSpaceOnUse">
<stop stop-color="#DADCDE"/>
<stop offset="1" stop-color="#A4A8AF"/>
</linearGradient>
<linearGradient id="paint39_linear_2007_204" x1="185.157" y1="317.263" x2="189.37" y2="317.263" gradientUnits="userSpaceOnUse">
<stop stop-color="#DADCDE"/>
<stop offset="1" stop-color="#A4A8AF"/>
</linearGradient>
<linearGradient id="paint40_linear_2007_204" x1="184.25" y1="314.783" x2="190.278" y2="314.783" gradientUnits="userSpaceOnUse">
<stop stop-color="#DADCDE"/>
<stop offset="1" stop-color="#A4A8AF"/>
</linearGradient>
<linearGradient id="paint41_linear_2007_204" x1="184.25" y1="308.986" x2="190.278" y2="308.986" gradientUnits="userSpaceOnUse">
<stop stop-color="#DADCDE"/>
<stop offset="1" stop-color="#A4A8AF"/>
</linearGradient>
<linearGradient id="paint42_linear_2007_204" x1="202.443" y1="314.01" x2="211.96" y2="314.01" gradientUnits="userSpaceOnUse">
<stop stop-color="#3A4151"/>
<stop offset="1" stop-color="#272735"/>
</linearGradient>
<linearGradient id="paint43_linear_2007_204" x1="213.734" y1="318.44" x2="231.757" y2="318.44" gradientUnits="userSpaceOnUse">
<stop stop-color="#3A4151"/>
<stop offset="1" stop-color="#272735"/>
</linearGradient>
<linearGradient id="paint44_linear_2007_204" x1="192.536" y1="298.772" x2="210.775" y2="298.772" gradientUnits="userSpaceOnUse">
<stop stop-color="#3A4151"/>
<stop offset="1" stop-color="#272735"/>
</linearGradient>
<linearGradient id="paint45_linear_2007_204" x1="186.755" y1="300.405" x2="211.418" y2="300.405" gradientUnits="userSpaceOnUse">
<stop stop-color="#454C5B"/>
<stop offset="1" stop-color="#7D838C"/>
</linearGradient>
<linearGradient id="paint46_linear_2007_204" x1="179.033" y1="249.725" x2="191.1" y2="249.725" gradientUnits="userSpaceOnUse">
<stop stop-color="#B26F67"/>
<stop offset="1" stop-color="#E7B8B6"/>
</linearGradient>
<linearGradient id="paint47_linear_2007_204" x1="175.27" y1="302.469" x2="222.717" y2="302.469" gradientUnits="userSpaceOnUse">
<stop stop-color="#3A4151"/>
<stop offset="1" stop-color="#272735"/>
</linearGradient>
<linearGradient id="paint48_linear_2007_204" x1="197.195" y1="267.177" x2="174.144" y2="280.695" gradientUnits="userSpaceOnUse">
<stop stop-color="#FFAC06"/>
<stop offset="1" stop-color="#F66C1E"/>
</linearGradient>
<linearGradient id="paint49_linear_2007_204" x1="170.493" y1="306.45" x2="182.758" y2="273.858" gradientUnits="userSpaceOnUse">
<stop stop-color="#454C5B"/>
<stop offset="1" stop-color="#7D838C"/>
</linearGradient>
<linearGradient id="paint50_linear_2007_204" x1="161.127" y1="291.328" x2="211.82" y2="291.328" gradientUnits="userSpaceOnUse">
<stop stop-color="#DADCDE"/>
<stop offset="1" stop-color="#A4A8AF"/>
</linearGradient>
<linearGradient id="paint51_linear_2007_204" x1="215.771" y1="263.66" x2="221.626" y2="265.151" gradientUnits="userSpaceOnUse">
<stop stop-color="#B26F67"/>
<stop offset="1" stop-color="#E7B8B6"/>
</linearGradient>
<linearGradient id="paint52_linear_2007_204" x1="210.505" y1="263.321" x2="195.523" y2="273.591" gradientUnits="userSpaceOnUse">
<stop stop-color="#FFAC06"/>
<stop offset="1" stop-color="#F66C1E"/>
</linearGradient>
<linearGradient id="paint53_linear_2007_204" x1="127.043" y1="127.788" x2="171.156" y2="127.788" gradientUnits="userSpaceOnUse">
<stop stop-color="#3A4151"/>
<stop offset="1" stop-color="#272735"/>
</linearGradient>
<linearGradient id="paint54_linear_2007_204" x1="149.334" y1="111.183" x2="157.047" y2="153.132" gradientUnits="userSpaceOnUse">
<stop stop-color="#38ACA8"/>
<stop offset="1" stop-color="#5F637A"/>
</linearGradient>
<linearGradient id="paint55_linear_2007_204" x1="137.066" y1="169.947" x2="137.066" y2="156.599" gradientUnits="userSpaceOnUse">
<stop stop-color="#3A4151"/>
<stop offset="1" stop-color="#272735"/>
</linearGradient>
<linearGradient id="paint56_linear_2007_204" x1="290.355" y1="138.354" x2="277.614" y2="164.227" gradientUnits="userSpaceOnUse">
<stop stop-color="#FFAC06"/>
<stop offset="1" stop-color="#F66C1E"/>
</linearGradient>
<linearGradient id="paint57_linear_2007_204" x1="343.034" y1="133.357" x2="381.432" y2="133.357" gradientUnits="userSpaceOnUse">
<stop stop-color="#8CC440"/>
<stop offset="1" stop-color="#5B8222"/>
</linearGradient>
<linearGradient id="paint58_linear_2007_204" x1="353.813" y1="331.659" x2="337.72" y2="221.373" gradientUnits="userSpaceOnUse">
<stop stop-color="#3A4151"/>
<stop offset="1" stop-color="#272735"/>
</linearGradient>
<linearGradient id="paint59_linear_2007_204" x1="361.646" y1="303.819" x2="375.806" y2="363.211" gradientUnits="userSpaceOnUse">
<stop stop-color="#38ACA8"/>
<stop offset="1" stop-color="#5F637A"/>
</linearGradient>
<linearGradient id="paint60_linear_2007_204" x1="344.263" y1="277.254" x2="370.066" y2="277.254" gradientUnits="userSpaceOnUse">
<stop stop-color="#38ACA8"/>
<stop offset="1" stop-color="#96D6C4"/>
</linearGradient>
<linearGradient id="paint61_linear_2007_204" x1="331.571" y1="321.368" x2="313.925" y2="200.438" gradientUnits="userSpaceOnUse">
<stop stop-color="#3A4151"/>
<stop offset="1" stop-color="#272735"/>
</linearGradient>
<linearGradient id="paint62_linear_2007_204" x1="340.441" y1="308.873" x2="354.602" y2="368.265" gradientUnits="userSpaceOnUse">
<stop stop-color="#38ACA8"/>
<stop offset="1" stop-color="#5F637A"/>
</linearGradient>
<linearGradient id="paint63_linear_2007_204" x1="326.156" y1="302.879" x2="351.961" y2="302.879" gradientUnits="userSpaceOnUse">
<stop stop-color="#38ACA8"/>
<stop offset="1" stop-color="#96D6C4"/>
</linearGradient>
<linearGradient id="paint64_linear_2007_204" x1="317.993" y1="371.023" x2="309.979" y2="316.11" gradientUnits="userSpaceOnUse">
<stop stop-color="#3A4151"/>
<stop offset="1" stop-color="#272735"/>
</linearGradient>
<linearGradient id="paint65_linear_2007_204" x1="319.321" y1="313.909" x2="333.483" y2="373.299" gradientUnits="userSpaceOnUse">
<stop stop-color="#38ACA8"/>
<stop offset="1" stop-color="#5F637A"/>
</linearGradient>
<linearGradient id="paint66_linear_2007_204" x1="307.686" y1="324.231" x2="333.491" y2="324.231" gradientUnits="userSpaceOnUse">
<stop stop-color="#38ACA8"/>
<stop offset="1" stop-color="#96D6C4"/>
</linearGradient>
<linearGradient id="paint67_linear_2007_204" x1="299.362" y1="386.664" x2="295.371" y2="359.308" gradientUnits="userSpaceOnUse">
<stop stop-color="#3A4151"/>
<stop offset="1" stop-color="#272735"/>
</linearGradient>
<linearGradient id="paint68_linear_2007_204" x1="297.806" y1="319.036" x2="311.966" y2="378.428" gradientUnits="userSpaceOnUse">
<stop stop-color="#38ACA8"/>
<stop offset="1" stop-color="#5F637A"/>
</linearGradient>
<linearGradient id="paint69_linear_2007_204" x1="289.655" y1="352.696" x2="315.459" y2="352.696" gradientUnits="userSpaceOnUse">
<stop stop-color="#38ACA8"/>
<stop offset="1" stop-color="#96D6C4"/>
</linearGradient>
<clipPath id="clip0_2007_204">
<rect width="329" height="327" fill="white" transform="translate(56 57)"/>
</clipPath>
</defs>
</svg>
