<svg width="106" height="107" viewBox="0 0 106 107" fill="none" xmlns="http://www.w3.org/2000/svg">
<path d="M92.2773 1H13.5987C6.08835 1 0 7.08835 0 14.5987V93.2773C0 100.788 6.08835 106.876 13.5987 106.876H92.2773C99.7877 106.876 105.876 100.788 105.876 93.2773V14.5987C105.876 7.08835 99.7877 1 92.2773 1Z" fill="#212121"/>
<path d="M53.267 12C76.6102 12 95.534 30.9231 95.534 54.2671C95.534 77.6103 76.6102 96.534 53.267 96.534C29.923 96.534 11 77.6103 11 54.2671C11 30.9231 29.923 12 53.267 12Z" fill="#012169"/>
<path d="M15.4131 35.45L21.8414 32.2344V41.6581H32.1486V32.2481L50.9691 41.6581H57.8662V38.1893L44.2287 31.3705L57.8662 31.37V21.0641H44.1734L57.8853 14.2055V12.252C56.3517 12.0846 54.8101 12.0005 53.2674 12C51.4055 12 49.5715 12.1217 47.773 12.3553L32.1486 20.1703V17.6473C24.9689 21.7975 19.124 27.9987 15.4131 35.45Z" fill="white"/>
<path d="M17.7471 31.351H21.2896L16.2354 33.8805C16.7097 33.02 17.2139 32.1764 17.7471 31.351ZM53.2674 12C53.9488 12 54.6264 12.018 55.3004 12.0496L37.2723 21.0641H32.6803L50.6209 12.0848C51.502 12.0293 52.3846 12.001 53.2674 12ZM19.1615 29.3012C22.1544 25.2207 25.8517 21.7072 30.0793 18.926V23.1133H57.8662V29.3012H30.0793V41.6581H23.8912V29.3012H19.1615ZM57.8853 41.6581L37.2723 31.351H41.8838L57.8662 39.3518V41.6581H57.8853Z" fill="#C8102E"/>
<path d="M81.3457 33.1119L84.2771 30.9773H80.6527L79.5277 27.5281L78.4035 30.9773H74.7783L77.7104 33.1119L76.5912 36.5742L79.5277 34.4357L82.4645 36.5742L81.3457 33.1119Z" fill="white"/>
<path d="M80.7215 32.9222L82.6605 31.5091H80.2645L79.5273 29.2234L78.7904 31.5091H76.3936L78.3295 32.9195L77.5762 35.1947L79.525 33.7896L81.4584 35.1947L80.7215 32.9222Z" fill="#C7202F"/>
<path d="M93.5883 43.8647L94.1385 43.4663C94.0063 42.9653 93.865 42.4676 93.715 41.9735H92.9719L91.9623 38.8997L90.9682 41.9735H87.7451L90.3537 43.8727L89.3613 46.9397L91.9652 45.0438L94.5836 46.9397L93.5883 43.8647Z" fill="white"/>
<path d="M92.9822 43.6721L93.9947 42.9346L93.8736 42.5057H92.6L91.9623 40.5938L91.3408 42.5057H89.3613L90.9625 43.6727L90.3467 45.5801L91.9727 44.4049L93.5986 45.5801L92.9822 43.6721Z" fill="#C7202F"/>
<path d="M66.8225 47.7187L69.7533 45.5998H66.1346L65.0033 42.1316L63.8875 45.5998H60.2539L63.1969 47.7281L62.0672 51.1765L65.0033 49.0386L67.9398 51.1765L66.8225 47.7187Z" fill="white"/>
<path d="M66.2041 47.5355L68.157 46.1124H65.7406L65.0037 43.8257L64.2668 46.1124H61.8711L63.8113 47.5267L63.0732 49.8175L65.0135 48.403L66.9549 49.8175L66.2041 47.5355Z" fill="#C7202F"/>
<path d="M81.5465 70.8797L84.8094 68.5193H80.7783L79.5277 64.6758L78.2766 68.5193H74.2461L77.5086 70.8793L76.2562 74.7268L79.5277 72.3449L82.7988 74.7268L81.5465 70.8797Z" fill="white"/>
<path d="M80.923 70.6894L83.1938 69.0507H80.391L79.5277 66.3708L78.6496 69.0507H75.8623L78.1174 70.6894L77.2617 73.347L79.5203 71.706L81.7943 73.347L80.923 70.6894Z" fill="#C7202F"/>
</svg>
