<svg width="106" height="107" viewBox="0 0 106 107" fill="none" xmlns="http://www.w3.org/2000/svg">
<path d="M92.2773 1H13.5987C6.08835 1 0 7.08835 0 14.5987V93.2773C0 100.788 6.08835 106.876 13.5987 106.876H92.2773C99.7877 106.876 105.876 100.788 105.876 93.2773V14.5987C105.876 7.08835 99.7877 1 92.2773 1Z" fill="#212121"/>
<path d="M91.4149 47.97C88.1307 29.2359 71.7833 15 52.1103 15C50.1822 15 48.2847 15.1403 46.4304 15.4047C28.0254 18.4947 14 34.5021 14 53.7849C14 75.2816 31.4265 92.71 52.9215 92.71C74.4218 92.71 91.8466 75.2816 91.8466 53.7849C91.8466 51.8082 91.6991 49.8657 91.4149 47.97Z" fill="#00008B"/>
<path fill-rule="evenodd" clip-rule="evenodd" d="M33.3994 57.747L35.3131 63.7237L41.1963 61.4898L37.7124 66.7507L43.1243 69.9468L36.8634 70.4936L37.734 76.7401L33.3994 72.1591L29.0504 76.7401L29.9227 70.4936L23.6582 69.9468L29.0666 66.7507L25.5863 61.4898L31.4713 63.7237L33.3994 57.747ZM84.6466 68.5277L85.5513 71.3659L88.1322 70.3911L87.6628 71.3569L86.706 72.803L86.8445 72.8857C86.2822 73.8827 85.6761 74.8543 85.0279 75.7976L84.6466 75.3948L82.5836 77.571L82.9793 74.6016L80.0098 74.3354L82.5836 72.803L80.9181 70.3083L83.7185 71.3659L84.6466 68.5277ZM84.3192 31.34L82.5836 33.1728L82.9793 30.2033L80.0098 29.9371L82.1645 28.6511C82.9199 29.518 83.6376 30.4119 84.3192 31.34ZM71.5762 42.155L72.5007 45.0129L75.3011 43.9553L73.6374 46.4536L76.2094 47.9842L73.2417 48.2306L73.6374 51.1983L71.5762 49.0256L69.5132 51.1983L69.9287 48.2306L66.9413 47.9842L69.5132 46.4536L67.8675 43.9553L70.6661 45.0129L71.5762 42.155ZM91.3032 51.0886L91.8176 52.3548C91.8355 52.8278 91.8463 53.3062 91.8463 53.7847C91.8463 54.3296 91.8319 54.871 91.8104 55.4088L91.3032 55.0976L89.6772 56.0976L90.1323 54.2271L88.6574 52.9969L90.5855 52.8656L91.3032 51.0886Z" fill="white"/>
<path d="M23.7388 28.036L55.6836 44.0093H62.324V40.7035L28.2659 23.6672C26.6399 24.9982 25.1273 26.4623 23.7388 28.036ZM16.2549 40.6999C17.3803 37.5492 18.9086 34.5573 20.8017 31.7987L54.2717 15.0574C57.0397 15.2013 59.7322 15.6347 62.324 16.3182V17.6599L16.2549 40.6999Z" fill="white"/>
<path d="M20.5645 32.1494H29.6941V44.0094H35.633V32.1494H62.3241V26.2105H35.633V18.9082C33.5479 19.9427 31.5603 21.1628 29.6941 22.554V26.2105H25.4494C23.6328 28.0199 21.9979 30.0127 20.5645 32.1494Z" fill="#FF0000"/>
<path d="M18.0539 36.477L22.7698 34.1173H27.1961L16.7715 39.3368C17.1618 38.362 17.588 37.4087 18.0539 36.477ZM56.1894 15.2051C57.3459 15.322 58.4898 15.4893 59.6121 15.7069L42.5363 24.243H38.1315L56.1894 15.2051ZM62.3244 44.0095L42.5363 34.1173H46.9662L62.3064 41.7973V44.0095H62.3244Z" fill="#FF0000"/>
</svg>
