<svg width="106" height="107" viewBox="0 0 106 107" fill="none" xmlns="http://www.w3.org/2000/svg">
<g clip-path="url(#clip0_8056_6861)">
<path d="M92.3242 0.900391H13.6456C6.13522 0.900391 0.046875 6.98874 0.046875 14.4991V93.1777C0.046875 100.688 6.13522 106.776 13.6456 106.776H92.3242C99.8345 106.776 105.923 100.688 105.923 93.1777V14.4991C105.923 6.98874 99.8345 0.900391 92.3242 0.900391Z" fill="#212121"/>
<path d="M53 15C63.7677 15 73.5192 19.3662 80.5757 26.4243C87.6338 33.4808 92 43.2323 92 54C92 64.7677 87.6338 74.5192 80.5757 81.5757C73.5192 88.6338 63.7677 93 53 93C42.2323 93 32.4808 88.6338 25.4243 81.5757C18.3662 74.5192 14 64.7677 14 54C14 43.2323 18.3662 33.4808 25.4243 26.4243C32.4808 19.3662 42.2323 15 53 15Z" fill="#999999"/>
<path d="M52.9991 17.9677C62.9457 17.9677 71.9583 22.0017 78.4771 28.5205L78.6447 28.7003C85.0645 35.2069 89.03 44.1434 89.03 53.9985C89.03 63.948 84.9944 72.9592 78.4756 79.478L78.2943 79.644C71.7846 86.0668 62.8466 90.0323 52.9991 90.0323C43.0618 90.0323 34.0506 85.9937 27.5288 79.4703C21.0024 72.9592 16.9668 63.948 16.9668 53.9985C16.9668 44.0489 21.0009 35.0393 27.5196 28.5205C34.0384 22.0017 43.0496 17.9677 52.9991 17.9677Z" fill="white"/>
<path d="M65.4727 23.4749C77.4971 28.394 85.9675 40.2068 85.9675 53.9984C85.9675 67.7917 77.4971 79.6059 65.4727 84.5251V23.4749Z" fill="#E1000F"/>
<path d="M40.5291 84.5251V23.4749C28.5046 28.3925 20.0312 40.2037 20.0312 53.9984C20.0312 67.7947 28.5046 79.609 40.5291 84.5251Z" fill="#273375"/>
</g>
<defs>
<clipPath id="clip0_8056_6861">
<rect width="106" height="107" fill="white"/>
</clipPath>
</defs>
</svg>
