<svg width="106" height="107" viewBox="0 0 106 107" fill="none" xmlns="http://www.w3.org/2000/svg">
<g clip-path="url(#clip0_8056_6854)">
<path d="M91.2773 1H12.5987C5.08835 1 -1 7.08835 -1 14.5987V93.2773C-1 100.788 5.08835 106.876 12.5987 106.876H91.2773C98.7877 106.876 104.876 100.788 104.876 93.2773V14.5987C104.876 7.08835 98.7877 1 91.2773 1Z" fill="#212121"/>
<path d="M51 15C61.7683 15 71.519 19.3668 78.5762 26.4238C85.6332 33.481 90 43.2317 90 54C90 64.7683 85.6332 74.5192 78.5762 81.5762C71.519 88.6334 61.7683 93 51 93C40.2328 93 30.4808 88.6334 23.4238 81.5762C16.3666 74.5192 12 64.767 12 54C12 43.2317 16.3666 33.481 23.4238 26.4238C30.4808 19.3668 40.2317 15 51 15Z" fill="#4D4D4D"/>
<path d="M51 18.1515C61.0959 18.1515 70.2371 22.1648 76.8533 28.6515C83.4693 35.1385 87.5625 44.1012 87.5625 54C87.5625 63.8987 83.4693 72.8614 76.8529 79.3481C70.2371 85.8352 61.0959 89.8485 51 89.8485C40.9041 89.8485 31.7629 85.8352 25.1467 79.3486C18.5307 72.8614 14.4375 63.8987 14.4375 54C14.4375 44.1012 18.5307 35.1385 25.1467 28.6515C31.7629 22.1648 40.9041 18.1515 51 18.1515Z" fill="white"/>
<path d="M38.8125 23.6667V84.3334C26.9073 79.5094 18.5 67.7469 18.5 53.9999C18.5 40.2531 26.9073 28.4911 38.8125 23.6667Z" fill="#169B62"/>
<path d="M63.1875 23.6466V84.3536C59.4198 85.8643 55.3065 86.697 50.998 86.697C46.6908 86.697 42.5793 85.8652 38.8125 84.3554V23.6448C42.5793 22.1354 46.6908 21.303 50.998 21.303C55.3065 21.303 59.4198 22.1358 63.1875 23.6466Z" fill="white"/>
<path d="M63.1875 84.3334V23.6667C75.0923 28.4923 83.5 40.2537 83.5 53.9999C83.5 67.7459 75.0923 79.5077 63.1875 84.3334Z" fill="#FF883E"/>
</g>
<defs>
<clipPath id="clip0_8056_6854">
<rect width="106" height="107" fill="white"/>
</clipPath>
</defs>
</svg>
