<svg width="106" height="107" viewBox="0 0 106 107" fill="none" xmlns="http://www.w3.org/2000/svg">
<path d="M92.2773 1H13.5987C6.08835 1 0 7.08835 0 14.5987V93.2773C0 100.788 6.08835 106.876 13.5987 106.876H92.2773C99.7877 106.876 105.876 100.788 105.876 93.2773V14.5987C105.876 7.08835 99.7877 1 92.2773 1Z" fill="#212121"/>
<path d="M52.8559 15C74.3136 15 91.71 32.3964 91.71 53.8541C91.71 75.3136 74.3136 92.7118 52.8559 92.7118C31.3964 92.7118 14 75.3136 14 53.8541C14 32.3964 31.3964 15 52.8559 15Z" fill="black"/>
<path d="M89.4064 40.6538H16.3036C14.8134 44.7762 14 49.22 14 53.8542C14 75.3137 31.3964 92.7119 52.8559 92.7119C74.3136 92.7119 91.71 75.3137 91.71 53.8542C91.71 49.22 90.8966 44.7762 89.4064 40.6538Z" fill="#DD0000"/>
<path d="M89.4065 67.0615H16.3037C21.7099 82.0214 36.0342 92.7117 52.856 92.7117C69.6778 92.7117 84.0021 82.0214 89.4065 67.0615Z" fill="#FFCE00"/>
</svg>
