<svg width="106" height="107" viewBox="0 0 106 107" fill="none" xmlns="http://www.w3.org/2000/svg">
<g clip-path="url(#clip0_8056_6868)">
<path d="M92.3242 0.900391H13.6456C6.13522 0.900391 0.046875 6.98874 0.046875 14.4991V93.1777C0.046875 100.688 6.13522 106.776 13.6456 106.776H92.3242C99.8345 106.776 105.923 100.688 105.923 93.1777V14.4991C105.923 6.98874 99.8345 0.900391 92.3242 0.900391Z" fill="#212121"/>
<path d="M52.9999 14.999C63.7682 14.999 73.5191 19.3658 80.5761 26.4229C87.6332 33.4799 92 43.2308 92 53.999C92 64.7673 87.6332 74.5181 80.5761 81.5751C73.5191 88.6323 63.7682 92.999 52.9999 92.999C42.2329 92.999 32.4809 88.6323 25.4238 81.5751C18.3666 74.5181 14 64.766 14 53.999C14 43.2308 18.3666 33.4799 25.4238 26.4229C32.4809 19.3658 42.2317 14.999 52.9999 14.999Z" fill="#4D4D4D"/>
<path d="M53.0012 17.9845C62.9458 17.9845 71.95 22.0164 78.4673 28.5332C84.9841 35.0503 89.016 44.0545 89.016 53.9992C89.016 63.9438 84.9841 72.9481 78.4668 79.4649C71.95 85.982 62.9458 90.014 53.0012 90.014C43.0564 90.014 34.0521 85.982 27.535 79.4653C21.0182 72.9481 16.9863 63.9438 16.9863 53.9992C16.9863 44.0545 21.0182 35.0503 27.535 28.5332C34.0521 22.0164 43.0564 17.9845 53.0012 17.9845Z" fill="white"/>
<path d="M83.8737 42.4149H22.127C26.8168 29.922 38.869 21.0311 53.0004 21.0311C67.1312 21.0311 79.1838 29.922 83.8737 42.4149Z" fill="#00732F"/>
<path d="M21.8418 64.7903H84.1605C79.691 77.6979 67.4292 86.9675 53.0012 86.9675C38.5726 86.9675 26.3117 77.6979 21.8418 64.7903Z" fill="black"/>
<path d="M38.8161 24.2309V83.7675C27.7071 78.4651 20.0312 67.1289 20.0312 53.9992C20.0312 40.8691 27.7071 29.5334 38.8161 24.2309Z" fill="#FF0000"/>
</g>
<defs>
<clipPath id="clip0_8056_6868">
<rect width="106" height="107" fill="white"/>
</clipPath>
</defs>
</svg>
