<svg width="106" height="107" viewBox="0 0 106 107" fill="none" xmlns="http://www.w3.org/2000/svg">
<path d="M92.2773 1H13.5987C6.08835 1 0 7.08835 0 14.5987V93.2773C0 100.788 6.08835 106.876 13.5987 106.876H92.2773C99.7877 106.876 105.876 100.788 105.876 93.2773V14.5987C105.876 7.08835 99.7877 1 92.2773 1Z" fill="#212121"/>
<path d="M53 15C63.7681 15 73.519 19.3668 80.576 26.4238C87.6332 33.481 92 43.2317 92 54C92 64.7683 87.6332 74.519 80.576 81.5762C73.519 88.6334 63.7681 93 53 93C42.2328 93 32.4808 88.6334 25.4238 81.5762C18.3668 74.519 14 64.767 14 54C14 43.2317 18.3668 33.481 25.4238 26.4238C32.4808 19.3668 42.2317 15 53 15Z" fill="#4D4D4D"/>
<path d="M53.0001 18C62.9407 18 71.9413 22.0304 78.4557 28.5444C84.9699 35.059 89 44.0594 89 54C89 63.9406 84.9699 72.9412 78.4553 79.4553C71.9413 85.9697 62.9407 90 53.0001 90C43.0595 90 34.0589 85.9697 27.5444 79.4558C21.0303 72.9412 17 63.9406 17 54C17 44.0594 21.0303 35.059 27.5444 28.5444C34.0589 22.0304 43.0595 18 53.0001 18Z" fill="white"/>
<path d="M20.0897 56H85.9103C85.9689 55.2066 86 54.4057 86 53.5977C86 35.5942 71.2254 21 53 21C34.7742 21 20 35.5942 20 53.5977C20 54.4057 20.0311 55.2066 20.0897 56Z" fill="#ED2939"/>
<path d="M48.4009 52.2977C47.0892 52.7639 45.7092 53.0014 44.3193 53C37.5112 53 32 47.408 32 40.5001C32 33.5921 37.5112 28 44.3193 28C45.7466 28 47.1181 28.2481 48.3942 28.7023C42.1922 28.9493 37.2204 34.1307 37.2204 40.5001C37.2204 46.8554 42.1803 52.054 48.4009 52.2977ZM56.502 48.7062L54.8298 47.408L53.1577 48.7062L53.8064 46.6117L52.1343 45.3126L54.1984 45.3305L54.8298 43.2181L55.4786 45.3305L57.5429 45.3126L55.8706 46.6117L56.502 48.7062ZM48.2951 48.7062L46.623 47.408L44.9507 48.7062L45.5988 46.6117L43.9099 45.3126L45.9916 45.3305L46.623 43.2181L47.2544 45.3305L49.3186 45.3126L47.6465 46.6117L48.2951 48.7062ZM52.407 35.86L50.7347 34.5617L49.0626 35.86L49.7113 33.7655L48.0216 32.4666H50.1035L50.7347 30.372L51.366 32.4666H53.4478L51.7589 33.7478L52.407 35.86ZM58.959 40.7944L57.287 39.4956L55.6146 40.7944L56.2635 38.6992L54.5911 37.401L56.6555 37.4179L57.287 35.3058L57.9355 37.4179L60 37.401L58.3277 38.6992L58.959 40.7944ZM45.8381 40.7944L44.1659 39.4956L42.4937 40.7944L43.1419 38.6992L41.4529 37.401L43.5346 37.4179L44.1659 35.3058L44.7971 37.4179L46.8615 37.401L45.1894 38.6992L45.8381 40.7944Z" fill="white"/>
</svg>
