<svg width="106" height="107" viewBox="0 0 106 107" fill="none" xmlns="http://www.w3.org/2000/svg">
<rect x="0.0477295" y="0.900391" width="105.876" height="105.876" rx="13.5987" fill="#212121"/>
<g clip-path="url(#clip0_2007_205)">
<path fill-rule="evenodd" clip-rule="evenodd" d="M52.4079 69.6152C53.5019 77.1405 51.8197 83.2177 47.3172 89.453C46.3054 90.8505 45.2366 91.9762 43.9972 93.1777C43.9909 91.5145 42.9285 90.7999 41.3285 90.4332C47.9116 83.926 50.6245 76.7484 51.4909 69.6152H49.9985C45.0722 69.1283 39.6717 77.4251 33.3352 79.6827C36.3517 73.8901 32.9811 73.1059 25.3293 75.6797C31.0523 68.85 31.6088 66.3268 25.3293 67.2374C28.5734 64.7838 31.5899 63.3736 34.4229 62.7981C28.5228 60.9199 23.2741 57.758 18.8411 52.9519C27.1632 52.6484 25.1206 47.0265 17.5447 38.5589C27.6185 43.6243 32.9305 44.263 31.2863 38.4514C34.2648 40.4624 38.0844 44.3136 42.1064 48.6264C40.557 40.7217 39.3934 33.2343 39.9436 27.6314C43.8581 33.5315 48.076 27.5618 52.2118 15.4707C55.6962 26.4994 59.4399 32.6209 64.1765 28.1689C64.7899 33.0762 64.1322 38.325 62.4437 43.8583L62.3362 48.0763C66.2633 43.8393 70.1209 39.8363 73.2258 38.3123C71.2971 44.693 78.0509 42.4671 86.6829 38.5526C78.5126 47.6842 77.8675 52.5029 85.0577 52.8381C82.0665 57.4924 76.7925 60.3255 70.6647 62.4693C73.3333 63.2345 76.002 64.6763 78.6706 66.9086C73.15 66.4533 74.3072 70.0705 78.8287 75.8884C71.9231 73.8648 68.4008 74.415 70.5825 79.6827C62.4184 72.853 56.5942 69.5456 53.0276 69.6152H52.4079Z" fill="#FF0202"/>
</g>
<defs>
<clipPath id="clip0_2007_205">
<rect width="69.1509" height="77.707" fill="white" transform="translate(17.5317 15.4707)"/>
</clipPath>
</defs>
</svg>
