<svg width="220" height="214" viewBox="0 0 220 214" fill="none" xmlns="http://www.w3.org/2000/svg">
<path d="M114.452 213.129C172.501 213.129 219.558 206.142 219.558 197.524C219.558 188.906 172.501 181.919 114.452 181.919C56.4038 181.919 9.34619 188.906 9.34619 197.524C9.34619 206.142 56.4038 213.129 114.452 213.129Z" fill="#D8EFEB"/>
<path d="M211.748 95.2956C212.035 96.0766 212.327 96.8465 212.6 97.6217C213.541 100.286 214.175 103.011 214.543 105.791C214.859 108.186 215.02 110.588 214.919 112.996C214.697 118.247 213.697 123.372 211.724 128.314C210.38 131.681 209.13 135.084 207.426 138.324C204.984 142.966 201.829 147.17 198.089 151.009C188.241 161.116 176.106 167.861 161.933 171.601C157.849 172.679 153.7 173.513 149.487 174.016C147.188 174.291 144.864 174.495 142.548 174.53C138.463 174.59 134.477 173.93 130.562 172.852C124.986 171.316 119.905 168.892 115.313 165.653C111.26 162.794 107.327 159.791 103.36 156.831C99.4649 153.923 95.5873 150.998 91.4074 148.43C85.4013 144.74 78.8395 142.279 71.7471 141.038C68.7328 140.51 65.6873 140.126 62.647 139.736C60.3256 139.438 57.9927 139.211 55.6598 138.996C53.7466 138.82 51.8255 138.717 49.9097 138.565C48.0408 138.416 46.1718 138.264 44.3061 138.083C42.1848 137.877 40.0615 137.674 37.9491 137.405C33.8479 136.882 29.8385 136.017 25.9782 134.611C20.629 132.664 16.839 129.213 14.3836 124.502C12.3578 120.615 11.5998 116.492 11.9558 112.21C12.1675 109.665 12.976 107.236 13.9592 104.857C15.3094 101.591 17.2847 98.6435 19.5994 95.8936C22.1215 92.8965 24.7385 89.9673 27.3122 87.0072C29.7488 84.2046 31.9107 81.2498 33.4059 77.916C34.5637 75.3339 35.1382 72.6544 35.0152 69.8659C34.8968 67.1926 34.388 64.573 33.5242 62.0175C32.8011 59.8785 32.2465 57.7078 31.9571 55.4849C31.6094 52.8157 31.782 50.1695 32.4232 47.5452C34.7081 38.1876 39.3791 29.9826 46.5295 22.9652C52.3479 17.2552 59.1688 12.7902 66.7596 9.28173C74.0518 5.91143 81.736 3.58688 89.7257 2.07246C93.219 1.41039 96.741 0.91514 100.286 0.572115C105.428 0.0742585 110.59 -0.11133 115.755 0.0653961C119.059 0.178522 122.366 0.384964 125.651 0.714435C134.445 1.59702 143.042 3.33978 151.432 5.92237C164.892 10.0653 177.242 16.0682 188.213 24.366C195.561 29.9243 201.912 36.3036 206.965 43.7297C210.828 49.4069 213.735 55.4604 215.437 61.9794C216.102 64.5307 216.55 67.1133 216.805 69.7288C217.065 72.3916 217.117 75.0535 216.889 77.7148C216.497 82.2784 215.493 86.7268 213.706 91.012C213.197 92.235 212.61 93.4314 212.058 94.6398C211.958 94.8572 211.854 95.0725 211.748 95.2956Z" fill="#D8EFEB"/>
<path d="M80.884 177.764C84.2262 177.764 87.5683 177.763 90.9105 177.764C91.8108 177.765 92.1085 177.988 92.1716 178.871C92.367 181.606 92.2023 184.3 91.0101 186.829C89.2605 190.539 86.3547 192.608 82.2322 192.898C80.5582 193.016 78.8869 192.997 77.2614 192.533C73.7754 191.537 71.5676 189.191 70.3399 185.851C69.657 183.993 69.4584 182.059 69.5241 180.091C69.5371 179.7 69.5324 179.308 69.5689 178.92C69.6372 178.197 69.9343 177.66 70.6626 177.654C72.4205 177.636 80.884 177.805 80.884 177.764Z" fill="#110930"/>
<path d="M77.977 134.368C81.0366 134.364 83.8047 135.216 86.1282 137.264C87.4873 138.461 88.4194 139.976 89.1576 141.617C89.3088 141.954 89.4824 142.281 89.62 142.623C90.1022 143.819 91.0057 144.593 92.1197 145.165C92.7573 145.492 93.4069 145.798 94.0272 146.156C96.8418 147.777 98.8864 150.072 99.9389 153.164C100.938 156.099 100.745 158.97 99.2998 161.746C98.4688 163.342 97.4429 164.791 96.1198 166.004C95.5015 166.571 94.7972 167.065 94.0731 167.493C92.8209 168.233 91.5176 168.897 90.0793 169.201C88.6743 169.498 87.564 170.188 86.7163 171.359C85.9192 172.46 84.9167 173.358 83.7312 174.04C81.4494 175.353 79.0618 175.566 76.584 174.697C75.202 174.212 73.9581 173.455 72.7247 172.678C72.0642 172.261 71.3917 171.855 70.69 171.517C70.0889 171.228 69.4519 170.987 68.806 170.821C66.3793 170.193 64.1115 169.254 62.1921 167.596C60.2726 165.937 59.084 163.865 58.7842 161.337C58.5574 159.421 58.9317 157.58 59.6569 155.8C60.5749 153.547 62.0169 151.661 63.7033 149.941C64.0073 149.631 64.3143 149.323 64.6355 149.031C66.177 147.628 67.1216 145.875 67.6997 143.896C68.1194 142.458 68.4885 140.995 69.2163 139.675C71.0169 136.407 73.7329 134.541 77.5208 134.369C77.6725 134.361 77.8247 134.368 77.977 134.368Z" fill="#D1BAF7"/>
<path d="M81.4138 178.179H80.8309C80.8017 178.096 80.7642 178.037 80.7632 177.978C80.7559 177.436 80.7538 176.893 80.7527 176.35C80.7486 173.787 80.7366 171.225 80.7481 168.663C80.7501 168.151 80.6662 167.67 80.4608 167.211C80.0782 166.355 79.5798 165.568 78.9657 164.858C77.9538 163.688 76.7678 162.701 75.6063 161.69C73.9016 160.207 72.2099 158.707 70.8613 156.88C70.2321 156.026 69.6951 155.105 69.1238 154.209C69.0727 154.129 69.0779 154.013 69.0586 153.924C69.2989 153.729 69.4558 153.842 69.5757 154.012C69.7754 154.296 69.9636 154.588 70.1435 154.885C71.061 156.397 72.1875 157.74 73.4585 158.967C73.8646 159.358 74.2718 159.749 74.7321 160.193C74.6252 159.61 74.4897 159.1 74.4464 158.582C74.387 157.87 74.3823 157.152 74.3849 156.437C74.3854 156.257 74.4042 156.172 74.5006 156.129C74.6883 156.046 74.8989 156.196 74.9078 156.401C74.913 156.525 74.9187 156.648 74.926 156.772C74.9708 157.529 74.9547 158.295 75.0782 159.038C75.2753 160.227 75.8326 161.222 76.7996 162.002C77.9653 162.942 79.071 163.955 79.9504 165.184C80.1756 165.499 80.3758 165.832 80.6725 166.287C80.6725 165.929 80.673 165.717 80.6725 165.504C80.6516 159.859 80.6328 154.213 80.6073 148.568C80.6047 148.048 80.5541 147.529 80.5411 147.01C80.5322 146.658 80.5437 146.658 80.7621 146.295C81.0051 146.235 81.1422 146.352 81.174 146.58C81.2011 146.771 81.1922 146.969 81.1927 147.164C81.1974 150.096 81.2006 153.027 81.2042 155.959C81.2047 156.235 81.2042 156.511 81.3236 156.825C81.4044 156.712 81.481 156.596 81.566 156.487C82.1796 155.702 82.7666 154.893 83.4172 154.139C84.3243 153.088 85.3012 152.097 86.2036 151.043C86.6082 150.57 86.9079 150.006 87.2489 149.48C87.3323 149.35 87.4084 149.216 87.4907 149.069C87.5606 148.944 87.7253 148.91 87.839 148.997L87.8421 149C87.9161 149.057 87.9516 149.152 87.9287 149.242C87.7212 150.054 87.2765 150.714 86.7505 151.316C85.8648 152.328 84.9347 153.301 84.0459 154.31C83.4302 155.009 82.8198 155.718 82.2656 156.466C81.5785 157.393 81.2527 158.428 81.2668 159.621C81.3267 164.632 81.3147 169.643 81.3444 174.654C81.3496 175.556 81.3794 176.458 81.4112 177.36C81.419 177.61 81.4138 177.847 81.4138 178.179Z" fill="#110930"/>
<path d="M59.1023 161.656C59.1002 161.656 59.0986 161.656 59.0965 161.656C58.937 161.663 58.7994 161.545 58.7791 161.387C58.7603 161.246 58.7519 161.109 58.7446 160.97C58.5565 157.43 59.3843 154.179 61.5457 151.324C62.0023 150.721 62.5122 150.155 63.034 149.606C63.841 148.758 64.6929 147.952 65.5009 147.104C65.9935 146.587 66.4387 146.026 66.9074 145.487C67.0179 145.359 67.1373 145.24 67.2442 145.125C67.5424 145.244 67.5168 145.438 67.4 145.614C67.0909 146.082 66.8094 146.58 66.4335 146.99C65.4524 148.061 64.4343 149.098 63.4182 150.136C62.2088 151.372 61.2225 152.755 60.5135 154.338C60.0135 155.454 59.7002 156.618 59.5391 157.826C59.4588 158.426 59.3786 160.451 59.3947 160.86C59.401 161.016 59.3999 161.172 59.3984 161.35C59.3963 161.515 59.2665 161.65 59.1023 161.656Z" fill="#110930"/>
<path d="M87.9596 147.016C87.9143 146.733 88.0206 146.474 88.0915 146.209C88.1192 146.106 88.212 146.033 88.3188 146.033C88.4304 146.033 88.5279 146.111 88.5498 146.22C88.6321 146.63 88.5852 146.893 88.3652 147.132C88.2344 147.274 87.9904 147.207 87.9596 147.016Z" fill="#110930"/>
<path d="M98.6017 44.7446C98.6048 43.8385 98.5725 42.9252 98.6679 42.0275C99.025 38.6655 100.744 35.8098 104.705 34.9413C105.3 34.8109 105.91 34.7541 106.519 34.7484C111.431 34.7004 116.344 34.655 121.256 34.6373C129.628 34.6071 138 34.5925 146.371 34.5805C155.889 34.5664 165.407 34.5628 174.924 34.5534C176.608 34.5518 178.292 34.5211 179.974 34.5456C184.013 34.604 188.053 34.6895 192.092 34.7562C192.826 34.7682 193.56 34.7744 194.294 34.7478C195.95 34.6874 197.51 35.0205 198.931 35.8567C200.879 37.0036 201.985 38.7557 202.372 40.9411C202.555 41.9733 202.605 43.0399 202.611 44.0914C202.65 50.9274 202.557 152.97 202.549 172.436C202.547 176.165 199.78 179.366 196.073 179.779C195.983 179.789 195.892 179.798 195.801 179.805C194.942 179.875 194.079 179.918 193.217 179.921C179.556 179.976 165.896 180.044 152.235 180.063C142.244 180.078 132.253 180.031 122.263 180C117.105 179.985 111.947 179.954 106.789 179.911C105.534 179.901 104.292 179.744 103.111 179.277C100.491 178.243 99.0745 176.224 98.4422 173.565C98.1956 172.529 98.1393 171.477 98.1466 170.416C98.1961 163.424 98.254 156.432 98.2816 149.439C98.3171 140.158 98.5564 56.96 98.6017 44.7446Z" fill="#CECECE"/>
<path d="M92.7731 44.7446C92.7762 43.8385 92.7439 42.9252 92.8393 42.0275C93.1964 38.6655 94.9152 35.8098 98.8761 34.9413C99.4715 34.8109 100.081 34.7541 100.69 34.7484C105.603 34.7004 110.515 34.655 115.427 34.6373C123.799 34.6071 132.171 34.5925 140.543 34.5805C150.06 34.5664 159.578 34.5628 169.096 34.5534C170.779 34.5518 172.463 34.5211 174.146 34.5456C178.185 34.604 182.224 34.6895 186.263 34.7562C186.997 34.7682 187.732 34.7744 188.466 34.7478C190.121 34.6874 191.682 35.0205 193.102 35.8567C195.05 37.0036 196.157 38.7557 196.544 40.9411C196.726 41.9733 196.777 43.0399 196.783 44.0914C196.821 50.9274 196.728 152.97 196.72 172.436C196.719 176.165 193.951 179.366 190.244 179.779C190.154 179.789 190.064 179.798 189.972 179.805C189.114 179.875 188.25 179.918 187.389 179.921C173.728 179.976 160.067 180.044 146.406 180.063C136.416 180.078 126.425 180.031 116.434 180C111.276 179.985 106.118 179.954 100.96 179.911C99.7056 179.901 98.4633 179.744 97.282 179.277C94.6623 178.243 93.2459 176.224 92.6136 173.565C92.367 172.529 92.3107 171.477 92.318 170.416C92.3675 163.424 92.4254 156.432 92.453 149.439C92.4885 140.158 92.7277 56.96 92.7731 44.7446Z" fill="#F7F7F7"/>
<path d="M132.796 32.1383C131.124 29.9967 127.517 30.248 126.161 32.1482C126.35 32.6252 126.554 33.0746 126.702 33.5417C126.777 33.7804 126.768 34.051 126.764 34.307C126.763 34.3867 126.668 34.5108 126.593 34.5316C126.511 34.5541 126.358 34.5082 126.316 34.4415C126.217 34.2804 126.144 34.0958 126.098 33.9113C126.004 33.5344 125.841 33.1945 125.644 32.7925C125.546 32.9156 125.486 32.9724 125.448 33.0412C124.149 35.372 125.01 38.159 127.357 39.2985C127.454 39.3455 127.551 39.3924 127.645 39.4461C127.831 39.5529 127.848 39.7265 127.77 39.8928C127.688 40.0649 127.518 40.1613 127.34 40.0638C126.87 39.8063 126.369 39.5775 125.959 39.2422C123.995 37.6366 123.581 34.8079 124.896 32.5725C124.982 32.4271 125.069 32.2822 125.15 32.1477C123.64 30.1005 120.061 30.138 118.516 32.1305C118.699 32.5965 118.9 33.0454 119.048 33.5104C119.125 33.7497 119.13 34.0187 119.124 34.2731C119.122 34.3679 119.004 34.5259 118.925 34.5358C118.828 34.5473 118.678 34.456 118.621 34.3653C118.533 34.2241 118.499 34.0468 118.45 33.8831C118.34 33.5219 118.223 33.1648 117.967 32.7868C117.695 33.2002 117.547 33.5672 117.42 33.9561C116.694 36.1858 117.839 38.4316 119.744 39.3116C120.16 39.5034 120.256 39.6901 120.118 39.921C119.996 40.1269 119.818 40.1478 119.431 39.9554C117.566 39.028 116.592 37.5146 116.507 35.4372C116.462 34.3523 116.763 33.3556 117.348 32.4422C117.405 32.3515 117.452 32.254 117.503 32.1628C116.075 30.0973 112.361 30.1244 110.879 32.1466C111.067 32.6226 111.271 33.072 111.419 33.5391C111.494 33.7778 111.486 34.0484 111.483 34.3038C111.482 34.3846 111.378 34.529 111.319 34.5301C111.209 34.5316 111.056 34.4779 110.999 34.3945C110.904 34.2579 110.857 34.0828 110.815 33.9175C110.72 33.5417 110.58 33.1893 110.325 32.804C110.206 33.0068 110.099 33.1595 110.02 33.3253C108.949 35.5774 109.814 38.1318 111.957 39.236C112.091 39.3048 112.227 39.371 112.359 39.444C112.547 39.5483 112.565 39.7224 112.489 39.8897C112.411 40.0628 112.24 40.1624 112.062 40.0659C111.591 39.81 111.091 39.5811 110.68 39.2454C108.714 37.6402 108.299 34.8132 109.611 32.5767C109.697 32.4307 109.785 32.2863 109.882 32.1252C109.049 31.1676 108.03 30.6682 106.768 30.6374C104.706 30.5868 103.255 31.5586 102.375 33.3529C101.284 35.5769 102.178 38.1167 104.284 39.2167C104.417 39.2866 104.558 39.346 104.684 39.4257C104.885 39.5519 104.946 39.7448 104.838 39.9137C104.733 40.0763 104.575 40.1582 104.396 40.0565C103.929 39.7922 103.427 39.5655 103.019 39.2282C100.904 37.4807 100.64 34.3544 102.271 32.1232C103.055 31.0493 104.102 30.347 105.368 30.0416C107.166 29.6078 108.774 30.0577 110.138 31.3235C110.201 31.3819 110.263 31.4413 110.369 31.5414C111.426 30.5295 112.682 29.9138 114.155 29.8872C115.647 29.8607 116.922 30.431 118.009 31.5424C119.067 30.5295 120.323 29.9138 121.795 29.8872C123.287 29.8607 124.562 30.431 125.65 31.5424C126.707 30.5295 127.964 29.9138 129.436 29.8872C130.928 29.8601 132.202 30.4305 133.291 31.5424C134.348 30.5295 135.604 29.9138 137.076 29.8872C138.568 29.8601 139.843 30.4299 140.932 31.5424C141.988 30.5279 143.245 29.9144 144.717 29.8872C146.208 29.8596 147.483 30.4299 148.573 31.5424C149.628 30.5279 150.885 29.9144 152.357 29.8872C153.849 29.8596 155.124 30.4294 156.213 31.5419C157.288 30.5144 158.565 29.8956 160.062 29.8867C161.554 29.8779 162.822 30.4643 163.898 31.5893C164.118 31.4241 164.339 31.2651 164.553 31.0977C165.45 30.3981 166.486 30.0535 167.603 30.0181C168.947 29.9753 170.132 30.4445 171.143 31.3365C171.256 31.4361 171.361 31.5435 171.497 31.6727C172.566 30.6442 173.83 30.0395 175.307 30.0165C176.801 29.9931 178.069 30.5795 179.127 31.6628C179.778 31.117 180.445 30.6286 181.247 30.3324C184.013 29.3107 187.114 30.8736 187.836 33.6798C187.899 33.9248 187.896 34.1912 187.89 34.4472C187.888 34.5249 187.786 34.6468 187.711 34.6646C187.628 34.6839 187.478 34.6338 187.436 34.5655C187.339 34.4034 187.275 34.2168 187.221 34.0327C186.981 33.2158 186.613 32.485 185.965 31.9011C185.18 31.1947 184.289 30.8094 183.227 30.7657C181.854 30.7088 180.691 31.1441 179.733 32.1279C179.689 32.1732 179.657 32.2311 179.641 32.254C179.829 32.7341 180.035 33.1825 180.178 33.6501C180.257 33.9097 180.241 34.2006 180.246 34.4779C180.247 34.5405 180.161 34.6495 180.104 34.6583C180.011 34.6719 179.861 34.6521 179.819 34.5895C179.715 34.4321 179.632 34.2496 179.588 34.0661C179.496 33.6876 179.338 33.343 179.128 32.9583C178.718 33.3629 178.592 33.8597 178.47 34.3429C177.929 36.4871 178.988 38.5275 180.822 39.4179C180.919 39.4648 181.014 39.5149 181.11 39.5629C181.303 39.6593 181.323 39.8277 181.27 40.0039C181.217 40.1817 181.005 40.2531 180.787 40.1806C180.685 40.1467 180.588 40.0977 180.492 40.0503C179.068 39.3559 178.156 38.2345 177.776 36.705C177.416 35.2563 177.668 33.8899 178.442 32.6169C178.509 32.5069 178.571 32.3937 178.633 32.2858C177.223 30.2923 173.649 30.2068 171.999 32.2556C172.177 32.7086 172.38 33.1543 172.525 33.6183C172.605 33.8779 172.605 34.1678 172.609 34.4441C172.61 34.5207 172.509 34.6448 172.433 34.6641C172.351 34.6849 172.199 34.6359 172.158 34.5687C172.059 34.407 171.993 34.2204 171.941 34.0369C171.836 33.6678 171.715 33.3092 171.458 32.9557C171.386 33.0495 171.329 33.1079 171.29 33.1767C169.993 35.5143 170.864 38.2981 173.208 39.4315C173.305 39.4784 173.403 39.5248 173.494 39.5795C173.678 39.689 173.693 39.8621 173.612 40.0284C173.527 40.1999 173.369 40.2724 173.177 40.1957C172.653 39.9862 172.173 39.7047 171.742 39.3361C169.823 37.6939 169.43 34.8465 170.78 32.6445C170.848 32.5345 170.914 32.424 170.979 32.3171C169.741 30.3418 166.037 30.1771 164.427 32.2118C164.576 32.62 164.751 33.0339 164.875 33.4624C164.95 33.7252 164.961 34.0108 164.971 34.2871C164.973 34.3695 164.879 34.5207 164.82 34.5254C164.712 34.5337 164.552 34.4894 164.494 34.4086C164.396 34.2746 164.359 34.0963 164.301 33.9347C164.179 33.5943 164.061 33.2534 163.912 32.8301C163.469 33.3404 163.296 33.8769 163.168 34.4258C162.665 36.5914 163.78 38.577 165.559 39.4273C165.656 39.4737 165.752 39.5217 165.846 39.5743C166.033 39.6796 166.052 39.8532 165.975 40.0206C165.896 40.1936 165.737 40.2745 165.545 40.1989C165.02 39.9914 164.54 39.7099 164.109 39.3423C162.185 37.7002 161.79 34.859 163.134 32.6518C163.223 32.5063 163.31 32.3598 163.39 32.2274C162.064 30.2063 158.417 30.0207 156.717 32.1273C156.896 32.5809 157.099 33.0266 157.243 33.4906C157.324 33.7502 157.323 34.04 157.327 34.3163C157.328 34.3924 157.225 34.5165 157.15 34.5353C157.067 34.5556 156.916 34.5056 156.875 34.4378C156.777 34.2757 156.712 34.0896 156.659 33.9055C156.553 33.537 156.434 33.1778 156.175 32.8259C156.103 32.9208 156.046 32.9797 156.007 33.049C154.71 35.3892 155.586 38.1725 157.928 39.3027C158.025 39.3496 158.122 39.396 158.214 39.4513C158.397 39.5618 158.412 39.7349 158.329 39.9007C158.244 40.0717 158.085 40.1426 157.894 40.0659C157.37 39.8558 156.89 39.5748 156.459 39.2058C154.542 37.5636 154.148 34.7151 155.5 32.5136C155.567 32.4036 155.634 32.2931 155.699 32.1862C154.46 30.2193 150.73 30.0077 149.081 32.1331C149.266 32.6033 149.471 33.0516 149.613 33.5187C149.693 33.7783 149.678 34.0692 149.683 34.3461C149.684 34.4091 149.6 34.5191 149.543 34.528C149.45 34.5426 149.299 34.5238 149.258 34.4618C149.153 34.3049 149.069 34.1229 149.025 33.9389C148.933 33.5604 148.775 33.2158 148.562 32.8191C148.459 32.9479 148.371 33.0297 148.318 33.1298C147.101 35.4585 147.961 38.1527 150.256 39.2871C150.371 39.3444 150.521 39.3788 150.59 39.4721C150.668 39.5774 150.727 39.7505 150.697 39.8694C150.652 40.0503 150.478 40.1337 150.284 40.0774C150.161 40.0419 150.046 39.9783 149.93 39.9215C148.486 39.2136 147.57 38.0766 147.2 36.5142C146.861 35.0821 147.118 33.7413 147.876 32.4891C147.921 32.4156 147.965 32.3416 148.007 32.2665C148.029 32.229 148.045 32.1894 148.064 32.1503C146.671 30.1698 143.096 30.0692 141.436 32.1237C141.613 32.5767 141.815 33.0224 141.959 33.4859C142.04 33.7455 142.04 34.0348 142.045 34.3116C142.046 34.3888 141.946 34.5139 141.871 34.5337C141.789 34.5551 141.636 34.5077 141.595 34.4409C141.496 34.2793 141.428 34.0937 141.377 33.9097C141.274 33.5385 141.148 33.182 140.911 32.8478C140.845 32.9062 140.785 32.9375 140.756 32.9875C139.421 35.3381 140.27 38.149 142.641 39.3006C142.738 39.3476 142.835 39.3939 142.928 39.4482C143.112 39.5566 143.129 39.7297 143.048 39.896C142.966 40.0675 142.796 40.1613 142.617 40.0633C142.148 39.8047 141.647 39.5764 141.237 39.2407C139.274 37.6345 138.862 34.8043 140.178 32.5705C140.264 32.425 140.351 32.2806 140.43 32.1471C138.907 30.0932 135.328 30.1463 133.797 32.132C133.98 32.5996 134.185 33.048 134.328 33.5146C134.408 33.7742 134.395 34.0645 134.401 34.3419C134.402 34.406 134.321 34.517 134.264 34.5269C134.171 34.5431 134.019 34.5259 133.978 34.4649C133.872 34.3085 133.805 34.1235 133.738 33.9441C133.606 33.586 133.484 33.2242 133.327 32.7758C132.994 33.0876 132.865 33.4061 132.766 33.7116C132.202 35.4424 132.442 37.0308 133.73 38.3711C134.066 38.7209 134.511 38.968 134.912 39.2527C135.034 39.3392 135.21 39.3658 135.302 39.4711C135.386 39.567 135.442 39.7453 135.414 39.8652C135.372 40.0492 135.198 40.128 135.004 40.079C134.9 40.0529 134.802 40.0034 134.705 39.9549C132.842 39.0233 131.869 37.5104 131.785 35.433C131.741 34.3481 132.042 33.3514 132.628 32.4386C132.689 32.3473 132.735 32.2493 132.796 32.1383Z" fill="#110930"/>
<path d="M138.448 180.051C128.191 180.051 117.934 180.053 107.677 180.046C107.273 180.046 106.867 179.988 106.468 179.926C106.382 179.913 106.262 179.764 106.259 179.674C106.256 179.583 106.365 179.426 106.45 179.407C106.739 179.34 107.038 179.288 107.334 179.288C111.828 179.28 116.322 179.282 120.816 179.283C128.729 179.284 136.644 179.201 144.555 179.311C152.83 179.426 161.104 179.333 169.378 179.396C169.507 179.397 169.637 179.394 169.765 179.405C169.957 179.42 170.091 179.516 170.113 179.717C170.133 179.902 169.987 180.041 169.735 180.063C169.542 180.081 169.348 180.072 169.154 180.072C161.284 180.07 153.414 180.067 145.544 180.065C143.179 180.064 140.814 180.065 138.448 180.065C138.448 180.059 138.448 180.055 138.448 180.051Z" fill="#110930"/>
<path d="M92.6444 55.9961C93.0964 56.3235 93.037 56.7166 93.0854 57.0585C93.1245 57.3328 93.0979 57.6163 93.0979 57.8963C93.0948 66.0674 93.1772 74.2395 93.0635 82.4085C92.9473 90.7689 93.0385 99.1287 92.9687 107.488C92.9666 107.716 92.9134 107.952 92.8342 108.166C92.8044 108.245 92.622 108.325 92.5276 108.307C92.4395 108.29 92.3384 108.154 92.3108 108.052C92.2722 107.911 92.2956 107.754 92.2956 107.603C92.3055 91.2829 92.3144 74.9626 92.3306 58.6423C92.3311 57.9588 92.39 57.2744 92.4447 56.5925C92.4588 56.4137 92.5589 56.2427 92.6444 55.9961Z" fill="#110930"/>
<path d="M180.029 34.6347C182.609 34.6347 185.189 34.5883 187.767 34.6509C189.547 34.6941 191.283 35.032 192.891 35.8796C194.828 36.8998 196.022 38.4784 196.591 40.5741C196.894 41.6897 196.853 42.822 196.853 43.9558C196.853 43.9772 196.853 43.9991 196.85 44.02C196.816 44.3338 196.667 44.5741 196.506 44.5778C196.346 44.5809 196.198 44.3427 196.189 44.0127C196.178 43.5617 196.191 43.1097 196.189 42.6588C196.179 40.9306 195.655 39.3724 194.563 38.0347C193.904 37.2272 193.036 36.6559 192.091 36.231C191.231 35.8447 190.31 35.6794 189.376 35.5277C188.033 35.3093 186.692 35.2968 185.344 35.2968C180.938 35.2984 176.531 35.2978 172.125 35.2973C171.931 35.2973 171.735 35.3093 171.547 35.2749C171.46 35.2593 171.345 35.1571 171.325 35.0742C171.305 34.9939 171.366 34.8599 171.435 34.8005C171.526 34.7223 171.656 34.6717 171.776 34.6509C171.922 34.6259 172.075 34.6436 172.226 34.6436C174.827 34.6436 177.428 34.6436 180.028 34.6436C180.03 34.641 180.029 34.6378 180.029 34.6347Z" fill="#110930"/>
<path d="M196.065 66.5813C196.065 63.6813 195.984 60.7786 196.085 57.8816C196.211 54.2976 196.121 50.7146 196.187 47.1321C196.191 46.9246 196.238 46.7072 196.315 46.5149C196.395 46.3152 196.686 46.3183 196.765 46.5222C196.832 46.6942 196.846 46.8954 196.847 47.0842C196.852 48.3301 196.849 49.576 196.847 50.822C196.84 54.9034 196.913 58.9873 196.804 63.0661C196.693 67.1871 196.766 71.3065 196.703 75.4265C196.7 75.5949 196.679 75.7674 196.635 75.9296C196.595 76.0755 196.503 76.2424 196.322 76.1662C196.207 76.1178 196.098 75.9801 196.054 75.8576C196.007 75.7231 196.037 75.5605 196.037 75.4103C196.036 72.4675 196.036 69.5242 196.036 66.5813C196.046 66.5813 196.055 66.5813 196.065 66.5813Z" fill="#110930"/>
<path d="M196.708 138.664C196.827 138.858 196.937 138.967 196.959 139.09C196.995 139.3 196.978 139.519 196.978 139.734C196.976 145.646 196.973 151.558 196.971 157.47C196.97 160.48 196.972 163.489 196.971 166.499C196.971 166.671 197.004 166.856 196.951 167.01C196.911 167.125 196.759 167.271 196.652 167.274C196.545 167.278 196.396 167.143 196.333 167.031C196.277 166.931 196.312 166.78 196.312 166.651C196.315 160.33 196.26 154.009 196.352 147.69C196.392 144.986 196.371 142.28 196.442 139.576C196.452 139.19 196.451 139.19 196.708 138.664Z" fill="#110930"/>
<path d="M92.8529 166.449C92.8529 168.04 92.8571 169.631 92.8514 171.221C92.8477 172.239 93.0781 173.217 93.4024 174.165C93.8163 175.377 94.4899 176.444 95.4506 177.308C96.5954 178.338 97.9206 178.981 99.4627 179.148C99.8229 179.187 100.183 179.229 100.543 179.266C100.849 179.298 101.007 179.419 100.979 179.624C100.947 179.863 100.771 179.944 100.561 179.93C100.028 179.895 99.4893 179.883 98.9664 179.789C97.2075 179.474 95.6811 178.69 94.4763 177.359C93.4535 176.229 92.7851 174.896 92.4468 173.406C92.2763 172.655 92.2299 171.888 92.1512 171.123C92.0162 169.814 92.0178 168.502 92.0913 167.202C92.2091 165.119 92.1194 163.039 92.1737 160.958C92.1789 160.763 92.0866 160.502 92.4036 160.441C92.6157 160.4 92.7278 160.519 92.807 160.907C92.8451 161.094 92.8435 161.291 92.8441 161.483C92.8467 163.138 92.8456 164.793 92.8456 166.449C92.8472 166.449 92.8503 166.449 92.8529 166.449Z" fill="#110930"/>
<path d="M196.29 170.087C196.319 169.689 196.318 169.41 196.366 169.14C196.394 168.981 196.469 168.816 196.697 168.814C196.931 168.813 196.991 168.966 197.001 169.143C197.032 169.692 197.051 170.241 197.067 170.791C197.069 170.848 197.033 170.923 196.99 170.962C196.904 171.04 196.801 171.15 196.704 171.15C196.608 171.151 196.444 171.049 196.425 170.966C196.35 170.641 196.32 170.303 196.29 170.087Z" fill="#110930"/>
<path d="M120.895 47.8897L120.883 47.8555L120.916 47.8605L120.895 47.8897Z" fill="#110930"/>
<path d="M127.944 80.511H111.418V63.9854H127.944V80.511ZM112.044 79.8855H127.319V64.6109H112.044V79.8855Z" fill="#A1BDE4"/>
<path d="M179.632 64.6119H135.972C135.799 64.6119 135.659 64.4717 135.659 64.2991C135.659 64.126 135.799 63.9863 135.972 63.9863H179.632C179.805 63.9863 179.945 64.126 179.945 64.2991C179.945 64.4722 179.805 64.6119 179.632 64.6119Z" fill="#A1BDE4"/>
<path d="M179.632 72.3453H135.972C135.799 72.3453 135.659 72.2051 135.659 72.0325C135.659 71.8594 135.799 71.7197 135.972 71.7197H179.632C179.805 71.7197 179.945 71.8594 179.945 72.0325C179.945 72.2051 179.805 72.3453 179.632 72.3453Z" fill="#A1BDE4"/>
<path d="M171.943 76.2115H135.972C135.799 76.2115 135.659 76.0713 135.659 75.8987C135.659 75.7256 135.799 75.5859 135.972 75.5859H171.943C172.115 75.5859 172.256 75.7256 172.256 75.8987C172.256 76.0718 172.115 76.2115 171.943 76.2115Z" fill="#A1BDE4"/>
<path d="M179.632 68.4781H153.697C153.524 68.4781 153.384 68.3379 153.384 68.1653C153.384 67.9923 153.524 67.8525 153.697 67.8525H179.632C179.805 67.8525 179.945 67.9923 179.945 68.1653C179.945 68.3384 179.805 68.4781 179.632 68.4781Z" fill="#A1BDE4"/>
<path d="M150.438 68.4781H135.972C135.799 68.4781 135.659 68.3379 135.659 68.1653C135.659 67.9923 135.799 67.8525 135.972 67.8525H150.438C150.611 67.8525 150.751 67.9923 150.751 68.1653C150.751 68.3384 150.611 68.4781 150.438 68.4781Z" fill="#A1BDE4"/>
<path d="M119.675 76.1646L114.658 71.147C114.454 70.9431 114.454 70.6137 114.658 70.4098C114.862 70.206 115.191 70.206 115.395 70.4098L119.631 74.6455L132.753 59.8756C132.944 59.6598 133.273 59.6405 133.489 59.8323C133.704 60.0237 133.723 60.3531 133.532 60.5684L119.675 76.1646Z" fill="#DB2395"/>
<path d="M127.944 108.825H111.418V92.2988H127.944V108.825ZM112.044 108.199H127.319V92.9244H112.044V108.199Z" fill="#A1BDE4"/>
<path d="M179.632 92.9234H135.972C135.799 92.9234 135.659 92.7832 135.659 92.6106C135.659 92.4376 135.799 92.2979 135.972 92.2979H179.632C179.805 92.2979 179.945 92.4381 179.945 92.6106C179.945 92.7837 179.805 92.9234 179.632 92.9234Z" fill="#A1BDE4"/>
<path d="M179.632 100.657H135.972C135.799 100.657 135.659 100.517 135.659 100.344C135.659 100.171 135.799 100.031 135.972 100.031H179.632C179.805 100.031 179.945 100.171 179.945 100.344C179.945 100.517 179.805 100.657 179.632 100.657Z" fill="#A1BDE4"/>
<path d="M171.943 104.523H135.972C135.799 104.523 135.659 104.383 135.659 104.21C135.659 104.037 135.799 103.897 135.972 103.897H171.943C172.115 103.897 172.256 104.038 172.256 104.21C172.256 104.383 172.115 104.523 171.943 104.523Z" fill="#A1BDE4"/>
<path d="M179.632 96.7896H153.697C153.524 96.7896 153.384 96.6494 153.384 96.4769C153.384 96.3038 153.524 96.1641 153.697 96.1641H179.632C179.805 96.1641 179.945 96.3038 179.945 96.4769C179.945 96.6499 179.805 96.7896 179.632 96.7896Z" fill="#A1BDE4"/>
<path d="M150.438 96.7896H135.972C135.799 96.7896 135.659 96.6494 135.659 96.4769C135.659 96.3038 135.799 96.1641 135.972 96.1641H150.438C150.611 96.1641 150.751 96.3038 150.751 96.4769C150.751 96.6499 150.611 96.7896 150.438 96.7896Z" fill="#A1BDE4"/>
<path d="M119.675 104.481L114.658 99.4629C114.454 99.2591 114.454 98.9291 114.658 98.7252C114.862 98.5214 115.191 98.5214 115.395 98.7252L119.631 102.961L132.753 88.191C132.944 87.9752 133.273 87.9559 133.489 88.1478C133.704 88.3391 133.723 88.6686 133.532 88.8839L119.675 104.481Z" fill="#DB2395"/>
<path d="M127.944 137.137H111.418V120.611H127.944V137.137ZM112.044 136.511H127.319V121.236H112.044V136.511Z" fill="#A1BDE4"/>
<path d="M179.632 121.236H135.972C135.799 121.236 135.659 121.096 135.659 120.923C135.659 120.751 135.799 120.61 135.972 120.61H179.632C179.805 120.61 179.945 120.75 179.945 120.923C179.945 121.096 179.805 121.236 179.632 121.236Z" fill="#A1BDE4"/>
<path d="M179.632 128.969H135.972C135.799 128.969 135.659 128.829 135.659 128.657C135.659 128.484 135.799 128.344 135.972 128.344H179.632C179.805 128.344 179.945 128.484 179.945 128.657C179.945 128.829 179.805 128.969 179.632 128.969Z" fill="#A1BDE4"/>
<path d="M171.943 132.836H135.972C135.799 132.836 135.659 132.695 135.659 132.523C135.659 132.35 135.799 132.21 135.972 132.21H171.943C172.115 132.21 172.256 132.35 172.256 132.523C172.256 132.695 172.115 132.836 171.943 132.836Z" fill="#A1BDE4"/>
<path d="M179.633 125.103H153.697C153.525 125.103 153.384 124.963 153.384 124.79C153.384 124.618 153.524 124.478 153.697 124.478H179.633C179.805 124.478 179.945 124.617 179.945 124.79C179.945 124.963 179.805 125.103 179.633 125.103Z" fill="#A1BDE4"/>
<path d="M150.438 125.103H135.972C135.799 125.103 135.659 124.963 135.659 124.79C135.659 124.618 135.799 124.478 135.972 124.478H150.438C150.611 124.478 150.751 124.617 150.751 124.79C150.751 124.963 150.611 125.103 150.438 125.103Z" fill="#A1BDE4"/>
<path d="M145.618 202.695C172.594 202.695 194.462 200.147 194.462 197.004C194.462 193.861 172.594 191.313 145.618 191.313C118.642 191.313 96.7744 193.861 96.7744 197.004C96.7744 200.147 118.642 202.695 145.618 202.695Z" fill="#CADDDA"/>
<path d="M66.2534 112.579C78.7019 119.628 91.1316 126.666 103.674 133.768C103.78 131.668 104.778 130.351 106.628 129.727C106.102 127.525 106.531 126.615 108.562 125.701C108.373 124.845 108.459 123.971 108.806 123.134C109.147 122.313 109.737 121.686 110.514 121.117C98.002 114.032 85.5562 106.985 73.1327 99.9502C69.5528 102.56 66.2967 108.744 66.2534 112.579Z" fill="#FFB121"/>
<path d="M63.1199 110.766C63.5885 105.552 66.057 101.522 69.7823 98.0872C69.6097 97.9668 69.4648 97.8484 69.3048 97.7561C68.1417 97.0836 66.9844 96.4007 65.8041 95.759C65.5341 95.612 65.1848 95.5551 64.872 95.5557C63.9696 95.5572 63.1892 95.9383 62.474 96.4555C60.886 97.6034 59.7861 99.1491 58.9452 100.888C58.2503 102.323 57.766 103.825 57.7243 105.441C57.7185 105.657 57.7196 105.874 57.7232 106.091C57.7446 107.252 58.2232 108.096 59.2997 108.642C60.5717 109.286 61.7963 110.024 63.1199 110.766Z" fill="#DB2395"/>
<path d="M111.648 132.688C112.551 132.571 113.517 132.419 114.387 132.267C115.015 132.157 115.344 131.577 115.109 130.985C114.791 130.185 114.425 129.33 114.075 128.562C112.264 128.76 110.985 130.894 111.648 132.688Z" fill="#DB2395"/>
<path d="M110.452 121.082C108.944 121.841 108.237 123.407 108.412 125.686C107.614 125.941 106.874 126.341 106.496 127.168C106.13 127.967 106.191 128.774 106.569 129.631C104.685 130.32 103.621 131.568 103.674 133.769C104.066 133.742 104.333 133.722 104.662 133.676C105.842 133.511 107.019 133.324 108.199 133.16C109.209 133.02 110.222 132.901 111.233 132.77C111.358 132.754 111.483 132.721 111.649 132.688C111.507 131.776 111.526 130.899 111.99 130.089C112.446 129.293 113.128 128.797 114.089 128.579C113.668 127.656 113.259 126.776 112.865 125.888C112.267 124.54 111.683 123.186 111.088 121.837C110.951 121.526 110.832 121.288 110.452 121.082Z" fill="#FFD385"/>
<path d="M77.1916 112.828C77.4351 112.851 77.8881 112.946 78.3364 112.925C79.4098 112.876 79.9582 111.946 79.4703 110.986C79.268 110.588 78.9776 110.213 78.656 109.902C77.4523 108.737 76.0254 107.928 74.4292 107.431C74.0204 107.304 73.5794 107.237 73.1509 107.224C71.9086 107.184 71.2768 108.21 71.8836 109.287C72.0937 109.659 72.36 110.023 72.6734 110.312C73.9188 111.459 75.3644 112.271 77.1916 112.828Z" fill="#110930"/>
<path d="M63.3127 110.915C63.1959 110.831 63.0843 110.749 62.9822 110.671C62.537 106.783 66.2623 100.552 69.6279 97.9531C69.7129 97.9912 69.7984 98.0313 69.8839 98.0709L73.1817 99.9518C73.1854 99.9545 73.1885 99.9565 73.1921 99.9591C69.4256 103.397 67.0453 107.584 66.2946 112.603L63.3127 110.915Z" fill="#D1BAF7"/>
<path d="M66.7509 96.4551C66.9438 96.5489 67.9901 97.2136 68.4347 97.4701C70.0107 98.3788 71.596 99.2718 73.174 100.177C74.8261 101.125 76.4708 102.085 78.1244 103.03C79.7786 103.975 91.3658 110.573 93.0189 111.52C94.5787 112.413 96.1265 113.326 97.6868 114.219C99.0985 115.027 100.52 115.819 101.936 116.619C102.961 117.198 103.985 117.78 105.008 118.362C105.082 118.405 105.144 118.473 105.221 118.506C105.384 118.573 105.515 118.507 105.607 118.368C105.707 118.215 105.668 118.062 105.533 117.969C105.287 117.8 105.025 117.653 104.765 117.505C102.591 116.262 100.415 115.024 98.243 113.777C96.0905 112.541 71.9974 98.7588 70.6571 97.9977C69.8011 97.5113 68.9712 96.9759 68.0896 96.5385C66.6758 95.8373 66.3291 96.1997 66.7509 96.4551Z" fill="#110930"/>
<path d="M106.677 119.111C106.709 119.165 106.745 119.314 106.836 119.366C107.28 119.616 107.732 119.853 108.197 120.061C108.3 120.108 108.521 120.062 108.588 119.978C108.697 119.843 108.673 119.623 108.503 119.531C108.019 119.268 107.526 119.019 107.023 118.797C106.831 118.713 106.677 118.852 106.677 119.111Z" fill="#110930"/>
<path d="M0.532715 152.109C0.642191 152.619 0.971662 152.595 1.26621 152.629C3.20602 152.852 5.27668 152.933 7.21441 153.175C7.93748 153.266 8.64855 153.449 9.37005 153.557C9.61038 153.593 9.87051 153.552 10.1145 153.506C11.0821 153.322 11.9188 153.259 12.8822 153.055C13.1918 152.989 13.5025 152.902 13.7939 152.781C14.1521 152.632 14.2965 152.33 14.2511 151.944C14.1385 150.986 14.0509 150.023 13.9013 149.069C13.7814 148.304 13.5036 148.031 12.7268 148.081C11.5533 148.156 10.3621 148.245 9.22356 148.517C7.62104 148.9 6.03207 149.383 4.49054 149.965C3.2936 150.416 2.17329 151.076 1.03005 151.664C0.822045 151.772 0.668257 151.984 0.532715 152.109Z" fill="#FFB121"/>
<path d="M54.2751 188.385C52.4766 188.941 50.8115 188.679 49.1537 187.686C48.8889 188.623 48.6126 189.498 48.3963 190.387C48.0355 191.87 48.1904 192.122 49.638 192.589C50.9309 193.005 52.2623 193.239 53.6094 193.376C54.5269 193.469 55.4481 193.533 56.3693 193.585C58.0281 193.679 59.6702 193.497 61.3061 193.247C61.4302 193.229 61.5642 193.202 61.6684 193.138C61.9578 192.962 61.9656 192.669 61.6971 192.452C61.6314 192.4 61.5506 192.364 61.4729 192.328C59.029 191.207 56.705 189.866 54.4242 188.449C54.3888 188.426 54.3466 188.414 54.2751 188.385Z" fill="#FFB121"/>
<path d="M28.9038 133.768C25.2009 140.746 25.3828 149.613 25.4198 151.786C25.4746 154.989 25.535 158.191 25.5575 161.394C25.5616 161.986 25.4334 162.587 25.2989 163.169C25.2186 163.515 25.0403 163.853 24.848 164.159C24.1332 165.295 22.9556 165.66 21.7102 165.142C20.9412 164.823 20.3177 164.299 19.7578 163.693C18.8612 162.723 18.1517 161.624 17.5355 160.46C16.2395 158.015 15.336 155.425 14.7005 152.737C14.6661 152.591 14.6281 152.446 14.5843 152.303C14.5728 152.265 14.5332 152.237 14.5097 152.207C12.7644 152.656 11.0216 153.104 9.20171 153.572C9.20171 153.748 9.18712 153.955 9.2038 154.16C9.48322 157.528 10.0113 160.85 10.9757 164.099C12.1075 167.912 13.9957 171.255 17.0068 173.905C18.661 175.36 20.508 176.478 22.7126 176.87C24.6118 177.209 26.4385 176.866 28.1854 176.106C30.2931 175.189 32.0207 173.739 33.5737 172.08C36.8585 168.571 39.1951 164.502 40.6454 159.922C40.7215 159.682 40.8044 159.444 40.9227 159.09C41.1891 159.388 41.3924 159.597 41.5754 159.822C43.7107 162.446 45.3033 165.385 46.5993 168.495C47.8526 171.501 48.7716 174.608 49.2664 177.828C49.6495 180.322 49.7924 182.83 49.3065 185.332C49.2007 185.877 49.0114 186.407 48.8566 186.942C48.7977 187.145 48.7268 187.344 48.6538 187.567C49.2684 188.197 50.0364 188.475 50.8199 188.679C51.8782 188.956 52.9453 188.926 53.9916 188.575C54.6526 188.353 55.163 187.973 55.434 187.298C56.349 185.021 57.047 182.681 57.4656 180.262C57.8211 178.207 58.0844 176.141 58.0703 174.049C58.0599 172.48 58.1214 170.906 58.0146 169.344C57.7372 165.281 56.9996 161.299 55.7432 157.415C54.419 153.321 52.6038 149.477 50.1114 145.958C49.7997 145.518 49.466 145.324 48.9233 145.243C46.9267 144.946 44.9916 144.388 43.1065 143.664C39.5386 142.296 36.2283 140.458 33.2083 138.12C31.6949 136.948 30.2952 135.641 29.1264 134.11C29.0628 134.025 29.0101 133.931 28.9038 133.768Z" fill="#110930"/>
<path d="M45.4935 114.359C47.1946 114.511 48.7022 114.941 50.1374 115.594C51.0679 116.017 51.9698 116.511 52.8555 117.024C53.724 117.527 54.6509 117.577 55.5982 117.474C56.1742 117.411 56.4943 117.074 56.4964 116.474C56.499 115.468 56.4552 114.458 56.3608 113.457C56.1982 111.722 56.1648 109.989 56.2477 108.249C56.3233 106.663 56.3562 105.075 56.4 103.487C56.4484 101.712 55.142 100.245 53.1089 99.9981C49.6505 99.579 46.2828 101.985 45.2766 104.28C44.8773 105.191 44.6182 106.188 44.4498 107.172C44.112 109.149 44.3049 111.109 44.9414 113.015C45.0958 113.479 45.3116 113.921 45.4935 114.359Z" fill="#FFD385"/>
<path d="M50.2173 96.1162C49.6282 93.0467 46.749 92.015 44.3858 92.6083C42.2636 93.1405 40.7121 94.374 40.1053 96.5541C39.5751 98.4585 40.3733 100.235 42.1098 101.195C42.2401 101.267 42.3709 101.338 42.5706 101.448C42.458 101.663 42.3558 101.864 42.2484 102.062C41.4268 103.584 40.9483 105.192 41.0171 106.937C41.1094 109.269 42.1801 111.095 44.0272 112.448C44.8331 113.039 45.7861 113.362 46.8261 113.046C47.7316 112.772 48.2274 112.141 48.4078 111.247C48.0319 111.247 47.6894 111.286 47.3589 111.24C46.5008 111.12 45.9211 110.564 45.7491 109.701C45.625 109.078 45.6771 108.454 45.9357 107.869C46.4106 106.793 47.6941 106.526 48.5517 107.338C48.8436 107.614 49.0636 107.965 49.3587 108.335C49.4462 108.112 49.5307 107.905 49.6094 107.696C50.1531 106.255 50.8647 104.906 51.9652 103.813C52.4151 103.366 52.9396 102.95 53.5047 102.672C54.7298 102.07 56.3187 102.179 56.3855 104.523C57.8024 103.276 57.8264 101.267 57.4302 99.6147C56.9693 97.6921 55.4064 96.3231 53.3817 96.0568C52.851 95.9869 52.3124 95.9353 51.7791 95.9447C51.2688 95.953 50.7605 96.0526 50.2173 96.1162Z" fill="#110930"/>
<path d="M56.2147 109.138C56.1564 110.296 56.2231 111.216 56.2679 112.261C56.8132 112.174 57.2 111.915 57.4706 111.517C57.75 111.106 57.6958 110.798 57.3486 110.43C56.9727 110.032 56.6652 109.626 56.2147 109.138Z" fill="#DB2395"/>
<path d="M54.3019 109.775C54.3066 109.108 54.0762 108.691 53.4464 108.495C53.0513 108.372 52.5998 108.338 52.1875 108.386C51.6203 108.452 51.1516 108.964 51.1156 109.524C51.064 110.331 51.283 111.068 51.9596 111.576C52.3866 111.897 53.0085 111.826 53.5257 111.461C54.0293 111.105 54.2962 110.525 54.3019 109.775Z" fill="#DB2395"/>
<path d="M55.2617 106.918C55.1829 107.324 55.3956 108.038 54.8947 108.048C54.6157 107.97 54.5855 107.712 54.5167 107.48C54.4588 107.284 54.4046 107.086 54.3322 106.895C54.3181 106.859 54.2258 106.83 54.1742 106.836C54.1215 106.842 54.0585 106.886 54.0303 106.932C54.0006 106.981 53.987 107.056 54.0001 107.112C54.0757 107.43 54.1387 107.753 54.2503 108.059C54.3499 108.332 54.5673 108.471 54.8785 108.472C55.1882 108.473 55.3857 108.33 55.5187 108.07C55.7183 107.679 55.6813 107.27 55.5896 106.864C55.5859 106.848 55.5771 106.834 55.5645 106.82C55.4686 106.712 55.2893 106.776 55.2617 106.918Z" fill="#110930"/>
<path d="M74.1592 121.419C75.8394 122.264 77.1776 123.465 77.7995 125.427C78.3328 124.95 78.8307 124.522 79.3087 124.073C79.8405 123.573 80.3357 123.034 80.8789 122.547C82.0446 121.505 82.8443 120.235 83.3296 118.756C83.6033 117.921 83.889 117.09 84.1611 116.254C84.4604 115.336 84.4374 114.433 83.9578 113.578C83.4756 112.717 82.7379 112.485 81.8288 112.899C80.7168 113.405 79.8222 114.211 78.9485 115.039C78.7165 115.259 78.5294 115.526 78.3704 115.714C78.1999 115.685 78.1472 115.692 78.1186 115.669C77.3851 115.073 76.7517 115.408 76.3643 115.997C76.0255 116.511 75.7409 117.075 75.5177 117.65C75.0397 118.884 74.6164 120.14 74.1592 121.419Z" fill="#FFD385"/>
<path d="M52.0764 133.582C51.2439 134.326 50.4671 135.021 49.6809 135.724C49.3332 134.793 49.5574 131.018 50.0328 129.899C50.2304 130.042 50.417 130.18 50.6052 130.314C52.7619 131.849 55.0051 133.235 57.4491 134.275C59.8252 135.287 62.2926 135.726 64.8716 135.512C66.2859 135.394 67.5881 134.894 68.8549 134.306C72.4895 132.622 75.2546 129.963 77.4629 126.657C78.125 125.666 78.0348 124.783 77.4618 123.846C76.7695 122.712 75.3568 121.584 74.1327 121.229C73.1532 122.118 72.2325 123.154 70.91 123.719C71.0116 123.586 71.106 123.446 71.2165 123.321C72.4895 121.88 73.6015 120.33 74.3793 118.562C74.5086 118.268 74.715 117.789 74.7301 117.377C73.3429 116.617 71.8249 115.735 70.3699 114.937C69.9606 115.47 69.603 115.978 69.2032 116.45C67.39 118.591 65.1734 120.118 62.4177 120.768C60.8887 121.129 59.3534 121.13 57.8421 120.62C56.995 120.335 56.2386 119.925 55.6266 119.246C53.6565 117.061 51.1427 115.779 48.3964 114.838C45.4531 113.83 42.7907 114.315 40.2623 116.037C38.2141 117.432 36.4896 119.154 34.9647 121.088C32.1335 124.679 30.0498 128.69 28.3164 132.931C28.9535 133.989 29.7438 134.921 30.5956 135.799C33.5202 138.814 36.9723 141.076 40.7519 142.861C43.1854 144.01 45.7143 144.89 48.362 145.386C49.3489 145.571 50.3571 145.644 51.3575 145.748C51.5775 145.771 51.8064 145.706 52.104 145.674C51.87 144.947 51.6635 144.306 51.4206 143.551C52.898 143.487 54.2842 143.498 55.6875 143.148C54.2153 140.04 52.8349 136.961 52.0764 133.582Z" fill="#DB2395"/>
<path d="M53.2986 132.107C52.1846 131.389 51.1623 130.626 50.0331 129.899C49.7724 130.452 49.602 131.838 49.5545 132.782C49.5066 133.742 49.4821 135.259 49.6812 135.725C51.2587 135.658 52.8633 134 53.2986 132.107Z" fill="#FFB121"/>
<path d="M51.9925 145.266C51.0327 143.49 50.6282 141.541 50.0829 139.645C49.1956 139.757 48.4235 139.209 48.0331 138.593C47.7292 138.113 47.5316 137.555 47.3517 137.01C47.2198 136.61 47.1635 136.178 47.1255 135.756C47.0462 134.885 47.0238 134.012 47.2798 133.155C47.9763 133.022 48.6362 133.123 49.2967 133.054C49.4125 132.118 49.4234 131.266 49.5199 130.377C49.5319 130.266 49.475 130.114 49.3948 130.037C47.7114 128.446 45.6616 127.157 44.1545 126.678C43.9762 126.621 43.8099 126.511 43.6561 126.401C43.6108 126.368 43.5972 126.233 43.6259 126.171C43.653 126.113 43.7505 126.071 43.8245 126.056C43.8792 126.044 43.9454 126.086 44.0059 126.106C45.3613 126.534 46.6433 127.118 47.7943 127.957C48.4157 128.409 49.0152 128.895 49.5944 129.4C49.6153 129.418 49.6366 129.436 49.658 129.454C50.0261 129.767 50.0334 129.901 49.9698 130.941C49.9041 131.492 49.8473 132.047 49.8311 132.6C49.7936 133.863 49.8728 135.121 50.0693 136.37C50.2414 137.464 50.3748 138.566 50.6094 139.646C50.9295 141.122 51.3168 142.585 51.9075 143.983C52.0451 144.308 52.2104 144.622 52.3866 144.928C52.6983 145.469 52.5508 145.779 51.9377 145.795C51.7813 145.799 51.6213 145.818 51.4576 145.814C51.1777 145.807 51.1818 145.387 51.4618 145.377C51.6505 145.37 51.8465 145.391 51.9925 145.266ZM49.2973 133.594C48.7812 133.494 48.2348 133.555 47.651 133.545C47.4106 134.962 47.5222 136.281 48.0383 137.567C48.3193 138.269 49.1742 139.306 49.9473 139.11C49.73 137.267 49.5162 135.452 49.2973 133.594Z" fill="#110930"/>
<path d="M68.3649 124.748C68.4634 124.631 68.354 124.455 68.2038 124.487L68.2012 124.488C67.0486 124.743 65.9059 124.648 64.7621 124.423C63.1153 124.1 61.6556 123.338 60.2569 122.46C59.0427 121.699 56.7646 120.188 55.5176 118.768C55.0224 118.232 54.5057 117.716 53.9881 117.202C53.8687 117.083 53.7139 116.992 53.5601 116.921C53.5486 116.915 53.5361 116.911 53.5236 116.909C53.3823 116.878 53.253 117.009 53.266 117.153C53.2697 117.194 53.2806 117.232 53.3067 117.258C54.1763 118.161 54.8138 118.776 55.3492 119.384C56.2162 120.368 57.3156 121.077 58.3958 121.836C59.5187 122.625 60.6614 123.379 61.9027 123.969C63.0673 124.523 64.2804 124.892 65.5722 125.05C66.3067 125.14 67.0157 125.153 67.7362 125.023C68.0808 124.962 68.2257 124.913 68.3649 124.748Z" fill="#110930"/>
<path d="M25.5548 146.511C26.5401 146.39 27.3799 146.084 28.1316 145.512C29.0664 144.8 29.7613 143.88 30.4406 142.944C31.4337 141.577 32.4137 140.2 33.4068 138.833C33.5346 138.657 33.5549 138.533 33.3182 138.389C33.0466 138.601 32.8131 138.865 32.5993 139.156C31.5353 140.604 30.4697 142.051 29.3958 143.492C28.8406 144.237 28.1848 144.898 27.4018 145.389C26.9597 145.666 26.4217 145.802 25.9124 145.954C25.6413 146.035 25.4995 146.136 25.5548 146.511Z" fill="white"/>
<path d="M58.0992 171.505C58.2025 171.161 58.2384 170.983 57.934 170.892C57.3241 170.708 56.9237 170.262 56.6229 169.73C56.2731 169.111 56.0719 168.451 55.9957 167.731C55.9269 167.085 55.9801 166.468 56.1 165.841C56.2444 165.085 56.5629 164.424 57.115 163.883C57.2693 163.731 57.444 163.588 57.2495 163.323C56.8387 163.394 56.5984 163.701 56.3716 164C55.9504 164.554 55.7163 165.202 55.5839 165.875C55.3441 167.096 55.4369 168.297 55.9139 169.456C56.1954 170.14 56.5645 170.762 57.2412 171.129C57.4966 171.267 57.7745 171.364 58.0992 171.505Z" fill="white"/>
<path d="M40.9827 159.079C41.3471 159.042 41.3789 158.79 41.4509 158.609C42.0264 157.172 42.8522 155.876 43.7056 154.596C44.4896 153.422 45.3315 152.292 46.3564 151.31C46.4331 151.236 46.5014 151.152 46.5655 151.067C46.5884 151.036 46.5884 150.988 46.6135 150.894C46.4993 150.879 46.3674 150.818 46.2897 150.86C46.1041 150.959 45.918 151.083 45.7794 151.239C45.2544 151.829 44.708 152.407 44.2436 153.044C43.1728 154.511 42.1588 156.019 41.3894 157.673C41.2194 158.039 41.0927 158.425 40.9588 158.807C40.9348 158.875 40.9707 158.964 40.9827 159.079Z" fill="white"/>
<path d="M22.1729 176.557C22.3089 176.61 22.4319 176.707 22.5065 176.678C22.6379 176.626 22.7468 176.506 22.8526 176.402C23.8609 175.403 25.0907 174.886 26.4742 174.634C27.607 174.427 28.6789 174.559 29.7351 174.969C29.7747 174.984 29.8174 175.017 29.8534 175.011C29.9316 174.998 30.0645 174.975 30.0713 174.938C30.0875 174.849 30.0718 174.689 30.0186 174.664C29.6918 174.509 29.3618 174.329 29.0125 174.259C26.8173 173.821 24.8175 174.305 23.0148 175.615C22.7739 175.79 22.5737 176.022 22.3652 176.238C22.2948 176.31 22.2568 176.413 22.1729 176.557Z" fill="white"/>
<path d="M76.5509 127.43C76.651 127.585 76.9023 127.515 76.92 127.331C76.933 127.195 76.8856 127.069 76.8173 126.945C75.9618 125.385 74.9161 123.991 73.3871 123.021C73.2067 122.906 73.0148 122.793 72.8126 122.737C72.6937 122.703 72.4789 122.736 72.421 122.819C72.3105 122.976 72.4716 123.065 72.6077 123.153C73.0383 123.43 73.4647 123.714 73.8802 124.013C74.8228 124.691 75.4457 125.643 76.0619 126.598C76.2355 126.867 76.3789 127.157 76.5499 127.428L76.5509 127.43Z" fill="#110930"/>
<path d="M73.1698 120.283C73.296 120.418 73.5311 120.303 73.5149 120.12C73.5034 119.984 73.4325 119.869 73.345 119.758C72.5494 118.747 71.3551 117.791 69.678 117.109C69.4799 117.029 69.2714 116.951 69.0618 116.931C68.9388 116.919 68.7334 116.99 68.6912 117.082C68.6109 117.256 68.785 117.315 68.9341 117.377C69.4069 117.573 71.5172 118.424 73.1677 120.281C73.1682 120.282 73.1688 120.283 73.1698 120.283Z" fill="#110930"/>
<path d="M4.12646 152.598C4.28286 152.58 4.40433 152.585 4.51224 152.55C5.26502 152.304 6.0251 152.345 6.79195 152.463C7.17043 152.521 7.55568 152.537 7.93572 152.589C8.71612 152.696 9.49497 152.818 10.2759 152.922C10.3765 152.935 10.4881 152.869 10.7003 152.811C10.5246 152.699 10.4505 152.619 10.3635 152.601C9.67535 152.464 8.98773 152.32 8.29438 152.216C7.64274 152.117 6.98432 152.066 6.32902 151.99C5.72586 151.92 5.13417 152.004 4.55186 152.144C4.38295 152.184 4.16556 152.239 4.12646 152.598Z" fill="#110930"/>
<path d="M58.8192 190.949C58.0112 191.033 57.4549 190.52 56.8419 190.155C56.0896 189.707 55.3592 189.223 54.6132 188.764C54.4329 188.653 54.2322 188.569 54.032 188.498C53.9757 188.479 53.8516 188.531 53.8229 188.584C53.7927 188.641 53.8109 188.768 53.8573 188.812C53.9809 188.928 54.1263 189.023 54.2713 189.112C55.219 189.69 56.1662 190.269 57.1197 190.839C57.3945 191.003 57.6781 191.163 57.9768 191.272C58.1676 191.342 58.397 191.342 58.6034 191.319C58.6962 191.308 58.7739 191.166 58.8583 191.083C58.8453 191.039 58.8323 190.994 58.8192 190.949Z" fill="#110930"/>
<path d="M48.0277 110.439C48.1309 110.506 48.268 110.425 48.2753 110.302C48.2831 110.17 48.2888 110.063 48.2591 109.968C48.035 109.254 47.7284 108.577 47.3223 107.946C47.2994 107.911 47.2723 107.864 47.2373 107.854C47.1633 107.832 47.0664 107.799 47.0106 107.83C46.9574 107.858 46.899 107.981 46.9199 108.028C47.2712 108.826 47.6335 109.619 48.0005 110.411C48.0052 110.422 48.0146 110.431 48.0277 110.439Z" fill="#110930"/>
<path d="M35.8467 127.458C35.4671 127.652 35.353 128.044 35.2232 128.42C35.2091 128.461 35.2581 128.547 35.3019 128.578C35.3457 128.61 35.4567 128.626 35.4755 128.601C35.6407 128.384 35.8143 128.167 35.9379 127.926C35.9937 127.816 35.9441 127.652 35.9384 127.513C35.9384 127.502 35.9061 127.493 35.8467 127.458Z" fill="#110930"/>
<path d="M43.3534 140.957C43.528 140.68 43.7157 140.406 43.7428 140.059C43.7595 139.85 43.4832 139.762 43.368 139.937C43.2345 140.14 43.2121 140.385 43.1235 140.585C43.0802 140.683 43.0124 140.969 43.1964 140.969C43.2491 140.965 43.3012 140.961 43.3534 140.957Z" fill="#110930"/>
<path d="M34.1018 129.262C33.7254 129.383 33.6102 129.686 33.544 130.017C33.5205 130.134 33.7129 130.228 33.8208 130.164C34.0298 130.038 34.1669 129.624 34.1018 129.262Z" fill="#110930"/>
<path d="M35.1296 126.536C34.9972 126.73 35.2709 126.875 35.4658 126.667C35.6087 126.524 35.7307 126.354 35.8334 126.179C35.8558 126.14 35.7875 126.014 35.7296 125.974C35.678 125.938 35.543 125.933 35.5128 125.97C35.384 126.128 35.2808 126.306 35.1296 126.536Z" fill="#110930"/>
</svg>
